<svg width="85" height="23" viewBox="0 0 85 23" fill="none" xmlns="http://www.w3.org/2000/svg">
<g clip-path="url(#clip0_549_17941)">
<path d="M49.2299 0H0V23H49.2299V0Z" fill="#00927B"/>
<path d="M85.0001 0H61.0508V23H85.0001V0Z" fill="#DB9A00"/>
<path d="M61.2714 0H49.0024V23H61.2714V0Z" fill="#231815"/>
<path d="M32.0172 13.5315C32.0105 14.3843 31.7697 15.0827 30.7395 15.0895C29.7092 15.0895 29.4684 14.3911 29.4617 13.5315V7.36011H28.3245V13.5382C28.3245 14.9149 29.0938 16.0027 30.7395 16.0027C32.3851 16.0027 33.1545 14.9149 33.1545 13.5382V7.36011H32.0172V13.5315Z" fill="white"/>
<path d="M10.7169 10.9797H8.16143V7.36011H7.02417V15.9289H8.16143V11.9332H10.7169V15.9289H11.8542V7.36011H10.7169V10.9797Z" fill="white"/>
<path d="M43.8513 13.4711L41.5768 7.36011H39.8843V15.9289H41.0015V8.68974L43.7443 15.9289H44.9618V7.36011H43.8513V13.4711Z" fill="white"/>
<path d="M20.0558 10.9931L18.5439 7.36011H17.3599L19.4805 12.3093V15.9289H20.6178V12.2892L22.7117 7.36011H21.5276L20.0558 10.9931Z" fill="white"/>
<path d="M78.0091 7.36011H76.9053V15.9289H78.0091V7.36011Z" fill="white"/>
<path d="M54.3409 14.9685H53.8593V8.30685H54.3409C55.7525 8.30685 56.5285 8.74335 56.5419 11.6444C56.5285 14.5387 55.7525 14.9617 54.3409 14.9685ZM54.5617 7.35999H52.7488V15.9288H54.5617C55.5116 15.9288 56.2943 15.6803 56.8295 15.0088C57.3647 14.3439 57.6524 13.2762 57.6524 11.6377C57.6524 9.99912 57.3647 8.93809 56.8295 8.27328C56.2943 7.60846 55.5116 7.35328 54.5617 7.35999Z" fill="white"/>
<path d="M66.0413 12.5511L66.9913 8.25996L67.9479 12.5511H66.0413ZM66.2353 7.36682V7.4004L64.2017 15.9222H65.3456L65.8808 13.5181H68.1152L68.6503 15.9222H69.7943L67.774 7.36011H66.2353V7.36682Z" fill="white"/>
</g>
<defs>
<clipPath id="clip0_549_17941">
<rect width="85" height="23" fill="white"/>
</clipPath>
</defs>
</svg>
