<svg width="75" height="75" viewBox="0 0 75 75" fill="none" xmlns="http://www.w3.org/2000/svg">
<mask id="mask0_218_19956" style="mask-type:alpha" maskUnits="userSpaceOnUse" x="0" y="0" width="75" height="75">
<ellipse cx="37.0739" cy="37.5" rx="37.0739" ry="37.5" fill="#D9D9D9"/>
</mask>
<g mask="url(#mask0_218_19956)">
<ellipse cx="37.0739" cy="37.5" rx="37.0739" ry="37.5" fill="#3C68AB"/>
<path d="M8.48078 67.6431C7.60744 68.4496 4.28795 73.013 3.14194 84.4416C2.74676 88.3686 1.90504 96.1012 1.06726 98.3464C1.41897 98.6058 5.5209 99.3879 9.52009 99.7081C12.6064 99.9553 15.5505 99.7729 17.1549 99.8418C18.455 106.545 17.8741 111.108 17.8386 114.128C17.7437 122.683 15.7757 130.274 14.7562 132.434C12.6459 136.896 10.4092 146.59 15.2976 149.301C19.5773 151.672 18.6447 149.062 26.9592 150.796C31.9503 151.838 36.3407 154.314 41.5768 154.849C55.5384 156.276 71.0531 156.409 72.3967 149.119C72.8906 143.692 71.4443 137.187 71.5075 132.786C71.63 124.024 72.9776 119.121 74.1552 116.328C75.6411 121.73 80.5492 110.727 83.426 99.7446C86.5084 98.7962 87.0696 97.5561 87.1565 97.2846C84.8684 89.2076 81.6754 80.8266 80.3002 73.5115C79.332 68.3564 75.8228 62.4638 71.6656 59.5783C66.303 55.8579 62.7267 56.0565 57.538 55.3756C51.7408 54.6137 47.7416 54.095 47.7416 54.095L47.5163 62.7029L38.2218 64.8711C38.2218 64.8711 34.104 61.2845 32.302 57.0129C31.9345 56.1456 25.6512 57.2601 18.6368 60.632C14.2069 62.7596 11.3735 64.9846 8.48868 67.6512L8.48078 67.6431Z" fill="#D5E7F1"/>
<path d="M24.7608 34.1029C23.2235 34.2163 20.7655 38.5406 23.5832 42.3704C24.5909 43.7402 28.3292 44.2792 28.3292 44.2792C28.3292 44.2792 28.8113 48.3684 31.8305 49.5558C32.0004 51.6024 31.9095 53.649 32.0083 56.3643C31.8542 56.8142 28.922 57.2681 28.8548 57.183C28.8548 57.183 30.5383 63.8983 35.0907 66.719C35.7783 67.1445 42.0932 68.4252 45.6301 66.2286C50.7753 63.0351 52.6761 58.3988 52.9962 57.5599C53.2649 56.8507 53.7746 55.2093 53.091 54.7351C52.0359 54.7149 50.1548 54.4312 48.9574 54.3663C47.4084 54.0948 46.8314 49.3775 45.9936 45.5031C46.2465 43.9671 46.3809 42.4271 46.2702 41.7827C47.9537 41.1343 48.6848 40.571 49.3882 39.6672C51.6446 36.7574 50.8899 33.4098 49.5384 32.2427C47.764 30.7148 45.5392 31.6793 45.5392 31.6793C45.5392 31.6793 45.8988 23.9225 40.9551 20.1859C36.0115 16.4493 34.1581 17.7502 34.1581 17.7502C34.1581 17.7502 27.2306 22.6783 26.0056 26.192C24.7805 29.7057 24.7608 34.115 24.7608 34.115V34.1029Z" fill="#FFD9CA"/>
<path d="M21.7834 20.125C20.586 22.7228 17.4957 27.9426 21.325 29.199C21.3092 32.583 25.3044 34.2973 26.4899 34.4553C26.4899 34.4553 25.7193 29.199 25.5573 26.8363C26.5136 26.893 28.7464 27.0429 29.2799 26.2081C33.8718 26.3054 36.3219 24.8099 37.1241 23.6833C37.381 23.3226 38.9538 23.59 39.8311 20.2263C39.8983 22.1027 40.9297 26.2567 43.4509 28.4249C45 29.7542 44.7076 32.3236 45.6204 33.6124C46.5293 32.4857 48.3274 33.7461 48.7107 28.2871C49.094 22.8281 46.5926 15.7521 41.8742 14.6782C38.9222 14.0054 38.8866 14.974 38.8866 14.974C38.8866 14.974 35.251 9.30023 25.3202 17.1908C23.8699 18.3459 22.2497 19.0997 21.7794 20.1209L21.7834 20.125Z" fill="#9C6267"/>
<path d="M35.3355 39.9225C36.1772 40.344 37.9239 40.9762 38.4455 39.7199C38.6194 39.3024 38.2677 38.9296 37.8527 39.1119C37.5089 39.2659 37.2363 39.4888 36.8529 39.5496C36.4143 39.6226 35.9678 39.5132 35.541 39.4118C35.2525 39.343 35.043 39.7766 35.3315 39.9225H35.3355Z" fill="#010101"/>
<path d="M33.5474 31.5167C32.1919 30.4103 30.137 30.463 28.8882 31.7599C28.6195 32.0354 28.9594 32.461 29.2834 32.2867C30.5914 31.5937 31.86 31.0223 33.2549 31.9058C33.4802 32.0517 33.7647 31.695 33.5474 31.5167Z" fill="#010101"/>
<path d="M32.2459 34.1917C31.4951 34.2565 31.3489 35.8614 32.1946 36.368C33.0363 36.8786 33.0165 34.1228 32.2459 34.1917Z" fill="#010101"/>
<path d="M34.66 33.4462C34.9366 35.0997 35.3792 36.8423 35.1935 38.5323C35.1579 38.8403 35.64 38.893 35.7151 38.6053C36.1459 36.9761 35.4622 34.9052 35.1737 33.3043C35.1105 32.9599 34.6047 33.1058 34.66 33.4502V33.4462Z" fill="#010101"/>
<path d="M39.3044 35.2578C40.0591 35.2172 40.2567 33.6245 39.4308 33.0815C38.6049 32.5425 38.5338 35.2943 39.3044 35.2578Z" fill="#010101"/>
<path d="M24.2992 34.2771C22.185 35.7644 21.6278 38.6905 22.4656 41.1261C23.2718 43.4726 25.9669 44.8181 28.2747 44.6844C28.5948 44.6682 28.6778 44.194 28.3537 44.1008C26.4964 43.5578 24.4692 43.1687 23.418 41.2882C22.2206 39.1444 22.6039 36.0521 24.4652 34.4919C24.5838 34.3905 24.4257 34.1839 24.2992 34.273V34.2771Z" fill="#010101"/>
<path d="M26.3181 36.0563C26.9306 39.9104 27.1559 43.5943 28.9658 47.1201C30.1671 49.4545 32.6923 50.3744 34.9329 51.4119C35.2965 51.5781 35.6166 51.0431 35.2491 50.8527C32.8701 49.6287 30.4082 48.8993 29.1199 46.3339C27.4641 43.0391 27.2191 39.5618 26.5908 35.9792C26.5592 35.7928 26.2865 35.8739 26.3181 36.0563Z" fill="#010101"/>
<path d="M47.1812 41.4135C49.0899 40.4044 50.6509 39.2372 51.0421 36.9475C51.3622 35.0792 51.1211 32.8218 49.6985 31.4925C49.3468 31.1643 48.758 31.5817 49.0188 32.0315C49.817 33.3932 50.1213 34.9495 50.0462 36.5341C49.9435 38.755 48.6197 39.8573 46.9085 40.9353C46.6082 41.1217 46.873 41.5797 47.1812 41.4176V41.4135Z" fill="#010101"/>
<path d="M45.4651 33.8472C45.9235 36.4531 45.9749 39.0388 46.2159 41.6649C46.2476 41.9932 46.7099 42.0053 46.7218 41.6649C46.8048 39.0306 46.3147 36.3194 45.8603 33.7378C45.8129 33.4744 45.4216 33.5838 45.4691 33.8472H45.4651Z" fill="#010101"/>
<path d="M46.3881 38.7394C46.641 38.2166 46.9888 37.8194 47.4353 37.4627C47.6369 37.3006 47.8503 37.1588 48.0795 37.0372C48.3245 36.9075 48.5932 36.863 48.7631 36.6319C48.8935 36.4617 48.8896 36.1294 48.6209 36.0808C48.0597 35.9835 47.4709 36.5144 47.0797 36.8913C46.6213 37.3371 46.2775 37.9248 46.0087 38.5124C45.8941 38.7677 46.2577 38.9947 46.3802 38.7353L46.3881 38.7394Z" fill="#010101"/>
<path d="M47.7855 33.3817C48.074 34.2287 48.236 35.0352 48.2795 35.9349C48.2914 36.2064 48.6549 36.2591 48.7419 35.9998C49.058 35.0433 48.6035 34.0666 48.24 33.1912C48.1293 32.9278 47.6986 33.1142 47.7895 33.3858L47.7855 33.3817Z" fill="#010101"/>
<path d="M46.9945 34.8C46.7693 35.2579 46.5677 35.724 46.3859 36.2022C46.2279 36.6196 46.9313 36.8385 47.0538 36.3927C47.1763 35.9266 47.3225 35.4687 47.4885 35.0188C47.5991 34.723 47.1289 34.5244 46.9906 34.804L46.9945 34.8Z" fill="#010101"/>
<path d="M24.8306 34.7792C24.4118 36.3192 23.7992 38.3537 24.6054 39.8653C24.7832 40.1976 25.2061 39.9504 25.1586 39.6262C25.044 38.8359 24.8306 38.0984 24.8464 37.2878C24.8623 36.4651 25.0085 35.6829 25.2258 34.8927C25.2969 34.6333 24.9018 34.5239 24.8346 34.7832L24.8306 34.7792Z" fill="#010101"/>
<path d="M24.1276 40.3765C24.8231 40.2914 25.3803 40.2589 25.8742 40.8142C26.1825 41.1627 26.7397 40.7129 26.5065 40.3157C25.9928 39.4403 24.8666 39.6186 24.0604 39.8415C23.7798 39.9185 23.8272 40.413 24.1315 40.3765H24.1276Z" fill="#010101"/>
<path d="M25.4999 38.4437C25.7172 38.5045 25.9583 38.6099 26.1836 38.5937C26.5195 38.5694 26.5511 38.1438 26.2586 38.0223C26.0531 37.9372 25.7844 37.9615 25.5631 37.9453C25.2826 37.929 25.2312 38.3708 25.4959 38.4437H25.4999Z" fill="#010101"/>
<path d="M40.2514 14.9009C44.6023 13.6851 47.0089 19.6547 47.8348 23.0103C48.5422 25.8959 48.3644 28.4369 47.744 31.2859C47.6768 31.5939 48.0561 31.7479 48.23 31.4967C50.194 28.5949 48.7675 23.3183 47.5819 20.4288C46.4122 17.5716 43.7961 13.2798 40.1763 14.6172C40.0064 14.678 40.0736 14.9495 40.2514 14.8968V14.9009Z" fill="#010101"/>
<path d="M38.5163 14.796C37.8998 12.7291 34.77 13.1141 33.1656 13.26C30.024 13.5478 27.7873 15.5052 25.0764 16.9358C22.1718 18.4677 20.8045 20.6967 19.6387 23.7565C18.797 25.9612 18.4216 28.6441 21.0258 29.6005C21.5119 29.7788 21.7213 28.9885 21.2392 28.8062C18.4888 27.7768 20.3303 23.9551 21.176 22.1354C21.6581 21.102 22.1165 19.9834 22.9226 19.1688C23.8987 18.1881 25.1949 17.5761 26.3844 16.9358C28.0125 16.0564 29.3522 14.7028 31.1226 14.1111C32.6203 13.6126 37.5205 12.6926 38.2199 14.873C38.2832 15.0635 38.5756 14.9865 38.5163 14.7879V14.796Z" fill="#010101"/>
<path d="M25.5528 26.8766C25.537 30.1836 26.1693 33.4987 26.4182 36.7936C26.4498 37.1867 27.0228 37.1988 27.0228 36.7936C27.0228 33.4582 25.8531 30.2241 25.8492 26.8766C25.8492 26.6821 25.5528 26.6821 25.5528 26.8766Z" fill="#010101"/>
<path d="M39.8163 20.8745C39.7689 23.2008 40.4684 25.1947 41.9266 26.9779C43.3927 28.7692 44.7363 30.7631 44.8548 33.2069C44.8746 33.6162 45.4397 33.6121 45.4713 33.2069C45.5859 31.7074 44.9062 29.9201 44.1396 28.6638C43.6496 27.8654 42.962 27.2413 42.3534 26.5402C40.9228 24.8907 40.2194 23.0913 40.1878 20.8745C40.1878 20.6313 39.8242 20.6313 39.8163 20.8745Z" fill="#010101"/>
<path d="M44.9628 25.0696C45.4726 27.5134 45.7018 29.9693 45.8401 32.4617C45.8559 32.7778 46.3222 32.7819 46.3222 32.4617C46.3025 29.9288 45.9073 27.4283 45.3224 24.9683C45.2671 24.7292 44.9154 24.8305 44.9668 25.0696H44.9628Z" fill="#010101"/>
<path d="M47.3731 30.4997C46.8593 31.5129 46.3219 32.5585 45.3695 33.2029C45.0297 33.4339 45.3616 34.0012 45.6857 33.7621C46.7092 33.0083 47.2743 31.8979 47.7999 30.755C47.9342 30.4632 47.5232 30.2079 47.3731 30.4997Z" fill="#010101"/>
<path d="M40.7332 16.4859C42.5312 18.0786 44.0527 19.6592 44.7126 22.0625C44.7719 22.2732 45.1236 22.2448 45.0999 22.0098C44.8588 19.4809 42.7565 17.7382 40.9584 16.2549C40.8004 16.1252 40.5712 16.3481 40.7332 16.4859Z" fill="#010101"/>
<path d="M39.8332 16.798C42.0067 19.72 43.4372 22.9864 44.3501 26.5325C44.4054 26.7554 44.7294 26.6622 44.682 26.4393C43.943 22.796 42.311 19.5214 40.0664 16.6156C39.9636 16.4818 39.7305 16.6642 39.8332 16.798Z" fill="#010101"/>
<path d="M20.6946 27.8536C20.7736 30.812 23.5004 34.35 26.3101 35.0511C26.7369 35.1565 26.9068 34.5121 26.4919 34.3784C25.2312 33.9772 24.1959 33.2193 23.3344 32.2021C22.3306 31.0187 21.1728 29.4503 21.0542 27.8536C21.0384 27.6225 20.6907 27.6144 20.6946 27.8536Z" fill="#010101"/>
<path d="M23.1798 29.2071C23.4999 30.5324 23.9662 32.04 24.804 33.1302C25.0411 33.4382 25.4679 33.0451 25.3098 32.733C24.6973 31.505 23.9978 30.4311 23.5631 29.1018C23.4841 28.8546 23.1205 28.9559 23.1837 29.2112L23.1798 29.2071Z" fill="#010101"/>
<path d="M21.9807 25.1589C22.5023 25.937 23.1149 26.6178 23.8697 27.1568C24.1147 27.3311 24.332 26.9299 24.0989 26.7516C23.4152 26.2247 22.775 25.6371 22.2336 24.9562C22.119 24.8144 21.878 25.0008 21.9807 25.1548V25.1589Z" fill="#010101"/>
<path d="M41.154 41.7464C38.4826 42.4434 35.752 42.8973 33.0055 43.104C32.6103 43.1324 32.6142 43.7768 33.0055 43.7362C35.8191 43.4404 38.5221 42.8649 41.2212 41.9895C41.3714 41.9409 41.3121 41.7058 41.154 41.7464Z" fill="#010101"/>
<path d="M40.9895 42.8285C39.9146 45.3655 37.18 46.3098 34.805 44.9927C34.2597 44.6887 33.7775 45.5276 34.3189 45.8437C37.0733 47.4608 40.3968 46.0747 41.2464 42.9379C41.2899 42.7839 41.0527 42.6705 40.9856 42.8245L40.9895 42.8285Z" fill="#010101"/>
<path d="M39.7622 20.2221C38.545 22.2525 37.1185 24.2018 34.8501 25.0286C34.4273 25.1826 34.6012 25.8675 35.0359 25.7256C37.5176 24.9029 38.9363 22.682 40.0902 20.4247C40.2048 20.2018 39.8887 20.0113 39.7582 20.2261L39.7622 20.2221Z" fill="#010101"/>
<path d="M35.3806 20.2469C34.4164 21.5883 33.4403 22.9582 32.1758 24.024C30.7531 25.2236 29.0341 25.9207 27.3072 26.5124C26.833 26.6745 27.0424 27.4526 27.5127 27.2824C29.1764 26.6785 30.8005 25.9815 32.1758 24.8183C33.6103 23.6025 34.6575 21.9977 35.677 20.4252C35.8035 20.2307 35.5071 20.0645 35.3767 20.2469H35.3806Z" fill="#010101"/>
<path d="M29.7319 21.2072C28.1433 23.6145 26.531 25.8394 23.8675 27.035C23.2787 27.2984 23.7884 28.1819 24.3733 27.9225C27.0882 26.7027 28.6768 23.9468 30.0955 21.4261C30.2338 21.1829 29.8821 20.9803 29.7319 21.2072Z" fill="#010101"/>
<path d="M41.8292 30.0216C40.4421 28.5464 38.3516 28.5828 36.7432 29.6609C36.3797 29.904 36.7116 30.4998 37.087 30.2607C38.5136 29.3529 40.2287 29.053 41.5842 30.2688C41.7501 30.4187 41.9833 30.1837 41.8292 30.0175V30.0216Z" fill="#010101"/>
<path d="M31.3418 56.8545C26.8763 57.049 22.4701 58.5607 18.4788 60.5506C14.2267 62.6701 9.66634 65.6894 7.01866 69.8231C4.62784 73.5597 4.00741 78.5405 3.39884 82.8607C2.71518 87.728 2.27654 92.6236 1.48618 97.4747C1.419 97.8921 2.01967 98.0826 2.11847 97.653C3.09851 93.3936 3.30795 88.9397 3.83749 84.6114C4.38678 80.1332 4.88075 75.1767 6.90406 71.0957C9.04592 66.7796 13.5944 63.6022 17.6489 61.3854C21.8299 59.0997 26.576 57.3408 31.3457 57.0895C31.488 57.0814 31.488 56.8545 31.3457 56.8626L31.3418 56.8545Z" fill="#010101"/>
<path d="M47.9813 54.2001C49.8584 54.6783 51.858 54.7715 53.7746 54.9904C56.0153 55.2457 58.2362 55.6428 60.4808 55.9063C63.9978 56.3196 67.4359 56.9316 70.376 59.0876C73.079 61.0735 75.9519 63.8536 77.5445 66.881C78.8446 69.3531 79.4651 72.4048 80.2712 75.0674C81.5555 79.3309 82.7806 83.6105 83.9898 87.8942C84.8395 90.9013 85.6812 93.9125 86.5624 96.9115C86.6889 97.3411 87.3291 97.1627 87.2184 96.7251C85.3374 89.5234 83.1718 82.3866 80.9786 75.2822C80.1131 72.4778 79.4295 69.3045 78.0622 66.6905C75.3908 61.576 69.9452 57.1748 64.4167 56.0481C61.441 55.4402 58.3705 55.2254 55.3672 54.7877C52.9526 54.4351 50.4433 54.4554 48.0643 53.8678C47.8549 53.8151 47.7679 54.1433 47.9774 54.196L47.9813 54.2001Z" fill="#010101"/>
<path d="M28.811 57.669C29.4117 60.4856 30.9608 63.513 32.988 65.5191C35.2129 67.7237 38.9987 68.1169 41.9348 67.74C45.689 67.2617 48.6647 64.7085 51.0753 61.8838C52.822 59.8372 53.2369 57.442 53.308 54.747C53.3199 54.3215 52.6362 54.208 52.5691 54.6457C52.2332 56.8463 52.0158 59.1847 50.5497 60.8949C48.4078 63.3995 45.859 65.8879 42.6027 66.6538C39.544 67.3712 35.3868 67.1199 33.0355 64.7693C31.1702 62.901 29.6528 60.2019 29.0837 57.592C29.0442 57.4096 28.7715 57.4866 28.811 57.669Z" fill="#010101"/>
<path d="M73.4796 66.0422C71.8198 67.6754 69.9546 69.6167 68.9667 71.7808C68.8284 72.0888 69.2077 72.3077 69.4053 72.0443C70.8477 70.0787 72.0332 68.0807 73.7839 66.3583C73.9854 66.1597 73.6772 65.8477 73.4796 66.0463V66.0422Z" fill="#010101"/>
<path d="M37.2702 71.5013C45.0156 71.6147 52.6149 67.3878 55.4839 59.7322C55.5866 59.4647 55.1638 59.2864 55.0334 59.5377C51.4294 66.4394 45.1461 71.2216 37.2702 71.1081C37.0252 71.1081 37.0252 71.4972 37.2702 71.5013Z" fill="#010101"/>
<path d="M37.0007 51.6901C34.583 52.7827 31.8205 50.5284 25.4658 54.9755C24.1358 55.9055 23.3431 55.7791 22.361 56.5828C18.2434 59.9508 17.0236 63.513 15.8742 65.3731C13.8088 68.7186 9.17591 79.026 9.14068 88.4213C9.10105 98.0244 10.8318 99.7897 12.8707 100.896C14.9097 102.002 26.9366 98.2591 29.9357 97.6451C30.4113 97.5458 31.3845 94.9272 31.1467 93.4373C30.7151 90.742 30.2087 84.6018 29.6098 78.9176C28.4516 67.9375 29.2732 56.5873 31.0083 56.5828C35.4209 56.5737 43.7091 51.4945 47.7607 54.059C49.8778 56.0274 50.8925 63.5777 50.0998 66.9728C49.175 70.9413 50.1408 76.7509 48.6963 85.1214C46.9612 95.1759 48.2579 102.323 49.6319 102.792C51.094 103.293 53.0222 102.464 59.4563 102.315C68.3449 100.404 75.3623 101.837 74.8945 98.9716C74.8945 94.6732 66.4736 76.5247 63.6667 70.316C61.9888 61.7062 56.5992 55.5833 53.8424 53.1227C51.0812 50.6621 42.9987 48.9812 37.0007 51.6901Z" fill="white"/>
<path d="M47.8455 53.8047C49.4024 56.7744 50.3638 60.1949 50.2111 63.5864C50.1432 65.1324 49.8261 66.6812 49.6497 68.2169C49.182 72.3209 48.8784 76.449 48.6819 80.5785C48.4675 85.1174 48.3848 89.672 48.6027 94.211C48.7725 97.789 48.9956 101.601 50.3219 104.959C50.4653 105.315 50.9674 105.071 50.8508 104.715C49.6022 100.988 49.3266 96.9198 49.1558 93.0131C48.9443 88.135 49.0552 83.2378 49.3027 78.3601C49.7244 70.1149 52.2221 61.3076 48.1941 53.6352C48.0755 53.4119 47.7255 53.5724 47.8442 53.7958L47.8455 53.8047Z" fill="#010101"/>
<path d="M47.4941 50.882C48.6045 51.6198 49.9319 51.9668 51.17 52.4011C53.0251 53.0528 54.1194 53.7429 55.1412 55.509C55.371 55.9066 55.9553 55.7637 55.9118 55.2726C55.785 53.7941 54.2456 52.7268 52.9987 52.2346C51.301 51.5625 49.3639 51.4263 47.7622 50.506C47.5131 50.3627 47.2416 50.7164 47.4941 50.882Z" fill="#010101"/>
<path d="M55.6836 55.4087C57.9318 57.4738 59.3522 60.4835 60.6879 63.2005C62.3229 66.5371 63.7598 69.9781 65.1613 73.4203C68.4665 81.5271 71.0387 90.0882 74.7885 97.9829C75.0366 98.501 75.7723 98.1513 75.58 97.6198C72.4278 88.9953 69.0031 80.3958 65.3935 71.958C63.8928 68.4493 62.3398 64.949 60.5401 61.5837C59.2938 59.25 57.9515 56.7534 55.9981 54.9567C55.7391 54.7191 55.4239 55.1665 55.6822 55.3997L55.6836 55.4087Z" fill="#010101"/>
<path d="M24.5275 55.0376C18.2565 58.0761 14.773 65.8506 12.3069 72.0765C10.9285 75.562 9.87594 79.1603 9.2594 82.876C8.78819 85.7203 7.64759 90.6912 9.42675 93.3007C9.74823 93.7703 10.4749 93.3549 10.1886 92.8447C9.4884 91.5941 9.66015 89.716 9.713 88.3299C9.80107 85.9641 10.0917 83.6119 10.5321 81.2913C11.1178 78.2122 11.9942 75.2189 13.0952 72.2978C15.3763 66.2569 18.7013 58.3605 24.7345 55.4033C24.9723 55.2859 24.7654 54.9202 24.5275 55.0376Z" fill="#010101"/>
<path d="M31.3099 52.1758C28.879 52.7898 25.9857 53.4039 24.1272 55.2549C23.8014 55.58 24.2373 56.2031 24.6293 55.9186C26.7784 54.352 28.9098 53.4129 31.4376 52.6499C31.7371 52.5596 31.6094 52.0991 31.3099 52.1758Z" fill="#010101"/>
<path d="M30.262 56.7852C28.5709 62.1804 28.6413 67.833 28.8439 73.4359C29.0685 79.5941 29.4781 86.2173 31.0326 92.1904C31.1736 92.7277 32.0499 92.6374 32.0059 92.055C31.7901 89.1429 31.1031 86.2534 30.6935 83.3594C30.2443 80.1855 29.9493 77.0071 29.7819 73.8016C29.4913 68.1896 29.0069 62.3429 30.6583 56.8935C30.7376 56.6317 30.3412 56.5233 30.262 56.7807V56.7852Z" fill="#010101"/>
<path d="M29.7555 53.4401C27.3687 57.8963 25.2284 62.6413 24.374 67.6844C23.4668 73.0435 23.8852 78.5155 24.4225 83.8881C24.4621 84.2764 25.0522 84.2899 25.0302 83.8881C24.6955 78.5742 24.2155 73.1699 25.0654 67.8785C25.8757 62.8219 28.0865 58.28 30.077 53.6343C30.1695 53.4175 29.8744 53.2234 29.7555 53.4401Z" fill="#010101"/>
<path d="M21.9866 62.2442C19.3531 72.6102 16.6183 82.9447 13.9451 93.3017C13.8174 93.7938 14.5661 94.006 14.6894 93.5139C17.2568 83.1298 19.7538 72.7276 22.3565 62.3525C22.4182 62.1042 22.0482 62.0004 21.9866 62.2487V62.2442Z" fill="#010101"/>
<path d="M52.9138 55.3915C55.8655 61.8182 58.1235 68.5192 60.1491 75.3029C62.3047 82.5319 64.4613 89.7379 65.7545 97.1859C65.8303 97.6262 66.4607 97.5217 66.4203 97.0804C65.7802 89.8533 63.1516 82.7083 61.001 75.8349C58.8069 68.8221 56.395 61.8713 53.2557 55.2368C53.1508 55.0158 52.8132 55.1699 52.9182 55.3908L52.9138 55.3915Z" fill="#010101"/>
<path d="M50.5356 52.2405C56.3742 68.4485 55.6742 85.8529 58.8984 102.599C58.9823 103.033 59.6358 102.934 59.5642 102.493C56.7974 85.7068 56.8552 68.153 50.8972 52.069C50.8063 51.823 50.444 51.9901 50.5349 52.2361L50.5356 52.2405Z" fill="#010101"/>
<path d="M34.196 51.685L31.9207 51.2299C31.9207 51.2299 31.9207 58.0559 32.3757 58.0559C32.8308 58.0559 40.5669 57.6008 40.5669 57.6008L47.8479 55.3255V52.5951L46.4827 50.3198L46.0277 49.4097L44.2074 50.3198H40.5669L36.9264 51.2299L34.196 51.685Z" fill="#FFD9CA"/>
<path d="M41.2401 54.1676C40.9991 54.4837 40.8291 54.8241 40.6513 55.1807C40.4695 55.5455 40.2048 55.8616 40.0269 56.2263C39.9084 56.4736 40.1613 56.7897 40.4142 56.6235C40.7541 56.4047 40.9082 56.0359 41.0583 55.6671C41.2283 55.2577 41.3903 54.8525 41.6432 54.4877C41.8131 54.2446 41.4179 53.9285 41.2362 54.1635L41.2401 54.1676Z" fill="#010101"/>
<path d="M31.6345 49.3086C31.832 52.806 31.6463 56.2873 31.7649 59.7767C31.7728 60.028 32.1759 60.1131 32.2154 59.8375C32.7133 56.4129 32.2667 52.7371 31.9822 49.3045C31.9625 49.0816 31.6226 49.0735 31.6345 49.3045V49.3086Z" fill="#010101"/>
<path d="M45.8253 44.8548C46.0624 47.485 46.4813 50.0909 47.2914 52.6035C47.7696 54.0828 48.2438 55.9754 49.3147 57.1385C49.5399 57.3817 49.9865 57.0534 49.781 56.7697C48.8523 55.4891 48.3505 53.7261 47.8249 52.2347C46.9871 49.8558 46.5129 47.3675 46.2086 44.8588C46.1809 44.6157 45.8016 44.6035 45.8253 44.8588V44.8548Z" fill="#010101"/>
<path d="M46.5334 41.5436C46.0868 43.2457 45.7667 45.5639 44.6484 46.9337C43.3641 48.5102 41.4316 49.9894 39.7521 51.0837C39.4597 51.2741 39.7126 51.7037 40.0209 51.5538C41.9296 50.6176 44.0359 48.9236 45.3044 47.1809C46.3674 45.7179 46.644 43.4322 47.0787 41.6976C47.1696 41.3329 46.6243 41.1789 46.5294 41.5436H46.5334Z" fill="#010101"/>
</g>
</svg>
