<svg width="48" height="48" viewBox="0 0 48 48" fill="none" xmlns="http://www.w3.org/2000/svg">
<g clip-path="url(#clip0_549_18488)">
<path d="M36 0H12C5.37258 0 0 5.37258 0 12V36C0 42.6274 5.37258 48 12 48H36C42.6274 48 48 42.6274 48 36V12C48 5.37258 42.6274 0 36 0Z" fill="#E7322D"/>
<path d="M15.3761 13.6982C15.3761 12.1009 16.6346 10.8585 18.2158 10.8585H25.9442C32.1237 10.8585 35.8507 14.521 35.8507 19.797V19.8777C35.8507 25.8636 31.1879 28.9614 25.3956 28.9614H21.0716V34.318C21.0716 35.9153 19.8131 37.1577 18.2319 37.1577C16.6507 37.1577 15.3922 35.8992 15.3922 34.318V13.6982H15.3761ZM25.5731 23.8952C28.4127 23.8952 30.0746 22.201 30.0746 19.9745V19.8938C30.0746 17.3446 28.2998 15.9731 25.4601 15.9731H21.0554V23.879H25.5569L25.5731 23.8952Z" fill="white"/>
</g>
<defs>
<clipPath id="clip0_549_18488">
<rect width="48" height="48" fill="white"/>
</clipPath>
</defs>
</svg>
