<svg width="48" height="48" viewBox="0 0 48 48" fill="none" xmlns="http://www.w3.org/2000/svg">
<path d="M36 0H12C5.37258 0 0 5.37258 0 12V36C0 42.6274 5.37258 48 12 48H36C42.6274 48 48 42.6274 48 36V12C48 5.37258 42.6274 0 36 0Z" fill="#FAE100"/>
<path d="M23.9527 8.80249C14.4308 8.80249 6.7124 14.903 6.7124 22.4326C6.7124 27.3319 9.98076 31.6257 14.8898 34.0281C14.5285 35.3726 13.5844 38.9046 13.3956 39.6599C13.1612 40.5974 13.7374 40.5844 14.1183 40.3337C14.4145 40.1351 18.8418 37.124 20.7527 35.8251C21.7911 35.9781 22.8589 36.0595 23.9527 36.0595C33.4746 36.0595 41.193 29.959 41.193 22.4326C41.193 14.9063 33.4746 8.80249 23.9527 8.80249Z" fill="#371D1E"/>
<path d="M12.1836 19.9324H13.9578C13.9578 19.9324 13.9676 24.8056 13.9578 25.9418C13.9578 26.7719 15.8036 26.7816 15.8003 25.9548L15.8068 19.9975C15.8068 19.9975 16.4025 20.0008 17.5712 20.0008C18.6748 20.0008 18.6748 18.2657 17.5712 18.2657C16.3277 18.2657 12.1739 18.2299 12.1739 18.2299C11.1322 18.2299 11.1354 19.9324 12.1739 19.9324" fill="#FAE100"/>
<path d="M20.6768 20.245L21.6632 23.3375H19.6058L20.6768 20.245ZM19.57 18.7963C19.1338 19.7567 17.555 24.2979 17.0341 25.5023C16.6565 26.3715 18.2874 27.0812 18.665 26.212L19.0199 24.9717H22.2654C22.2654 24.9717 22.1548 25.0238 22.5845 26.1599C22.9328 27.0812 24.6191 26.4431 24.2707 25.5219C23.7727 24.2067 22.0473 19.4669 21.7316 18.7963C21.5883 18.4871 21.0675 18.2625 20.5629 18.2625C20.1462 18.2625 19.7393 18.4155 19.5668 18.7963" fill="#FAE100"/>
<path d="M24.8955 19.0795C24.8955 20.6226 24.9053 25.5967 24.9053 25.5967C24.9053 25.5967 24.7621 26.5864 25.6117 26.5864C26.4613 26.5864 28.3397 26.5766 29.173 26.5766C30.0064 26.5766 30.0032 24.8024 29.1698 24.8024C28.3364 24.8024 26.8129 24.7927 26.8129 24.7927C26.8129 24.7927 26.8194 20.1929 26.8162 19.073C26.8162 18.5326 26.3344 18.2625 25.8558 18.2625C25.3773 18.2625 24.8923 18.5359 24.8955 19.0763" fill="#FAE100"/>
<path d="M30.2279 18.8354C30.2474 19.5125 30.2051 25.6325 30.2051 26.085C30.2051 26.8012 32.0281 26.7979 32.0281 26.085C32.0281 25.2549 32.0281 23.676 32.0281 23.676L32.5619 23.2463L34.9025 26.4366C35.3746 27.0616 36.8623 25.932 36.3902 25.3102L33.9064 22.0386C33.9064 22.0386 35.5927 20.2156 36.2568 19.5548C36.6441 19.1707 35.4429 17.9597 35.0555 18.347C34.6812 18.7182 32.0378 21.3647 32.0378 21.3647C32.0378 21.3647 32.0606 19.7045 32.0378 18.7865C32.0281 18.4382 31.6016 18.2689 31.1621 18.2689C30.6934 18.2689 30.2148 18.461 30.2246 18.8354" fill="#FAE100"/>
</svg>
