<svg width="110" height="112" viewBox="0 0 110 112" fill="none" xmlns="http://www.w3.org/2000/svg">
    <g filter="url(#pid2vom1ua)">
        <path d="M0 0h110v199c0 13.807-11.193 25-25 25H0V0z" fill="#fff"/>
    </g>
    <path d="M0 0h110v112H0V0z" fill="#23ADA5"/>
    <g clip-path="url(#c38b4sjupb)">
        <path d="M103.705 88.963c-5.05-8.544-12.463-21.852-17.801-29.712-3.738-5.502-4.415-4.462-7.798-3.527-5.751 1.594-11.582 4.1-14.623 2.91.932 1.947-5.296 9.127-11.214 9.123-4.829-.004-10.63-6.195-13.303-11-2.61 1.589-5.547 2.608-9.41 4.427-3.417 1.606-5.89 7.18-7.469 10.694-1.378 3.064-2.221 7.712-4.264 12.768-4.469 11.043-10.078 24.975-6.879 34.734 1.616 4.938 4.323 7.992 8.257 9.042 4.398 1.173 10.083-3 12.13-5.286 1.073 6.318-.727 8.592-1.157 13.805-.247 2.987 3.128 8.039 4.327 9.666.46.625-.547 3.671-1.09 5.205 3.253.403 14.221 2.099 16.631 2.456 5.539.824 26.79.582 34.4-1.934 1.048-1.453-.635-5.812-.342-6.624 3.696-.607 4.013-3.598 4.999-5.396 1.007-1.839-1.462-9.836-2.615-14.684-.822-3.458 4.09-.93 4.186-.735.526 1.071 2.61 2.928 5.304 2.681 5.037-.458 11.929-5.073 13.219-8.272 4.24-10.503.142-20.82-5.488-30.35v.009zm-17.45 24.036c-2.506.565-2.799 4.865-2.799 4.865s-1.967-3.37-1.72-8.927c.246-5.558 1.244-15.062 1.244-15.062.188 1.134 7.965 14.675 7.965 15.24-3.9-.119-4.281 1.538-4.686 3.884h-.004z" fill="#FFE924"/>
        <path d="M35.098 92.099c.844 7.941-1.278 16.294-2.602 24.069-1.287 7.546-3.216 15.887-2.013 23.564.405 2.588 1.336 5.345 3.796 6.577.468.234.873-.45.414-.718-3.083-1.784-3.375-6.135-3.454-9.339-.13-5.094.622-10.209 1.39-15.227.827-5.388 1.809-10.754 2.548-16.154.572-4.194 1.136-8.536.66-12.768-.054-.472-.785-.48-.735 0l-.004-.004zM79.217 56.302c2.268-1.44 4.811 1.606 6.119 3.165 2.092 2.499 3.813 5.324 5.454 8.141 3.555 6.102 7.285 12.08 10.889 18.155 4.607 7.759 8.93 16.528 9.243 25.748.101 2.983-.814 7.614-3.095 9.662-1.863 1.674-4.068 3.178-6.269 4.343-3.392 1.801-6.566 2.277-9.786.068-2.707-1.861-7.025-4.636-8.011-8.009-.184-.634-1.128-.37-.977.271.78 3.281 4.126 5.762 6.628 7.67 2.364 1.801 4.46 3.322 7.568 2.94 3.647-.451 6.946-2.694 9.791-4.92.747-.587 1.641-1.156 2.293-1.857 1.186-1.266 1.758-3.297 2.213-4.933 2.552-9.165-2.18-19.562-6.536-27.435-4.06-7.333-8.776-14.284-12.998-21.52-2.005-3.433-4.114-6.981-6.875-9.857-1.47-1.53-3.801-3.582-5.969-2.184-.334.216-.025.76.314.544l.004.008z" fill="#010101"/>
        <path d="M34.91 58.847c-5.893.858-9.836 5.026-12.146 10.393-1.863 4.334-2.477 9.05-4.323 13.38-3.145 7.392-6.081 15.002-7.551 22.947-1.116 6.025-1.788 13.894 2.171 19.082 1.792 2.345 4.486 3.828 7.418 3.93 4.277.153 7.995-2.435 10.985-5.277.372-.353-.18-.905-.555-.565-2.907 2.655-6.575 5.154-10.66 4.929-2.852-.153-5.425-1.781-6.991-4.181-3.718-5.694-2.548-13.958-1.178-20.199 1.579-7.19 4.223-14.11 7.067-20.866 1.445-3.438 1.988-7.13 3.187-10.66 2.092-6.174 5.956-11.51 12.68-12.535.25-.038.142-.42-.104-.382v.004z" fill="#010101"/>
        <path d="M29.134 74.368c1.963 5.247 3.9 10.546 5.672 15.861.242.73 1.278.31.969-.416-2.18-5.129-4.223-10.359-6.215-15.564-.1-.263-.527-.153-.426.12z" fill="#010101"/>
        <path d="M71.824 31.387s.99 8.761 4.548 17.433c4.04 9.832 5.376 15.946 3.175 21.47-1.132 2.842-3.88 3.3-5.676 2.204-.076 1.95-4.052 6.289-4.536 3.722-.59-3.101-5.668-2.51-5.438-5.846.647-9.305-1.989-10.108-1.989-10.108s-13.87-6.271-14.472 1.89c-.3 4.08.288 3.583-2 5.864.075 1.538.292 2.775 1.32 5.876.488 1.466-1.922 2.843-4.023 1.25a7.233 7.233 0 0 1-2.606-3.905c-.03 1.364.614 3.233.405 3.84-.714 1.314-9.156 1.28-8.504-6.3.397-4.619 2.619-6.794 3.642-9.938 1.612-4.954 2.151-10.495 2.39-17.867.087-2.69 1.854-16.014 2.722-18.401 1.558-4.27 3.584 10.235 3.584 10.235s23.987-9.662 27.45-1.415l.008-.004z" fill="#907039"/>
        <path d="M42.85 32.415c-1.508-2.439-5.142.45-3.095 5.439.869 2.12 1.445 3.773 2.147 4.125.902.45 1.82-.764 1.82-.764s1.291 6.143 3.305 6.866c.15.293.292 7.21.108 12.113-.13 3.437-1.178 7.113-1.178 7.113s.03.34 2.648 2.115c1.705 1.156 3.175 3.748 4.754 7.835.471-.956 1.37-5.179 3.086-6.492 7.238-5.549 6.274-7.716 6.274-7.716s-.94-4.682-1.212-9.203c-.175-2.948.301-6.127.255-6.862 1.312-.684 1.474-4.227 2.677-5.863 4.403 3.526 6.207-4.772 5.167-7.176-2.201-5.099-4.933.225-4.933.225s3.885-9.118-.584-14.42c-4.47-5.303-11.144-6.854-13.855-6.123-2.71.735-2.493 3.751-4.732 7.219-2.239 3.467-2.656 11.57-2.656 11.57h.004z" fill="#FFD9CA"/>
        <path d="M46.229 11.129c-4.711 2.867-8.19 16.404-7.543 20.683.363 2.405 1.245.106 2.368-.162 1.123-.267 1.871.727 1.871.727s.217-.654.242-1.483c.606-1.89.986.391 3.016-3.505.205-.395-2.727-2.052 1.909-10.542.058 4.453.727 7.708-.255 9.926 1.057.276 2.402.497 2.748-.217 1.17-2.405-.484-10.784.15-10.788 2.895 6.548 3.672 9.055 3.61 11.124 1.06.807 1.14.357 1.954.238.664-.098.91.025 1.17-.328 1.349-1.695.755-6.356-.247-11.34 2.753 4.309 2.727 9.497 3.538 10.945.539.96 1.604 2.206 2.736 2.813.885.472 1.253 4.16 1.257 4.555 1.132-1.305 3.09-3.021 5.112.867.25.484 2.807-1.02 1.278-6.633-1.566-5.757-2.498-6.67-2.498-6.67S66.615 12.174 59.7 9.84c-6.507-2.192-7.33 1.78-7.33 1.78s-2.377-2.783-6.14-.488v-.004z" fill="#907039"/>
        <path d="M43 28.502c-.45 2.52-.472 5.06-.33 7.61.126 2.209.084 4.911.715 7.036 1.115 3.751 4.26 6.424 7.693 7.843.568.234.965-.73.418-1.007-3.162-1.59-6.457-4.066-7.272-7.797-.931-4.278-1.345-9.186-.668-13.528.058-.365-.489-.527-.556-.157zM65.287 33.248c1.822-1.56 4.19.025 4.273 2.269.034.896-.284 1.873-.505 2.727-.217.83-.443 1.53-.957 2.214-1.098 1.466-2.071 1.313-3.25-.093-.367-.438-1.123.148-.788.62.923 1.304 2.25 2.515 3.809 1.415 1.453-1.028 2-2.792 2.355-4.457.422-1.989.518-3.964-1.182-5.426-1.215-1.045-2.986-.654-4.126.353-.255.225.112.595.367.374l.004.004z" fill="#010101"/>
        <path d="M66.532 33.273c.844.841 1.182 2.312 1.111 3.493-.092 1.563-1.182 1.967-2.606 2.04-.443.02-.447.683 0 .705 1.553.063 2.999-.561 3.207-2.27.176-1.452-.3-3.31-1.378-4.303-.221-.204-.551.119-.334.34v-.005z" fill="#010101"/>
        <path d="M64.983 37.033c.718-.467 1.474-.875 2.192-1.342.334-.217.046-.684-.305-.527-.776.353-1.5.841-2.21 1.321-.333.226-.024.774.318.553l.005-.005zM43.272 32.755c-.74-1.385-2.176-2.354-3.32-.867-1.279 1.661-1.19 3.87-.727 5.791.488 2.023 1.729 7.168 4.61 4.279.36-.361-.1-.965-.538-.71-2.026 1.177-2.523-1.631-2.949-3.127-.246-.867-.56-1.733-.601-2.643-.08-1.733 1.261-5.608 3.212-2.532.125.2.43.026.317-.187l-.004-.004z" fill="#010101"/>
        <path d="M40.682 34.994c.418 1.508.806 3.87 2.414 4.53.372.152.518-.4.25-.608-1.219-.943-1.682-2.66-2.171-4.062-.109-.31-.58-.187-.493.136v.004zM52.256 38.032c.923.642 2.64 1.513 3.467.238.221-.344-.146-.79-.518-.684-.439.127-.798.327-1.27.319-.51-.009-.994-.213-1.458-.408-.317-.132-.472.36-.221.535z" fill="#010101"/>
        <path d="M52.248 11.307c-4.787-5.345-9.895 3.45-11.482 7.278-.92 2.218-1.658 4.304-1.855 6.688-.238 2.876-.392 5.761-.572 8.642-.447 7.108-.614 14.412-2.414 21.333-.806 3.09-1.997 5.995-3.362 8.868-.665 1.402-1.546 2.953-1.492 4.559.163 4.911 4.532 7.325 8.901 7.507.69.03.668-1.015 0-1.075-3.692-.33-7.422-2.383-7.593-6.53-.063-1.521.944-3.11 1.55-4.436 1.023-2.235 1.942-4.512 2.627-6.879 3.095-10.694 2.092-22.068 3.161-33.039.397-4.083 6.512-18.826 12.221-12.602.188.208.49-.102.305-.31l.005-.004zM49.107 33.609c.835.153 1.457-1.517.693-2.312-.768-.794-1.545 2.155-.693 2.312zM52.736 30.478c.142 2.111.197 4.32-.43 6.364-.092.302.38.519.514.221.881-1.954.639-4.512.476-6.585-.03-.362-.585-.37-.56 0zM65.145 33.188c.046 3.918-.655 8.014-2.514 11.485-1.963 3.663-5.463 4.929-9.293 5.668-.719.14-.418 1.309.304 1.126 3.693-.935 7.39-2.243 9.331-5.821 2.018-3.713 2.577-8.273 2.527-12.458 0-.229-.355-.229-.35 0h-.005zM57.343 33.664c.848-.055 1.057-1.827.126-2.413-.932-.582-.99 2.468-.126 2.413z" fill="#010101"/>
        <path d="M50.978 28.485c-.748-.425-1.842-.892-2.71-.671-.59.148-1.571.611-1.784 1.24-.046.132.112.23.221.174.514-.272.96-.667 1.5-.905.797-.348 1.9.022 2.648.383.142.068.267-.136.125-.217v-.004zM56.67 28.34c.916-.467 2.453-.526 3.405-.114.246.106.484-.166.292-.387-.426-.497-1.257-.42-1.854-.4-.723.026-1.416.183-2.034.57-.21.132-.025.442.192.331zM63.704 29.917c.631 1.67.694 3.314.87 5.069.033.323.53.454.6.085.356-1.819-.505-3.59-1.156-5.24-.075-.195-.389-.114-.314.09v-.004zM62.13 45.54c-1.859 5.374-1.3 12.806.676 18.032.109.284.48.17.439-.123-.798-5.92-2.702-11.884-.831-17.829.058-.187-.226-.263-.288-.08h.004zM46.88 48.573c-.133 3.06.197 6.123.184 9.182-.008 1.895-.108 3.807-.438 5.672-.301 1.691-.986 3.17-1.525 4.78-.142.42.422.57.644.277 1.908-2.524 1.879-6.786 1.858-9.807-.025-3.37-.472-6.734-.397-10.104.005-.212-.317-.212-.326 0zM52.381 11.787c1.224-1.738 3.496-2.923 5.639-2.329 1.12.31 2.243 1.211 3.212 1.823 4.19 2.639 6.745 7.274 7.81 12.114.117.53.886.301.794-.221-.618-3.425-2.264-6.569-4.34-9.318-1.353-1.793-3.22-2.932-5.141-4.028-1.24-.705-2.139-1.253-3.605-1.122-1.967.175-3.575 1.262-4.61 2.945-.097.153.137.284.237.14l.004-.004zM69.832 24.36c1.065 3.377 1.558 6.993 2.351 10.447 1.237 5.375 2.61 10.767 4.595 15.912 1.524 3.964 2.898 7.487 3.061 11.82.138 3.693-.376 9.463-5.041 9.773-.35.021-.355.552 0 .556 8.29.09 5.885-14.254 3.984-18.911-2.322-5.685-4.251-11.336-5.73-17.314-1.01-4.08-1.608-8.375-2.903-12.373-.067-.2-.38-.115-.313.09h-.004z" fill="#010101"/>
        <path d="M58.179 13.907c2.088 3.076 3.972 6.314 5.25 9.828.898 2.464 2.172 5.273 2.192 7.937 0 .471.702.467.719 0 .092-2.745-1.332-5.617-2.33-8.099-1.412-3.514-3.434-6.717-5.547-9.832-.117-.174-.401-.008-.28.166h-.004zM57.122 15.564c2.715 4.589 1.362 10.97 6.466 14.153.388.242.739-.374.355-.62-4.904-3.098-3.755-9.33-6.516-13.716-.121-.19-.422-.017-.305.183zM52.699 13.274c3.433 3.854 4.176 8.455 3.922 13.473-.021.374.555.45.639.09 1.153-4.955-1.032-10.21-4.277-13.856-.176-.196-.46.093-.288.293h.004zM51.6 15.203c1.45 3.739 2.66 7.529 2.657 11.595 0 .331.505.336.51 0 .02-4.121-1.413-7.89-2.879-11.676-.07-.182-.359-.102-.288.08zM50.26 14.374c-.289 4.1.743 8.281-.13 12.335-.088.4.447.53.593.166 1.5-3.76-.2-8.562-.07-12.5.008-.26-.373-.255-.393 0zM47.632 16.087c-1.365 3.322-4.155 7.839-1.925 11.353.246.386.777.05.597-.357-1.629-3.659.493-7.457 1.754-10.877.1-.276-.321-.383-.426-.12zM71.13 39.468c2.54 11.96 9.286 26.105-1.077 36.209-.338.331.117.973.514.68 4.64-3.425 6.223-9.713 5.956-15.28-.36-7.494-3.542-14.437-5.104-21.69-.042-.19-.33-.11-.288.081zM64.686 49.39c-.973 8.352-.117 17.963 4.089 25.386.188.331.785.106.63-.272-1.574-3.926-3.14-7.716-3.938-11.905-.831-4.368-.973-8.795-.472-13.21.025-.204-.288-.2-.313 0h.004zM39.433 41.35c1.788 10.601-3.003 25.332 6.62 33.196.351.29.857-.19.51-.518-9.126-8.485-4.732-21.856-6.816-32.771-.042-.213-.351-.12-.314.089v.004z" fill="#010101"/>
        <path d="M43.773 45.93c.2 4.334.146 8.821-.017 13.155-.12 3.17-.643 6.462 1.295 9.199.267.378.894.008.618-.37-2.155-2.953-1.253-6.696-1.311-10.108-.071-3.951.067-7.932-.167-11.875-.017-.272-.43-.276-.418 0zM69.756 37.773c-.342 6.165.965 12.168 2.156 18.176 1.157 5.83 3.153 13.282-.523 18.585-.158.225.201.505.38.297 3.605-4.185 2.256-10.605 1.325-15.563-1.341-7.134-3.371-14.162-3.008-21.495.013-.213-.313-.213-.325 0h-.005zM61.691 15.224c3.266 4.801 6.215 9.543 6.842 15.474.046.425.689.442.664 0-.305-5.935-3.893-11.012-7.189-15.66-.133-.192-.45-.014-.317.186z" fill="#010101"/>
        <path d="M65.868 25.175c.723 2.485 1.395 5.014 2.234 7.465.1.298.548.179.464-.132-.66-2.506-1.57-4.962-2.347-7.43-.071-.226-.418-.133-.351.097zM45.703 26.947c-.109 1.291-.614 1.729-1.533 2.468-.81.646-1.52 1.615-1.583 2.686-.021.357.463.45.63.174.397-.654.527-1.42 1.02-2.027.28-.344.634-.59.956-.888.71-.654.89-1.457.91-2.409.005-.268-.384-.26-.404 0l.004-.004zM61.132 67.196c-1.596.102-3.471-.62-4.862.506-.305.246.13.7.434.442 1.166-.999 3.053-.332 4.428-.46.304-.029.313-.51 0-.492v.004zM51.275 68c-.702-1.348-3-.761-4.181-.812-.301-.013-.385.501-.071.548.973.144 3.22-.514 3.8.53.167.298.61.035.452-.267z" fill="#010101"/>
        <path d="M62.86 62.87c-.208 4.237-4.234 4.793-6.632 7.377-1.758 1.895-2.949 4.287-3.216 6.887-.042.425.564.45.69.094.617-1.764 1.215-3.531 2.28-5.078 1.198-1.746 2.802-2.638 4.49-3.811 1.85-1.287 2.877-3.165 2.86-5.473 0-.31-.459-.31-.471 0v.005z" fill="#010101"/>
        <path d="M45.84 67.846c3.509 2.218 5.982 5.294 7.088 9.34.092.33.64.28.61-.086-.338-4.194-4.151-7.66-7.468-9.657-.255-.153-.48.242-.23.399v.004zM48.276 13.342c-2.857 5.022-7.619 12.122-5.806 18.22.142.475.843.275.73-.205-1.453-6.067 2.69-12.695 5.435-17.798.13-.238-.226-.45-.36-.213v-.004zM52.26 11.043c-.643-1.355-1.863-2.455-3.358-2.676-.209-.03-.305.267-.092.331 1.366.42 2.519 1.185 3.225 2.477.083.153.296.017.225-.136v.004z" fill="#010101"/>
        <path d="M52.34 11.672a14.39 14.39 0 0 1 .676-2.68c.2-.566.443-1.207.869-1.65.38-.39.927-.62 1.39-.883.239-.136.08-.535-.187-.45-2.44.786-2.932 3.288-2.866 5.642 0 .064.105.085.117.017v.004zM45.16 68.34c.417 1.138.514 2.323.676 3.517.176 1.266.623 2.486-.066 3.684-.18.314.267.697.513.404.84-1.007.618-2.12.347-3.327-.338-1.509-.551-2.996-1.39-4.313-.026-.042-.105-.017-.084.034h.004z" fill="#010101"/>
        <path d="M45.932 75.694c-4.878-1.466-6.382-5.681-7.597-10.278-.092-.349-.597-.2-.53.148.81 4.067 2.731 10.907 8.102 10.313.096-.013.13-.153.025-.183z" fill="#010101"/>
        <path d="M39.96 72.116c.221.893.614 2.477 0 3.293-.176.234.209.535.4.315.807-.935.247-2.66-.1-3.693-.062-.19-.35-.114-.3.085zM82.98 94.138c2.084 5.566 6.407 9.934 7.451 15.92.126.727 1.274.429 1.103-.31-1.408-5.965-5.94-10.201-8.283-15.729-.066-.153-.325-.043-.267.115l-.004.004zM92.031 100.902c2.752 2.018 5.426 4.342 7.723 6.887.413.455 1.111-.25.668-.679a59.774 59.774 0 0 0-8.12-6.684c-.292-.199-.547.272-.271.472v.004zM26.327 110.585c-1.683 1.313-3.989 2.333-5.225 4.13-1.32 1.916-2.114 4.436-2.23 6.76-.021.433.605.412.65 0 .28-2.388.807-4.941 2.298-6.875 1.14-1.487 3.25-2.523 4.724-3.726.159-.127-.054-.412-.217-.285v-.004z" fill="#010101"/>
        <path d="M82.63 93.93c-.239 7.342-2.95 15.585.045 22.625.205.476 1.028.132.836-.357-2.765-7.057-.472-14.922-.393-22.268 0-.323-.48-.319-.489 0zM19.903 103.681c2.201-.081 6.131-2.469 7.86-.569 1.826 2.005 3.643 5.549 3.576 8.268-.013.552.79.535.831 0 .134-1.649-.472-3.157-1.249-4.576-.78-1.424-1.762-3.327-2.932-4.47-.618-.603-1.353-.722-2.18-.62-2.039.242-3.818 1.359-5.906 1.483-.3.017-.305.492 0 .48v.004zM55.973 83.728a42.4 42.4 0 0 1-.058 17.799c-.117.531.693.756.802.225a40.984 40.984 0 0 0-.414-18.113c-.054-.217-.376-.127-.33.094v-.005zM62.217 59.676a20.653 20.653 0 0 1 1.688 7.371c.062 1.53-.497 3.506.25 4.946.355.684 1.045 1.067 1.671 1.466 1.4.896 2.807 1.7 3.542 3.28.263.56 1.048.072.81-.484-1.115-2.626-5.087-3.013-5.538-5.736-.293-1.768.017-3.586-.293-5.388-.346-1.988-1.023-3.798-1.862-5.617-.088-.187-.351-.025-.272.162h.004zM89.717 109.302c-1.073-.03-2.222-.081-3.066.718-.79.744-.856 1.95-.718 2.97.08.569.99.425.977-.136-.02-.854-.23-1.789.514-2.409.639-.535 1.55-.65 2.326-.867.155-.042.117-.272-.037-.276h.004zM85.82 76.514c-1.428 4.338-3.203 9.713-2.167 14.314.116.523.885.298.785-.22-.87-4.61.442-9.573 1.729-13.996.067-.226-.272-.32-.347-.098zM21.874 105.801c-4.368 3.714-6.887 9.636-4.832 15.313.217.603 1.17.352.96-.268-1.846-5.528-.024-10.928 4.127-14.786.171-.161-.08-.408-.255-.259zM92.34 99.156c5.217.26 10.008 2.503 13.871 6.025.38.348.944-.217.564-.574-3.981-3.773-9.034-5.672-14.435-5.88-.271-.013-.271.416 0 .433v-.004z" fill="#010101"/>
        <path d="M80.912 67.409c-1.052 8.595-.839 18.027 1.922 26.304.163.485.869.293.756-.212-1.95-8.727-3.175-17.123-2.285-26.092.025-.255-.36-.251-.393 0zM48.777 41.63c2.94 1.093 6.344 1.577 9.322.396.376-.149.226-.765-.171-.629-3.095 1.062-5.956.531-9.08-.038-.176-.03-.238.208-.071.267v.005zM62.765 69.176c-3.338 2.656-6.01 6.301-6.73 10.626-.058.34.431.493.519.145 1.094-4.19 2.957-7.895 6.373-10.61.117-.093-.045-.255-.162-.165v.004z" fill="#010101"/>
        <path d="M28.177 79.106c-.38 0 .731 15.525 1.88 21.524 1.132 5.902.421 23.862.421 23.862s56.027-1.827 55.952-2.252c-.075-.425-1.328-47.281-1.328-47.281S31.364 80.002 28.177 79.1v.005z" fill="#fff"/>
        <path d="M28.031 79.569c6.612-.043 13.307-.935 19.894-1.458 9.748-.773 19.497-1.555 29.245-2.307 2.653-.204 5.338-.527 8.003-.548.35 0 .355-.56 0-.556-6.616.046-13.307.93-19.894 1.461-9.748.782-19.497 1.59-29.245 2.337-2.653.204-5.338.523-8.003.54-.334 0-.338.53 0 .53z" fill="#010101"/>
        <path d="M85.069 75.205c-.757 15.746 1.227 31.467.764 47.205-.013.429.635.425.651 0 .64-15.738-1.524-31.463-.923-47.205.013-.327-.48-.323-.497 0h.005zM27.684 79.25c.898 15.113 2.874 30.298 2.431 45.458-.012.429.635.425.652 0 .614-15.16-1.541-30.362-2.59-45.458-.02-.323-.514-.327-.497 0h.004z" fill="#010101"/>
        <path d="M27.538 116.95c-1.295-.824-1.683-2.741-1.683-2.741s-.464-.365-1.124-2.345c-.13-.387.038-1.27.038-1.27s-1.207-1.394-.769-2.312c.439-.917-.497-.374-.735-1.856-.104-.646 1.709-3.433 3.613-3.62 2.13-.846 9.782-1.751 9.924-.867.297 1.869-2.873 2.209-2.873 2.209s5.045-1.062 4.448 1.215c-.602 2.278-1.826 1.462-1.826 1.462s2.552-1.126 2.306 1.113c-.142 1.292-1.867 1.3-1.867 1.3s2.013-1.419 1.286.816c-.325.999-.563 1.725-2.948 2.813-2.026 1.942-2.861 1.772-3.455 2.426-.714.79-.66 3.144-1.846 3.076-1.983-.115-2.31-1.309-2.493-1.428l.004.009z" fill="#FFD9CA"/>
        <path d="M27.484 116.865c-1.049-.582-1.345-1.53-1.007-2.609.088-.276-.146-.535-.41-.548-1.386-.051-.814-1.538-.684-2.477.033-.251-.284-.438-.43-.183-.86 1.509-.973 3.429 1.11 3.522l-.409-.548c-.417 1.326.614 2.499 1.68 3.089.162.089.308-.161.146-.25l.004.004zM24.568 110.471c-.455-.927-.55-2.031.31-2.749.342-.285-.15-.795-.49-.498-1.04.918-.743 2.342-.045 3.378.096.14.3.021.225-.136v.005zM23.478 106.209c.723-2.753 4.348-3.561 6.796-3.998 1.842-.332 4.828-.803 6.616-.03.3.132.564-.289.263-.459-1.992-1.126-5.334-.518-7.443-.03-2.602.604-5.944 1.492-6.637 4.402-.063.264.334.378.401.115h.004zM29.109 112.637c2.497-1.283 5.078-1.984 7.672-2.965.213-.081.2-.446-.058-.429-2.61.14-5.534 1.861-7.777 3.105-.184.102-.021.383.163.285v.004zM28.002 109.723c1.424-.731 2.932-1.271 4.477-1.683 1.345-.361 2.765-.438 4.026-1.049.276-.132.147-.625-.158-.595-2.907.284-6.027 1.474-8.567 2.936-.25.144-.029.518.226.391h-.004z" fill="#010101"/>
        <path d="M26.632 106.782c2.013-.862 3.905-1.996 6.123-2.154 1.687-.119 3.383.149 5.066.043.439-.026.572-.693.109-.807-4.148-1.033-7.773.786-11.449 2.358-.334.144-.188.709.155.565l-.004-.005z" fill="#010101"/>
        <path d="M36.79 102.283c-.326.599-.923.922-1.546 1.126-.317.102-.188.607.138.514.76-.221 1.266-.82 1.612-1.517.067-.136-.13-.255-.204-.119v-.004zM38.047 104.403c.372.433.447 1.028.037 1.466-.45.48-1.21.501-1.817.446-.338-.03-.33.497 0 .531.81.089 1.759-.098 2.21-.875.334-.582.167-1.258-.259-1.734-.1-.114-.263.056-.167.17l-.004-.004zM38.272 106.889c.422.361.61.9.3 1.406-.35.569-1.114.726-1.72.765-.334.021-.338.548 0 .531.823-.038 1.738-.344 2.08-1.186.255-.624.004-1.274-.493-1.682-.117-.098-.284.068-.167.17v-.004zM38.218 109.48c-.355 1.815-3.162 3.115-4.611 4.007-1.404.863-2.853 1.589-4.352 2.256-.293.132-.084.616.217.523 2.143-.667 4.085-1.967 5.94-3.221 1.328-.896 2.927-1.767 3.14-3.514.025-.191-.296-.237-.334-.046v-.005z" fill="#010101"/>
        <path d="M91.083 113.509c1.136-1.037 1.199-2.996 1.199-2.996s.397-.442.71-2.507c.062-.403-.25-1.245-.25-1.245s.951-1.584.367-2.409c-.585-.824.426-.454.409-1.954-.004-.654-2.264-3.085-4.173-2.936-2.238-.459-9.932-.017-9.924.875.021 1.895 3.204 1.678 3.204 1.678s-5.15-.165-4.177 1.976c.974 2.137 2.047 1.122 2.047 1.122s-2.702-.667-2.084 1.5c.355 1.245 2.059.956 2.059.956s-2.222-1.05-1.128 1.028c.489.926 4.06 2.702 6.587 3.357 1.073.76-.556 1.444 1.382 2.923 2.744 1.75 3.622-1.228 3.772-1.368z" fill="#FFD9CA"/>
        <path d="M91.292 113.696c.986-.808 1.775-2.159 1.136-3.425-.084.213-.167.421-.255.633 2.038-.459 1.512-2.375.447-3.671-.15-.183-.464.013-.393.234.255.79 1.107 2.311-.28 2.604-.284.06-.371.404-.254.633.522 1.041.3 2.04-.61 2.783-.142.119.058.323.205.209h.004zM93.159 106.723c.526-1.168.58-2.63-.63-3.356-.385-.234-.74.386-.352.607.965.544 1.028 1.679.74 2.647-.042.141.175.243.238.102h.004zM93.643 102.024c-1.177-2.753-4.632-3.021-7.3-3.165-2.122-.115-5.564-.094-7.314 1.346-.23.192.071.578.317.417 1.659-1.092 4.478-1.13 6.374-1.152 2.44-.03 6.395.196 7.564 2.766.113.251.468.034.36-.212zM88.911 109.222c-2.418-.837-5.538-2.019-8.136-1.704-.217.025-.318.382-.059.429 2.736.518 5.422.76 8.107 1.593.2.064.285-.25.088-.318zM89.55 106.043c-2.677-.964-6.01-1.618-8.863-1.397-.343.025-.438.522-.084.624 1.245.357 2.553.204 3.835.298a22.69 22.69 0 0 1 4.995.909c.276.085.384-.34.117-.434z" fill="#010101"/>
        <path d="M90.369 102.763c-3.901-.913-7.836-2.056-11.754-.318-.359.161-.188.811.205.769 1.608-.183 3.174-.689 4.782-.897 2.306-.293 4.398.493 6.616 1.011.36.085.514-.48.155-.565h-.004z" fill="#010101"/>
        <path d="M79.309 100.813c.48.65 1.07 1.143 1.88 1.232.288.03.359-.48.07-.522-.668-.094-1.328-.302-1.766-.854-.084-.107-.263.038-.184.144zM78.423 102.852c-.338.549-.38 1.245.05 1.755.581.689 1.546.693 2.34.463.321-.093.187-.599-.138-.514-.59.162-1.345.264-1.863-.144-.472-.37-.476-.952-.188-1.441.08-.131-.121-.25-.205-.119h.004zM78.636 105.317c-.417.489-.572 1.16-.23 1.738.46.769 1.412.939 2.222.832.326-.042.335-.569 0-.531-.605.068-1.365.064-1.829-.403-.422-.425-.36-1.024 0-1.466.096-.115-.067-.285-.167-.17h.004zM78.987 108.134c.539 1.797 2.51 2.383 4.056 3.063 1.938.854 3.938 1.7 6.048 1.972.317.042.376-.485.075-.561-1.604-.404-3.17-.867-4.712-1.479-1.524-.603-4.498-1.406-5.141-3.089-.075-.204-.393-.123-.326.094z" fill="#010101"/>
        <path d="M45.15 91.74a.547.547 0 0 1 .49-.31c.112-.005.207.158.286.491.078.317.146.939.204 1.865l.18 2.394 2.66-.119c1.95-.087 3.294-.123 4.032-.108.64-.013 1.025.01 1.156.068.13.058.185.2.163.425-.023.21-.08.356-.172.44-.093.069-.292.102-.597.1-1.074-.033-2.338 0-3.791.097-1.437.096-2.393.203-2.869.32-.428.1-.738.146-.93.138-.194-.023-.34-.088-.442-.196-.167-.169-.304-1.084-.41-2.744-.108-1.677-.095-2.63.04-2.861zm3.65 6.948c.396-.45.663-.214.8.708.048.35.068.806.061 1.367.035 1.136.153 1.971.353 2.507l.3.803 2.947-.18c1.42-.112 2.267-.157 2.54-.138.29.019.44.149.45.389.009.191-.121.325-.39.401-.268.093-.944.195-2.028.308-1.626.184-3.724.351-6.296.498-1.726.093-2.805.133-3.238.121-.417-.014-.654-.107-.71-.281-.12-.539.715-.849 2.505-.929l2.134-.095.647-.053-.117-2.614c-.08-1.79-.067-2.728.042-2.812zm21.06-9.544c.026-.146.158-.224.398-.234.208-.01.326.113.353.368.043.239.071.87.085 1.894.035 1.152.138 1.836.308 2.053.17.216.678.306 1.525.268.975-.044 1.564.042 1.766.257.42.462.272.724-.445.789a2.549 2.549 0 0 1-.769.01c-.85-.026-1.424.032-1.722.173-.25.124-.395.282-.435.476-.04.178-.036.634.013 1.369.089 1.261.087 1.942-.004 2.042-.078.052-.197.081-.357.088a.6.6 0 0 1-.314-.058c-.067-.045-.118-.13-.156-.257a10.405 10.405 0 0 1-.077-.645l-.139-3.093c-.044-1.36-.076-2.607-.095-3.744-.003-1.137.019-1.722.065-1.756zm-10.717 1.008c.202-.137 1.423-.232 3.663-.284 2.255-.053 3.49-.028 3.703.074.196.104.26.261.189.472-.07.212-.241.332-.512.36-.144.006-1.239.063-3.284.17l-2.802.198.191 2.659c.144 1.787.292 2.765.444 2.935.169.2.94.27 2.315.208 1.167-.052 1.92-.038 2.26.043.34.065.516.25.53.553.008.176-.147.295-.465.357-.318.046-1.14.091-2.468.135l-.48.021a25.59 25.59 0 0 0-1.2.006 2.912 2.912 0 0 1-.773-.086c-.276-.083-.447-.148-.513-.193-.067-.06-.155-.225-.263-.493a3.188 3.188 0 0 1-.202-.76c-.01-.24-.044-.63-.1-1.172-.02-.08-.03-.135-.032-.167l-.007-.168-.01-.215c-.098-.765-.228-1.872-.389-3.322-.067-.43-.089-.733-.065-.91a.523.523 0 0 1 .27-.42zm3.392 10.299c.412-.099 1.706-.165 3.883-.198 2.192-.05 3.602-.033 4.23.051.388.062.624.148.709.256.085.108.11.34.079.693.002.064.005.481.007 1.249.018.752.023 1.385.013 1.898l.032 2.304-4.792.287c-2.014.106-3.325.157-3.933.152-.61-.004-.933-.07-.97-.197-.158-.313-.278-1.364-.358-3.155-.063-1.775-.034-2.729.088-2.862.169-.168.506-.327 1.012-.478zm6.618.784c-.788-.06-1.997-.046-3.626.043-1.63.073-2.53.177-2.7.313-.188.12-.234.875-.14 2.264l.166 2.083 2.45.01c1.33.005 2.601-.044 3.814-.146l1.291-.13-.096-2.158-.096-2.134-1.063-.145z" fill="#000"/>
    </g>
    <defs>
        <clipPath id="c38b4sjupb">
            <path fill="#fff" transform="translate(9.822 3.247)" d="M0 0h100.179v108.754H0z"/>
        </clipPath>
        <filter id="pid2vom1ua" x="-8" y="-5" width="128" height="242" filterUnits="userSpaceOnUse" color-interpolation-filters="sRGB">
            <feFlood flood-opacity="0" result="BackgroundImageFix"/>
            <feColorMatrix in="SourceAlpha" values="0 0 0 0 0 0 0 0 0 0 0 0 0 0 0 0 0 0 127 0" result="hardAlpha"/>
            <feMorphology radius="2" operator="dilate" in="SourceAlpha" result="effect1_dropShadow_549_16354"/>
            <feOffset dx="1" dy="4"/>
            <feGaussianBlur stdDeviation="3.5"/>
            <feComposite in2="hardAlpha" operator="out"/>
            <feColorMatrix values="0 0 0 0 0.870833 0 0 0 0 0.870833 0 0 0 0 0.870833 0 0 0 0.9 0"/>
            <feBlend in2="BackgroundImageFix" result="effect1_dropShadow_549_16354"/>
            <feBlend in="SourceGraphic" in2="effect1_dropShadow_549_16354" result="shape"/>
        </filter>
    </defs>
</svg>
