<svg width="280" height="160" viewBox="0 0 280 160" fill="none" xmlns="http://www.w3.org/2000/svg">
    <g filter="url(#u5wxq0quda)">
        <path d="M220 15H60c-11.046 0-20 8.954-20 20v110h200V35c0-11.046-8.954-20-20-20z" fill="#D9D9D9"/>
    </g>
    <path d="M64 15.5h150c13.531 0 24.5 10.969 24.5 24.5v96.5h-199V40c0-13.531 10.969-24.5 24.5-24.5z" fill="#fff" stroke="#E7E7E7"/>
    <path fill="#fff" d="M40 117h198v34H40z"/>
    <path d="M48.285 49.197v101.747H230V41.906c0-14.847-10.808-18.78-16.212-18.89h-23.902c-4.053 0-6.417 3.093-7.093 4.64l-2.364 5.302c-2.432 3.712-10.245 4.419-13.848 4.308h-54.539c-6.755 0-6.417-.331-9.457-.994-2.432-.53-4.391-2.872-5.067-3.977-.45-.994-1.756-3.646-3.377-6.297-1.622-2.651-4.954-3.093-6.418-2.983H71.591c-21.887 0-24.657 17.455-23.306 26.182z" fill="#F4F4F4"/>
    <path clip-rule="evenodd" d="M214.646 52.803a.485.485 0 0 0-.582 0l-3.201 2.401a.97.97 0 0 0-.388.776v3.88c0 .536.434.97.97.97h1.455a.485.485 0 0 0 .485-.485v-1.94c0-.268.217-.485.485-.485h.97c.268 0 .485.217.485.485v1.94c0 .268.217.485.485.485h1.455a.97.97 0 0 0 .97-.97v-3.88a.97.97 0 0 0-.388-.776l-3.201-2.4z" stroke="#222" stroke-width=".728"/>
    <path d="M130.256 52.928h-.91v5.25h.91V55.77h1.014v-.749h-1.014v-2.093zm-5.765 3.784.37.709c2.154-.624 3.418-2.005 3.414-3.938h-3.478v.733h2.5c-.153 1.107-1.139 2.013-2.806 2.496zm1.087 3.35h4.952v-.725h-4.042v-1.699h-.91v2.424zm12.158-7.134h-.894v1.32h-1.03v.725h1.03v.693h-1.03v.74h1.03v1.9h.894v-5.378zm-6.087 3.68.096.74c1.16 0 2.774-.028 4.155-.25l-.04-.651c-.258.028-.523.052-.797.072v-2.327h.644v-.717h-3.873v.717h.636v2.411c-.29.005-.568.005-.821.005zm1.304 3.454h4.968v-.725h-4.066v-1.45h-.902v2.175zm.387-3.47v-2.4h.861v2.371c-.29.012-.58.024-.861.028zm11.49-3.656h-.902v5.258h.902v-5.258zm-5.935 2.295c0 1.075.858 1.827 1.965 1.827 1.107 0 1.961-.752 1.957-1.827.004-1.06-.85-1.816-1.957-1.82-1.107.004-1.965.76-1.965 1.82zm.878 0c-.004-.628.463-1.039 1.087-1.039.608 0 1.079.41 1.079 1.039 0 .644-.471 1.046-1.079 1.046-.624 0-1.091-.402-1.087-1.046zm.242 4.83h5.016v-.724h-4.115v-1.675h-.901v2.4zm12.512-3.743h-6.635v.724h6.635v-.724zm-6.313-1.031.306.709c1.321-.137 2.287-.665 2.682-1.401.394.736 1.372 1.264 2.697 1.4l.314-.708c-1.381-.133-2.25-.68-2.383-1.28h2.101v-.733h-5.435v.733h2.082c-.137.608-1.015 1.147-2.364 1.28zm.451 3.575c0 .857.954 1.337 2.537 1.337 1.57 0 2.516-.48 2.52-1.337-.004-.845-.95-1.337-2.52-1.337-1.583 0-2.537.492-2.537 1.337zm.91 0c-.004-.423.568-.636 1.627-.636 1.042 0 1.618.213 1.626.636-.008.423-.584.632-1.626.636-1.059-.004-1.631-.213-1.627-.636z" fill="#222"/>
    <path d="m62.692 60.237-3.772-3.772 3.772-3.772" stroke="#222" stroke-width=".728" stroke-linecap="round" stroke-linejoin="round"/>
    <g filter="url(#voto3qqsub)">
        <g clip-path="url(#iwjyivtpgc)">
            <path fill-rule="evenodd" clip-rule="evenodd" d="M195.094 30.832h-.485a.485.485 0 0 0-.485.485v4.203c0 .268.217.485.485.485h.485a.485.485 0 0 0 .485-.485v-4.203a.485.485 0 0 0-.485-.485zm-2.748 1.131h.485c.268 0 .485.218.485.485v3.072a.485.485 0 0 1-.485.485h-.485a.485.485 0 0 1-.485-.485v-3.072c0-.267.217-.485.485-.485zm-1.778 1.132h-.485a.485.485 0 0 0-.485.485v1.94c0 .268.217.485.485.485h.485a.486.486 0 0 0 .485-.485v-1.94a.486.486 0 0 0-.485-.485zm-2.264.97h-.485a.485.485 0 0 0-.485.485v.97c0 .268.217.485.485.485h.485a.485.485 0 0 0 .485-.485v-.97a.485.485 0 0 0-.485-.485zM201.723 31.859c1.079 0 2.116.414 2.898 1.157a.15.15 0 0 0 .211-.002l.563-.567a.155.155 0 0 0-.001-.222 5.31 5.31 0 0 0-7.343 0 .155.155 0 0 0-.001.222l.563.567a.15.15 0 0 0 .211.002 4.21 4.21 0 0 1 2.899-1.157zm0 1.846c.593 0 1.164.22 1.604.618a.151.151 0 0 0 .211-.003l.562-.567a.157.157 0 0 0-.002-.224 3.488 3.488 0 0 0-4.749 0 .156.156 0 0 0-.002.224l.562.567c.058.058.152.06.211.003a2.39 2.39 0 0 1 1.603-.618zm1.126 1.243a.153.153 0 0 1-.046.112l-.972.98a.154.154 0 0 1-.108.046.15.15 0 0 1-.108-.045l-.973-.98a.157.157 0 0 1-.046-.113.155.155 0 0 1 .051-.11 1.667 1.667 0 0 1 2.152 0 .154.154 0 0 1 .05.11z" fill="#000"/>
            <rect opacity=".35" x="208.108" y="30.913" width="10.185" height="5.012" rx="1.051" stroke="#000" stroke-width=".485"/>
            <path opacity=".4" d="M219.021 32.448v1.94a1.053 1.053 0 0 0 0-1.94" fill="#000"/>
            <rect x="208.836" y="31.64" width="8.73" height="3.557" rx=".647" fill="#000"/>
        </g>
    </g>
    <path d="M68.108 30.742c-1.217-.007-2.024.807-2.024 1.88.004 1.038.762 1.784 1.743 1.78.603.004 1.133-.28 1.41-.757h.06c-.007 1.178-.454 1.88-1.25 1.88-.496 0-.834-.277-.932-.713h-.978c.122.91.853 1.569 1.91 1.569 1.349 0 2.205-1.096 2.205-2.986-.003-2.005-1.072-2.645-2.144-2.653zM67.047 32.6c-.008-.587.45-1.057 1.068-1.061.614.004 1.061.496 1.061 1.053a1.067 1.067 0 0 1-1.076 1.061 1.028 1.028 0 0 1-1.053-1.053zm4.475 3.046a.593.593 0 0 0 .583-.59.594.594 0 0 0-.583-.584.59.59 0 0 0-.591.583.59.59 0 0 0 .59.591zm-.591-3.311a.59.59 0 0 0 .59.59.593.593 0 0 0 .584-.59.594.594 0 0 0-.583-.584.59.59 0 0 0-.591.584zm1.845 2.948h2.66v1.023h.94v-1.023h.72v-.811h-.72v-3.653h-1.228l-2.372 3.675v.789zm1.008-.811v-.038l1.606-2.493h.061v2.53h-1.667zm6.097-3.653h-.948l-1.356.88v.901l1.28-.818h.031v4.524h.993v-5.487z" fill="#000"/>
    <g filter="url(#lnnk8o9x9d)">
        <rect x="53" y="48" width="172" height="34" rx="7" fill="#fff" fill-opacity=".6"/>
        <rect x="53.2" y="48.2" width="171.6" height="33.6" rx="6.8" stroke="#D1D1D1" stroke-width=".4"/>
    </g>
    <path d="M97.519 56.09h-.907v5.233h.907v-2.4h1.01v-.746h-1.01V56.09zm-5.748 3.773.37.706c2.147-.622 3.407-1.999 3.403-3.925h-3.468v.73h2.493c-.153 1.104-1.136 2.007-2.798 2.489zm1.084 3.339h4.936v-.723h-4.029v-1.693h-.907v2.416zm12.12-7.112h-.891v1.316h-1.027v.723h1.027v.69h-1.027v.739h1.027v1.894h.891V56.09zm-6.068 3.668.097.739c1.155 0 2.765-.028 4.141-.25l-.04-.65c-.257.029-.522.053-.795.073v-2.32h.643v-.714h-3.861v.714h.634v2.404c-.29.004-.566.004-.819.004zm1.3 3.444h4.953v-.723h-4.054v-1.444h-.899v2.167zm.386-3.46V57.35h.859v2.364a31.43 31.43 0 0 1-.859.028zm11.454-3.644h-.899v5.242h.899v-5.242zm-5.916 2.288c0 1.071.855 1.822 1.959 1.822 1.103 0 1.954-.75 1.95-1.822.004-1.056-.847-1.81-1.95-1.814-1.104.004-1.959.758-1.959 1.814zm.875 0c-.004-.626.462-1.036 1.084-1.036.606 0 1.075.41 1.075 1.036 0 .642-.469 1.043-1.075 1.043-.622 0-1.088-.401-1.084-1.043zm.241 4.816h5.001v-.723h-4.102v-1.67h-.899v2.393zm12.473-3.733h-6.614v.723h6.614v-.723zm-6.293-1.027.305.706c1.317-.136 2.28-.662 2.673-1.396.394.734 1.369 1.26 2.689 1.396l.313-.706c-1.376-.133-2.243-.678-2.376-1.276h2.095v-.73h-5.418v.73h2.075c-.136.606-1.011 1.144-2.356 1.276zm.45 3.564c0 .855.951 1.332 2.528 1.332 1.566 0 2.509-.477 2.513-1.332-.004-.843-.947-1.333-2.513-1.333-1.577 0-2.528.49-2.528 1.333zm.907 0c-.004-.422.566-.634 1.621-.634 1.04 0 1.614.212 1.622.634-.008.421-.582.63-1.622.634-1.055-.004-1.625-.213-1.621-.634zm9.086-5.515c-.975-.004-1.665.683-1.661 1.67-.004.98.686 1.666 1.661 1.67.971-.005 1.67-.69 1.67-1.67 0-.987-.699-1.674-1.67-1.67zm-.859 1.67c-.008-.586.354-.947.859-.947.498 0 .859.361.859.947 0 .57-.361.931-.859.931-.505 0-.867-.361-.859-.931zm.458 5.097h4.896v-2.914h-.883v.73h-3.13v-.73h-.883v2.914zm.883-.723v-.754h3.13v.755h-3.13zm1.605-2.544h.835v-1.597h.722v1.645h.851V56.1h-.851v1.556h-.722v-1.42h-.835v3.756zM96.784 67.532h-.53v4.414h.53v-4.414zm-4.842 1.901c-.004.88.679 1.491 1.582 1.488.904.003 1.58-.608 1.583-1.488-.004-.869-.68-1.477-1.583-1.48-.903.003-1.586.611-1.582 1.48zm.523 0c-.007-.59.448-1.012 1.06-1.012.6 0 1.059.421 1.059 1.012 0 .601-.459 1.02-1.06 1.02-.61 0-1.066-.419-1.06-1.02zm.42 4h4.09v-.448h-3.56v-1.487h-.53v1.936zm10.426-3.035H97.81v.441h5.501v-.441zm-5.189-.788.19.428c.996-.126 1.916-.57 2.249-1.24.332.67 1.26 1.114 2.248 1.24l.197-.428c-1.07-.122-2.075-.649-2.099-1.331h1.915v-.442h-4.51v.442h1.902c-.023.69-1.039 1.209-2.092 1.331zm.354 2.853c-.004.7.78 1.086 2.085 1.086 1.294 0 2.071-.387 2.078-1.086-.007-.693-.784-1.094-2.078-1.094-1.304 0-2.089.4-2.085 1.094zm.543 0c-.007-.425.574-.666 1.542-.673.957.007 1.538.248 1.541.673-.003.42-.584.662-1.541.658-.968.004-1.549-.237-1.542-.658zm12.076-.123h-1.372v-1.643c.499-.269.801-.697.801-1.236 0-.934-.917-1.549-2.207-1.556-1.291.007-2.207.622-2.207 1.556 0 .55.312.984.828 1.253v1.626h-1.372v.449h5.529v-.449zm-4.469-2.88c-.004-.675.699-1.12 1.691-1.113.981-.007 1.691.438 1.691 1.114 0 .675-.71 1.127-1.691 1.127-.992 0-1.695-.452-1.691-1.127zm.835 2.88v-1.433c.258.068.547.102.856.102.316 0 .608-.037.869-.105v1.436h-1.725zm6.174-3.518v-.129H115v-.428h-1.351v-.767h-.537v.767h-1.365v.428h1.365v.13c-.003.818-.628 1.555-1.515 1.853l.258.408c.72-.238 1.274-.758 1.532-1.416.275.594.832 1.05 1.532 1.26l.258-.415c-.89-.261-1.539-.94-1.542-1.69zm-1.08 3.627c-.003.7.768 1.1 2.024 1.1 1.253 0 2.024-.4 2.024-1.1 0-.703-.771-1.104-2.024-1.1-1.256-.004-2.027.397-2.024 1.1zm.53 0c-.004-.431.567-.68 1.494-.686.927.007 1.494.255 1.494.686 0 .421-.567.68-1.494.68s-1.498-.259-1.494-.68zm1.725-2.75h1.236v1.487h.537v-3.661h-.537v1.732h-1.236v.441zm7.756-2.174h-.536v6.051h.536v-6.051zm-4.754 2.574c.003 1.287.642 2.102 1.542 2.099.896.003 1.545-.812 1.541-2.099.004-1.284-.645-2.102-1.541-2.106-.9.004-1.539.822-1.542 2.106zm.516 0c0-.981.421-1.627 1.026-1.63.608.003 1.025.649 1.025 1.63 0 .981-.417 1.627-1.025 1.623-.605.004-1.026-.642-1.026-1.623zm11.893.258h-3.634v-1.902h3.572v-.434h-4.109v2.77h1.78v1.563h-2.486v.448h5.529v-.448h-2.52v-1.562h1.868v-.435zm3.192-1.514v-.136h1.365v-.428h-1.352v-.775h-.536v.775h-1.365v.428h1.365v.136c-.004.818-.628 1.541-1.528 1.82l.271.42c.71-.237 1.264-.736 1.528-1.388.265.594.802 1.056 1.495 1.273l.258-.42c-.893-.269-1.498-.955-1.501-1.706zm-1.291 3.124h3.423v1.61h.53v-2.052h-3.953v.442zm3.423-.754h.53v-1.617h.91v-.455h-.91v-1.616h-.53v3.688zm6.948-3.681h-.509v1.664h-.788v-1.57h-.509v3.553h.509v-1.542h.788v1.637h.509v-3.742zm-5.161 1.127h3.097v-.441h-1.277v-.666h-.53v.666h-1.29v.441zm.265 1.338c-.004.618.529 1.032 1.29 1.032.764 0 1.294-.414 1.297-1.032-.003-.635-.533-1.032-1.297-1.032-.761 0-1.294.397-1.29 1.032zm.156 3.09.258.408a2.14 2.14 0 0 0 1.216-1.087c.183.49.553.917 1.134 1.135a2.01 2.01 0 0 0 1.117-1.162c.211.493.638.903 1.246 1.114l.252-.408c-.775-.237-1.233-.838-1.23-1.426v-.217h-.523v.217c-.006.442-.298 1.026-.872 1.365-.571-.309-.853-.849-.846-1.365v-.217h-.523v.217c-.003.55-.472 1.168-1.229 1.426zm.319-3.09c0-.39.333-.635.815-.632.482-.003.815.242.815.632 0 .38-.333.628-.815.632-.482-.004-.815-.252-.815-.632zm6.534 1.155h-.53v2.33h4.082v-2.33h-.537v.706h-3.015v-.706zm-1.23-.428h5.502v-.442h-5.502v.442zm.313-1.297.204.427c.93-.139 1.854-.61 2.237-1.29.384.676 1.305 1.151 2.238 1.29l.197-.427c-1.063-.136-2.163-.805-2.159-1.549v-.285h-.551v.285c0 .767-1.09 1.403-2.166 1.549zm.917 3.626v-.774h3.015v.774h-3.015zm9.76-5.528h-.53v6.038h.53v-6.038zm-4.585 4.482h.489c.968 0 1.922-.074 2.995-.298l-.074-.455a14.252 14.252 0 0 1-2.887.292v-3.423h-.523v3.884zm10.29-4.482h-.53v6.051h.53v-3.212h1.012v-.448h-1.012v-2.391zm-4.408 4.537h.475c1.148 0 1.939-.034 2.887-.204l-.068-.462c-.9.167-1.671.214-2.764.218v-3.057h2.288v-.441h-2.818v3.946zm6.384.991a.44.44 0 0 0 .435-.441.434.434 0 0 0-.435-.435.434.434 0 0 0-.435.435.44.44 0 0 0 .435.441z" fill="#000"/>
    <circle cx="75.748" cy="64.748" r="10.748" fill="#12BD7E"/>
    <path d="M70.948 66.359v-6.104c1.84.053 3.456-.315 4.8-1.116 1.346.801 2.963 1.16 4.8 1.113v6.107a3.984 3.984 0 0 1-1.98 3.447l-2.82 1.635-2.818-1.634a4.018 4.018 0 0 1-1.982-3.448z" stroke="#fff" stroke-linejoin="round"/>
    <path d="M75.258 67.262c-.16 0-.31-.07-.41-.19l-1.57-1.85a.508.508 0 0 1-.12-.39.54.54 0 0 1 .95-.29l1.15 1.35 2.57-2.91a.54.54 0 1 1 .83.69l-2.98 3.39c-.1.12-.25.19-.41.19l-.01.01z" fill="#fff"/>
    <path d="M208.074 58.865v-.68h1.242v-.38h-2.935v.38h1.23v.68c-.003.903-.653 1.887-1.4 2.244l.275.364c.595-.3 1.122-.961 1.366-1.726.243.72.767 1.321 1.377 1.597l.257-.364c-.767-.33-1.409-1.23-1.412-2.115zm1.969 3.61h.463v-5.21h-.463v5.21zm5.496-4.928H212v.38h3.082v.007c.003.404.003.873-.144 1.529h-3.542v.38h4.77v-.38h-.765c.138-.65.138-1.125.138-1.53v-.386zm-3.557 4.857h3.58v-1.84h-3.58v1.84zm.457-.375v-1.101h2.666v1.101h-2.666z" fill="#7A7A7A"/>
    <path d="M11.543 102.822C23.299 90.049 44.47 67.265 46 66.5h185.5l36 35c-1.5-1-3.167-2.333-5.5-2.5H21c-4.165 0-7.482 2.029-9.457 3.822L10 104.5c.342-.47.863-1.06 1.543-1.678z" fill="url(#9qmjl8m5be)"/>
    <g filter="url(#h95yi6d0ff)">
        <path d="M10 107a8 8 0 0 1 8-8h244a8 8 0 0 1 8 8v43a8 8 0 0 1-8 8H18a8 8 0 0 1-8-8v-43z" fill="#fff" fill-opacity=".07"/>
        <path d="M18 99.5h244a7.5 7.5 0 0 1 7.5 7.5v43a7.5 7.5 0 0 1-7.5 7.5H18a7.5 7.5 0 0 1-7.5-7.5v-43a7.5 7.5 0 0 1 7.5-7.5z" stroke="#D1D1D1"/>
    </g>
    <path d="M79.433 115.653h-1.435v8.278h1.435v-3.796h1.6v-1.181h-1.6v-3.301zm-9.09 5.967.584 1.117c3.396-.984 5.389-3.161 5.383-6.208h-5.485v1.156h3.942c-.241 1.745-1.796 3.173-4.424 3.935zm1.714 5.281h7.807v-1.142h-6.373v-2.679h-1.434v3.821zm19.17-11.248h-1.41v2.082h-1.625v1.143h1.625v1.092h-1.625v1.168h1.625v2.996h1.41v-8.481zm-9.598 5.802.152 1.168c1.828 0 4.374-.044 6.551-.394l-.063-1.028c-.407.045-.826.083-1.257.114v-3.669h1.015v-1.129h-6.106v1.129h1.003v3.803c-.457.006-.895.006-1.295.006zm2.056 5.446h7.834v-1.142h-6.412v-2.285h-1.421v3.427zm.61-5.471v-3.784h1.358v3.739c-.457.019-.914.038-1.358.045zm18.116-5.764h-1.422v8.29h1.422v-8.29zm-9.356 3.618c0 1.695 1.352 2.882 3.097 2.882 1.746 0 3.092-1.187 3.085-2.882.007-1.669-1.34-2.863-3.085-2.869-1.745.006-3.097 1.2-3.097 2.869zm1.383 0c-.006-.99.73-1.638 1.714-1.638.959 0 1.701.648 1.701 1.638 0 1.016-.742 1.651-1.7 1.651-.985 0-1.72-.635-1.715-1.651zm.381 7.617h7.91v-1.142h-6.488v-2.641H94.82v3.783zm19.729-5.903h-10.461v1.143h10.461v-1.143zm-9.953-1.625.482 1.117c2.082-.216 3.606-1.047 4.228-2.209.622 1.162 2.164 1.993 4.253 2.209l.495-1.117c-2.178-.209-3.549-1.073-3.758-2.019h3.313v-1.155h-8.569v1.155h3.282c-.216.959-1.6 1.81-3.726 2.019zm.711 5.637c0 1.352 1.504 2.107 3.999 2.107 2.475 0 3.967-.755 3.973-2.107-.006-1.333-1.498-2.108-3.973-2.108-2.495 0-3.999.775-3.999 2.108zm1.434 0c-.006-.667.895-1.003 2.565-1.003 1.644 0 2.551.336 2.564 1.003-.013.666-.92.996-2.564 1.003-1.67-.007-2.571-.337-2.565-1.003zm14.371-8.722c-1.542-.006-2.634 1.079-2.628 2.641-.006 1.549 1.086 2.634 2.628 2.64 1.536-.006 2.641-1.091 2.641-2.64 0-1.562-1.105-2.647-2.641-2.641zm-1.358 2.641c-.013-.927.559-1.498 1.358-1.498.787 0 1.359.571 1.359 1.498 0 .901-.572 1.472-1.359 1.472-.799 0-1.371-.571-1.358-1.472zm.724 8.061h7.744v-4.608h-1.397v1.155h-4.951v-1.155h-1.396v4.608zm1.396-1.142v-1.194h4.951v1.194h-4.951zm2.539-4.025h1.32v-2.526h1.143v2.602h1.346v-6.233h-1.346v2.463h-1.143v-2.247h-1.32v5.941zM78.272 133.331h-.838v6.982h.838v-6.982zm-7.66 3.008c-.005 1.391 1.075 2.358 2.503 2.352 1.429.006 2.498-.961 2.503-2.352-.005-1.375-1.074-2.337-2.503-2.342-1.428.005-2.508.967-2.503 2.342zm.828 0c-.011-.935.708-1.601 1.675-1.601.95 0 1.676.666 1.676 1.601 0 .951-.725 1.611-1.676 1.611-.967 0-1.686-.66-1.675-1.611zm.666 6.327h6.466v-.709h-5.629v-2.353h-.837v3.062zm16.489-4.802h-8.701v.698h8.7v-.698zm-8.207-1.246.3.677c1.574-.199 3.03-.902 3.556-1.961.526 1.059 1.993 1.762 3.556 1.961l.311-.677c-1.692-.193-3.281-1.026-3.319-2.105h3.03v-.699h-7.133v.699h3.007c-.037 1.09-1.643 1.912-3.308 2.105zm.558 4.512c-.005 1.106 1.236 1.719 3.298 1.719 2.046 0 3.276-.613 3.287-1.719-.01-1.096-1.24-1.73-3.287-1.73-2.062 0-3.303.634-3.298 1.73zm.86 0c-.011-.672.907-1.053 2.438-1.064 1.515.011 2.433.392 2.439 1.064-.006.666-.924 1.047-2.439 1.042-1.53.005-2.45-.376-2.438-1.042zm19.099-.193h-2.17v-2.6c.79-.424 1.268-1.101 1.268-1.955 0-1.477-1.45-2.449-3.491-2.46-2.041.011-3.492.983-3.492 2.46 0 .87.495 1.557 1.311 1.982v2.573h-2.17v.709h8.744v-.709zm-7.068-4.555c-.005-1.069 1.106-1.773 2.675-1.762 1.552-.011 2.674.693 2.674 1.762s-1.122 1.783-2.674 1.783c-1.569 0-2.68-.714-2.675-1.783zm1.321 4.555v-2.267c.408.107.865.161 1.354.161a5.5 5.5 0 0 0 1.375-.166v2.272h-2.729zm9.765-5.565v-.204h2.159v-.677h-2.138v-1.214h-.848v1.214h-2.159v.677h2.159v.204c-.006 1.295-.994 2.46-2.396 2.933l.408.644c1.139-.376 2.015-1.198 2.423-2.24.435.94 1.316 1.66 2.422 1.993l.408-.655c-1.407-.414-2.433-1.488-2.438-2.675zm-1.708 5.736c-.006 1.107 1.214 1.741 3.201 1.741 1.982 0 3.201-.634 3.201-1.741 0-1.111-1.219-1.745-3.201-1.74-1.987-.005-3.207.629-3.201 1.74zm.838 0c-.006-.682.897-1.074 2.363-1.085 1.466.011 2.363.403 2.363 1.085 0 .666-.897 1.075-2.363 1.075s-2.369-.409-2.363-1.075zm2.728-4.35h1.955v2.352h.849v-5.79h-.849v2.74h-1.955v.698zm12.268-3.438h-.849v9.572h.849v-9.572zm-7.52 4.072c.006 2.035 1.015 3.324 2.439 3.319 1.418.005 2.444-1.284 2.438-3.319.006-2.031-1.02-3.325-2.438-3.33-1.424.005-2.433 1.299-2.439 3.33zm.817 0c0-1.553.666-2.573 1.622-2.579.961.006 1.622 1.026 1.622 2.579 0 1.552-.661 2.572-1.622 2.567-.956.005-1.622-1.015-1.622-2.567zm18.809.408h-5.747v-3.008h5.651v-.688h-6.499v4.383h2.814v2.471h-3.932v.709h8.745v-.709h-3.986v-2.471h2.954v-.687zm5.049-2.396v-.215h2.159v-.676h-2.137v-1.225h-.849v1.225h-2.159v.676h2.159v.215c-.005 1.295-.994 2.439-2.417 2.879l.43.666c1.122-.376 1.998-1.165 2.417-2.197.419.94 1.267 1.671 2.363 2.015l.408-.666c-1.412-.425-2.369-1.51-2.374-2.697zm-2.041 4.942h5.414v2.546h.838v-3.245h-6.252v.699zm5.414-1.193h.838v-2.556h1.439v-.72h-1.439v-2.557h-.838v5.833zm10.989-5.822h-.805v2.632h-1.246v-2.482h-.806v5.619h.806v-2.439h1.246v2.589h.805v-5.919zm-8.164 1.783h4.899v-.698h-2.02v-1.053h-.838v1.053h-2.041v.698zm.419 2.116c-.005.978.838 1.633 2.041 1.633 1.209 0 2.047-.655 2.052-1.633-.005-1.004-.843-1.632-2.052-1.632-1.203 0-2.046.628-2.041 1.632zm.247 4.888.409.645c.913-.333 1.573-.978 1.922-1.719.29.773.876 1.45 1.794 1.794.897-.36 1.477-1.085 1.767-1.837.333.779 1.01 1.429 1.972 1.762l.397-.645c-1.225-.376-1.95-1.326-1.944-2.256v-.343h-.827v.343c-.011.699-.473 1.622-1.381 2.159-.902-.488-1.348-1.342-1.337-2.159v-.343h-.827v.343c-.006.87-.747 1.848-1.945 2.256zm.505-4.888c0-.617.527-1.004 1.289-.999.763-.005 1.289.382 1.289.999 0 .602-.526.994-1.289.999-.762-.005-1.289-.397-1.289-.999zm10.334 1.827h-.838v3.684h6.456v-3.684h-.848v1.117h-4.77v-1.117zm-1.944-.677h8.701v-.698h-8.701v.698zm.494-2.052.322.677c1.472-.22 2.933-.967 3.54-2.041.607 1.069 2.062 1.821 3.539 2.041l.312-.677c-1.681-.215-3.421-1.273-3.416-2.449v-.451h-.87v.451c0 1.214-1.724 2.218-3.427 2.449zm1.45 5.736v-1.224h4.77v1.224h-4.77zm15.437-8.744h-.838v9.55h.838v-9.55zm-7.251 7.09h.773c1.531 0 3.04-.118 4.738-.472l-.119-.72c-1.6.338-3.104.451-4.565.462v-5.414h-.827v6.144zm16.274-7.09h-.838v9.572h.838v-5.081h1.601v-.709h-1.601v-3.782zm-6.971 7.176h.751c1.816 0 3.067-.054 4.566-.322l-.108-.731c-1.423.264-2.642.339-4.372.344v-4.834h3.621v-.698h-4.458v6.241zm10.097 1.568a.694.694 0 0 0 .688-.698.685.685 0 0 0-.688-.687c-.376 0-.698.311-.687.687a.693.693 0 0 0 .687.698z" fill="#000"/>
    <path d="M238.457 117.775v-1.132h2.07v-.635h-4.892v.635h2.051v1.132c-.005 1.504-1.089 3.145-2.334 3.741l.459.605c.991-.498 1.87-1.601 2.275-2.876.405 1.201 1.279 2.202 2.295 2.661l.43-.605c-1.28-.552-2.349-2.051-2.354-3.526zm3.281 6.016h.772v-8.682h-.772v8.682zm9.16-8.213H245v.635h5.137v.01c.005.673.005 1.455-.24 2.548h-5.903v.635h7.949v-.635h-1.274c.229-1.083.229-1.875.229-2.548v-.645zm-5.927 8.096h5.967v-3.067h-5.967v3.067zm.761-.625v-1.836h4.444v1.836h-4.444z" fill="#7A7A7A"/>
    <circle cx="45" cy="129" r="17" fill="#12BD7E"/>
    <path d="m49.459 137-4.46 2.585-4.456-2.584V137a6.354 6.354 0 0 1-3.135-5.453v-9.655c2.91.085 5.466-.496 7.592-1.764 2.128 1.267 4.685 1.836 7.592 1.761v9.658A6.303 6.303 0 0 1 49.459 137z" stroke="#fff" stroke-width="1.582" stroke-linejoin="round"/>
    <path d="M44.225 132.975a.842.842 0 0 1-.649-.301l-2.483-2.926a.803.803 0 0 1-.19-.616.816.816 0 0 1 .3-.57.853.853 0 0 1 1.203.111l1.819 2.135 4.064-4.602a.852.852 0 1 1 1.313 1.091l-4.713 5.362a.845.845 0 0 1-.649.3l-.015.016z" fill="#fff"/>
    <defs>
        <filter id="u5wxq0quda" x="25" y="0" width="230" height="160" filterUnits="userSpaceOnUse" color-interpolation-filters="sRGB">
            <feFlood flood-opacity="0" result="BackgroundImageFix"/>
            <feBlend in="SourceGraphic" in2="BackgroundImageFix" result="shape"/>
            <feGaussianBlur stdDeviation="7.5" result="effect1_foregroundBlur_549_18656"/>
        </filter>
        <filter id="voto3qqsub" x="151.28" y="-7.16" width="100.88" height="75.66" filterUnits="userSpaceOnUse" color-interpolation-filters="sRGB">
            <feFlood flood-opacity="0" result="BackgroundImageFix"/>
            <feGaussianBlur in="BackgroundImageFix" stdDeviation="13.58"/>
            <feComposite in2="SourceAlpha" operator="in" result="effect1_backgroundBlur_549_18656"/>
            <feBlend in="SourceGraphic" in2="effect1_backgroundBlur_549_18656" result="shape"/>
        </filter>
        <filter id="lnnk8o9x9d" x="43" y="38" width="192" height="54" filterUnits="userSpaceOnUse" color-interpolation-filters="sRGB">
            <feFlood flood-opacity="0" result="BackgroundImageFix"/>
            <feGaussianBlur in="BackgroundImageFix" stdDeviation="5"/>
            <feComposite in2="SourceAlpha" operator="in" result="effect1_backgroundBlur_549_18656"/>
            <feBlend in="SourceGraphic" in2="effect1_backgroundBlur_549_18656" result="shape"/>
        </filter>
        <filter id="h95yi6d0ff" x="4" y="93" width="272" height="71" filterUnits="userSpaceOnUse" color-interpolation-filters="sRGB">
            <feFlood flood-opacity="0" result="BackgroundImageFix"/>
            <feGaussianBlur in="BackgroundImageFix" stdDeviation="3"/>
            <feComposite in2="SourceAlpha" operator="in" result="effect1_backgroundBlur_549_18656"/>
            <feBlend in="SourceGraphic" in2="effect1_backgroundBlur_549_18656" result="shape"/>
        </filter>
        <linearGradient id="9qmjl8m5be" x1="138.75" y1="66.5" x2="138.75" y2="104.5" gradientUnits="userSpaceOnUse">
            <stop offset=".376" stop-color="#D9D9D9" stop-opacity="0"/>
            <stop offset="1" stop-color="#D9D9D9"/>
        </linearGradient>
        <clipPath id="iwjyivtpgc">
            <path fill="#fff" transform="translate(187.334 30.67)" d="M0 0h32.331v5.497H0z"/>
        </clipPath>
    </defs>
</svg>
