<svg width="300" height="200" viewBox="0 0 300 200" fill="none" xmlns="http://www.w3.org/2000/svg">
<g clip-path="url(#clip0_1324_12663)">
<path d="M174.46 16.1668C122.463 -2.89621 69.3505 11.9016 55.8297 49.2185C42.3089 86.5355 73.5001 132.241 125.497 151.304C177.494 170.367 230.607 155.569 244.128 118.252C257.649 80.9349 226.458 35.2299 174.46 16.1668Z" fill="#FFFBE7"/>
<path opacity="0.6" d="M109.899 41.9494C146.358 34.2903 173.152 49.0601 197.502 88.7433C221.187 127.343 247.633 137.589 232.605 164.834C214.546 197.579 131.473 195.288 89.6953 168.538C29.9915 130.307 54.3267 53.6258 109.899 41.9494Z" fill="#FFDE8D" fill-opacity="0.8"/>
<g clip-path="url(#clip1_1324_12663)">
<g style="mix-blend-mode:color-burn">
<path d="M205.951 138.411L170.538 117.724C168.11 116.305 164.181 116.305 161.77 117.724L158.49 119.652L84.4126 163.209L82.8809 164.107C80.4668 165.526 80.4809 167.827 82.909 169.246L118.322 189.932C120.753 191.351 124.679 191.351 127.09 189.932L128.619 189.033L202.7 145.474L205.977 143.546C208.391 142.127 208.38 139.827 205.949 138.408L205.951 138.411Z" fill="#A5A5A5"/>
</g>
<path d="M206.704 133.639C206.704 133.312 206.704 132.987 206.704 132.66C206.704 132.709 206.704 132.757 206.699 132.805C206.769 131.822 206.162 130.824 204.875 130.073L169.461 109.386C167.033 107.968 163.105 107.968 160.693 109.386L157.416 111.314L83.3358 154.874L81.8041 155.772C80.6013 156.48 80.0027 157.407 80.0027 158.334C80.0027 158.331 80.0027 158.329 80.0027 158.326C80.0027 158.909 79.9999 159.494 79.9971 160.08C79.9971 160.092 79.9971 160.1 79.9971 160.112C79.9971 160.407 79.9971 160.7 79.9971 160.996C79.9971 161.007 79.9971 161.016 79.9971 161.027C79.9971 161.323 79.9971 161.616 79.9971 161.911C79.9971 162.847 80.6041 163.785 81.8266 164.499L117.24 185.185C119.671 186.607 123.594 186.604 126.008 185.185L127.54 184.287L201.62 140.727L204.9 138.8C206.097 138.094 206.699 137.173 206.701 136.249C206.701 135.663 206.704 135.08 206.707 134.494C206.707 134.517 206.707 134.537 206.707 134.56C206.707 134.233 206.707 133.909 206.707 133.582C206.707 133.604 206.707 133.624 206.707 133.647L206.704 133.639Z" fill="#0A165C"/>
<path d="M204.877 130.073L169.464 109.386C167.036 107.968 163.107 107.968 160.696 109.386L157.419 111.314L83.3354 154.874L81.8038 155.772C79.3897 157.191 79.4037 159.492 81.8319 160.911L117.245 181.597C119.676 183.016 123.602 183.016 126.013 181.597L127.542 180.696L201.623 137.136L204.9 135.208C207.314 133.789 207.302 131.489 204.871 130.07L204.877 130.073Z" fill="#303794"/>
<path d="M183.676 121.59L179.132 118.937C178.783 118.732 178.221 118.732 177.875 118.937C177.53 119.141 177.53 119.468 177.875 119.673L182.42 122.326C182.768 122.531 183.333 122.531 183.679 122.326C184.025 122.124 184.022 121.795 183.673 121.59" fill="white"/>
<path d="M147.362 155.521L124.112 141.94C123.766 141.739 123.21 141.739 122.867 141.94C122.527 142.142 122.527 142.467 122.872 142.668L146.119 156.249C146.462 156.451 147.019 156.451 147.359 156.249C147.702 156.047 147.702 155.723 147.359 155.521" fill="#5595EB"/>
<path d="M141.583 158.916L118.333 145.335C117.988 145.133 117.434 145.133 117.091 145.335C116.751 145.537 116.751 145.861 117.097 146.063L140.347 159.643C140.69 159.845 141.246 159.845 141.586 159.643C141.926 159.442 141.926 159.117 141.583 158.916Z" fill="#5595EB"/>
<path d="M126.261 156.736L112.561 148.731C112.215 148.53 111.662 148.53 111.319 148.731C110.979 148.933 110.979 149.258 111.324 149.459L125.025 157.464C125.368 157.666 125.924 157.666 126.264 157.464C126.607 157.262 126.604 156.938 126.261 156.736Z" fill="#5595EB"/>
<g style="mix-blend-mode:color-burn">
<g style="mix-blend-mode:color-burn">
<g style="mix-blend-mode:color-burn">
<path d="M170.766 142.783L152.62 132.183C152.218 131.95 151.569 131.95 151.173 132.183L140.066 138.711C139.667 138.947 139.67 139.326 140.072 139.559L158.218 150.159C158.62 150.392 159.266 150.392 159.665 150.159L170.769 143.631C171.168 143.397 171.165 143.016 170.766 142.783Z" fill="#BDBDBD"/>
</g>
</g>
</g>
<path d="M159.367 100.036L136.626 86.7514C136.061 86.4215 135.549 86.3902 135.178 86.6063C135.018 86.7002 134.855 86.7969 134.695 86.8907L132.759 88.0281C133.127 87.812 133.641 87.8404 134.206 88.1731L156.945 101.458C158.066 102.115 158.974 103.699 158.971 105.004L158.847 149.226C158.847 149.874 158.62 150.329 158.257 150.542C159.064 150.067 159.87 149.593 160.677 149.121C161.039 148.907 161.267 148.452 161.267 147.804L161.391 103.582C161.396 102.277 160.488 100.69 159.364 100.036H159.367Z" fill="#3C6BDC"/>
<path d="M156.947 101.459C158.069 102.116 158.977 103.7 158.974 105.005L158.85 149.227C158.847 150.532 157.934 151.055 156.813 150.398L134.074 137.113C132.953 136.457 132.045 134.87 132.048 133.565L132.172 89.3427C132.174 88.0375 133.088 87.5143 134.209 88.1683L156.947 101.453V101.459Z" fill="#5FA7FB"/>
<path d="M145.464 137.643L142.485 135.903C141.738 135.465 141.131 135.818 141.128 136.688C141.128 137.558 141.729 138.613 142.477 139.051L145.456 140.791C146.203 141.226 146.81 140.876 146.813 140.009C146.813 139.139 146.212 138.081 145.464 137.643Z" fill="white"/>
<path d="M138.104 127.695V126.586L152.841 135.193V136.302L138.104 127.695ZM138.112 124.297V123.188L152.85 131.795V132.904L138.112 124.297ZM138.121 120.899V119.79L152.858 128.397V129.506L138.121 120.899ZM138.129 117.498V116.389L152.867 124.997V126.106L138.129 117.498ZM146.254 117.268L146.279 108.052L148.581 109.397L148.556 118.613L146.254 117.268ZM138.674 112.841L138.714 98.8963L141.015 100.241L140.976 114.186L138.674 112.841ZM150.045 119.483L150.084 105.416L152.386 106.761L152.347 120.828L150.045 119.483ZM142.465 115.056L142.51 98.6887L144.812 100.034L144.767 116.401L142.465 115.056ZM157.284 103.85L133.849 90.1582L133.742 128.403L157.178 142.095L157.284 103.85Z" fill="#182AF9"/>
<path d="M141.018 100.241L138.716 98.8965L138.677 112.841L140.978 114.186L141.018 100.241Z" fill="#83CFD6"/>
<path d="M144.815 100.031L142.514 98.6855L142.469 115.056L144.77 116.398L144.815 100.031Z" fill="#F3D664"/>
<path d="M148.587 109.398L146.285 108.053L146.257 117.268L148.561 118.613L148.587 109.398Z" fill="#83CFD6"/>
<path d="M152.389 106.761L150.087 105.416L150.048 119.483L152.35 120.828L152.389 106.761Z" fill="#F3D664"/>
<path d="M152.869 125L138.137 116.393L138.132 117.502L152.866 126.109L152.869 125Z" fill="white"/>
<path d="M152.86 128.397L138.126 119.793L138.123 120.899L152.858 129.506L152.86 128.397Z" fill="white"/>
<path d="M152.85 131.795L138.118 123.188L138.115 124.296L152.847 132.904L152.85 131.795Z" fill="white"/>
<path d="M152.841 135.193L138.106 126.586L138.104 127.695L152.838 136.302L152.841 135.193Z" fill="white"/>
<path d="M155.789 59.1304L147.167 54.0945C145.686 53.2301 144.481 53.9239 144.475 55.6442L144.416 77.1667C144.41 78.8898 145.608 80.9855 147.089 81.8499L155.711 86.8857C157.192 87.7501 158.395 87.0592 158.4 85.336L158.001 85.1028L157.602 84.8697C157.602 85.4782 157.389 85.899 157.046 86.0981C156.703 86.2943 156.234 86.2658 155.714 85.9616L147.091 80.9258C146.569 80.6215 146.102 80.104 145.759 79.5069C145.419 78.9097 145.211 78.2415 145.214 77.6358L145.273 56.1134C145.273 55.5078 145.487 55.0869 145.83 54.8879C146.172 54.6917 146.642 54.7201 147.165 55.0272L155.787 60.063C156.309 60.3673 156.776 60.8848 157.116 61.4819C157.459 62.0819 157.667 62.7473 157.664 63.353L157.605 84.8754L158.004 85.1085L158.403 85.3417L158.462 63.8193C158.468 62.099 157.271 60.0005 155.789 59.1361" fill="white"/>
<path d="M152.746 61.0378L150.197 59.5478C149.975 59.4198 149.795 59.5194 149.795 59.7781C149.795 60.0369 149.972 60.3468 150.194 60.4748L152.743 61.9648C152.965 62.0927 153.142 61.9904 153.142 61.7345C153.142 61.4785 152.965 61.1686 152.746 61.0378Z" fill="white"/>
<path d="M84.3114 23.7715L84.2861 32.3759C84.2861 33.2062 84.8594 34.2156 85.5733 34.6336L96.7388 41.1566C97.4526 41.5718 98.0315 41.2362 98.0343 40.4059L98.0596 31.8015L97.7589 31.6252L84.3114 23.7715ZM98.0596 31.4575V31.8044V31.4575Z" fill="white"/>
<path d="M96.7781 26.9821L85.6126 20.4592C84.8988 20.0412 84.3198 20.3767 84.317 21.207L84.3086 23.769L97.7561 31.6256L98.0568 31.8019V31.108L98.0652 29.2399C98.0652 28.4096 97.4919 27.4001 96.7781 26.9821Z" fill="#F3D664"/>
<path d="M134.76 49.2377L139.231 46.6074C139.22 50.4604 137.876 53.1702 135.707 54.4441L131.235 57.0743C133.402 55.8004 134.748 53.0906 134.76 49.2377Z" fill="#E69523"/>
<path d="M122.684 42.1821L127.158 39.5547L139.234 46.6066L134.76 49.2368L122.684 42.1821Z" fill="#E9A727"/>
<path d="M122.723 28.1439L127.197 25.5137L127.158 39.5548L122.684 42.1822L122.723 28.1439Z" fill="#E69523"/>
<path d="M122.723 28.1444L122.684 42.1828L134.76 49.2375C134.737 56.9917 129.313 60.1195 122.644 56.2239C115.975 52.3283 110.585 42.8823 110.607 35.1309C110.63 27.3767 116.054 24.2488 122.723 28.1444Z" fill="#FFD66E"/>
<path d="M114.132 27.2908L118.603 24.6605C120.798 23.3696 123.839 23.5516 127.197 25.5107L122.726 28.141C119.37 26.1818 116.33 25.997 114.135 27.2908" fill="#EEC033"/>
<path d="M138.95 36.4011C137.775 33.7112 136.165 31.1406 134.279 28.9654C132.686 27.1313 130.896 25.5788 129.002 24.4727L124.53 27.1029C126.424 28.209 128.215 29.7616 129.805 31.5956C131.694 33.7709 133.304 36.3414 134.476 39.0313C135.803 42.0653 136.573 45.2529 136.564 48.1959L141.035 45.5657C141.044 42.6227 140.274 39.4351 138.947 36.4011H138.95Z" fill="#3C6BDC"/>
<path d="M124.53 27.1035C131.199 30.9991 136.589 40.4423 136.566 48.1965L124.49 41.1418L124.53 27.1035Z" fill="#5595EB"/>
<path d="M195.766 89.276L195.707 110.457C195.707 110.804 195.586 111.049 195.39 111.162C195.907 110.858 196.424 110.554 196.944 110.25C197.138 110.136 197.259 109.891 197.261 109.544L197.32 88.3633L195.769 89.276H195.766Z" fill="#C6D3DE"/>
<path d="M195.767 89.2753L195.708 110.457C195.708 111.156 195.219 111.438 194.617 111.085L169.875 96.6314C169.273 96.2817 168.787 95.4315 168.79 94.732L168.849 73.5508L195.767 89.2753Z" fill="white"/>
<path d="M170.909 72.2059C171.257 72.4078 171.536 72.8998 171.536 73.3035C171.536 73.7073 171.252 73.8694 170.906 73.6647C170.56 73.4628 170.279 72.9737 170.279 72.5699C170.279 72.1661 170.563 72.0041 170.909 72.2059Z" fill="#313777"/>
<path d="M173.453 73.6903C173.801 73.8922 174.079 74.3841 174.079 74.7879C174.079 75.1917 173.796 75.3537 173.45 75.149C173.104 74.9471 172.823 74.458 172.823 74.0543C172.823 73.6505 173.107 73.4884 173.453 73.6903Z" fill="white"/>
<path d="M175.993 75.1786C176.341 75.3805 176.62 75.8724 176.62 76.2762C176.62 76.68 176.336 76.842 175.987 76.6373C175.642 76.4354 175.36 75.9463 175.363 75.5426C175.363 75.1388 175.647 74.9767 175.993 75.1786Z" fill="#D97D31"/>
<path d="M194.69 84.2151C195.291 84.5648 195.774 85.4179 195.774 86.1145L195.766 89.2765L168.849 73.552L168.857 70.39C168.857 69.6934 169.346 69.4119 169.947 69.7616L194.69 84.2151ZM173.446 75.1529C173.795 75.3548 174.076 75.1955 174.076 74.7917C174.076 74.388 173.798 73.8989 173.449 73.6942C173.103 73.4923 172.82 73.6515 172.82 74.0581C172.82 74.4619 173.098 74.951 173.446 75.1529ZM175.987 76.6372C176.335 76.8391 176.616 76.6798 176.619 76.2761C176.619 75.8723 176.338 75.3832 175.993 75.1785C175.647 74.9766 175.363 75.1387 175.363 75.5424C175.363 75.9462 175.641 76.4353 175.987 76.6372ZM170.903 73.6657C171.251 73.8676 171.533 73.7084 171.533 73.3046C171.533 72.9008 171.254 72.4118 170.906 72.207C170.56 72.0051 170.276 72.1672 170.276 72.571C170.276 72.9748 170.557 73.4638 170.903 73.6657Z" fill="#6BB5FB"/>
<path d="M196.244 83.3018L171.502 68.8483C171.198 68.672 170.926 68.655 170.729 68.7715C170.212 69.0758 169.695 69.38 169.178 69.6843C169.374 69.5677 169.65 69.5848 169.951 69.7611L194.693 84.2145C195.294 84.5643 195.778 85.4173 195.778 86.114L195.769 89.2759L197.321 88.3632L197.329 85.2012C197.329 84.5046 196.846 83.6515 196.244 83.3018Z" fill="#5595EB"/>
<path d="M177.03 83.194L172.489 80.541L172.475 85.8214L177.016 88.4744L177.03 83.194Z" fill="#BCCDF1"/>
<path d="M184.084 87.3151L179.542 84.6621L179.525 89.9425L184.07 92.5955L184.084 87.3151Z" fill="#BCCDF1"/>
<path d="M191.138 91.4342L186.597 88.7812L186.58 94.0616L191.124 96.7146L191.138 91.4342Z" fill="#BCCDF1"/>
<path d="M181.269 96.0187L172.509 90.9004L172.506 91.5942L181.269 96.7125V96.0187Z" fill="#303794"/>
<path d="M177.396 95.8733L172.503 93.0156L172.5 93.7123L177.393 96.57L177.396 95.8733Z" fill="#303794"/>
<path d="M184.978 58.4918C184.813 58.3951 184.681 58.1591 184.681 57.9686C184.681 57.7781 184.815 57.6985 184.981 57.7952L188.75 59.9989C188.916 60.0955 189.048 60.3315 189.048 60.5221C189.048 60.7126 188.913 60.7922 188.747 60.6955L184.978 58.4918ZM184.987 55.0569C184.821 54.9602 184.689 54.727 184.689 54.5337C184.689 54.3403 184.824 54.2664 184.99 54.3631L188.758 56.5668C188.924 56.6634 189.056 56.8966 189.056 57.0871C189.056 57.2776 188.921 57.3573 188.756 57.2606L184.987 55.0569ZM192.091 55.2673L181.671 49.1794C181.123 48.858 180.676 49.2334 180.676 50.021L180.653 58.4008C180.653 59.1856 181.092 60.0813 181.643 60.3998L183.725 61.6168L183.714 65.1683L187.763 63.9769L192.058 66.4877C192.606 66.809 193.053 66.4308 193.053 65.646L193.075 57.2663C193.075 56.4786 192.637 55.5858 192.086 55.2673" fill="#182AF9"/>
<path d="M188.761 56.5639L184.992 54.3602C184.826 54.2635 184.691 54.3403 184.691 54.5308C184.691 54.7213 184.826 54.9573 184.989 55.054L188.758 57.2577C188.924 57.3544 189.059 57.2776 189.059 57.0842C189.059 56.8909 188.924 56.6606 188.761 56.5639Z" fill="white"/>
<path d="M188.75 59.9954L184.981 57.7917C184.816 57.6951 184.681 57.7718 184.681 57.9652C184.681 58.1585 184.816 58.3917 184.979 58.4884L188.747 60.6921C188.913 60.7888 189.048 60.712 189.048 60.5186C189.048 60.3253 188.913 60.0921 188.75 59.9954Z" fill="white"/>
<path d="M100.841 16.0713V15.6078L103.413 17.1091V17.5726L100.841 16.0713ZM100.847 13.7311V13.2676L103.419 14.7689V15.2324L100.847 13.7311ZM105.689 13.8789L98.5876 9.73027C98.2138 9.51132 97.9103 9.77008 97.9075 10.3018L97.8906 16.0144C97.8906 16.5518 98.1913 17.1603 98.5651 17.3764L99.9871 18.2067L99.9815 20.6294L102.741 19.8161L105.667 21.5251C106.041 21.744 106.344 21.4881 106.347 20.9535L106.364 15.241C106.364 14.7064 106.066 14.0979 105.689 13.8789Z" fill="#5FA7FB"/>
<path d="M103.418 14.7689L100.849 13.2676L100.847 13.7311L103.418 15.2296V14.7689Z" fill="white"/>
<path d="M103.413 17.1088L100.845 15.6074L100.842 16.0709L103.41 17.5723L103.413 17.1088Z" fill="white"/>
<path d="M151.906 40.1612L153.545 39.1973C156.113 40.6958 158.232 45.2027 158.612 49.7011L156.973 50.6651C156.594 46.1667 154.472 41.6626 151.906 40.1612Z" fill="#5FA7FB"/>
<path d="M157.136 43.8473C156.579 42.5735 155.899 41.4474 155.143 40.5745C154.64 39.9944 154.103 39.5252 153.544 39.1982C152.476 38.5755 151.484 38.5584 150.658 39.0447C150.113 39.366 149.568 39.6873 149.02 40.0086C149.846 39.5224 150.838 39.5394 151.906 40.1622C152.465 40.4892 153.002 40.9583 153.505 41.5384C154.264 42.4114 154.941 43.5374 155.497 44.8113C156.267 46.5771 156.799 48.6216 156.973 50.666L158.611 49.7021C158.437 47.6576 157.906 45.6131 157.136 43.8473Z" fill="#3C6BDC"/>
<path d="M151.906 40.1624C154.472 41.6609 156.594 46.1678 156.973 50.6662L146.797 44.7205C147.202 40.6827 149.34 38.6638 151.906 40.1624Z" fill="#5FA7FB"/>
<path d="M155.301 38.7252C154.756 39.0465 154.21 39.3678 153.662 39.6891C154.107 39.4304 154.379 38.8759 154.382 38.0882C154.388 36.5044 153.286 34.5737 151.923 33.7803L153.561 32.8164C154.924 33.6126 156.026 35.5405 156.02 37.1271C156.02 37.9148 155.742 38.4693 155.301 38.728V38.7252Z" fill="#5FA7FB"/>
<path d="M155.588 35.2367C155.344 34.6879 155.012 34.1647 154.624 33.724C154.301 33.3543 153.938 33.0444 153.556 32.8198H153.562C152.876 32.416 152.255 32.379 151.805 32.6435L150.167 33.6074C150.614 33.343 151.235 33.3799 151.918 33.778L151.907 33.7837C152.294 34.0083 152.663 34.3211 152.989 34.6965C153.376 35.1372 153.708 35.6604 153.953 36.2092C154.228 36.8262 154.388 37.4774 154.391 38.0802C154.391 38.8679 154.121 39.4223 153.68 39.6868L155.313 38.7143C155.754 38.4499 156.027 37.8954 156.024 37.1077C156.024 36.5078 155.861 35.8566 155.585 35.2396L155.588 35.2367Z" fill="#3C6BDC"/>
<path d="M151.909 33.7839C153.278 34.5716 154.388 36.4938 154.393 38.0776C154.399 39.6614 153.294 40.3069 151.926 39.5192C150.557 38.7316 149.447 36.8094 149.441 35.2227C149.436 33.6389 150.54 32.9934 151.909 33.7811V33.7839Z" fill="#5FA7FB"/>
<path d="M178.419 24.3155C179.332 23.7781 180.599 23.8549 181.996 24.6709L184.933 26.3856L182.232 27.9722L179.295 26.2576C177.899 25.4415 176.631 25.3648 175.718 25.9022L178.419 24.3155Z" fill="#84ECE3"/>
<path d="M186.988 22.8371C188.323 22.0523 190.169 22.1632 192.209 23.3546C195.891 25.5071 198.932 30.4434 199.446 34.8622L196.745 36.4489C196.231 32.0301 193.19 27.0938 189.509 24.9413C187.468 23.7499 185.622 23.639 184.287 24.4238L186.988 22.8371Z" fill="#84ECE3"/>
<path d="M199.446 34.8652L199.935 35.1496C202.711 36.7732 204.957 40.7058 204.946 43.9331C204.94 45.5369 204.381 46.6657 203.479 47.1975L200.778 48.7841C201.68 48.2524 202.242 47.1235 202.245 45.5198C202.253 42.2924 200.011 38.3599 197.234 36.7363L196.745 36.4519L199.446 34.8652Z" fill="#2DA896"/>
<path d="M189.508 24.9448C185.824 22.7923 182.766 24.1657 182.229 27.9732L179.293 26.2585C176.516 24.6377 174.257 25.9401 174.248 29.1674C174.24 32.3976 176.482 36.3302 179.259 37.951L197.197 48.4292C199.974 50.0529 202.233 48.7477 202.242 45.5203C202.25 42.293 200.008 38.3604 197.231 36.7368L196.742 36.4524C196.228 32.0337 193.187 27.0974 189.505 24.9448H189.508Z" fill="#3AC4B6"/>
<path d="M91.8513 31.0385C91.3679 30.7542 90.9717 30.9816 90.9717 31.5475C90.9717 32.1105 91.3623 32.7986 91.8457 33.0801C92.2982 33.3446 92.6691 33.1654 92.7197 32.6849L91.8485 32.1759V31.9456L92.7197 32.4546C92.6719 31.9171 92.301 31.3058 91.8513 31.0413" fill="#182AF9"/>
<path d="M124.822 51.2052L92.7198 32.4523L91.8486 31.9434V32.1737L92.7198 32.6855L124.822 51.4355V51.2052Z" fill="#182AF9"/>
<g style="mix-blend-mode:color-burn">
<g style="mix-blend-mode:color-burn">
<g style="mix-blend-mode:color-burn">
<g style="mix-blend-mode:color-burn">
<path d="M176.252 138.637L184.037 134.09L186.231 135.381L178.45 139.928L176.252 138.637Z" fill="#BDBDBD"/>
</g>
<g style="mix-blend-mode:color-burn">
<path d="M172.648 136.52L183.617 130.113L185.812 131.404L174.846 137.811L172.648 136.52Z" fill="#BDBDBD"/>
</g>
<g style="mix-blend-mode:color-burn">
<path d="M169.046 134.401L178.067 129.129L180.265 130.423L171.244 135.692L169.046 134.401Z" fill="#BDBDBD"/>
</g>
</g>
</g>
</g>
<path d="M176.392 129.586L178.604 130.88L178.579 139.928L176.367 138.637L176.392 129.586Z" fill="#DF6429"/>
<path d="M172.778 123.766L174.989 125.059L174.953 137.81L172.741 136.519L172.778 123.766Z" fill="#DF6429"/>
<path d="M169.144 123.91L171.356 125.201L171.325 135.691L169.116 134.4L169.144 123.91Z" fill="#DF6429"/>
<path d="M102.876 108.187L114.486 101.359L126.168 108.187L114.559 115.011L102.876 108.187Z" fill="white"/>
<path d="M126.168 108.187L114.486 101.359L102.876 108.187L114.559 115.011L126.168 108.187Z" fill="white"/>
<path d="M102.876 103.697L114.486 96.873L126.168 103.697L114.559 110.525L102.876 103.697Z" fill="#F3D664"/>
<path d="M126.168 103.697L114.486 96.873L102.876 103.697L114.559 110.525L126.168 103.697Z" fill="#FFD66E"/>
<path d="M102.876 99.2072L114.483 92.3828L126.168 99.2072L114.561 106.034L102.876 99.2072Z" fill="#5595EB"/>
<path d="M126.168 99.2072L114.483 92.3828L102.876 99.2072L114.561 106.034L126.168 99.2072Z" fill="#5595EB"/>
<path d="M151.343 67.8121C150.016 67.0358 148.934 67.6613 148.932 69.2025C148.926 70.7465 150 72.6261 151.329 73.4024C152.658 74.1787 153.737 73.5559 153.74 72.0119C153.746 70.4679 152.672 68.5883 151.343 67.8121Z" fill="#5595EB"/>
<path d="M124.692 70.7453L112.574 63.665L112.58 61.9135C112.58 61.5893 112.358 61.1997 112.079 61.0348L106.83 57.9695C106.689 57.8871 106.563 57.8785 106.47 57.9326L105.396 58.5638C105.489 58.5098 105.616 58.5183 105.756 58.6008L111.006 61.6661C111.284 61.8282 111.506 62.2206 111.506 62.5419L111.501 64.2935L123.619 71.3738C123.897 71.5358 124.122 71.9311 124.122 72.2552L124.08 87.0556C124.08 87.2177 124.023 87.3286 123.934 87.3826C124.29 87.1722 124.65 86.9618 125.007 86.7514C125.097 86.6973 125.153 86.5864 125.153 86.4244L125.195 71.6211C125.195 71.297 124.971 70.9046 124.692 70.7397V70.7453Z" fill="#E19724"/>
<path d="M111.004 61.6695C111.282 61.8316 111.504 62.224 111.504 62.5453L111.498 64.2969L123.616 71.3772C123.895 71.5393 124.119 71.9345 124.119 72.2587L124.077 87.0591C124.077 87.3832 123.85 87.514 123.571 87.3519L105.703 76.9135C105.425 76.7514 105.2 76.3562 105.2 76.032L105.248 58.8914C105.248 58.5673 105.476 58.4393 105.754 58.6014L111.004 61.6667V61.6695Z" fill="#E3B34C"/>
<path d="M121.329 69.6652L107.07 61.3338C106.805 61.1803 106.595 61.3025 106.592 61.6096V62.2835L121.801 71.1695V70.4955C121.804 70.1885 121.593 69.8188 121.329 69.6652Z" fill="white"/>
<path d="M122.619 71.6493L121.801 71.1716L106.591 62.2856L105.72 61.7766C105.459 61.6231 105.245 61.7482 105.242 62.0525L105.203 76.0538C105.203 76.3609 105.414 76.7306 105.675 76.8841L122.577 86.7567C122.841 86.9103 123.052 86.788 123.054 86.4809L123.094 72.4796C123.094 72.1753 122.883 71.8028 122.619 71.6493Z" fill="#FFD66F"/>
<path d="M174.362 -1.72639L162.677 -8.55078L151.07 -1.72639L162.753 5.09799L174.362 -1.72639Z" stroke="white" stroke-width="2"/>
<path d="M106.392 158.552L101.389 155.629L99.6299 156.664L104.635 159.587L106.392 158.552Z" fill="#F1CC6E"/>
<path d="M113.249 162.558L108.247 159.635L106.487 160.667L111.49 163.59L113.249 162.558Z" fill="#F1CC6E"/>
<path d="M120.106 166.562L115.101 163.639L113.345 164.674L118.347 167.597L120.106 166.562Z" fill="#F1CC6E"/>
</g>
</g>
<defs>
<clipPath id="clip0_1324_12663">
<rect width="300" height="200" fill="white"/>
</clipPath>
<clipPath id="clip1_1324_12663">
<rect width="140" height="200" fill="white" transform="translate(80 -9)"/>
</clipPath>
</defs>
</svg>
