<svg width="300" height="200" viewBox="0 0 300 200" fill="none" xmlns="http://www.w3.org/2000/svg">
<g clip-path="url(#clip0_1324_12524)">
<path d="M174.46 16.1668C122.463 -2.89621 69.3505 11.9016 55.8297 49.2185C42.3089 86.5355 73.5001 132.241 125.497 151.304C177.494 170.367 230.607 155.569 244.128 118.252C257.649 80.9349 226.458 35.2299 174.46 16.1668Z" fill="#FFFBE7"/>
<path opacity="0.6" d="M109.899 41.9494C146.358 34.2903 173.152 49.0601 197.502 88.7433C221.187 127.343 247.633 137.589 232.605 164.834C214.546 197.579 131.473 195.288 89.6953 168.538C29.9915 130.307 54.3267 53.6258 109.899 41.9494Z" fill="#FFDE8D" fill-opacity="0.8"/>
<g style="mix-blend-mode:color-burn">
<path d="M147.528 144.927L138.105 139.54C137.458 139.172 136.414 139.172 135.772 139.54L134.899 140.042L115.187 151.386L114.779 151.62C114.137 151.991 114.14 152.589 114.787 152.96L124.21 158.347C124.857 158.718 125.901 158.715 126.543 158.347L126.95 158.112L146.663 146.768L147.536 146.266C148.178 145.898 148.175 145.298 147.528 144.927Z" fill="#A5A5A5"/>
</g>
<g style="mix-blend-mode:color-burn" opacity="0.43">
<g style="mix-blend-mode:color-burn" opacity="0.43">
<path d="M139.432 139.616L180.557 116.101C182.344 115.078 185.234 115.078 187.01 116.101L228.672 140.077C230.448 141.1 230.437 142.755 228.65 143.778L187.525 167.29C185.735 168.313 182.848 168.313 181.069 167.29L139.408 143.315C137.631 142.292 137.642 140.633 139.43 139.61" fill="#B3B3B3"/>
</g>
</g>
<path d="M183.9 53.3824L133.629 24.6387C132.648 24.0768 131.759 24.025 131.117 24.3932C129.822 25.1379 128.528 25.8825 127.233 26.6271C127.875 26.2589 128.762 26.3107 129.745 26.8726L180.017 55.6163C181.961 56.7292 183.54 59.4295 183.534 61.647L183.504 72.1838L183.261 156.484L183.231 167.02C183.228 168.122 182.834 168.894 182.201 169.26C183.495 168.515 184.79 167.771 186.085 167.026C186.718 166.66 187.112 165.889 187.115 164.787L187.145 154.25L187.387 69.9499L187.418 59.4131C187.423 57.1956 185.848 54.4952 183.9 53.3824Z" fill="#365FE5"/>
<path d="M180.02 55.6164L129.749 26.8727C127.798 25.7571 126.215 26.6518 126.209 28.8694L126.179 39.4062L125.937 123.706L125.906 134.243C125.901 136.46 127.473 139.158 129.424 140.274L179.695 169.017C181.64 170.13 183.229 169.238 183.234 167.021L183.265 156.484L183.507 72.184L183.537 61.6472C183.543 59.4296 181.967 56.7293 180.02 55.6164Z" fill="#A1DBDB"/>
<path d="M150.8 159.899C150.8 160.889 150.794 161.882 150.792 162.872C150.792 163.777 150.188 164.678 148.99 165.368C146.578 166.756 142.653 166.756 140.223 165.368C139 164.669 138.392 163.753 138.395 162.836C138.397 161.846 138.4 160.853 138.403 159.863C138.403 160.78 139.012 161.696 140.232 162.394C142.661 163.783 146.586 163.783 148.999 162.394C150.197 161.704 150.797 160.802 150.8 159.899Z" fill="#D1D1D1"/>
<path d="M148.971 157.367C151.401 158.756 151.412 161.009 148.999 162.397C146.586 163.786 142.658 163.786 140.232 162.397C137.803 161.009 137.792 158.756 140.204 157.367C142.617 155.979 146.542 155.979 148.971 157.367ZM146.826 161.8C147.14 161.98 147.644 161.977 147.955 161.8C148.263 161.623 148.263 161.331 147.952 161.153L142.378 157.968C142.066 157.787 141.559 157.79 141.248 157.968C140.937 158.148 140.94 158.437 141.251 158.614L146.826 161.8Z" fill="white"/>
<path d="M147.949 161.154C148.26 161.334 148.263 161.623 147.952 161.8C147.64 161.98 147.136 161.98 146.822 161.8L141.248 158.614C140.934 158.434 140.934 158.145 141.245 157.968C141.556 157.791 142.06 157.788 142.374 157.968L147.949 161.154Z" fill="#D1D1D1"/>
<path d="M162.792 167.487C162.789 168.477 162.787 169.47 162.784 170.46C162.784 171.363 162.181 172.265 160.983 172.956C158.57 174.344 154.642 174.344 152.216 172.956C150.993 172.257 150.384 171.341 150.387 170.424C150.387 169.434 150.392 168.441 150.395 167.451C150.395 168.368 151.004 169.284 152.224 169.982C154.653 171.371 158.578 171.371 160.991 169.982C162.189 169.292 162.789 168.389 162.792 167.487Z" fill="#D1D1D1"/>
<path d="M160.964 164.955C163.393 166.344 163.404 168.597 160.991 169.985C158.578 171.373 154.653 171.373 152.224 169.985C149.795 168.597 149.784 166.344 152.197 164.955C154.609 163.567 158.534 163.567 160.964 164.955ZM158.818 169.388C159.132 169.568 159.636 169.565 159.947 169.388C160.256 169.21 160.256 168.919 159.944 168.741L154.37 165.555C154.058 165.375 153.552 165.378 153.243 165.555C152.932 165.735 152.935 166.025 153.246 166.202L158.821 169.388" fill="white"/>
<path d="M159.944 168.738C160.255 168.918 160.258 169.207 159.947 169.384C159.635 169.564 159.131 169.564 158.817 169.384L153.243 166.198C152.929 166.018 152.929 165.729 153.24 165.552C153.548 165.375 154.055 165.372 154.366 165.552L159.941 168.738H159.944Z" fill="#D1D1D1"/>
<path d="M140.49 136.476C142.834 133.036 141.917 128.369 138.447 126.048C134.973 123.73 130.261 124.635 127.917 128.075L121.351 137.714L133.924 146.115L140.49 136.476Z" fill="#D8594C"/>
<path d="M121.351 137.711L114.784 147.35C112.443 150.79 113.358 155.457 116.831 157.778C120.304 160.097 125.017 159.191 127.361 155.751L133.927 146.112L121.353 137.711H121.351Z" fill="#E6E6E6"/>
<path d="M138.447 126.049C137.703 125.553 136.902 125.203 136.078 124.996C137.921 127.481 138.092 130.94 136.252 133.643L129.686 143.282L133.927 146.116L140.493 136.477C142.837 133.037 141.92 128.37 138.45 126.049H138.447Z" fill="#DF6161"/>
<path d="M123.119 152.919C121.279 155.623 117.974 156.76 114.958 155.996C115.459 156.675 116.087 157.278 116.831 157.777C120.304 160.096 125.017 159.19 127.361 155.751L133.927 146.111L129.685 143.277L123.119 152.917V152.919Z" fill="white"/>
<path d="M206.131 41.2987C203.905 40.0277 201.889 39.9077 200.432 40.745C198.774 41.6997 197.113 42.6544 195.455 43.609C196.912 42.7717 198.928 42.8889 201.154 44.1627C205.577 46.6912 209.149 52.8202 209.133 57.8527C209.125 60.3512 208.235 62.1105 206.797 62.9397C208.458 61.985 210.116 61.0303 211.774 60.0757C213.212 59.2492 214.104 57.4899 214.11 54.9887C214.124 49.9562 210.551 43.8272 206.128 41.2987H206.131Z" fill="#D1D1D1"/>
<path d="M201.151 44.162C205.574 46.6905 209.146 52.8195 209.13 57.852C209.116 62.8844 205.519 64.9138 201.098 62.3853C196.675 59.8568 193.102 53.7278 193.116 48.6953C193.13 43.6629 196.727 41.6335 201.151 44.162Z" fill="white"/>
<path d="M201.952 49.8562L199.71 48.5742L199.702 51.6783L196.972 50.1181L196.964 52.6711L199.693 54.2313L199.685 57.3353L201.924 58.6173L201.935 55.5106L204.662 57.0708L204.67 54.5204L201.941 52.9602L201.952 49.8562Z" fill="#D8594C"/>
<path d="M160.156 72.4181L161.409 71.6953L196.278 91.6315L196.149 136.204L194.896 136.926L160.026 116.99L160.156 72.4181Z" fill="#F2D280"/>
<path d="M160.156 72.418L160.026 116.99L194.896 136.926L195.023 92.3542L160.156 72.418Z" fill="white"/>
<path d="M166.452 78.5284L188.208 90.9664L189.464 90.2435L189.481 84.3001L183.245 80.7351C183.253 77.8192 181.182 74.2651 178.621 72.8004C177.329 72.0612 176.161 71.993 175.315 72.4785C174.897 72.7186 174.478 72.9586 174.06 73.2014L174.068 73.1959C173.517 73.5096 173.104 74.0606 172.886 74.8107L167.725 71.8594L166.469 72.5822L166.452 78.5257V78.5284ZM175.343 72.8931C175.307 72.8931 175.271 72.8931 175.233 72.8931C175.269 72.8931 175.304 72.8931 175.343 72.8931ZM174.228 73.1141C174.2 73.1277 174.175 73.1414 174.15 73.155C174.178 73.1414 174.203 73.1277 174.228 73.1141ZM174.398 73.0432C174.371 73.0541 174.343 73.065 174.313 73.0786C174.34 73.0677 174.368 73.0541 174.398 73.0432ZM174.575 72.9859C174.544 72.9941 174.514 73.005 174.484 73.0159C174.514 73.005 174.542 72.9968 174.575 72.9859ZM174.756 72.9422C174.723 72.9477 174.693 72.9559 174.66 72.9641C174.693 72.9559 174.723 72.9477 174.756 72.9422ZM174.946 72.9122C174.913 72.915 174.88 72.9231 174.845 72.9286C174.878 72.9231 174.911 72.9177 174.946 72.9122ZM175.142 72.8959C175.106 72.8959 175.07 72.9013 175.037 72.9041C175.073 72.9013 175.106 72.8959 175.142 72.8959ZM176.916 76.9491C177.056 76.9873 177.202 77.0473 177.354 77.1346C178.312 77.6828 179.089 79.0167 179.086 80.1077C179.086 80.2741 179.064 80.4241 179.031 80.5578C178.891 80.5196 178.747 80.4596 178.596 80.375C177.635 79.824 176.858 78.493 176.861 77.3964C176.861 77.2328 176.883 77.0855 176.916 76.9518V76.9491ZM175.861 72.9504C175.899 72.9586 175.938 72.9641 175.977 72.9722C175.938 72.9641 175.899 72.9586 175.861 72.9504ZM175.952 77.1373C175.935 77.1537 175.919 77.1673 175.902 77.1837C175.919 77.1673 175.935 77.1537 175.952 77.1373ZM176.056 77.05C176.04 77.0637 176.021 77.0746 176.001 77.0882C176.018 77.0746 176.037 77.0637 176.056 77.05ZM176.081 72.9968C176.12 73.005 176.158 73.0159 176.197 73.0268C176.158 73.0159 176.12 73.0077 176.081 72.9968ZM176.651 73.1795C176.613 73.1632 176.577 73.1523 176.538 73.1386C176.577 73.1523 176.613 73.1659 176.651 73.1795ZM175.547 72.9041C175.511 72.9013 175.472 72.8986 175.437 72.8986C175.472 72.8986 175.511 72.9013 175.547 72.9041ZM175.759 72.9286C175.72 72.9231 175.685 72.9204 175.646 72.915C175.685 72.9204 175.72 72.9231 175.759 72.9286ZM176.423 73.0923C176.384 73.0786 176.348 73.0704 176.31 73.0568C176.348 73.0677 176.384 73.0786 176.423 73.0923ZM176.885 73.275C176.85 73.2586 176.817 73.245 176.781 73.2314C176.817 73.2477 176.85 73.2614 176.885 73.275ZM177.122 73.3896C177.095 73.3759 177.067 73.365 177.042 73.3514C177.07 73.365 177.098 73.3759 177.122 73.3896ZM178.508 81.2424C178.53 81.2315 178.552 81.2233 178.574 81.2124C178.552 81.2233 178.53 81.2342 178.508 81.2424ZM178.378 81.2888C178.403 81.2833 178.425 81.2779 178.45 81.2697C178.428 81.2779 178.403 81.2833 178.378 81.2888ZM178.241 81.316C178.265 81.3133 178.29 81.3106 178.315 81.3079C178.29 81.3133 178.265 81.3133 178.241 81.316ZM178.092 81.3242C178.117 81.3242 178.144 81.3269 178.172 81.3242C178.147 81.3242 178.119 81.3242 178.092 81.3242ZM177.34 81.0924C177.401 81.1278 177.458 81.1578 177.519 81.1824C177.461 81.1551 177.401 81.1251 177.34 81.0924ZM177.935 81.3106C177.962 81.316 177.99 81.3215 178.017 81.3242C177.99 81.3242 177.962 81.316 177.935 81.3106ZM177.77 81.2751C177.8 81.2833 177.827 81.2942 177.858 81.2997C177.83 81.2942 177.8 81.2833 177.77 81.2751ZM177.593 81.2151C177.626 81.2288 177.657 81.2424 177.69 81.2533C177.657 81.2424 177.626 81.2288 177.593 81.2151ZM175.814 77.2955C175.828 77.2764 175.842 77.2573 175.855 77.241C175.842 77.2601 175.825 77.2764 175.814 77.2955ZM175.74 77.4264C175.751 77.4046 175.762 77.3855 175.775 77.3637C175.764 77.3855 175.751 77.4046 175.74 77.4264ZM175.682 77.5737C175.69 77.5519 175.698 77.5301 175.709 77.5083C175.701 77.5301 175.69 77.5519 175.682 77.5737ZM175.638 77.7374C175.643 77.7129 175.649 77.691 175.657 77.6692C175.652 77.6938 175.643 77.7156 175.638 77.7374ZM175.61 77.9174C175.61 77.8956 175.616 77.8738 175.618 77.8547C175.618 77.8765 175.61 77.8956 175.61 77.9174Z" fill="#EEC05D"/>
<path d="M177.362 73.5223C179.923 74.987 181.995 78.5411 181.986 81.4569L188.222 85.0219L188.205 90.9654L166.449 78.5275L166.466 72.584L172.701 76.149C172.71 73.2332 174.795 72.0548 177.359 73.5223H177.362ZM177.34 81.0942C178.298 81.6424 179.08 81.2005 179.083 80.104C179.086 79.013 178.309 77.6792 177.351 77.1309C176.39 76.5799 175.607 77.0218 175.605 78.1129C175.602 79.2094 176.378 80.5404 177.34 81.0914" fill="#F2D280"/>
<path d="M167.791 131.313L161.872 127.928V128.596L167.788 131.978L167.791 131.313Z" fill="#345CFA"/>
<path d="M167.78 135.388L161.861 132.006V132.671L167.778 136.056L167.78 135.388Z" fill="#345CFA"/>
<path d="M167.767 139.465L161.85 136.08L161.848 136.748L167.767 140.131V139.465Z" fill="#345CFA"/>
<path d="M175.092 147.736L161.839 140.158L161.836 140.824L175.09 148.404L175.092 147.736Z" fill="#345CFA"/>
<path d="M170.782 149.357L161.828 144.234L161.825 144.903L170.782 150.022V149.357Z" fill="#345CFA"/>
<g style="mix-blend-mode:color-burn">
<path d="M120.483 126.528L113.49 122.529C113.01 122.253 112.234 122.253 111.757 122.529L111.11 122.903L96.4819 131.32L96.1789 131.495C95.7024 131.77 95.7052 132.215 96.1844 132.487L103.178 136.486C103.657 136.762 104.434 136.759 104.91 136.486L105.213 136.312L119.841 127.894L120.488 127.52C120.965 127.248 120.962 126.803 120.483 126.528Z" fill="#A5A5A5"/>
</g>
<path d="M114.049 114.542C114.049 113.715 113.751 113.137 113.275 112.867H113.28C111.104 111.618 108.929 110.366 106.755 109.114C106.276 108.838 105.612 108.876 104.88 109.296L86.9548 119.544C85.5005 120.376 84.3244 122.394 84.3272 124.047L84.3657 137.653C84.3657 138.476 84.6604 139.055 85.1342 139.327C87.3101 140.579 89.486 141.831 91.6591 143.083C91.6453 143.075 91.6343 143.067 91.6233 143.062C92.1053 143.362 92.7829 143.332 93.5348 142.903L111.46 132.656C112.914 131.824 114.09 129.808 114.085 128.15L114.046 114.544L114.049 114.542ZM112.608 112.692C112.589 112.692 112.572 112.692 112.553 112.692C112.572 112.692 112.592 112.692 112.608 112.692ZM113.231 112.842C113.214 112.834 113.2 112.826 113.184 112.818C113.2 112.826 113.214 112.834 113.231 112.842ZM113.137 112.799C113.121 112.79 113.104 112.785 113.088 112.777C113.104 112.782 113.121 112.79 113.137 112.799ZM113.041 112.763C113.024 112.758 113.008 112.752 112.988 112.747C113.005 112.752 113.021 112.758 113.041 112.763ZM112.939 112.733C112.922 112.73 112.903 112.725 112.886 112.722C112.903 112.725 112.922 112.73 112.939 112.733ZM112.831 112.711C112.815 112.709 112.796 112.706 112.779 112.703C112.796 112.703 112.815 112.709 112.831 112.711ZM112.721 112.698C112.702 112.698 112.685 112.695 112.666 112.692C112.685 112.692 112.702 112.695 112.721 112.698ZM91.3837 142.865C91.3837 142.865 91.4057 142.89 91.4195 142.901C91.4085 142.89 91.3947 142.876 91.3837 142.865ZM90.8934 141.409C90.8934 141.46 90.8934 141.512 90.8962 141.561C90.8962 141.512 90.8934 141.46 90.8934 141.409ZM90.8989 141.597C90.8989 141.635 90.9044 141.67 90.9072 141.706C90.9044 141.67 90.9017 141.632 90.8989 141.597ZM90.9127 141.755C90.9154 141.785 90.9182 141.818 90.9237 141.848C90.9182 141.818 90.9154 141.788 90.9127 141.755ZM90.932 141.9C90.9375 141.927 90.9402 141.954 90.9457 141.981C90.9402 141.954 90.9347 141.927 90.932 141.9ZM90.9595 142.036C90.965 142.061 90.9705 142.088 90.976 142.112C90.9705 142.088 90.965 142.063 90.9595 142.036ZM90.9926 142.164C90.9981 142.186 91.0063 142.211 91.0118 142.232C91.0036 142.211 90.9981 142.186 90.9926 142.164ZM91.0311 142.284C91.0394 142.306 91.0449 142.328 91.0532 142.347C91.0449 142.325 91.0366 142.303 91.0311 142.284ZM91.0752 142.399C91.0834 142.418 91.0917 142.437 91.1 142.456C91.0917 142.437 91.0834 142.418 91.0752 142.399ZM91.1248 142.505C91.133 142.524 91.144 142.541 91.1523 142.56C91.1413 142.543 91.133 142.524 91.1248 142.505ZM91.1798 142.606C91.1909 142.622 91.1991 142.639 91.2101 142.655C91.1991 142.639 91.1909 142.622 91.1798 142.606ZM91.2404 142.699C91.2515 142.712 91.2625 142.729 91.2735 142.742C91.2625 142.729 91.2515 142.712 91.2404 142.699ZM91.3065 142.786C91.3176 142.8 91.3286 142.813 91.3396 142.827C91.3286 142.813 91.3176 142.8 91.3065 142.786ZM91.5352 143.004C91.5352 143.004 91.5599 143.023 91.5737 143.034C91.5599 143.026 91.5489 143.015 91.5352 143.004ZM91.4553 142.939C91.4553 142.939 91.4801 142.961 91.4938 142.972C91.4801 142.961 91.469 142.95 91.4553 142.939ZM112.311 112.717C112.33 112.714 112.349 112.711 112.366 112.709C112.347 112.709 112.327 112.711 112.311 112.717ZM111.537 112.979C111.537 112.979 111.559 112.968 111.57 112.962C111.559 112.968 111.548 112.973 111.537 112.979ZM111.672 112.913C111.688 112.905 111.702 112.9 111.719 112.894C111.702 112.902 111.688 112.908 111.672 112.913ZM111.804 112.856C111.821 112.85 111.837 112.845 111.851 112.84C111.834 112.845 111.818 112.85 111.804 112.856ZM111.933 112.809C111.95 112.804 111.967 112.799 111.986 112.793C111.969 112.799 111.953 112.804 111.933 112.809ZM112.06 112.771C112.079 112.766 112.096 112.763 112.115 112.758C112.096 112.763 112.079 112.766 112.06 112.771ZM112.187 112.741C112.206 112.736 112.223 112.733 112.242 112.73C112.223 112.733 112.206 112.736 112.187 112.741ZM112.487 112.7C112.468 112.7 112.451 112.7 112.432 112.703C112.451 112.703 112.471 112.703 112.487 112.7Z" fill="#E6E6E6"/>
<path d="M111.404 113.049C112.859 112.217 114.043 112.886 114.048 114.541L114.087 128.147C114.093 129.802 112.916 131.818 111.462 132.653L93.5372 142.9C92.0829 143.732 90.8986 143.064 90.8931 141.408L90.8545 127.803C90.849 126.147 92.0251 124.132 93.4821 123.297L111.407 113.049H111.404Z" fill="white"/>
<path d="M104.307 111.544C104.307 110.865 104.062 110.387 103.671 110.164H103.673C103.475 110.052 103.274 109.937 103.076 109.823C102.877 109.708 102.676 109.594 102.478 109.479C102.084 109.253 101.536 109.283 100.933 109.629L95.5538 112.706C94.3556 113.391 93.3861 115.052 93.3916 116.418L93.3971 118.434L94.5925 119.121L96.2203 118.191L96.2148 116.175C96.2148 115.834 96.4572 115.417 96.7546 115.248L101.484 112.545V113.808L102.685 114.495L104.312 113.565L104.307 111.549V111.544ZM103.112 110.019C103.112 110.019 103.087 110.019 103.073 110.019C103.087 110.019 103.098 110.019 103.112 110.019ZM103.627 110.139C103.627 110.139 103.605 110.128 103.594 110.123C103.605 110.128 103.616 110.134 103.627 110.139ZM103.549 110.104C103.549 110.104 103.527 110.093 103.514 110.09C103.525 110.096 103.536 110.101 103.549 110.104ZM103.467 110.074C103.467 110.074 103.442 110.066 103.431 110.063C103.442 110.066 103.456 110.071 103.467 110.074ZM103.381 110.049C103.381 110.049 103.357 110.044 103.346 110.041C103.357 110.041 103.37 110.046 103.381 110.049ZM103.293 110.033C103.293 110.033 103.269 110.027 103.255 110.027C103.266 110.027 103.28 110.03 103.293 110.033ZM103.202 110.022C103.202 110.022 103.178 110.022 103.164 110.019C103.178 110.019 103.189 110.019 103.202 110.022ZM102.563 110.112C102.563 110.112 102.591 110.104 102.602 110.101C102.588 110.106 102.574 110.109 102.563 110.112ZM102.58 112.179C102.58 112.179 102.572 112.171 102.569 112.169C102.574 112.171 102.577 112.177 102.58 112.179ZM102.55 112.149C102.55 112.149 102.539 112.141 102.533 112.139C102.539 112.141 102.544 112.144 102.55 112.149ZM102.497 110.136C102.497 110.136 102.47 110.147 102.456 110.15C102.47 110.145 102.484 110.139 102.497 110.136ZM102.384 110.183C102.384 110.183 102.36 110.194 102.346 110.199C102.357 110.194 102.371 110.188 102.384 110.183ZM102.269 110.237C102.269 110.237 102.247 110.248 102.236 110.254C102.247 110.248 102.258 110.243 102.269 110.237ZM102.596 112.204C102.596 112.204 102.605 112.212 102.608 112.218C102.605 112.212 102.599 112.209 102.596 112.204ZM102.621 112.242C102.621 112.242 102.627 112.253 102.63 112.259C102.627 112.253 102.624 112.248 102.621 112.242ZM102.641 112.286C102.641 112.286 102.646 112.297 102.649 112.305C102.649 112.299 102.643 112.294 102.641 112.286ZM102.657 112.335C102.657 112.335 102.66 112.349 102.663 112.357C102.663 112.349 102.66 112.343 102.657 112.335ZM102.668 112.392C102.668 112.392 102.668 112.406 102.668 112.411C102.668 112.403 102.668 112.398 102.668 112.392ZM102.668 110.082C102.668 110.082 102.696 110.076 102.707 110.071C102.693 110.074 102.682 110.076 102.668 110.082ZM103.01 110.025C103.01 110.025 102.985 110.025 102.971 110.025C102.985 110.025 102.999 110.025 103.01 110.025ZM102.91 110.033C102.91 110.033 102.883 110.033 102.872 110.038C102.886 110.038 102.899 110.036 102.91 110.033ZM102.809 110.049C102.809 110.049 102.781 110.055 102.767 110.057C102.781 110.055 102.795 110.052 102.809 110.049Z" fill="#BF4942"/>
<path d="M102.128 110.316C103.326 109.632 104.301 110.18 104.307 111.546L104.312 113.562L102.685 114.492L102.679 112.476C102.679 112.136 102.434 111.996 102.134 112.168L96.7546 115.245C96.4571 115.417 96.212 115.831 96.2147 116.172L96.2202 118.188L94.5924 119.118L94.5869 117.103C94.5842 115.739 95.5509 114.075 96.749 113.39L102.128 110.313V110.316Z" fill="#D8594C"/>
<path d="M100.869 129.064V127.801L102.219 127.026L102.213 125.488L103.323 124.852L103.329 126.391L104.681 125.619V126.882L103.334 127.654V129.192L102.227 129.828L102.222 128.289L100.869 129.064ZM102.761 122.294C100.313 123.693 98.3326 127.089 98.3408 129.877C98.3491 132.664 100.34 133.791 102.792 132.389C105.243 130.987 107.221 127.594 107.212 124.803C107.204 122.016 105.213 120.892 102.761 122.291" fill="#D8594C"/>
<path d="M103.326 124.852L102.216 125.487L102.219 127.025L100.866 127.8L100.869 129.063L102.221 128.288L102.227 129.829L103.337 129.194L103.334 127.653L104.684 126.881L104.681 125.618L103.331 126.39L103.326 124.852Z" fill="white"/>
<path d="M132.99 95.8659C132.266 95.4513 131.677 95.7841 131.674 96.6078C131.674 97.4316 132.255 98.4353 132.982 98.8499C133.707 99.2645 134.296 98.9318 134.299 98.108C134.299 97.2815 133.715 96.2805 132.99 95.8659Z" fill="#365FE5"/>
<path d="M146.979 104.529L136.778 98.6945C136.375 98.4653 136.048 98.6481 136.045 99.1063C136.045 99.5646 136.37 100.121 136.772 100.353L146.974 106.185C147.376 106.414 147.704 106.231 147.707 105.773C147.707 105.314 147.382 104.755 146.979 104.526" fill="#77BAB7"/>
<path d="M132.966 104.491C132.242 104.076 131.652 104.409 131.649 105.233C131.649 106.059 132.231 107.06 132.958 107.475C133.682 107.89 134.272 107.557 134.274 106.733C134.274 105.909 133.69 104.903 132.966 104.491Z" fill="#365FE5"/>
<path d="M146.955 113.153L136.753 107.321C136.351 107.092 136.023 107.275 136.021 107.733C136.021 108.192 136.346 108.751 136.748 108.98L146.95 114.814C147.352 115.043 147.679 114.861 147.682 114.402C147.682 113.947 147.357 113.388 146.955 113.156" fill="#77BAB7"/>
<path d="M157.016 47.9798L152.325 45.2985C151.785 44.9903 151.347 45.2385 151.345 45.8495C151.345 46.4632 151.78 47.2133 152.32 47.5215L157.01 50.2028C157.55 50.511 157.988 50.2628 157.991 49.6491C157.991 49.0353 157.558 48.288 157.019 47.9798" fill="#365FE5"/>
<path d="M103.773 84.4886L103.762 88.6537C103.756 90.3557 102.542 91.0403 101.046 90.1866L84.0519 80.4708C82.5564 79.6171 81.35 77.5441 81.3555 75.8448L81.3665 71.6797L103.773 84.4913V84.4886Z" fill="white"/>
<path d="M103.861 53.7472L103.772 84.4875L81.3662 71.6758L81.4543 40.9355L103.861 53.7472Z" fill="#A1DBDB"/>
<path d="M103.115 44.5887L86.1209 34.8729C85.369 34.442 84.686 34.401 84.1957 34.6847C83.5484 35.0584 82.9012 35.4294 82.2539 35.803C82.7469 35.5194 83.4272 35.5603 84.1792 35.9912L101.173 45.707C102.669 46.5608 103.875 48.631 103.87 50.3331L103.859 53.7508L103.77 84.4883L103.759 88.6534C103.759 89.499 103.456 90.0936 102.969 90.3718C103.616 89.9981 104.264 89.6272 104.911 89.2535C105.396 88.9725 105.698 88.3807 105.701 87.5351L105.712 83.37L105.8 52.6325L105.811 49.2147C105.817 47.5127 104.608 45.4452 103.115 44.5887Z" fill="#365FE5"/>
<path d="M101.173 45.7067C102.669 46.5605 103.875 48.6307 103.869 50.3328L103.858 53.7505L81.4521 40.9389L81.4632 37.5212C81.4687 35.8191 82.6833 35.1372 84.1789 35.991L101.173 45.7067Z" fill="white"/>
<path d="M91.4247 59.2773L91.4082 64.9644L95.7462 64.5962L91.4247 59.2773Z" fill="#362B72"/>
<path d="M112.099 58.0977C111.846 57.9531 111.62 58.0076 111.54 58.234L107.282 70.001L100.382 66.0568C100.057 65.8714 99.79 66.0187 99.79 66.3923C99.79 66.7633 100.054 67.2161 100.379 67.4043L107.7 71.5912C107.954 71.7358 108.18 71.6812 108.262 71.4548L112.06 60.9535L116.688 81.1379C116.757 81.4406 116.966 81.7543 117.211 81.9125C117.225 81.9207 117.239 81.9289 117.252 81.9371C117.481 82.068 117.693 82.038 117.792 81.8525L122.037 73.866L124.515 81.3424C124.612 81.637 124.818 81.9043 125.05 82.0353L146.88 94.5168C147.205 94.7023 147.472 94.555 147.475 94.1813C147.475 93.8104 147.211 93.3576 146.886 93.1694L125.433 80.9033L122.576 72.2895C122.48 71.9976 122.271 71.7276 122.042 71.5966C121.813 71.4684 121.604 71.5012 121.508 71.6839L117.382 79.444L112.672 58.8996C112.598 58.575 112.374 58.2531 112.118 58.1058L112.107 58.1004" fill="#DB3636"/>
<path d="M208.433 117.906L210.485 116.746L211.116 117.827L208.431 119.343L205.762 114.766L206.395 114.409L208.433 117.906ZM212.422 115.091L204.561 110.596L204.536 119.34L212.397 123.836L212.422 115.091Z" fill="#362B72"/>
<path opacity="0.5" d="M204.558 110.594L185.694 99.8086L185.669 108.553L204.533 119.341L204.558 110.594Z" fill="#365FE5"/>
<path d="M210.482 116.748L208.433 117.907L206.395 114.41L205.759 114.767L208.428 119.344L211.113 117.831L210.482 116.748Z" fill="white"/>
<path d="M169.245 111.519L165.714 109.498L165.703 113.685L169.234 115.703L169.245 111.519Z" fill="#A1DBDB"/>
<path d="M174.762 114.673L171.231 112.654L171.22 116.841L174.751 118.86L174.762 114.673Z" fill="#A1DBDB"/>
<path d="M180.282 117.829L176.748 115.811L176.737 119.995L180.271 122.016L180.282 117.829Z" fill="#A1DBDB"/>
<path d="M161.583 60.213C162.131 60.5267 162.574 61.285 162.572 61.9096C162.572 62.5343 162.123 62.7852 161.575 62.4715C161.024 62.1578 160.58 61.3996 160.583 60.7722C160.583 60.1476 161.032 59.8966 161.58 60.213" fill="white"/>
<path d="M156.217 57.1466C156.765 57.4603 157.208 58.2186 157.206 58.8432C157.206 59.4678 156.757 59.7188 156.211 59.4051C155.66 59.0914 155.217 58.3331 155.22 57.7058C155.22 57.0812 155.669 56.8302 156.217 57.1466Z" fill="white"/>
<path d="M150.852 54.0785C151.403 54.3921 151.846 55.1504 151.843 55.7778C151.843 56.4024 151.394 56.6533 150.846 56.3369C150.298 56.0233 149.855 55.265 149.857 54.6404C149.857 54.0157 150.306 53.7648 150.852 54.0785Z" fill="white"/>
<path d="M145.487 51.0101C146.037 51.3238 146.481 52.0821 146.478 52.7094C146.478 53.334 146.029 53.585 145.481 53.2686C144.933 52.9549 144.489 52.1966 144.492 51.572C144.492 50.9474 144.941 50.6964 145.489 51.0101" fill="#362B72"/>
<path d="M210.4 90.7426L204.552 92.6367L204.897 93.6815L210.745 91.7874L210.4 90.7426Z" fill="#E58FA5"/>
<path d="M208.608 89.9288L206.456 90.625L207.641 94.2186L209.794 93.5224L208.608 89.9288Z" fill="#365FE5"/>
<path d="M204.613 93.5461L200.602 94.8418L200.401 94.2253L204.409 92.9297L204.613 93.5461Z" fill="#365FE5"/>
<path d="M215.174 86.9806L207.458 89.4766L209.135 94.561L216.851 92.0651L215.174 86.9806Z" fill="white"/>
<path d="M221.929 84.7964L215.172 86.9824L216.849 92.0669L223.606 89.8809L221.929 84.7964Z" fill="#E58FA5"/>
<path d="M226.371 84.9118L222.688 86.1035L223.432 88.3592L227.115 87.1676L226.371 84.9118Z" fill="#E58FA5"/>
<path d="M226.777 83.0511L225.764 83.3789L227.542 88.7693L228.555 88.4415L226.777 83.0511Z" fill="#365FE5"/>
<path d="M222.408 83.5926L221.228 83.9746L223.529 90.9518L224.71 90.5698L222.408 83.5926Z" fill="#365FE5"/>
<path d="M210.446 93.1298L210.141 92.2051" stroke="#232743" stroke-width="4"/>
<path d="M212.831 92.3583L212.525 91.4336" stroke="#232743" stroke-width="4"/>
<path d="M215.217 91.5848L214.914 90.6602" stroke="#232743" stroke-width="4"/>
<path d="M217.605 90.8133L217.299 89.8887" stroke="#232743" stroke-width="4"/>
<path d="M219.99 90.0418L219.685 89.1172" stroke="#232743" stroke-width="4"/>
<path d="M168.735 97.6789L168.402 97.8671C168.259 97.6189 168.071 97.4335 167.881 97.3244C167.691 97.2153 167.507 97.1907 167.361 97.2725C167.218 97.3544 167.146 97.5262 167.146 97.7417C167.146 97.9572 167.215 98.2081 167.358 98.4536C167.504 98.7018 167.689 98.89 167.879 98.9964C168.069 99.1055 168.256 99.1328 168.399 99.0509C168.545 98.9664 168.614 98.7945 168.617 98.5818C168.617 98.3636 168.545 98.1126 168.402 97.8644L168.735 97.6762V97.6789ZM167.873 100.063C167.446 99.8174 167.017 99.3837 166.692 98.8273C166.367 98.2708 166.204 97.6844 166.204 97.1989C166.204 96.7134 166.372 96.3179 166.697 96.1297C167.025 95.9442 167.455 96.0042 167.881 96.2469C168.308 96.4924 168.738 96.9261 169.066 97.4826C169.391 98.0417 169.553 98.6254 169.553 99.1109C169.553 99.4246 169.482 99.7001 169.344 99.9074L170.385 101.691C170.567 102.005 170.567 102.343 170.385 102.447C170.294 102.499 170.17 102.482 170.052 102.414C169.933 102.346 169.812 102.223 169.719 102.068L168.68 100.287C168.43 100.3 168.151 100.221 167.879 100.063H167.876H167.873ZM170.776 96.0997L166.143 93.4511C165.358 93.0011 164.717 93.3639 164.714 94.2585L164.7 99.5283C164.7 100.426 165.334 101.517 166.119 101.964L170.751 104.613C171.539 105.063 172.181 104.703 172.184 103.805L172.197 98.5354C172.197 97.6408 171.564 96.5497 170.776 96.0997Z" fill="#E58FA5"/>
<path d="M168.399 97.8674L168.733 97.6792L168.399 97.8674C168.542 98.1129 168.611 98.3665 168.614 98.5847C168.614 98.7975 168.54 98.9693 168.397 99.0539C168.251 99.1357 168.066 99.1084 167.876 98.9993C167.686 98.8902 167.501 98.7048 167.355 98.4565C167.212 98.2111 167.141 97.9574 167.143 97.7446C167.143 97.5292 167.215 97.3573 167.358 97.2755C167.504 97.1937 167.689 97.2182 167.879 97.3273C168.069 97.4364 168.256 97.6219 168.399 97.8701V97.8674ZM167.881 96.2581C167.455 96.0126 167.022 95.9553 166.697 96.1408C166.369 96.3263 166.204 96.7218 166.204 97.21C166.204 97.6955 166.367 98.282 166.692 98.8384C167.017 99.3948 167.446 99.8285 167.873 100.074H167.876C168.151 100.232 168.427 100.311 168.677 100.298L169.716 102.079C169.807 102.234 169.928 102.357 170.049 102.425C170.168 102.493 170.289 102.51 170.382 102.458C170.564 102.354 170.567 102.016 170.382 101.702L169.341 99.9185C169.479 99.714 169.551 99.4358 169.551 99.1221C169.551 98.6366 169.388 98.0501 169.063 97.4937C168.738 96.9345 168.306 96.5008 167.879 96.2554" fill="#362B72"/>
<path d="M113.211 102.384C112.646 102.062 112.189 101.277 112.192 100.633C112.192 99.9893 112.654 99.7302 113.219 100.055C113.784 100.377 114.241 101.162 114.241 101.803C114.241 102.447 113.778 102.706 113.214 102.384H113.211ZM116.863 104.471C116.298 104.149 115.841 103.363 115.844 102.72C115.844 102.076 116.307 101.817 116.871 102.141C117.439 102.466 117.893 103.249 117.89 103.893C117.89 104.536 117.43 104.798 116.863 104.474V104.471ZM113.225 98.1045C112.66 97.7827 112.203 96.9998 112.205 96.3534C112.205 95.7097 112.668 95.4505 113.233 95.7751C113.797 96.097 114.255 96.8825 114.252 97.5263C114.252 98.17 113.789 98.4291 113.225 98.1045ZM116.874 100.191C116.309 99.8693 115.852 99.0865 115.855 98.4427C115.855 97.799 116.318 97.5399 116.882 97.8645C117.45 98.1891 117.904 98.9719 117.901 99.6156C117.901 100.259 117.441 100.518 116.874 100.194V100.191ZM113.236 93.8249C112.671 93.503 112.214 92.7175 112.217 92.0765C112.217 91.4328 112.679 91.1736 113.244 91.4982C113.809 91.8201 114.266 92.6029 114.263 93.2493C114.263 93.8903 113.8 94.1522 113.236 93.8276V93.8249ZM116.885 95.9142C116.32 95.5924 115.863 94.8068 115.866 94.1658C115.866 93.5221 116.329 93.263 116.893 93.5876C117.461 93.9122 117.915 94.6923 117.912 95.3387C117.912 95.9797 117.452 96.2415 116.885 95.917V95.9142ZM117.786 91.3864L112.365 88.2878C111.448 87.7641 110.702 88.1842 110.699 89.2288L110.663 101.757C110.66 102.799 111.398 104.067 112.318 104.594L117.739 107.695C118.656 108.219 119.4 107.798 119.402 106.757L119.438 94.2286C119.438 93.1866 118.703 91.9155 117.786 91.3918" fill="#365FE5"/>
<path d="M113.241 91.4923C112.677 91.1704 112.217 91.4268 112.214 92.0706C112.214 92.7116 112.668 93.4971 113.233 93.819C113.798 94.1408 114.258 93.8817 114.26 93.2407C114.26 92.597 113.806 91.8142 113.241 91.4896" fill="#A1DBDB"/>
<path d="M116.894 93.5802C116.329 93.2583 115.869 93.5147 115.866 94.1585C115.866 94.7994 116.323 95.585 116.885 95.9069C117.453 96.2315 117.91 95.9696 117.913 95.3286C117.913 94.6849 117.458 93.9021 116.894 93.5775" fill="#A1DBDB"/>
<path d="M113.23 95.7731C112.666 95.4512 112.206 95.7103 112.203 96.3513C112.203 96.995 112.66 97.7778 113.222 98.1024C113.787 98.4243 114.247 98.1679 114.25 97.5242C114.25 96.8805 113.795 96.0976 113.23 95.7731Z" fill="#A1DBDB"/>
<path d="M116.88 97.859C116.315 97.5371 115.855 97.7963 115.853 98.4373C115.853 99.081 116.307 99.8638 116.872 100.186C117.439 100.51 117.896 100.251 117.899 99.6074C117.899 98.9637 117.445 98.1809 116.88 97.8563" fill="#A1DBDB"/>
<path d="M113.217 100.052C112.652 99.7305 112.192 99.9896 112.189 100.631C112.189 101.274 112.644 102.06 113.209 102.382C113.773 102.704 114.233 102.444 114.236 101.801C114.236 101.157 113.779 100.374 113.214 100.052" fill="#A1DBDB"/>
<path d="M116.868 102.142C116.304 101.82 115.844 102.079 115.841 102.72C115.841 103.364 116.298 104.15 116.86 104.472C117.427 104.796 117.885 104.534 117.887 103.891C117.887 103.247 117.433 102.464 116.868 102.139" fill="#A1DBDB"/>
<path d="M140.842 60.5967L139.069 59.582L139.049 66.5047L137.705 66.5947C137.703 67.5603 137.703 67.9422 137.703 67.9422C137.703 67.9422 137.681 68.3813 137.692 68.9078L139.931 68.755L142.162 71.4635C142.178 70.9535 142.159 70.4898 142.159 70.4898C142.159 70.4898 142.159 70.1079 142.162 69.1423L140.82 67.5167L140.84 60.594" fill="#DF6161"/>
<path d="M143.178 67.7703C142.559 67.4157 142.17 67.6475 142.167 68.4631C142.167 68.7167 142.167 68.9431 142.167 69.145C142.165 70.1106 142.165 70.4924 142.165 70.4924C142.165 70.4924 142.184 70.9561 142.167 71.4662C142.151 71.9981 142.093 72.5818 141.936 72.7509C141.589 73.1109 141.041 73.711 141.035 75.233L141.024 79.2399C141.024 79.2399 140.796 80.9883 142.446 81.9321C144.095 82.8758 146.591 84.3024 146.591 84.3024C146.591 84.3024 148.194 85.2188 148.199 83.4432C148.205 81.6702 148.213 78.5744 148.213 78.5744C148.213 78.5744 147.828 73.831 145.026 69.7423C144.321 68.7113 143.68 68.0539 143.184 67.7703" fill="white"/>
<path d="M136.703 64.0694C136.207 63.7858 135.566 63.7094 134.858 63.9331C132.043 64.8113 131.627 69.0964 131.627 69.0964C131.627 69.0964 131.619 72.1896 131.613 73.9652C131.608 75.7409 133.214 76.6601 133.214 76.6601C133.214 76.6601 135.709 78.0867 137.359 79.0304C139.009 79.9742 138.791 77.9694 138.791 77.9694L138.802 73.9625C138.808 72.4405 138.259 71.2158 137.918 70.4603C137.761 70.1111 137.706 69.4647 137.692 68.9137C137.678 68.3845 137.703 67.9481 137.703 67.9481C137.703 67.9481 137.703 67.5662 137.706 66.6007C137.706 66.3988 137.706 66.1752 137.706 65.9215C137.706 65.1032 137.32 64.4268 136.7 64.0749" fill="white"/>
</g>
<defs>
<clipPath id="clip0_1324_12524">
<rect width="300" height="200" fill="white"/>
</clipPath>
</defs>
</svg>
