<svg width="300" height="200" viewBox="0 0 300 200" fill="none" xmlns="http://www.w3.org/2000/svg">
<g clip-path="url(#clip0_1324_12361)">
<path d="M174.46 16.1668C122.463 -2.89621 69.3505 11.9016 55.8297 49.2185C42.3089 86.5355 73.5001 132.241 125.497 151.304C177.494 170.367 230.607 155.569 244.128 118.252C257.649 80.9349 226.458 35.2299 174.46 16.1668Z" fill="#FFFBE7"/>
<path opacity="0.6" d="M109.899 41.9494C146.358 34.2903 173.152 49.0601 197.502 88.7433C221.187 127.343 247.633 137.589 232.605 164.834C214.546 197.579 131.473 195.288 89.6953 168.538C29.9915 130.307 54.3267 53.6258 109.899 41.9494Z" fill="#FFDE8D" fill-opacity="0.8"/>
<g style="mix-blend-mode:color-burn" opacity="0.45">
<g style="mix-blend-mode:color-burn" opacity="0.45">
<path d="M186.648 155.46L149.187 130.338L121.923 146.851L141.297 157.814L189.016 157.03" fill="#848C8F"/>
</g>
</g>
<path d="M154.594 127.261L135.046 115.949L135.095 134.023C135.095 134.417 134.819 134.893 134.477 135.091L119.549 143.664L139.097 154.975L154.025 146.403C154.366 146.205 154.642 145.729 154.642 145.335L154.594 127.261Z" fill="#F1F3FF"/>
<path d="M154.594 127.261L135.046 115.949L135.086 131.326L154.633 142.632L154.594 127.261Z" fill="#CBD3F9"/>
<path d="M139.108 157.574L119.557 146.265L119.549 143.67L139.099 154.976L139.108 157.574Z" fill="#E3E4F9"/>
<path d="M154.592 127.259L135.041 115.952L137.312 114.646L156.863 125.955L154.592 127.259Z" fill="#7D9CF5"/>
<path d="M156.865 125.959L156.914 144.033C156.917 145.863 155.627 148.084 154.031 148.999L139.102 157.574L139.094 154.976L154.022 146.404C154.364 146.206 154.64 145.73 154.64 145.336L154.591 127.262L156.863 125.959H156.865Z" fill="#E3E4F9"/>
<path d="M186.603 85.317C187.115 85.6116 187.533 86.3312 187.53 86.9176L187.38 139.822C187.38 140.411 186.958 140.649 186.446 140.355L105.867 94.0509C105.355 93.7563 104.937 93.0367 104.939 92.4475L105.09 39.5429C105.09 38.9565 105.512 38.7185 106.027 39.0132L186.603 85.317Z" fill="#BED3FC"/>
<path d="M186.611 82.1163C188.672 83.3005 190.337 86.1702 190.331 88.5272L190.143 154.659C190.137 157.016 188.461 157.965 186.4 156.78L105.822 110.477C103.761 109.292 102.096 106.423 102.105 104.066L102.292 37.9343C102.298 35.5773 103.974 34.6283 106.035 35.8125L186.611 82.1163ZM187.382 139.823L187.533 86.9181C187.533 86.3317 187.118 85.6121 186.605 85.3175L106.027 39.0136C105.511 38.719 105.093 38.957 105.09 39.5434L104.939 92.4479C104.939 93.0372 105.355 93.7568 105.867 94.0514L186.446 140.355C186.958 140.65 187.38 140.415 187.38 139.823" fill="white"/>
<path d="M189.389 80.5074L108.813 34.2063C107.777 33.6114 106.838 33.5548 106.161 33.9485C105.233 34.484 104.308 35.0194 103.38 35.5576C104.057 35.1667 104.997 35.2205 106.035 35.8154L186.611 82.1165C188.672 83.3006 190.337 86.1704 190.331 88.5273L190.143 154.659C190.141 155.829 189.725 156.653 189.056 157.041C189.981 156.506 190.909 155.97 191.837 155.432C192.506 155.044 192.921 154.222 192.924 153.052L193.112 86.9211C193.118 84.5641 191.453 81.6944 189.392 80.5102L189.389 80.5074Z" fill="#CBD3F9"/>
<path d="M133.879 92.8515L111.838 80.1855L111.832 81.5482L133.873 94.2141L133.879 92.8515Z" fill="#7D9CF5"/>
<path d="M133.868 96.585L111.827 83.9219L111.824 85.2817L133.862 97.9476L133.868 96.585Z" fill="#7D9CF5"/>
<path d="M121.882 93.4411L111.815 87.6562L111.812 89.0189L121.88 94.8037L121.882 93.4411Z" fill="#7D9CF5"/>
<path d="M92.3675 76.0236L80.8062 69.3804C80.4533 69.1765 80.1345 69.1595 79.904 69.2926C79.3774 69.5957 78.8537 69.9017 78.3272 70.2048C78.0995 70.3351 77.9543 70.6156 77.9543 71.015L77.9287 79.8764C77.9287 80.6781 78.4923 81.6554 79.1953 82.0605L83.3194 84.4288L84.9674 88.6612L86.5442 87.749L87.287 86.7093L90.7565 88.7009C91.1322 88.9162 91.4709 88.9218 91.7043 88.7575C91.6901 88.7689 91.6759 88.7802 91.6616 88.7887L93.2384 87.8765C93.4661 87.7433 93.6084 87.4629 93.6084 87.0663L93.634 78.2049C93.634 77.4032 93.0705 76.4259 92.3675 76.0236ZM78.6232 70.1198C78.6061 70.1198 78.589 70.1227 78.572 70.1255C78.589 70.1255 78.6061 70.1198 78.6232 70.1198ZM78.4211 70.1595C78.4069 70.1651 78.3926 70.1736 78.3784 70.1793C78.3926 70.1736 78.4069 70.1651 78.4211 70.1595ZM78.5179 70.1312C78.5008 70.134 78.4866 70.1397 78.4695 70.1453C78.4866 70.1397 78.5008 70.134 78.5179 70.1312ZM78.683 70.1198C78.7 70.1198 78.7171 70.1198 78.737 70.1198C78.72 70.1198 78.7029 70.1198 78.683 70.1198ZM78.8025 70.1312C78.8196 70.1312 78.8366 70.134 78.8537 70.1396C78.8366 70.1368 78.8196 70.134 78.8025 70.1312ZM78.9306 70.1595C78.9448 70.1651 78.959 70.168 78.9761 70.1708C78.9619 70.1651 78.9476 70.1623 78.9306 70.1595ZM79.07 70.2076C79.07 70.2076 79.0928 70.2161 79.1042 70.2218C79.0928 70.2161 79.0814 70.2133 79.07 70.2076ZM91.7442 88.732C91.7584 88.7207 91.7726 88.7037 91.7869 88.6895C91.7726 88.7037 91.7584 88.7179 91.7442 88.732ZM91.8182 88.6612C91.8324 88.6442 91.8466 88.6272 91.858 88.6102C91.8466 88.6272 91.8324 88.647 91.8182 88.6612ZM92.0288 88.1201C92.0316 88.0748 92.0345 88.0266 92.0345 87.9756C92.0345 88.0266 92.0345 88.0748 92.0288 88.1201ZM91.8808 88.5791C91.8922 88.5592 91.9035 88.5366 91.9149 88.5139C91.9035 88.5366 91.8922 88.5592 91.8808 88.5791ZM91.9349 88.4827C91.9462 88.4572 91.9548 88.4317 91.9662 88.4062C91.9576 88.4317 91.9462 88.4601 91.9349 88.4827ZM91.9776 88.3751C91.9889 88.3439 91.9946 88.3128 92.0032 88.2788C91.9946 88.3099 91.9889 88.3439 91.9776 88.3751ZM92.0089 88.2533C92.0174 88.2164 92.0231 88.1768 92.0259 88.1371C92.0231 88.1768 92.0174 88.2164 92.0089 88.2533Z" fill="#E79D27"/>
<path d="M90.7878 76.9384C91.4879 77.3406 92.0572 78.318 92.0543 79.1197L92.0287 87.9839C92.0287 88.7856 91.4566 89.1114 90.7536 88.7062L86.6295 86.3379L84.9644 88.6666L83.3165 84.4342L79.1924 82.0659C78.4922 81.6636 77.9229 80.6863 77.9258 79.8817L77.9514 71.0204C77.9514 70.2187 78.5235 69.8957 79.2265 70.298L90.7878 76.9412V76.9384Z" fill="#F2D280"/>
<path d="M82.0332 76.633C81.612 76.3922 81.2704 76.5848 81.2676 77.0664C81.2676 77.548 81.6063 78.1344 82.0275 78.3752C82.4488 78.616 82.7903 78.4234 82.7931 77.9418C82.7931 77.4602 82.4544 76.8738 82.0332 76.633Z" fill="white"/>
<path d="M85.084 78.383C84.6627 78.1422 84.3212 78.3348 84.3184 78.8164C84.3184 79.298 84.6571 79.8844 85.0783 80.1252C85.4995 80.366 85.8411 80.1734 85.8439 79.6918C85.8439 79.2102 85.5052 78.6238 85.084 78.383Z" fill="white"/>
<path d="M88.1328 80.1369C87.7116 79.8961 87.37 80.0887 87.3672 80.5703C87.3672 81.0519 87.7059 81.6383 88.1271 81.8791C88.5484 82.1199 88.8899 81.9273 88.8927 81.4457C88.8927 80.9641 88.5541 80.3777 88.1328 80.134" fill="white"/>
<g style="mix-blend-mode:color-burn">
<g style="mix-blend-mode:color-burn">
<g style="mix-blend-mode:color-burn">
<g style="mix-blend-mode:color-burn">
<path d="M169.301 166.008L165.182 163.643L154.443 169.852L158.565 172.221L169.301 166.008Z" fill="#B5B5B5"/>
</g>
<g style="mix-blend-mode:color-burn">
<path d="M171.099 172.745L166.978 170.377L161.186 173.725L165.307 176.097L171.099 172.745Z" fill="#B5B5B5"/>
</g>
<g style="mix-blend-mode:color-burn">
<path d="M191.996 168.433L187.875 166.064L167.929 177.6L172.05 179.968L191.996 168.433Z" fill="#B5B5B5"/>
</g>
<g style="mix-blend-mode:color-burn">
<path d="M189.306 177.762L185.188 175.396L174.674 181.476L178.792 183.844L189.306 177.762Z" fill="#B5B5B5"/>
</g>
</g>
</g>
</g>
<path d="M158.875 160.282L162.134 158.398L162.1 170.62L158.841 172.503L158.875 160.282Z" fill="#4265E3"/>
<path d="M154.802 157.941L158.061 156.055L162.134 158.398L158.875 160.281L154.802 157.941Z" fill="#597EEA"/>
<path d="M158.875 160.281L158.84 172.503L154.765 170.163L154.802 157.941L158.875 160.281Z" fill="#7D9CF5"/>
<path d="M165.527 169.741L168.786 167.857L168.769 174.452L165.507 176.336L165.527 169.741Z" fill="#9D221F"/>
<path d="M161.451 167.4L164.71 165.514L168.786 167.856L165.527 169.74L161.451 167.4Z" fill="#CE4F41"/>
<path d="M165.526 169.74L165.507 176.335L161.434 173.993L161.451 167.4L165.526 169.74Z" fill="#DA625B"/>
<path d="M172.237 157.463L175.499 155.576L175.434 178.279L172.175 180.166L172.237 157.463Z" fill="#4265E3"/>
<path d="M168.164 155.12L171.423 153.236L175.499 155.576L172.237 157.463L168.164 155.12Z" fill="#597EEA"/>
<path d="M172.237 157.464L172.174 180.167L168.099 177.827L168.164 155.121L172.237 157.464Z" fill="#7D9CF5"/>
<path d="M178.875 172.03L182.137 170.146L182.103 182.113L178.844 183.999L178.875 172.03Z" fill="#9D221F"/>
<path d="M174.802 169.689L178.064 167.803L182.136 170.146L178.875 172.029L174.802 169.689Z" fill="#CE4F41"/>
<path d="M178.875 172.029L178.843 183.998L174.768 181.656L174.802 169.689L178.875 172.029Z" fill="#DA625B"/>
<g style="mix-blend-mode:color-burn" opacity="0.25">
<path d="M182.016 108.066C182.042 99.4855 175.976 89.032 168.474 84.7203L165.397 86.4994V86.4626C161.62 84.2926 158.199 84.0914 155.729 85.5192L151.234 88.1198C151.234 88.1198 151.251 88.1113 151.26 88.1057C148.807 89.5108 147.284 92.5165 147.27 96.7942C147.244 105.375 153.309 115.831 160.812 120.143C164.697 122.375 168.206 122.52 170.691 120.95C170.62 120.996 170.552 121.044 170.48 121.084C171.977 120.217 173.477 119.35 174.975 118.483C177.408 117.075 178.916 114.086 178.936 109.843L182.013 108.063L182.016 108.066ZM159.508 88.3436C159.383 88.287 159.263 88.2388 159.141 88.185C159.263 88.236 159.386 88.287 159.508 88.3436ZM160.2 88.6807C160.095 88.6269 159.989 88.5788 159.884 88.5249C159.989 88.5759 160.095 88.6241 160.2 88.6807ZM155.595 87.2445C155.484 87.2331 155.376 87.2303 155.267 87.2246C155.376 87.2303 155.484 87.2331 155.595 87.2445ZM154.991 87.2105C154.886 87.2105 154.781 87.2105 154.678 87.2133C154.784 87.2133 154.886 87.2076 154.991 87.2105ZM151.732 87.862C151.65 87.9017 151.567 87.9442 151.488 87.9895C151.57 87.947 151.65 87.9017 151.732 87.862ZM154.402 87.219C154.3 87.2246 154.203 87.236 154.1 87.2445C154.2 87.236 154.3 87.2246 154.402 87.219ZM153.83 87.2671C153.733 87.2785 153.639 87.2983 153.543 87.3125C153.639 87.2955 153.733 87.2785 153.83 87.2671ZM153.275 87.3549C153.181 87.3748 153.09 87.3974 152.999 87.4201C153.09 87.3974 153.181 87.3719 153.275 87.3549ZM152.74 87.4853C152.649 87.5108 152.564 87.5419 152.475 87.5702C152.564 87.5419 152.652 87.5108 152.74 87.4853ZM152.225 87.6524C152.137 87.6836 152.054 87.7232 151.969 87.76C152.054 87.7232 152.137 87.6864 152.225 87.6524ZM155.874 87.2756C155.985 87.2898 156.099 87.3011 156.212 87.3181C156.099 87.3011 155.988 87.2898 155.874 87.2756ZM158.822 88.049C158.694 87.998 158.572 87.9555 158.447 87.9102C158.572 87.9555 158.697 87.998 158.822 88.049ZM158.151 87.7997C158.025 87.7572 157.903 87.7232 157.778 87.6836C157.9 87.7204 158.025 87.7572 158.151 87.7997ZM157.49 87.5957C157.371 87.5617 157.251 87.5362 157.132 87.5051C157.251 87.5334 157.368 87.5617 157.49 87.5957ZM156.844 87.4343C156.728 87.4088 156.614 87.3918 156.497 87.3691C156.611 87.3889 156.728 87.4088 156.844 87.4343ZM170.899 120.814C170.976 120.763 171.05 120.704 171.124 120.647C171.05 120.704 170.976 120.763 170.899 120.814ZM171.326 120.494C171.4 120.435 171.468 120.37 171.539 120.307C171.468 120.37 171.397 120.435 171.326 120.494ZM171.73 120.14C171.801 120.072 171.866 120.001 171.932 119.931C171.864 120.001 171.798 120.072 171.73 120.14ZM174.42 113.197C174.431 112.939 174.439 112.678 174.439 112.409C174.439 112.675 174.431 112.939 174.42 113.197ZM172.108 119.749C172.174 119.676 172.236 119.596 172.299 119.52C172.236 119.596 172.174 119.676 172.108 119.749ZM172.461 119.321C172.524 119.239 172.581 119.151 172.641 119.069C172.581 119.154 172.524 119.242 172.461 119.321ZM172.789 118.86C172.848 118.772 172.902 118.676 172.957 118.582C172.902 118.676 172.848 118.769 172.789 118.86ZM173.09 118.364C173.144 118.268 173.193 118.166 173.244 118.069C173.193 118.168 173.144 118.27 173.09 118.364ZM173.364 117.831C173.412 117.729 173.455 117.622 173.5 117.517C173.455 117.622 173.412 117.729 173.364 117.831ZM173.608 117.268C173.651 117.157 173.691 117.044 173.728 116.93C173.688 117.044 173.651 117.157 173.608 117.268ZM173.822 116.67C173.859 116.554 173.893 116.432 173.927 116.31C173.893 116.429 173.859 116.551 173.822 116.67ZM174.007 116.038C174.038 115.916 174.064 115.789 174.095 115.664C174.067 115.789 174.041 115.916 174.007 116.038ZM174.16 115.375C174.186 115.245 174.206 115.112 174.229 114.979C174.206 115.112 174.186 115.245 174.16 115.375ZM174.28 114.681C174.3 114.54 174.317 114.392 174.334 114.248C174.317 114.392 174.303 114.54 174.28 114.681ZM174.368 113.956C174.385 113.794 174.394 113.624 174.405 113.457C174.394 113.624 174.385 113.792 174.368 113.956Z" fill="#6D7679"/>
</g>
<path d="M173.063 114.84C171.565 115.707 170.065 116.574 168.568 117.441C171.008 116.03 172.519 113.03 172.533 108.767L177.027 106.166C177.016 110.43 175.502 113.43 173.063 114.84Z" fill="#4265E3"/>
<path d="M158.945 100.955L163.439 98.3574L177.027 106.165L172.533 108.766L158.945 100.955Z" fill="#597EEA"/>
<path d="M158.988 85.4151L163.485 82.8145L163.439 98.3586L158.945 100.956L158.988 85.4151Z" fill="#4265E3"/>
<path d="M158.988 85.4141L158.942 100.955L172.53 108.763C172.504 117.344 166.402 120.808 158.897 116.494C151.394 112.182 145.329 101.729 145.355 93.1451C145.38 84.5614 151.482 81.0996 158.988 85.4113V85.4141Z" fill="#7D9CF5"/>
<path d="M149.319 84.4714L153.813 81.8708C156.284 80.443 159.705 80.6441 163.482 82.8141L158.988 85.4147C155.211 83.2447 151.79 83.0436 149.319 84.4714Z" fill="#597EEA"/>
<path d="M162.064 83.6729L166.561 81.0723C174.064 85.384 180.129 95.8374 180.104 104.418L175.61 107.019C175.635 98.4408 169.57 87.9846 162.067 83.6729H162.064Z" fill="#CE4F41"/>
<path d="M162.065 83.6719C169.57 87.9836 175.633 98.4398 175.607 107.018L162.02 99.2104L162.062 83.6719H162.065Z" fill="#E06A5B"/>
<g opacity="0.7">
<g opacity="0.7">
<g opacity="0.7">
<g opacity="0.7">
<path opacity="0.7" d="M125.659 76.1653L123.408 74.8707L123.425 68.5278L125.676 69.8224L125.659 76.1653ZM118.276 71.9245L116.025 70.6298L116.045 63.2784L118.296 64.5731L118.276 71.9273V71.9245ZM121.967 74.0491L119.713 72.7545L119.739 63.8167L121.993 65.1113L121.967 74.0491ZM113.839 54.7485C112.834 54.1706 112.02 54.6352 112.014 55.7826L111.969 71.899C111.966 73.0463 112.777 74.4458 113.779 75.0208L127.868 83.1173C128.872 83.6952 129.686 83.2306 129.692 82.0833L129.738 65.9669C129.74 64.8195 128.929 63.4201 127.925 62.845L113.836 54.7485" fill="white"/>
<path opacity="0.7" d="M123.427 68.5273L125.676 69.822L125.659 76.1649L123.407 74.8731L123.427 68.5273Z" fill="#365FE5"/>
<path opacity="0.7" d="M119.741 63.8145L121.996 65.1091L121.97 74.0469L119.716 72.7523L119.741 63.8145Z" fill="#CE4F41"/>
<path opacity="0.7" d="M116.047 63.2793L118.299 64.5711L118.276 71.9253L116.024 70.6307L116.047 63.2793Z" fill="#365FE5"/>
</g>
</g>
</g>
</g>
<path d="M84.9358 99.9048L86.8256 98.834C86.8854 98.8 86.9623 98.8113 87.0391 98.8566C87.116 98.902 87.1928 98.9785 87.2526 99.0805C87.3693 99.2844 87.3693 99.5025 87.2526 99.5705L85.1492 100.763C85.0895 100.797 85.0126 100.786 84.9358 100.741C84.8589 100.695 84.7821 100.619 84.7223 100.517L82.6332 96.9133C82.5165 96.7093 82.5137 96.4883 82.6332 96.4232C82.693 96.3892 82.7698 96.4005 82.8467 96.4458C82.9235 96.4912 83.0004 96.5677 83.0601 96.6696L84.9358 99.9048ZM84.9614 91.0067C81.1019 88.7885 77.9626 90.5704 77.9512 94.9869C77.9427 98.4487 79.8582 102.505 82.5478 105.163L84.8845 118.421L87.2896 107.888C89.9849 108.324 91.9203 106.483 91.9289 103.021C91.9403 98.6045 88.8208 93.2248 84.9614 91.0067Z" fill="#4265E3"/>
<path d="M87.0424 98.8563C86.9656 98.811 86.8888 98.8025 86.829 98.8336L84.9391 99.9045L83.0635 96.6693C83.0037 96.5673 82.9268 96.4908 82.85 96.4455C82.7731 96.4002 82.6963 96.3917 82.6365 96.4228C82.517 96.488 82.517 96.709 82.6365 96.9129L84.7256 100.516C84.7854 100.618 84.8623 100.695 84.9391 100.74C85.016 100.786 85.0928 100.794 85.1526 100.763L87.2559 99.5702C87.3755 99.5022 87.3755 99.2841 87.2559 99.0801C87.1961 98.9781 87.1193 98.9016 87.0424 98.8563Z" fill="white"/>
<path d="M125.651 130.987L123.932 129.999L96.7647 145.713L95.5778 146.398L72.9562 133.401L100.123 117.687L101.31 117.001L99.5853 116.01L69 133.701L95.0655 148.682L125.651 130.987Z" fill="#F1CC6E"/>
<path d="M100.123 117.688L72.9561 133.402L95.5776 146.399L96.7645 145.713L74.1429 132.713L100.123 117.688Z" fill="#E2B65B"/>
<path d="M93.529 125.798L94.2861 125.362L109.451 134.076L108.694 134.512L93.529 125.798ZM95.7974 124.486L96.5545 124.05L111.719 132.764L110.962 133.201L95.7974 124.486ZM98.0659 123.175L98.823 122.739L113.988 131.453L113.23 131.889L98.0659 123.175ZM100.334 121.863L101.091 121.427L116.256 130.141L115.499 130.577L100.334 121.863ZM123.929 130.002L118.399 126.824L117.184 127.526L105.62 120.88L106.835 120.178L101.308 117.002L100.121 117.688L74.1436 132.713L96.7652 145.713L123.929 129.999" fill="white"/>
<path d="M113.053 123.248C112.518 122.942 112.515 122.444 113.048 122.135C113.58 121.829 114.445 121.826 114.977 122.135C115.512 122.441 115.515 122.942 114.983 123.248C114.451 123.557 113.586 123.554 113.05 123.248H113.053ZM116.608 121.189C115.248 120.407 113.045 120.407 111.69 121.189L108.374 119.285L106.832 120.178L105.616 120.88L117.18 127.526L118.396 126.824L119.938 125.931L116.622 124.027C117.977 123.243 117.969 121.976 116.605 121.192" fill="#182B64"/>
<path d="M116.256 130.141L101.091 121.424L100.334 121.863L115.499 130.577L116.256 130.141Z" fill="#DEDEDE"/>
<path d="M113.987 131.452L98.8226 122.738L98.0684 123.175L113.23 131.889L113.987 131.452Z" fill="#DEDEDE"/>
<path d="M111.719 132.763L96.554 124.049L95.7969 124.485L110.961 133.199L111.719 132.763Z" fill="#DEDEDE"/>
<path d="M109.45 134.075L94.2854 125.361L93.5283 125.798L108.693 134.514L109.45 134.075Z" fill="#DEDEDE"/>
<path d="M154.767 89.0347L152.401 87.6777V88.369L154.764 89.7259L154.767 89.0347Z" fill="#345CFA"/>
<path d="M154.753 93.5445L152.391 92.1875L152.388 92.8787L154.753 94.2385V93.5445Z" fill="#345CFA"/>
<path d="M154.741 98.0551L152.376 96.6953V97.3865L154.738 98.7463L154.741 98.0551Z" fill="#345CFA"/>
<path d="M169.323 110.946L152.365 101.201L152.362 101.895L169.32 111.64L169.323 110.946Z" fill="#345CFA"/>
<path d="M162.207 111.376L152.351 105.713V106.407L162.204 112.07L162.207 111.376Z" fill="#345CFA"/>
<path d="M98.444 39.1055C97.6813 39.5474 96.9185 39.9865 96.1557 40.4284C95.1197 41.029 93.7905 41.0885 92.3418 40.5871L94.6301 39.2641C96.0789 39.7627 97.408 39.7032 98.444 39.1055Z" fill="#CE4F41"/>
<path d="M105.059 45.168C104.296 45.6099 103.533 46.049 102.771 46.491C102.956 46.3833 103.129 46.2615 103.294 46.1198L105.583 44.7969C105.417 44.9385 105.244 45.0603 105.059 45.168Z" fill="#95C6FC"/>
<path d="M108.952 17.4078C105.338 15.3312 102.062 15.1386 99.6965 16.5069C98.9338 16.9488 98.171 17.3879 97.4082 17.8299C99.7734 16.4616 103.049 16.6542 106.664 18.7336C113.848 22.8611 119.651 32.8698 119.628 41.0852C119.617 45.1674 118.168 48.04 115.835 49.3884L118.123 48.0655C120.457 46.7142 121.905 43.8416 121.917 39.7622C121.94 31.5468 116.136 21.5381 108.952 17.4078Z" fill="#CE4F41"/>
<path d="M106.664 18.7297C113.848 22.8573 119.651 32.866 119.628 41.0814C119.606 49.2968 113.762 52.6113 106.578 48.4838C105.443 47.8322 104.344 47.0333 103.294 46.1183C101.902 47.3053 99.7761 47.2854 97.5133 45.9851C96.9242 45.648 96.3265 45.2231 95.7316 44.7103C94.4024 43.5687 93.2497 42.1352 92.3418 40.5856C94.5476 41.3448 96.4773 40.8094 97.5133 39.0474C95.0941 34.951 93.5998 30.3107 93.6112 26.1321C93.634 17.9167 99.4772 14.5994 106.661 18.7297H106.664Z" fill="#E06A5B"/>
<path d="M106.829 32.2429C106.106 31.8264 105.517 32.1607 105.514 32.9879C105.514 33.8151 106.098 34.8237 106.821 35.2373C107.544 35.6537 108.13 35.3194 108.133 34.4922C108.133 33.665 107.552 32.6593 106.829 32.2429ZM101.763 29.3335C101.04 28.917 100.451 29.2513 100.448 30.0785C100.448 30.9057 101.032 31.9143 101.755 32.3279C102.478 32.7443 103.067 32.41 103.07 31.5828C103.07 30.7556 102.486 29.7471 101.763 29.3335ZM111.893 35.1551C111.17 34.7387 110.584 35.073 110.581 35.9002C110.581 36.7274 111.161 37.7331 111.884 38.1495C112.607 38.5659 113.196 38.2317 113.199 37.4044C113.199 36.5772 112.619 35.5687 111.893 35.1551Z" fill="white"/>
<path d="M150.165 126.634C150.703 126.942 151.135 127.69 151.135 128.305C151.135 128.923 150.694 129.166 150.159 128.86C149.621 128.552 149.186 127.804 149.186 127.186C149.186 126.568 149.624 126.325 150.165 126.634Z" fill="#345CFA"/>
<path d="M144.908 123.614C145.443 123.923 145.878 124.668 145.878 125.286C145.878 125.903 145.44 126.147 144.902 125.841C144.364 125.529 143.929 124.784 143.929 124.167C143.929 123.549 144.367 123.305 144.908 123.614Z" fill="#345CFA"/>
<path d="M139.645 120.589C140.186 120.9 140.619 121.646 140.619 122.263C140.619 122.878 140.18 123.124 139.64 122.816C139.102 122.507 138.669 121.759 138.669 121.144C138.669 120.527 139.11 120.283 139.645 120.589Z" fill="#345CFA"/>
<path d="M134.385 117.566C134.923 117.875 135.359 118.623 135.359 119.24C135.359 119.855 134.921 120.101 134.38 119.793C133.842 119.484 133.406 118.736 133.409 118.121C133.409 117.506 133.848 117.26 134.385 117.569" fill="#345CFA"/>
<path d="M177.132 59.6525L131.28 33.3008L131.277 34.0402L177.13 60.389L177.132 59.6525Z" fill="#597EEA"/>
<path d="M177.153 52.8537L131.301 26.502L131.298 27.2413L177.15 53.5931L177.153 52.8537Z" fill="#597EEA"/>
<path d="M145.87 48.4935L131.261 40.0996V40.839L145.867 49.2329L145.87 48.4935Z" fill="#597EEA"/>
<path d="M181.952 90.5648C181.428 90.2645 181.004 90.5053 181.001 91.103C181.001 91.7008 181.422 92.4288 181.943 92.7291C182.43 93.0096 182.831 92.8198 182.885 92.3098L181.946 91.7688V91.5223L182.888 92.0634C182.837 91.494 182.435 90.8452 181.952 90.5648Z" fill="#182AF9"/>
<path d="M217.51 111.958L182.888 92.0626L181.949 91.5215V91.7679L182.888 92.309L217.51 112.205V111.958Z" fill="#182AF9"/>
<path d="M109.125 78.3005C109.646 78.6008 110.07 79.3289 110.07 79.9266C110.07 80.5272 109.643 80.7652 109.12 80.4649C108.596 80.1646 108.172 79.4365 108.175 78.836C108.175 78.2354 108.602 77.9974 109.128 78.2977" fill="#182AF9"/>
<path d="M220.153 136.415L220.165 132.324L228.467 137.095L228.456 141.185L220.153 136.415ZM228.874 136.868L219.763 131.633L219.749 136.647L228.86 141.882L228.874 136.868Z" fill="#4265E3"/>
<path d="M220.13 144.097L220.141 140.007L228.443 144.777L228.432 148.868L220.13 144.097ZM228.85 144.548L219.74 139.312L219.726 144.327L228.836 149.562L228.85 144.548Z" fill="#4265E3"/>
<path d="M220.107 151.783L220.119 147.689L228.421 152.46L228.41 156.553L220.107 151.783ZM228.828 152.233L219.717 146.998L219.703 152.012L228.814 157.248L228.828 152.233Z" fill="#4265E3"/>
<path d="M76.3432 58.6326C75.2844 58.0235 74.4277 56.5447 74.4334 55.3351C74.4391 54.1254 75.2986 53.6353 76.3574 54.2444L90.318 62.2672C91.3768 62.8763 92.2335 64.3551 92.2278 65.5619C92.2222 66.7687 91.3626 67.2616 90.3038 66.6554L76.3432 58.6326ZM90.318 61.8083L76.3574 53.7855C75.0795 53.0489 74.0321 53.641 74.0264 55.1056C74.0207 56.5702 75.0624 58.3606 76.3404 59.0972L90.301 67.12C91.5818 67.8565 92.6263 67.2645 92.632 65.797C92.6377 64.3296 91.5988 62.5448 90.318 61.8083Z" fill="#4265E3"/>
<path d="M76.3432 48.6891C75.2844 48.0801 74.4277 46.6041 74.4334 45.3945C74.4391 44.1848 75.2986 43.6947 76.3574 44.3038L90.318 52.3266C91.3768 52.9357 92.2335 54.4116 92.2278 55.6213C92.2222 56.8309 91.3626 57.321 90.3038 56.7119L76.3432 48.6891ZM90.318 51.8648L76.3574 43.842C75.0795 43.1055 74.0321 43.6976 74.0264 45.165C74.0207 46.6325 75.0624 48.42 76.3404 49.1537L90.301 57.1765C91.5818 57.9131 92.6263 57.321 92.632 55.8564C92.6377 54.3918 91.5988 52.6014 90.318 51.8648Z" fill="#4265E3"/>
<path d="M229.239 118.743L220.641 113.803L220.638 114.494L229.239 119.437V118.743Z" fill="#4265E3"/>
<path d="M229.25 114.653L220.651 109.713L220.648 110.407L229.25 115.35V114.653Z" fill="#4265E3"/>
<path d="M222.593 119.018L220.629 117.891L220.626 118.582L222.59 119.712L222.593 119.018Z" fill="#4265E3"/>
<path d="M208.743 125.496L216.116 129.733L216.074 145.554L204.979 139.176L205.012 127.614L208.733 129.752L208.743 125.496Z" fill="#9FBBFC"/>
<path d="M208.743 125.496L208.733 129.752L205.012 127.614L208.743 125.496Z" fill="#4265E3"/>
<path d="M133.654 15.4386L131.374 14.127L131.352 22.467L133.631 23.7787L133.654 15.4386Z" fill="#597EEA"/>
<path d="M137.744 21.1818L135.467 19.873L135.453 24.825L137.73 26.1338L137.744 21.1818Z" fill="#597EEA"/>
<path d="M141.866 17.0217L139.589 15.7129L139.555 27.1805L141.834 28.4921L141.866 17.0217Z" fill="#597EEA"/>
<path d="M145.961 22.5089L143.681 21.1973L143.655 29.5373L145.935 30.849L145.961 22.5089Z" fill="#597EEA"/>
</g>
<defs>
<clipPath id="clip0_1324_12361">
<rect width="300" height="200" fill="white"/>
</clipPath>
</defs>
</svg>
