<svg width="110" height="104" viewBox="0 0 110 104" fill="none" xmlns="http://www.w3.org/2000/svg">
<g clip-path="url(#clip0_218_20171)">
<path d="M38.7951 92.2276L21.5574 92.094L24.2538 108.961C24.2538 108.961 23.012 112.266 22.0264 117.72C21.0798 122.966 20.511 130.264 19.8076 136.315C18.9479 143.681 18.1143 149.451 19.0348 150.591C21.4967 153.651 32.573 152.969 34.2621 150.578C35.9468 148.187 41.0008 94.4852 38.7994 92.2231L38.7951 92.2276Z" fill="#FFD9CA"/>
<path d="M26.7461 60.0337C25.7866 60.9198 22.1393 65.9337 20.8801 78.4908C20.4459 82.8057 19.5211 91.3018 18.6006 93.7686C18.987 94.0536 23.494 94.913 27.8881 95.2648C31.2792 95.5364 34.5139 95.3361 36.2768 95.4118C37.7053 102.777 37.067 107.791 37.0279 111.108C36.9237 120.508 34.7614 128.848 33.6412 131.222C31.3226 136.124 28.865 146.776 34.236 149.755C38.9384 152.36 37.9137 149.492 47.0492 151.398C52.5331 152.542 57.3571 155.263 63.1102 155.851C78.4504 157.418 95.497 157.565 96.9732 149.554C97.516 143.592 95.9268 136.445 95.9963 131.609C96.1309 121.982 97.6115 116.594 98.9054 113.526C100.538 119.462 105.931 107.372 109.092 95.3049C112.478 94.2629 113.095 92.9003 113.191 92.602C110.677 83.7274 107.168 74.5189 105.657 66.4814C104.593 60.8174 100.738 54.3429 96.17 51.1724C90.2779 47.0847 86.3484 47.3029 80.6474 46.5548C74.2777 45.7177 69.8837 45.1477 69.8837 45.1477L69.6362 54.6056L59.4238 56.9879C59.4238 56.9879 54.8995 53.0471 52.9196 48.3538C52.5158 47.4009 45.612 48.6254 37.905 52.3302C33.0377 54.6679 29.9245 57.1126 26.7548 60.0426L26.7461 60.0337Z" fill="#D5E7F1"/>
<path d="M44.635 23.1816C42.946 23.3063 40.2453 28.0575 43.3411 32.2655C44.4483 33.7705 48.5558 34.3628 48.5558 34.3628C48.5558 34.3628 49.0856 38.8557 52.4028 40.1604C52.5895 42.4091 52.4897 44.6578 52.5982 47.6412C52.4289 48.1355 49.2071 48.6342 49.1333 48.5407C49.1333 48.5407 50.983 55.9191 55.985 59.0183C56.7405 59.4859 63.6789 60.893 67.565 58.4795C73.2183 54.9707 75.3068 49.8766 75.6585 48.9548C75.9537 48.1756 76.5138 46.3722 75.7627 45.8512C74.6033 45.8289 72.5366 45.5172 71.221 45.446C69.5189 45.1476 68.885 39.9645 67.9645 35.7075C68.2424 34.0199 68.39 32.3278 68.2684 31.6198C70.1181 30.9073 70.9214 30.2884 71.6942 29.2954C74.1735 26.0982 73.3442 22.4201 71.8592 21.1377C69.9097 19.459 67.4651 20.5188 67.4651 20.5188C67.4651 20.5188 67.8603 11.996 62.4285 7.89041C56.9966 3.78486 54.9603 5.21424 54.9603 5.21424C54.9603 5.21424 47.3488 10.6289 46.0028 14.4896C44.6567 18.3502 44.635 23.1949 44.635 23.1949V23.1816Z" fill="#FFD9CA"/>
<path d="M41.3612 7.82341C40.0456 10.6777 36.6501 16.413 40.8575 17.7934C40.8402 21.5115 45.2299 23.3951 46.5325 23.5688C46.5325 23.5688 45.6858 17.7934 45.5078 15.1974C46.5585 15.2597 49.0118 15.4245 49.5979 14.5072C54.6433 14.614 57.3353 12.9709 58.2167 11.733C58.499 11.3367 60.2271 11.6306 61.191 7.93473C61.2648 9.99641 62.3981 14.5606 65.1682 16.9429C66.8703 18.4034 66.549 21.2266 67.552 22.6426C68.5506 21.4047 70.5262 22.7895 70.9474 16.7915C71.3686 10.7935 68.6201 3.01876 63.4358 1.83875C60.1923 1.09957 60.1533 2.16381 60.1533 2.16381C60.1533 2.16381 56.1586 -4.07022 45.2473 4.59953C43.6538 5.8686 41.8735 6.69683 41.3568 7.81896L41.3612 7.82341Z" fill="#9C6267"/>
<path d="M56.2542 29.5756C57.179 30.0387 59.0981 30.7333 59.6713 29.3529C59.8623 28.8943 59.4759 28.4846 59.02 28.685C58.6422 28.8542 58.3426 29.0991 57.9215 29.1659C57.4395 29.2461 56.9489 29.1258 56.4799 29.0145C56.163 28.9388 55.9328 29.4153 56.2498 29.5756H56.2542Z" fill="#010101"/>
<path d="M54.2873 20.3404C52.798 19.1247 50.5402 19.1826 49.1681 20.6075C48.8728 20.9103 49.2462 21.3779 49.6023 21.1864C51.0395 20.425 52.4333 19.7971 53.966 20.7678C54.2135 20.9281 54.5261 20.5363 54.2873 20.3404Z" fill="#010101"/>
<path d="M52.8588 23.2797C52.0338 23.351 51.8732 25.1143 52.8024 25.6709C53.7272 26.232 53.7055 23.204 52.8588 23.2797Z" fill="#010101"/>
<path d="M55.5117 22.4603C55.8157 24.2771 56.302 26.1918 56.0979 28.0487C56.0588 28.3871 56.5885 28.445 56.671 28.1288C57.1443 26.3388 56.3931 24.0634 56.0762 22.3045C56.0067 21.926 55.4509 22.0863 55.5117 22.4648V22.4603Z" fill="#010101"/>
<path d="M60.6136 24.4503C61.4429 24.4058 61.66 22.6558 60.7525 22.0591C59.845 21.4669 59.7669 24.4904 60.6136 24.4503Z" fill="#010101"/>
<path d="M44.1271 23.3726C41.8042 25.0068 41.1919 28.2218 42.1124 30.898C42.9982 33.4762 45.9594 34.9546 48.4951 34.8076C48.8468 34.7898 48.938 34.2688 48.582 34.1664C46.5412 33.5697 44.3138 33.1422 43.1588 31.0761C41.8432 28.7205 42.2644 25.323 44.3095 23.6086C44.4397 23.4973 44.2661 23.2702 44.1271 23.3682V23.3726Z" fill="#010101"/>
<path d="M46.3458 25.3277C47.0188 29.5624 47.2663 33.6101 49.2549 37.4841C50.5749 40.0489 53.3494 41.0597 55.8113 42.1997C56.2108 42.3822 56.5625 41.7945 56.1587 41.5852C53.5448 40.2404 50.8398 39.4389 49.4243 36.6202C47.605 33 47.3358 29.1795 46.6454 25.2431C46.6107 25.0383 46.3111 25.1274 46.3458 25.3277Z" fill="#010101"/>
<path d="M69.2671 31.2143C71.3642 30.1056 73.0793 28.8231 73.5092 26.3073C73.8609 24.2545 73.596 21.7742 72.0329 20.3137C71.6465 19.953 70.9995 20.4117 71.2861 20.9059C72.1632 22.4021 72.4975 24.112 72.415 25.8531C72.3021 28.2933 70.8475 29.5044 68.9675 30.6889C68.6375 30.8937 68.9284 31.3969 69.2671 31.2188V31.2143Z" fill="#010101"/>
<path d="M67.3827 22.9008C67.8864 25.764 67.9428 28.6049 68.2077 31.4904C68.2424 31.8511 68.7504 31.8644 68.7635 31.4904C68.8546 28.596 68.3162 25.6171 67.8169 22.7806C67.7648 22.4911 67.335 22.6114 67.3871 22.9008H67.3827Z" fill="#010101"/>
<path d="M68.3987 28.2757C68.6766 27.7013 69.0587 27.2649 69.5493 26.8731C69.7708 26.695 70.0052 26.5391 70.2571 26.4055C70.5263 26.263 70.8215 26.214 71.0082 25.9602C71.1515 25.7732 71.1472 25.4081 70.8519 25.3546C70.2353 25.2478 69.5884 25.8311 69.1585 26.2452C68.6549 26.735 68.2771 27.3807 67.9819 28.0264C67.8559 28.3069 68.2554 28.5563 68.39 28.2713L68.3987 28.2757Z" fill="#010101"/>
<path d="M69.9314 22.3889C70.2484 23.3195 70.4264 24.2057 70.4741 25.1942C70.4872 25.4925 70.8866 25.5504 70.9822 25.2654C71.3295 24.2146 70.8302 23.1414 70.4307 22.1796C70.3091 21.8902 69.8359 22.095 69.9357 22.3933L69.9314 22.3889Z" fill="#010101"/>
<path d="M69.063 23.9471C68.8155 24.4503 68.594 24.9624 68.3943 25.4878C68.2206 25.9465 68.9935 26.1869 69.1281 25.6971C69.2627 25.185 69.4234 24.6819 69.6057 24.1876C69.7273 23.8625 69.2106 23.6443 69.0586 23.9516L69.063 23.9471Z" fill="#010101"/>
<path d="M44.7088 23.925C44.2486 25.6171 43.5756 27.8525 44.4613 29.5134C44.6567 29.8785 45.1213 29.6069 45.0692 29.2507C44.9433 28.3823 44.7088 27.5719 44.7262 26.6813C44.7436 25.7774 44.9042 24.918 45.143 24.0497C45.2212 23.7647 44.787 23.6445 44.7132 23.9295L44.7088 23.925Z" fill="#010101"/>
<path d="M43.9404 30.0745C44.7046 29.981 45.3168 29.9454 45.8596 30.5554C46.1982 30.9384 46.8105 30.4441 46.5543 30.0077C45.9898 29.0459 44.7524 29.2418 43.8666 29.4867C43.5583 29.5714 43.6104 30.1146 43.9448 30.0745H43.9404Z" fill="#010101"/>
<path d="M45.447 27.9505C45.6858 28.0173 45.9506 28.1331 46.1981 28.1153C46.5672 28.0886 46.6019 27.621 46.2806 27.4874C46.0548 27.3939 45.7596 27.4206 45.5164 27.4028C45.2082 27.385 45.1517 27.8704 45.4426 27.9505H45.447Z" fill="#010101"/>
<path d="M61.6556 2.08363C66.4361 0.747763 69.0804 7.30685 69.9879 10.9938C70.7651 14.1643 70.5697 16.9562 69.888 20.0866C69.8142 20.425 70.231 20.5942 70.422 20.3181C72.58 17.1299 71.0126 11.3322 69.71 8.15735C68.4247 5.01807 65.5503 0.302476 61.5731 1.77192C61.3864 1.83872 61.4602 2.13706 61.6556 2.07917V2.08363Z" fill="#010101"/>
<path d="M59.7494 1.9679C59.0721 -0.303062 55.6333 0.119961 53.8704 0.280264C50.4185 0.596418 47.961 2.74716 44.9824 4.31902C41.791 6.00221 40.2887 8.45129 39.0078 11.8132C38.083 14.2356 37.6705 17.1834 40.5319 18.2343C41.0659 18.4302 41.2961 17.5619 40.7663 17.3615C37.7443 16.2305 39.7677 12.0314 40.6969 10.0321C41.2266 8.89658 41.7302 7.66758 42.616 6.77256C43.6885 5.69496 45.1126 5.02258 46.4196 4.31902C48.2085 3.35275 49.6804 1.86549 51.6256 1.21537C53.2712 0.667664 58.6553 -0.343138 59.4238 2.05251C59.4933 2.26179 59.8146 2.17719 59.7494 1.959V1.9679Z" fill="#010101"/>
<path d="M45.5035 15.2418C45.4861 18.8754 46.1808 22.5178 46.4544 26.138C46.4891 26.57 47.1187 26.5833 47.1187 26.138C47.1187 22.4733 45.8335 18.9199 45.8291 15.2418C45.8291 15.0281 45.5035 15.0281 45.5035 15.2418Z" fill="#010101"/>
<path d="M61.178 8.64716C61.1259 11.2031 61.8944 13.3939 63.4966 15.3532C65.1075 17.3214 66.5838 19.5122 66.714 22.1973C66.7357 22.647 67.3566 22.6425 67.3914 22.1973C67.5173 20.5497 66.7705 18.586 65.9281 17.2056C65.3897 16.3284 64.6342 15.6426 63.9656 14.8723C62.3938 13.06 61.6209 11.0829 61.5862 8.64716C61.5862 8.37998 61.1867 8.37998 61.178 8.64716Z" fill="#010101"/>
<path d="M66.8312 13.2562C67.3913 15.9413 67.6432 18.6397 67.7951 21.3782C67.8125 21.7255 68.3249 21.73 68.3249 21.3782C68.3032 18.5952 67.869 15.8477 67.2264 13.1448C67.1656 12.8821 66.7791 12.9935 66.8356 13.2562H66.8312Z" fill="#010101"/>
<path d="M69.4799 19.2229C68.9155 20.3361 68.3249 21.4849 67.2785 22.1929C66.9051 22.4468 67.2698 23.0702 67.6259 22.8074C68.7505 21.9792 69.3714 20.7591 69.9488 19.5034C70.0965 19.1828 69.6449 18.9023 69.4799 19.2229Z" fill="#010101"/>
<path d="M62.181 3.82511C64.1566 5.57509 65.8283 7.31171 66.5534 9.95226C66.6185 10.1838 67.005 10.1526 66.9789 9.89438C66.7141 7.11578 64.4041 5.20105 62.4285 3.57129C62.2549 3.4288 62.003 3.67371 62.181 3.82511Z" fill="#010101"/>
<path d="M61.1953 4.16799C63.5834 7.37852 65.1552 10.9675 66.1582 14.8638C66.219 15.1087 66.575 15.0063 66.5229 14.7614C65.711 10.7583 63.9178 7.16033 61.4515 3.96762C61.3386 3.82067 61.0825 4.02105 61.1953 4.16799Z" fill="#010101"/>
<path d="M40.1672 16.3151C40.254 19.5657 43.25 23.453 46.3371 24.2234C46.806 24.3391 46.9927 23.6311 46.5368 23.4842C45.1517 23.0433 44.0141 22.2107 43.0676 21.093C41.9647 19.7927 40.6925 18.0695 40.5623 16.3151C40.5449 16.0612 40.1628 16.0523 40.1672 16.3151Z" fill="#010101"/>
<path d="M42.8983 17.8026C43.25 19.2587 43.7623 20.9152 44.6828 22.113C44.9433 22.4514 45.4123 22.0195 45.2386 21.6766C44.5656 20.3274 43.797 19.1474 43.3194 17.6868C43.2326 17.4152 42.8331 17.5265 42.9026 17.807L42.8983 17.8026Z" fill="#010101"/>
<path d="M41.5783 13.3538C42.1514 14.2087 42.8244 14.9568 43.6537 15.549C43.9229 15.7405 44.1617 15.2997 43.9056 15.1038C43.1544 14.5249 42.451 13.8792 41.8562 13.1311C41.7302 12.9753 41.4654 13.1801 41.5783 13.3493V13.3538Z" fill="#010101"/>
<path d="M62.6456 31.5794C59.7104 32.3452 56.7101 32.844 53.6924 33.0711C53.2582 33.1022 53.2626 33.8102 53.6924 33.7657C56.7839 33.4407 59.7538 32.8083 62.7194 31.8465C62.8844 31.7931 62.8193 31.5348 62.6456 31.5794Z" fill="#010101"/>
<path d="M62.4676 32.7688C61.2866 35.5563 58.282 36.5938 55.6724 35.1466C55.0732 34.8126 54.5435 35.7344 55.1384 36.0817C58.1647 37.8584 61.8163 36.3355 62.7498 32.889C62.7976 32.7198 62.5371 32.5951 62.4633 32.7643L62.4676 32.7688Z" fill="#010101"/>
<path d="M61.1172 7.93016C59.7799 10.161 58.2125 12.3029 55.7202 13.2113C55.2556 13.3805 55.4466 14.133 55.9242 13.9772C58.651 13.0732 60.2098 10.6331 61.4776 8.1528C61.6035 7.90789 61.2562 7.69861 61.1129 7.93461L61.1172 7.93016Z" fill="#010101"/>
<path d="M56.302 7.95731C55.2425 9.43121 54.17 10.9363 52.7806 12.1074C51.2175 13.4254 49.3287 14.1913 47.4313 14.8415C46.9103 15.0196 47.1404 15.8745 47.6571 15.6875C49.4851 15.024 51.2696 14.2581 52.7806 12.9801C54.3568 11.6443 55.5074 9.88095 56.6276 8.15323C56.7665 7.9395 56.4409 7.75693 56.2976 7.95731H56.302Z" fill="#010101"/>
<path d="M50.0973 9.01238C48.3518 11.6574 46.5803 14.102 43.6538 15.4156C43.0068 15.7051 43.5669 16.6758 44.2096 16.3908C47.1925 15.0505 48.938 12.0225 50.4967 9.25284C50.6487 8.98566 50.2623 8.76302 50.0973 9.01238Z" fill="#010101"/>
<path d="M63.388 18.6973C61.864 17.0764 59.5671 17.1165 57.7999 18.301C57.4004 18.5681 57.7652 19.2227 58.1776 18.96C59.7451 17.9625 61.6295 17.633 63.1188 18.9689C63.3012 19.1337 63.5573 18.8754 63.388 18.6928V18.6973Z" fill="#010101"/>
<path d="M51.8644 48.1799C46.958 48.3937 42.1167 50.0546 37.7313 52.241C33.0593 54.5698 28.0487 57.8872 25.1396 62.4291C22.5127 66.5347 21.831 72.0073 21.1623 76.754C20.4112 82.1019 19.9292 87.481 19.0608 92.8111C18.987 93.2697 19.647 93.479 19.7555 93.007C20.8323 88.3271 21.0624 83.4333 21.6443 78.6777C22.2478 73.7572 22.7906 68.3114 25.0136 63.8273C27.367 59.085 32.3646 55.594 36.8195 53.1582C41.4133 50.6468 46.628 48.7143 51.8688 48.4382C52.0251 48.4293 52.0251 48.1799 51.8688 48.1888L51.8644 48.1799Z" fill="#010101"/>
<path d="M70.1485 45.2632C72.2109 45.7887 74.408 45.8911 76.5138 46.1316C78.9757 46.4121 81.4159 46.8485 83.8822 47.1379C87.7465 47.5921 91.524 48.2645 94.7545 50.6334C97.7244 52.8153 100.881 55.87 102.631 59.1963C104.059 61.9125 104.741 65.2656 105.627 68.1911C107.038 72.8755 108.384 77.5778 109.713 82.2844C110.646 85.5885 111.571 88.897 112.539 92.1921C112.678 92.6641 113.382 92.4682 113.26 91.9873C111.193 84.0745 108.814 76.233 106.404 68.4271C105.453 65.3457 104.702 61.8591 103.2 58.987C100.264 53.3675 94.2812 48.5317 88.2068 47.2938C84.9373 46.6258 81.5635 46.3898 78.2636 45.9089C75.6107 45.5215 72.8535 45.5438 70.2397 44.8981C70.0095 44.8402 69.914 45.2009 70.1442 45.2588L70.1485 45.2632Z" fill="#010101"/>
<path d="M90.0912 98.7467C90.4386 101.681 90.6166 104.616 90.9162 107.55C90.9596 107.969 91.5805 107.986 91.5675 107.55C91.4893 104.607 90.825 101.663 90.482 98.7467C90.4516 98.4929 90.0565 98.4885 90.0869 98.7467H90.0912Z" fill="#010101"/>
<path d="M49.0856 49.0748C49.7456 52.1696 51.4476 55.4959 53.6751 57.7C56.1196 60.1224 60.2792 60.5543 63.5053 60.1402C67.6302 59.6148 70.8997 56.8095 73.5483 53.7058C75.4674 51.4571 75.9233 48.8254 76.0015 45.8643C76.0145 45.3967 75.2634 45.2721 75.1895 45.753C74.8205 48.1709 74.5817 50.7402 72.9708 52.6193C70.6174 55.3712 67.8169 58.1052 64.2391 58.9468C60.8784 59.735 56.3106 59.4589 53.7272 56.8762C51.6777 54.8235 50.0104 51.8579 49.3852 48.9902C49.3418 48.7898 49.0422 48.8744 49.0856 49.0748Z" fill="#010101"/>
<path d="M98.163 58.2744C96.3394 60.0689 94.29 62.2018 93.2045 64.5797C93.0525 64.9181 93.4693 65.1586 93.6864 64.8691C95.2712 62.7095 96.5738 60.5142 98.4973 58.6217C98.7188 58.4035 98.3801 58.0607 98.163 58.2789V58.2744Z" fill="#010101"/>
<path d="M36.1465 92.2635C37.1278 102.924 37.753 114.158 35.391 124.68C34.4575 128.848 25.6085 149.069 34.7354 149.291C35.3259 149.305 35.3128 148.41 34.7354 148.361C28.6783 147.844 32.9899 135.492 34.0102 132.157C35.226 128.163 36.3115 124.222 36.8108 120.063C37.918 110.863 37.3536 101.459 36.4548 92.2635C36.4331 92.0587 36.1248 92.0587 36.1422 92.2635H36.1465Z" fill="#010101"/>
<path d="M32.7424 68.4719C33.6282 76.1531 34.3186 83.9055 35.8991 91.4799C35.9902 91.9252 36.6155 91.7248 36.5547 91.2929C35.4822 83.6695 33.9539 76.1264 33.0681 68.4719C33.042 68.2626 32.7164 68.2581 32.7424 68.4719Z" fill="#010101"/>
<path d="M19.2085 94.0135C24.6751 95.8971 30.6453 96.8367 36.355 95.67C36.711 95.5988 36.6372 94.9887 36.2681 95.0154C30.4803 95.3806 24.9182 95.3227 19.291 93.6929C19.0869 93.635 19.0088 93.9467 19.2042 94.0135H19.2085Z" fill="#010101"/>
<path d="M21.4793 94.4583C22.4519 99.263 22.5518 104.223 23.5851 109.001C23.6676 109.375 24.2972 109.304 24.2495 108.908C23.6633 104.045 22.8253 99.1472 21.857 94.3514C21.8049 94.0976 21.4272 94.2045 21.4793 94.4583Z" fill="#010101"/>
<path d="M58.3774 64.2729C66.8877 64.3975 75.2373 59.7532 78.3896 51.3417C78.5025 51.0478 78.0379 50.8519 77.8946 51.128C73.9347 58.7112 67.031 63.9656 58.3774 63.8409C58.1082 63.8409 58.1082 64.2684 58.3774 64.2729Z" fill="#010101"/>
<path d="M27.493 71.896C29.7943 78.6243 32.1737 85.7177 35.5734 91.9562C35.7471 92.2768 36.3116 92.0586 36.1683 91.6979C33.5067 85.0097 30.3327 78.5753 27.8577 71.7936C27.7752 71.562 27.4105 71.66 27.493 71.896Z" fill="#010101"/>
<path d="M98.3235 95.2644C101.372 94.258 104.424 93.2517 107.368 91.9603C108.805 91.328 111.497 90.6067 111.923 88.8166C112.005 88.4693 111.588 88.2066 111.332 88.4648C108.032 91.8357 102.492 93.2472 98.1976 94.8102C97.9197 94.9126 98.0326 95.3623 98.3192 95.2644H98.3235Z" fill="#010101"/>
<path d="M89.0318 99.0408C97.6767 100.283 106.968 98.1057 114.002 92.7266C114.337 92.4728 114.042 91.9028 113.668 92.1388C106.104 96.8277 97.9372 99.1654 89.0795 98.689C88.8842 98.6801 88.832 99.014 89.0318 99.0452V99.0408Z" fill="#010101"/>
<path d="M20.5632 90.6026C25.2785 91.3507 30.3804 92.0988 35.1435 91.4531C35.6211 91.3863 35.6559 90.6739 35.1435 90.6605C30.2762 90.5314 25.5564 90.803 20.7064 90.0638C20.3634 90.0104 20.2158 90.5447 20.5632 90.6026Z" fill="#010101"/>
<path d="M14.1674 49.4805C8.56624 59.1833 5.33581 70.3511 5.78303 81.6792C5.8004 82.0889 6.40828 82.0933 6.40828 81.6792C6.41696 70.4179 8.87886 59.4148 14.4974 49.6764C14.6233 49.4582 14.2933 49.2623 14.1674 49.4805Z" fill="#010101"/>
<path d="M14.7709 56.1597C10.6851 69.0463 9.53448 82.819 9.26962 96.3023C9.26094 96.7298 9.87316 96.7165 9.90789 96.3023C10.9717 82.8235 11.3104 69.3179 15.2008 56.2843C15.2876 55.9994 14.8577 55.8836 14.7709 56.1641V56.1597Z" fill="#010101"/>
<path d="M58.084 42.505C55.4276 43.7055 52.3923 41.2286 45.4101 46.1149C43.9488 47.1367 43.0778 46.9978 41.9988 47.8808C37.4746 51.5815 36.1343 55.4954 34.8714 57.5392C32.602 61.215 27.5117 72.5402 27.473 82.8632C27.4295 93.4145 29.3311 95.3541 31.5714 96.5695C33.8117 97.7848 47.0262 93.6725 50.3214 92.9978C50.8439 92.8887 51.9133 90.0115 51.652 88.3745C51.1778 85.413 50.6214 78.6665 49.9633 72.4211C48.6907 60.3568 49.5934 47.8858 51.4999 47.8808C56.3483 47.8709 65.4548 42.2902 69.9064 45.1078C72.2326 47.2707 73.3475 55.5664 72.4765 59.2968C71.4604 63.6572 72.5216 70.0404 70.9345 79.2374C69.028 90.2848 70.4528 98.1374 71.9625 98.6533C73.569 99.2039 75.6876 98.2922 82.7569 98.1285C92.5233 96.0295 100.234 97.6038 99.7195 94.4552C99.7195 89.7325 90.4672 69.7919 87.3831 62.9701C85.5395 53.5102 79.6177 46.7827 76.5887 44.0791C73.5548 41.3756 64.6743 39.5287 58.084 42.505Z" fill="white"/>
<path d="M69.9994 44.8287C71.71 48.0917 72.7664 51.85 72.5986 55.5763C72.524 57.2749 72.1756 58.9767 71.9817 60.6641C71.4678 65.1732 71.1342 69.709 70.9184 74.2462C70.6828 79.2334 70.5919 84.2377 70.8313 89.2249C71.0179 93.1561 71.2631 97.3442 72.7203 101.034C72.8778 101.426 73.4295 101.157 73.3014 100.766C71.9295 96.6713 71.6267 92.2012 71.4391 87.9086C71.2066 82.5489 71.3285 77.1682 71.6005 71.8088C72.0638 62.7494 74.8081 53.0725 70.3824 44.6425C70.2521 44.3971 69.8676 44.5735 69.9979 44.8189L69.9994 44.8287Z" fill="#010101"/>
<path d="M69.6135 41.6171C70.8337 42.4277 72.2921 42.809 73.6525 43.2861C75.6907 44.0022 76.893 44.7604 78.0157 46.7009C78.2682 47.1378 78.9103 46.9808 78.8625 46.4412C78.7232 44.8167 77.0318 43.644 75.6617 43.1032C73.7964 42.3647 71.668 42.2151 69.9081 41.2039C69.6345 41.0465 69.3361 41.4351 69.6135 41.6171Z" fill="#010101"/>
<path d="M78.6113 46.5913C81.0815 48.8604 82.6422 52.1672 84.1098 55.1525C85.9062 58.8185 87.485 62.5994 89.0248 66.3814C92.6565 75.2887 95.4826 84.6952 99.6027 93.3694C99.8753 93.9386 100.684 93.5545 100.472 92.9705C97.0089 83.4944 93.246 74.0457 89.28 64.7747C87.6311 60.9196 85.9248 57.0736 83.9473 53.376C82.578 50.8119 81.1032 48.0688 78.9569 46.0947C78.6724 45.8336 78.326 46.3253 78.6098 46.5815L78.6113 46.5913Z" fill="#010101"/>
<path d="M44.3793 46.1839C37.489 49.5224 33.6616 58.0646 30.9519 64.9053C29.4374 68.7349 28.2809 72.6886 27.6035 76.7712C27.0858 79.8964 25.8325 85.358 27.7874 88.2253C28.1406 88.7412 28.939 88.2848 28.6245 87.7242C27.8551 86.3501 28.0438 84.2865 28.1019 82.7636C28.1987 80.1642 28.518 77.5797 29.0019 75.03C29.6454 71.6468 30.6083 68.3579 31.818 65.1484C34.3245 58.5111 37.9777 49.8349 44.6067 46.5857C44.868 46.4567 44.6406 46.0549 44.3793 46.1839Z" fill="#010101"/>
<path d="M51.8309 43.039C49.1599 43.7136 45.9809 44.3883 43.9389 46.4221C43.5809 46.7793 44.0599 47.4639 44.4905 47.1513C46.8518 45.43 49.1938 44.3982 51.9712 43.5598C52.3002 43.4606 52.1599 42.9546 51.8309 43.039Z" fill="#010101"/>
<path d="M50.6795 48.1038C48.8215 54.0318 48.8989 60.2425 49.1215 66.3986C49.3682 73.165 49.8182 80.4422 51.5263 87.0051C51.6811 87.5954 52.644 87.4962 52.5956 86.8563C52.3585 83.6567 51.6037 80.4819 51.1537 77.3021C50.6602 73.8148 50.336 70.3225 50.1521 66.8005C49.8327 60.6344 49.3005 54.2104 51.115 48.2229C51.2021 47.9352 50.7666 47.8161 50.6795 48.0989V48.1038Z" fill="#010101"/>
<path d="M73.3372 99.7136C76.5065 99.411 79.671 99.029 82.8259 98.5677C85.7388 98.1361 88.8355 97.1737 91.7678 97.1142C94.4484 97.0597 98.7307 98.2403 100.371 95.2589C100.676 94.7083 99.9839 94.1974 99.5387 94.5992C97.042 96.8563 93.8678 95.631 90.9162 96.013C88.2839 96.3503 85.6662 97.1192 83.0436 97.5756C79.821 98.1361 76.584 98.5925 73.3372 98.9695C72.8824 99.0241 72.8678 99.7582 73.3372 99.7136Z" fill="#010101"/>
<path d="M27.5842 88.3744C28.0148 90.8994 27.9229 94.5405 30.0713 96.3114C32.4374 98.2659 36.0664 97.6508 38.7277 96.8471C40.6535 96.2668 42.497 95.5078 44.4664 95.0812C46.0341 94.7438 47.6551 94.5702 49.1357 93.9055C51.5599 92.8142 53.3357 90.3785 52.4696 87.6204C52.2518 86.9209 51.2018 87.2086 51.3906 87.923C52.4067 91.7476 47.9841 93.0324 45.2648 93.5682C42.889 94.0345 40.6825 94.8431 38.3793 95.5723C35.5922 96.4553 31.5083 97.3333 29.6213 94.3222C28.5471 92.6058 28.4309 90.2049 27.9858 88.2553C27.9229 87.9775 27.5309 88.1016 27.5793 88.3694L27.5842 88.3744Z" fill="#010101"/>
<path d="M50.1228 44.428C47.5002 49.3241 45.1486 54.5378 44.2099 60.0788C43.2131 65.9671 43.6728 71.9794 44.2631 77.8825C44.3067 78.3091 44.9551 78.324 44.9309 77.8825C44.5631 72.0438 44.0357 66.106 44.9696 60.2921C45.8599 54.7362 48.2889 49.7458 50.476 44.6413C50.5776 44.4032 50.2534 44.1899 50.1228 44.428Z" fill="#010101"/>
<path d="M41.5875 54.1013C38.6939 65.4909 35.6891 76.8458 32.752 88.2255C32.6117 88.7662 33.4343 88.9993 33.5697 88.4586C36.3907 77.0492 39.1342 65.6199 41.9939 54.2203C42.0617 53.9475 41.6552 53.8334 41.5875 54.1062V54.1013Z" fill="#010101"/>
<path d="M75.5675 46.5722C78.8106 53.6334 81.2917 60.9962 83.5172 68.4496C85.8857 76.3925 88.2552 84.31 89.6761 92.4935C89.7595 92.9772 90.452 92.8624 90.4076 92.3775C89.7043 84.4368 86.8162 76.5863 84.4532 69.0342C82.0425 61.329 79.3924 53.6918 75.9432 46.4022C75.8279 46.1594 75.457 46.3286 75.5723 46.5714L75.5675 46.5722Z" fill="#010101"/>
<path d="M72.9551 43.1103C79.3703 60.9187 78.6011 80.0416 82.1437 98.4409C82.2359 98.9183 82.9538 98.8095 82.8753 98.325C79.8352 79.8812 79.8987 60.594 73.3524 42.9218C73.2526 42.6515 72.8545 42.8351 72.9543 43.1054L72.9551 43.1103Z" fill="#010101"/>
<path d="M48.734 77.0658L44.2488 84.137L45.5948 94.0179L51.1959 100.394L59.7409 99.3569L62.8932 93.3544L62.3157 82.2935L56.5843 76.0684L48.734 77.0658Z" fill="#848484"/>
<path d="M56.6756 75.8501C55.7768 77.8449 54.7652 79.8131 54.0574 81.8926C53.9662 82.1642 54.4004 82.3602 54.5177 82.093C55.3774 80.0847 56.0373 77.9963 56.9101 75.9926C56.9796 75.8323 56.7494 75.6898 56.6756 75.8501Z" fill="#010101"/>
<path d="M53.1933 82.6896C53.5407 86.0693 53.4929 89.6672 54.179 92.9891C54.2398 93.274 54.6522 93.1983 54.6566 92.9223C54.7565 89.5737 53.9445 85.958 53.4582 82.6539C53.4365 82.5025 53.176 82.5337 53.1933 82.6896Z" fill="#010101"/>
<path d="M54.9649 94.6679C55.5033 95.3893 56.0504 96.1062 56.6061 96.8142C57.2053 97.5757 57.7785 98.4395 58.4862 99.0985C58.8596 99.4459 59.3155 98.9338 59.0246 98.5464C58.4689 97.8117 57.7437 97.1883 57.1228 96.5114C56.4976 95.8257 55.881 95.131 55.2775 94.4275C55.1342 94.2583 54.8303 94.4898 54.9692 94.6724L54.9649 94.6679Z" fill="#010101"/>
<path d="M46.2505 83.9232C48.2304 83.5536 50.2668 83.4735 52.2294 83.0193C52.542 82.948 52.4769 82.4315 52.1556 82.4448C50.1235 82.5339 48.1219 83.1083 46.1333 83.4824C45.851 83.5358 45.9683 83.9766 46.2505 83.9232Z" fill="#010101"/>
<path d="M47.3491 94.3652C49.177 94.0312 51.1005 93.9333 52.8938 93.4524C53.2889 93.3455 53.2238 92.6553 52.7939 92.6998C50.9225 92.9046 49.0685 93.5102 47.2188 93.8665C46.9018 93.9288 47.0364 94.4186 47.3534 94.3607L47.3491 94.3652Z" fill="#010101"/>
<path d="M57.0487 84.8628C57.1963 84.4131 89.7308 80.2764 89.7308 80.2764C89.7308 80.2764 91.1202 82.0174 91.1202 83.2821C91.1202 84.5467 90.1953 85.3393 90.1953 85.3393L58.1299 90.0816C58.1299 90.0816 56.1239 87.7082 57.0487 84.8628Z" fill="#B7B7B7"/>
<path d="M58.0864 84.3817C57.4091 86.4746 56.6796 89.3422 59.2848 90.3486C59.6148 90.4733 59.8146 89.9478 59.5193 89.7742C57.5394 88.6209 57.6957 86.4034 58.2949 84.4396C58.3383 84.3016 58.1299 84.2437 58.0864 84.3817Z" fill="#010101"/>
<path d="M58.6727 84.6312C62.8496 84.3195 67.0136 83.656 71.1732 83.1706C75.0766 82.712 79.0669 82.3914 82.8922 81.4474C83.1831 81.3761 83.131 80.8774 82.8184 80.8996C78.6457 81.2425 74.4905 81.9683 70.3395 82.4982C66.4361 82.997 62.4589 83.3621 58.6292 84.3195C58.4599 84.3595 58.4946 84.649 58.6727 84.6356V84.6312Z" fill="#010101"/>
<path d="M58.9591 89.5872C63.1361 89.2755 67.3001 88.612 71.4597 88.1267C75.3631 87.668 79.3534 87.3474 83.1787 86.4034C83.4696 86.3322 83.4175 85.8334 83.1049 85.8557C78.9322 86.1986 74.777 86.9244 70.626 87.4543C66.7226 87.953 62.7454 88.3181 58.9157 89.2755C58.7464 89.3156 58.7811 89.605 58.9591 89.5917V89.5872Z" fill="#010101"/>
<path d="M66.7228 79.911C62.2636 78.5128 63.0495 84.257 63.0885 85.1965C63.158 86.9554 62.967 93.5501 68.2208 97.0501C69.5972 98.1499 68.6767 99.2899 70.0921 103.088C74.3039 114.367 80.6128 121.256 85.3933 126.982C90.0609 132.575 102.757 131.698 103.89 131.929C107.307 129.471 107.959 124.511 109.348 110.248C110.156 101.957 109.574 95.6519 109.626 95.3046C109.678 94.9483 94.5418 101.165 90.291 98.809C90.139 100.336 90.8077 102.104 90.9249 102.977C91.0943 104.228 90.8338 104.607 91.3591 108.026C86.8913 103.899 81.3726 100.497 80.083 95.0908C79.8703 94.2002 81.2119 92.8599 81.0296 91.9649C80.6562 90.1348 80.3349 88.3269 80.0266 86.666C79.2971 82.7564 78.0857 80.1559 77.5907 78.9625C77.2304 78.1031 74.9942 77.1992 74.3169 78.7577C73.9609 79.5725 72.0417 76.834 70.7999 79.6572C70.0574 78.7666 67.843 78.5929 66.7271 79.9021L66.7228 79.911Z" fill="#FFD9CA"/>
<path d="M77.1523 78.2548C78.7632 82.5028 79.6576 86.8132 80.7344 91.2171C80.8213 91.5778 81.4378 91.5154 81.3857 91.128C80.8126 86.6618 79.2061 82.2312 77.4953 78.1078C77.4128 77.9074 77.0698 78.0499 77.148 78.2592L77.1523 78.2548Z" fill="#010101"/>
<path d="M63.0581 82.1244C62.8193 85.1123 62.6586 88.4118 63.3794 91.3463C63.4532 91.6535 63.9439 91.5956 63.9265 91.2706C63.7528 88.1892 63.3143 85.2325 63.4532 82.1244C63.4662 81.8617 63.0798 81.8706 63.0581 82.1244Z" fill="#010101"/>
<path d="M66.3971 79.6839C66.3276 83.0993 66.2581 86.7239 67.209 90.0324C67.335 90.4643 67.9124 90.2728 67.8517 89.8498C67.3654 86.4389 66.6402 83.1616 66.7097 79.6839C66.7097 79.4791 66.4014 79.4791 66.3971 79.6839Z" fill="#010101"/>
<path d="M70.2615 79.1322C70.8737 82.4896 70.8564 85.8159 71.2168 89.1868C71.2602 89.6053 71.8463 89.6231 71.868 89.1868C72.033 85.8293 71.2906 82.2937 70.6697 79.0164C70.6176 78.7448 70.2138 78.8605 70.2659 79.1322H70.2615Z" fill="#010101"/>
<path d="M73.8435 78.887C74.4991 82.3647 74.8508 85.9804 75.754 89.3958C75.8365 89.703 76.3401 89.6541 76.3141 89.3201C76.0232 85.7845 75.0202 82.2267 74.2256 78.7801C74.1648 78.5263 73.8001 78.6332 73.8479 78.887H73.8435Z" fill="#010101"/>
<path d="M63.5009 81.6079C63.6615 81.3096 63.8005 81.0157 64.1088 80.8465C64.4605 80.655 64.8686 80.6684 65.2377 80.5437C65.5807 80.4279 65.5156 79.9203 65.1508 79.9025C64.378 79.8579 62.728 80.5348 63.2056 81.6079C63.2577 81.7281 63.4401 81.7148 63.4965 81.6079H63.5009Z" fill="#010101"/>
<path d="M66.8052 80.1474C67.3002 79.622 67.9471 79.2791 68.6679 79.2435C69.228 79.2168 69.5146 79.4839 69.9314 79.7956C70.0486 79.8847 70.2006 79.7645 70.2049 79.6353C70.231 78.9006 69.3235 78.6557 68.7504 78.6735C67.8516 78.7047 67.0831 79.2346 66.562 79.9559C66.4535 80.1029 66.6879 80.2765 66.8052 80.1519V80.1474Z" fill="#010101"/>
<path d="M70.8172 79.9023C71.3903 79.1498 72.5279 77.9341 73.4528 78.936C73.6742 79.1765 74.1041 78.8559 73.913 78.5754C73.5222 78.0009 72.8449 77.8184 72.2023 78.041C71.4468 78.3037 70.9778 79.0474 70.5653 79.7019C70.4655 79.8578 70.7043 80.0537 70.8215 79.9023H70.8172Z" fill="#010101"/>
<path d="M74.573 78.8201C74.8943 78.5752 75.4718 78.0809 75.8843 78.0542C76.3142 78.0275 76.6442 78.927 76.922 79.212C77.1131 79.4079 77.5256 79.212 77.4083 78.9225C77.2477 78.5173 76.9915 78.1433 76.7397 77.7871C76.592 77.5778 76.4184 77.3907 76.1535 77.3596C75.5152 77.2883 74.7293 78.0631 74.2951 78.4639C74.1084 78.6376 74.3603 78.9804 74.5643 78.8246L74.573 78.8201Z" fill="#010101"/>
<path d="M65.1944 92.6419C65.8848 92.6686 66.6055 92.8289 67.2786 92.9847C67.7258 93.0872 67.83 92.4014 67.3654 92.3435C66.6316 92.25 65.9282 92.2723 65.1944 92.2678C64.9599 92.2678 64.9599 92.633 65.1944 92.6419Z" fill="#010101"/>
<path d="M69.6364 92.0901C70.3137 92.148 71.0301 92.2504 71.7075 92.197C71.981 92.1747 72.0244 91.8185 71.7726 91.7205C71.0866 91.4533 70.2833 91.4934 69.5756 91.6448C69.315 91.6982 69.3975 92.0767 69.6364 92.0945V92.0901Z" fill="#010101"/>
<path d="M73.4267 91.2704C73.926 91.4485 74.4427 91.6978 74.9724 91.7335C75.2633 91.7557 75.3675 91.3104 75.1201 91.1769C74.6555 90.923 74.0867 90.8563 73.5743 90.7316C73.2313 90.6514 73.101 91.1501 73.431 91.2704H73.4267Z" fill="#010101"/>
<path d="M77.6689 92.9092C78.3853 92.3481 79.1755 91.8227 79.8051 91.1592C80.0135 90.9366 79.7443 90.5536 79.4751 90.7228C78.7023 91.2038 78.0293 91.8806 77.3389 92.4728C77.1044 92.6732 77.4214 93.1007 77.6689 92.9092Z" fill="#010101"/>
<path d="M63.1709 92.081C64.4518 93.7953 65.5286 96.5695 67.8776 96.9346C68.1555 96.9792 68.3813 96.5873 68.0861 96.427C67.1221 95.906 66.2754 95.296 65.5417 94.4633C64.8079 93.6261 64.1566 92.7178 63.3924 91.9029C63.2838 91.7871 63.0667 91.9474 63.1666 92.081H63.1709Z" fill="#010101"/>
<path d="M80.947 92.4638C80.413 93.4835 79.7834 94.4364 79.0279 95.3003C78.3331 96.0973 77.5038 96.743 76.7961 97.5222C76.605 97.7315 76.8439 98.0477 77.0913 97.9141C79.0148 96.8944 80.4173 94.6368 81.3204 92.6864C81.4377 92.4326 81.0816 92.2055 80.947 92.4638Z" fill="#010101"/>
<path d="M68.5507 98.395C70.0313 102.523 71.3686 106.798 73.2747 110.747C75.0549 114.43 77.4821 118.063 79.7573 121.452C84.9633 129.213 95.18 134.227 104.324 132.103C104.815 131.992 104.719 131.119 104.203 131.186C94.1466 132.562 84.7245 127.584 79.3535 118.954C77.4734 115.935 75.2807 113.072 73.722 109.866C71.8896 106.094 70.5784 102.086 68.733 98.3193C68.6809 98.2168 68.5072 98.2881 68.5463 98.3994L68.5507 98.395Z" fill="#010101"/>
<path d="M80.1439 96.0795C84.9461 104.905 94.4854 109.652 100.065 117.876C100.369 118.326 101.077 117.921 100.79 117.44C95.6404 108.752 85.4368 104.718 80.4001 95.9237C80.3046 95.7545 80.0484 95.9059 80.1439 96.0795Z" fill="#010101"/>
<path d="M109.483 93.7194C110.056 99.7753 109.591 106.005 109.014 112.038C108.714 115.156 108.193 118.219 107.689 121.309C107.086 125.036 106.365 128.572 103.964 131.56C103.69 131.898 104.142 132.384 104.441 132.05C106.695 129.574 107.533 126.448 108.08 123.18C108.605 120.031 109.135 116.865 109.452 113.686C110.103 107.127 110.455 100.287 109.834 93.7149C109.813 93.4834 109.461 93.4834 109.483 93.7149V93.7194Z" fill="#010101"/>
<path d="M82.9532 71.5306L78.4679 78.6018L79.8183 88.4827L85.4151 94.8593L93.9601 93.8262L97.1123 87.8193L96.5392 76.7628L90.8078 70.5332L82.9532 71.5306Z" fill="#848484"/>
<path d="M90.6384 71.014C89.8743 73.0534 88.7497 75.0038 88.1027 77.0833C88.0159 77.3683 88.4327 77.5508 88.576 77.2881C89.5964 75.3734 90.1261 73.1158 90.8642 71.0763C90.9163 70.9339 90.6949 70.8715 90.6428 71.014H90.6384Z" fill="#010101"/>
<path d="M87.751 77.0654C87.9638 80.0755 88.2069 83.0723 88.6064 86.0602C88.6672 86.4966 89.3315 86.3185 89.262 85.8732C88.7844 82.9432 88.3198 80.0132 87.9942 77.0609C87.9768 76.9051 87.738 76.8962 87.751 77.0609V77.0654Z" fill="#010101"/>
<path d="M88.7497 86.8038C90.1304 88.9501 91.2289 91.3324 92.7009 93.4074C92.9397 93.7414 93.4477 93.4564 93.2523 93.0779C92.08 90.8159 90.4083 88.772 89.0319 86.6346C88.919 86.4565 88.6368 86.6213 88.7497 86.8038Z" fill="#010101"/>
<path d="M80.6172 88.5182C83.0487 88.0863 85.5323 87.7657 87.9334 87.1824C88.2764 87.0977 88.2113 86.4922 87.8465 86.5411C85.3716 86.8707 82.9141 87.4718 80.4608 87.9572C80.1005 88.0284 80.2568 88.585 80.6128 88.5227L80.6172 88.5182Z" fill="#010101"/>
<path d="M79.6272 78.486C82.1325 78.0674 84.6118 77.4975 87.1214 77.1145C87.6338 77.0344 87.421 76.2195 86.9043 76.3085C84.4164 76.7449 81.9024 77.208 79.5013 78.0185C79.206 78.1164 79.3319 78.5394 79.6272 78.486Z" fill="#010101"/>
<path d="M55 42.4998L52.5 41.9998C52.5 41.9998 52.5 49.4998 53 49.4998C53.5 49.4998 62 48.9998 62 48.9998L70 46.4998V43.4998L68.5 40.9998L68 39.9998L66 40.9998H62L58 41.9998L55 42.4998Z" fill="#FFD9CA"/>
<path d="M62.7411 45.2276C62.4762 45.575 62.2895 45.949 62.0941 46.3409C61.8944 46.7416 61.6035 47.089 61.4081 47.4897C61.2778 47.7613 61.5557 48.1087 61.8336 47.9261C62.207 47.6856 62.3763 47.2804 62.5413 46.8752C62.728 46.4255 62.9061 45.9802 63.1839 45.5794C63.3707 45.3123 62.9364 44.9649 62.7367 45.2232L62.7411 45.2276Z" fill="#010101"/>
<path d="M52.1858 39.8888C52.4029 43.7316 52.1988 47.5566 52.329 51.3905C52.3377 51.6666 52.7806 51.7601 52.824 51.4573C53.3711 47.6946 52.8805 43.6559 52.5679 39.8843C52.5461 39.6394 52.1727 39.6305 52.1858 39.8843V39.8888Z" fill="#010101"/>
<path d="M67.7778 34.9949C68.0383 37.8848 68.4986 40.748 69.3887 43.5088C69.914 45.1341 70.4351 47.2136 71.6117 48.4916C71.8592 48.7587 72.3499 48.3981 72.1241 48.0864C71.1037 46.6793 70.5523 44.7423 69.9748 43.1036C69.0543 40.4898 68.5333 37.7557 68.199 34.9994C68.1686 34.7322 67.7517 34.7188 67.7778 34.9994V34.9949Z" fill="#010101"/>
<path d="M68.5551 31.3569C68.0645 33.2271 67.7128 35.7742 66.484 37.2792C65.0728 39.0114 62.9496 40.6367 61.1043 41.839C60.783 42.0483 61.0609 42.5203 61.3995 42.3555C63.4967 41.3269 65.811 39.4656 67.2047 37.5509C68.3727 35.9434 68.6767 33.432 69.1543 31.5261C69.2542 31.1254 68.655 30.9562 68.5508 31.3569H68.5551Z" fill="#010101"/>
</g>
<defs>
<clipPath id="clip0_218_20171">
<rect width="110" height="104" fill="white"/>
</clipPath>
</defs>
</svg>
