<svg width="327" height="196" viewBox="0 0 327 196" fill="none" xmlns="http://www.w3.org/2000/svg">
    <g filter="url(#g9eax0u3da)">
        <rect y="-73" width="327" height="336" rx="16" fill="#fff"/>
    </g>
    <g filter="url(#iv48hz7jnb)">
        <path d="M20 38C20 20.327 34.327 6 52 6h255v145c0 17.673-14.327 32-32 32H20V38z" fill="#fff"/>
        <path d="M20.5 38C20.5 20.603 34.603 6.5 52 6.5h254.5V151c0 17.397-14.103 31.5-31.5 31.5H20.5V38z" stroke="#EFEFEF"/>
    </g>
    <rect x="226.479" y="150.123" width="10.356" height="13.315" rx="4" fill="#EDEDED"/>
    <rect x="240.534" y="142.727" width="10.356" height="20.712" rx="4" fill="#DDD"/>
    <rect x="254.59" y="127.191" width="10.356" height="36.247" rx="4" fill="#EDEDED"/>
    <rect x="268.644" y="105" width="10.356" height="58.439" rx="4" fill="#DDD"/>
    <path d="M225 137.548c14.529-5.392 27.146-15.502 34.028-30.329" stroke="#E7322D" stroke-width="2" stroke-linecap="round"/>
    <path d="m260.164 108.88-.492-3.452-3.57 1.494" stroke="#E7322D" stroke-width="2" stroke-linecap="round" stroke-linejoin="round"/>
    <g filter="url(#0y8n1fd5bc)">
        <path d="M64 129h29v34H64v-34z" fill="#fff"/>
        <path d="M64.5 129.5h28v33h-28v-33z" stroke="#E4E4E4"/>
    </g>
    <path d="M78.394 143.913c1.324-.951 2.042-1.584 2.042-2.598 0-1.013-.808-1.71-2.221-1.71-1.504 0-2.311.992-2.311 2.069H72c0-3.042 2.558-5.322 6.193-5.322 3.882 0 6.08 2.091 6.08 4.963 0 1.563-.808 2.809-2.266 3.865-1.638 1.204-2.154 1.964-2.154 3.147H76.15c0-2.091.606-3.252 2.244-4.414zm-2.648 8.194c0-1.288 1.01-2.238 2.379-2.238s2.379.95 2.379 2.238c0 1.289-1.01 2.218-2.38 2.218-1.368 0-2.378-.929-2.378-2.218z" fill="#12BD7E"/>
    <g filter="url(#a9ir3ftbld)">
        <path d="M95 129h29v34H95v-34z" fill="#fff"/>
        <path d="M95.5 129.5h28v33h-28v-33z" stroke="#E4E4E4"/>
    </g>
    <path d="M109.394 143.561c1.324-.95 2.042-1.584 2.042-2.597 0-1.014-.808-1.711-2.221-1.711-1.504 0-2.311.993-2.311 2.069H103c0-3.041 2.558-5.322 6.193-5.322 3.882 0 6.08 2.091 6.08 4.964 0 1.562-.808 2.809-2.266 3.864-1.638 1.204-2.154 1.964-2.154 3.147h-3.702c0-2.091.606-3.252 2.244-4.414h-.001zm-2.648 8.195c0-1.288 1.01-2.239 2.379-2.239s2.378.951 2.378 2.239c0 1.288-1.009 2.217-2.378 2.217-1.369 0-2.379-.929-2.379-2.217z" fill="#12BD7E"/>
    <g filter="url(#fws53mddze)">
        <path d="M133 129h29v34h-29v-34z" fill="#fff"/>
        <path d="M133.5 129.5h28v33h-28v-33z" stroke="#E4E4E4"/>
    </g>
    <path d="M147.394 143.913c1.324-.951 2.042-1.584 2.042-2.598 0-1.013-.808-1.71-2.221-1.71-1.504 0-2.311.992-2.311 2.069H141c0-3.042 2.558-5.322 6.193-5.322 3.882 0 6.08 2.091 6.08 4.963 0 1.563-.808 2.809-2.266 3.865-1.638 1.204-2.154 1.964-2.154 3.147h-3.702c0-2.091.606-3.252 2.244-4.414h-.001zm-2.648 8.194c0-1.288 1.01-2.238 2.379-2.238s2.378.95 2.378 2.238c0 1.289-1.009 2.218-2.378 2.218-1.369 0-2.379-.929-2.379-2.218z" fill="#12BD7E"/>
    <path d="M176.561 150.262v.816c-.011 1.805 1.139 3.352 3.287 3.352 2.106 0 3.276-1.547 3.266-3.352v-.816c.01-1.816-1.128-3.341-3.266-3.352-2.116.011-3.298 1.547-3.287 3.352zm-7.906-8.078c-.011 1.804 1.138 3.33 3.287 3.33 2.116 0 3.276-1.515 3.265-3.33v-.817c.011-1.826-1.117-3.351-3.265-3.351-2.095 0-3.298 1.525-3.287 3.351v.817zm.859 11.816h1.891l10.699-15.555h-1.891L169.514 154zm1.117-11.816v-.817c.011-.805.344-1.622 1.311-1.633.999.011 1.278.817 1.289 1.633v.817c-.011.805-.322 1.6-1.289 1.611-.967-.011-1.3-.806-1.311-1.611zm7.907 8.894v-.816c0-.806.343-1.622 1.31-1.612.988-.01 1.278.806 1.289 1.612v.816c-.011.817-.322 1.611-1.289 1.611-.988 0-1.31-.816-1.31-1.611zM127.931 161.15a1.553 1.553 0 0 0 1.526-1.525c-.011-.838-.699-1.525-1.526-1.525-.838 0-1.536.687-1.525 1.525-.011.838.687 1.515 1.525 1.525zM50.568 104.967h-1.08v1.9H46.33c-.567-.704-1.456-1.128-2.488-1.135-1.819.007-3.165 1.265-3.158 3.049-.007 1.778 1.34 3.035 3.158 3.035 1.039 0 1.941-.43 2.502-1.148h3.144v3.281h1.08v-8.982zm-8.859 3.814c0-1.21.889-2.085 2.133-2.092 1.196.007 2.105.882 2.105 2.092 0 1.217-.909 2.085-2.105 2.078-1.244.007-2.133-.861-2.133-2.078zm1.053 8.067h8.148v-.903h-7.068v-2.939h-1.08v3.842zm4.053-9.092h2.673v2.023h-2.666a3.144 3.144 0 0 0-.007-2.023zm12.46-1.873H52.82v.888h1.23v4.041c-.56.006-1.087.006-1.572.006l.137.903c1.975.007 4.737-.034 7.11-.397l-.056-.82c-.526.068-1.08.116-1.64.157v-3.89h1.244v-.888zm-4.855 9.01c-.006 1.387 1.532 2.187 4.075 2.187s4.074-.8 4.074-2.187c0-1.388-1.531-2.181-4.074-2.174-2.543-.007-4.081.786-4.075 2.174zm.67-4.102v-4.02h1.9v3.952c-.635.034-1.278.054-1.9.068zm.397 4.102c-.007-.834 1.135-1.34 3.008-1.34 1.866 0 3.008.506 3.008 1.34 0 .847-1.142 1.339-3.008 1.339-1.873 0-3.015-.492-3.008-1.339zm3.91-4.69h2.05v2.256h1.081v-7.506h-1.08v2.188h-2.05v.888h2.05v1.285h-2.05v.889zm14.68-4.58H65.82v.875h7.191v.041c.007.978.007 2.099-.287 3.637H64.41v.888h3.692v2.94h1.053v-2.94h2.228v2.94h1.04v-2.94h3.116v-.888h-1.75c.287-1.518.287-2.659.287-3.637v-.916zm-8.298 11.225h8.627v-.903h-7.561v-2.898h-1.066v3.801z" fill="#222"/>
    <path d="m49.143 139 7.918 12H41.225l7.918-12z" fill="#E7322D"/>
    <path d="M44.43 30.102h-1.245l-2.46 1.64v1.244l2.406-1.6h.054V40h1.245v-9.898zm5.599 10.035c2.194 0 3.459-1.846 3.459-5.086 0-3.213-1.286-5.086-3.46-5.086-2.18 0-3.465 1.873-3.458 5.086-.007 3.24 1.264 5.086 3.459 5.086zm-2.27-5.086c.007-2.564.848-4.013 2.27-4.02 1.421.007 2.262 1.456 2.255 4.02.007 2.563-.827 3.992-2.255 3.992-1.436 0-2.263-1.429-2.27-3.992zm16.728-6.084h-1.08v1.6h-3.5v.86h3.5v1.464h-3.5v.861h3.5v4.21h1.08v-8.995zm-9.352 7.191h.916c1.785-.014 3.439-.096 5.414-.465l-.109-.888c-1.852.335-3.466.43-5.14.437v-5.4h-1.08v6.316zm1.518 4.69h8.162v-.903h-7.082v-2.748h-1.08v3.65zm23.243-10.5H75.52v-1.463h-1.053v1.463h-4.43v.888h9.858v-.888zm-10.432 7.369h5.004v3.418h1.053v-3.418h5.072v-.889H69.464v.889zm1.572-3.746c-.013 1.285 1.477 2.01 3.965 2.023 2.468-.014 3.958-.738 3.965-2.023-.007-1.313-1.497-2.037-3.965-2.037-2.488 0-3.978.724-3.965 2.037zm1.108 0c-.014-.766 1.046-1.21 2.857-1.217 1.791.007 2.844.451 2.858 1.217-.014.752-1.067 1.196-2.858 1.19-1.811.006-2.871-.438-2.857-1.19zm22.45-5.004h-1.08v1.9h-3.159c-.567-.704-1.456-1.128-2.488-1.135-1.819.007-3.165 1.265-3.158 3.05-.007 1.777 1.34 3.034 3.158 3.034 1.039 0 1.941-.43 2.502-1.148h3.144v3.281h1.08v-8.982zm-8.86 3.814c0-1.21.889-2.085 2.133-2.091 1.196.006 2.105.881 2.105 2.091 0 1.217-.909 2.085-2.105 2.078-1.244.007-2.133-.861-2.133-2.078zm1.053 8.067h8.148v-.903h-7.068v-2.94h-1.08v3.843zm4.053-9.092h2.673v2.023h-2.666a3.147 3.147 0 0 0-.006-2.023zm12.319-1.873h-6.453v.889h1.23v4.04c-.56.006-1.086.006-1.572.006l.137.903c1.975.007 4.737-.034 7.109-.397l-.054-.82c-.527.068-1.08.116-1.641.157v-3.89h1.244v-.888zm-4.853 9.01c-.007 1.387 1.53 2.187 4.074 2.187 2.543 0 4.074-.8 4.074-2.187 0-1.388-1.531-2.181-4.074-2.174-2.543-.007-4.081.786-4.074 2.174zm.67-4.102v-4.02h1.9v3.952c-.636.034-1.278.054-1.9.068zm.396 4.102c-.007-.834 1.135-1.34 3.008-1.34 1.866 0 3.008.506 3.008 1.34 0 .847-1.142 1.34-3.008 1.34-1.873 0-3.015-.493-3.008-1.34zm3.91-4.69h2.051v2.256h1.08v-7.506h-1.08v2.188h-2.051v.888h2.051v1.285h-2.051v.89zm14.541-4.58h-8.258v.875h7.191v.041c.007.978.007 2.099-.287 3.637h-8.313v.889h3.692v2.939h1.053v-2.94h2.228v2.94h1.039v-2.94h3.117v-.888h-1.75c.288-1.518.288-2.66.288-3.637v-.916zm-8.299 11.225h8.627v-.903h-7.561v-2.898h-1.066v3.8zm17.664-11.006c-1.921.007-3.288 1.169-3.281 2.857-.007 1.696 1.36 2.85 3.281 2.858 1.908-.007 3.261-1.163 3.268-2.858-.007-1.688-1.36-2.85-3.268-2.857zm-3.91 7.697.151.916c2.187 0 5.174-.014 7.957-.533l-.082-.793c-2.687.396-5.784.417-8.026.41zm1.682-4.84c-.007-1.128.929-1.914 2.228-1.914 1.285 0 2.222.786 2.215 1.914.007 1.135-.93 1.914-2.215 1.914-1.299 0-2.235-.779-2.228-1.914zm7.15 8.436h1.067V28.953h-1.067v12.182zm14.048-2.434h-3.021v-2.31h1.9v-.889h-7.547v-1.969h7.26v-3.678h-8.353v.89h7.3v1.9h-7.273v3.746h1.736v2.31h-3.131v.902h11.129v-.902zm-6.945 0v-2.31h2.871v2.31h-2.871zm17.657-9.748h-1.08v12.182h1.08V28.953zm-9.31 9.242h5.742v-8.203h-1.053v3.213h-3.623v-3.213h-1.066v8.203zm1.066-.902v-3.227h3.623v3.227h-3.623zm23.694-8.34h-1.039v12.154h1.039V28.953zm-10.267 5.25c.006 2.584 1.032 4.232 2.611 4.225 1.039.007 1.846-.704 2.276-1.928h1.935v3.992h1.025v-11.28h-1.025v2.694h-1.935c-.437-1.216-1.237-1.92-2.276-1.927-1.579.006-2.605 1.64-2.611 4.224zm.998 0c-.007-1.976.615-3.213 1.613-3.213.991 0 1.627 1.238 1.627 3.213 0 1.969-.636 3.213-1.627 3.2-.998.013-1.62-1.231-1.613-3.2zm4.115-1.408h1.709v2.803h-1.702c.075-.424.116-.896.116-1.395 0-.506-.041-.977-.123-1.408zm17.63 2.297h-11.074v.875h11.074v-.875zm-10.418-1.518.356.848c1.989-.226 3.78-.957 4.525-2.188.731 1.23 2.522 1.962 4.525 2.188l.356-.848c-2.297-.198-4.218-1.141-4.293-2.53h3.828v-.86h-3.896v-1.258h-1.053v1.258h-3.856v.86h3.801c-.089 1.389-2.017 2.332-4.293 2.53zm.574 4.58h7.397v2.953h1.08V37.28h-8.477v.875zM68.469 68.695h8.25V72h2.437v-3.305h2.32v-2.18h-2.32V55.032H75.97l-7.5 11.578v2.086zm2.719-2.18v-.14l5.343-8.273h.188v8.414h-5.531zm15.304 3.868h-2.625l-1.242 6.469h1.992l1.875-6.47zM89.867 72h11.414v-2.203h-7.828v-.14l3.445-3.493c3.188-3.129 4.079-4.64 4.102-6.539-.023-2.754-2.285-4.828-5.555-4.828-3.234 0-5.601 2.05-5.578 5.156h2.438c.011-1.805 1.207-3 3.093-3 1.782 0 3.141 1.066 3.141 2.742 0 1.489-.926 2.567-2.789 4.5l-5.883 5.93V72zm20.18.234c3.926 0 6.223-3.164 6.234-8.718-.011-5.52-2.343-8.72-6.234-8.72-3.902 0-6.235 3.2-6.235 8.72 0 5.554 2.309 8.718 6.235 8.718zm-3.656-8.718c0-4.22 1.371-6.528 3.656-6.54 2.273.012 3.656 2.32 3.656 6.54 0 4.23-1.371 6.492-3.656 6.492-2.297 0-3.668-2.262-3.656-6.492zm18.492 8.718c3.633 0 6.222-1.992 6.234-4.757-.012-2.18-1.582-3.961-3.562-4.266v-.094c1.711-.398 2.894-1.945 2.906-3.797-.012-2.613-2.379-4.523-5.578-4.523-3.246 0-5.602 1.91-5.602 4.523 0 1.852 1.16 3.399 2.907 3.797v.094c-2.004.305-3.563 2.086-3.54 4.266-.023 2.765 2.543 4.757 6.235 4.757zm-3.61-4.945c-.035-1.746 1.5-3.023 3.61-3.023 2.086 0 3.609 1.277 3.609 3.023 0 1.664-1.406 2.813-3.609 2.813-2.238 0-3.645-1.149-3.61-2.813zm.516-7.734c.012-1.582 1.231-2.66 3.094-2.649 1.816-.011 3.058 1.067 3.047 2.649.011 1.593-1.278 2.683-3.047 2.672-1.817.011-3.082-1.09-3.094-2.672zm14.531 10.828h-2.625l-1.242 6.469h1.992l1.875-6.47zm8.86 1.851c3.539 0 6.047-2.402 6.047-5.742 0-3.27-2.356-5.637-5.555-5.648-1.289.011-2.484.468-3.188 1.148h-.164l.563-4.758h7.476v-2.203h-9.609l-1.102 9.446h2.438c.574-1.043 1.617-1.5 2.976-1.5 2.133.023 3.657 1.523 3.657 3.586 0 2.015-1.477 3.503-3.539 3.515-1.711-.012-3.094-1.066-3.235-2.508h-2.507c.117 2.707 2.531 4.664 5.742 4.664zm15.234-17.203h-2.531l-4.219 2.766v2.46l4.055-2.648h.093V72h2.602V55.031zM165.312 72h2.696l7.547-14.672v-2.297h-11.414v2.203h8.742v.141L165.312 72z" fill="#222"/>
    <path d="M50 72.97c5.523 0 10-4.47 10-9.985C60 57.471 55.523 53 50 53s-10 4.47-10 9.985 4.477 9.986 10 9.986z" fill="#FAE100" stroke="#000" stroke-width="1.5" stroke-linecap="round" stroke-linejoin="round"/>
    <path d="m45.385 59.913 2.445 6.145 2.222-6.145 2.377 6.145 2.186-6.145M44.615 62.217h10.77" stroke="#000" stroke-width="1.5" stroke-linecap="round" stroke-linejoin="round"/>
    <defs>
        <filter id="g9eax0u3da" x="-4" y="-73" width="335" height="344" filterUnits="userSpaceOnUse" color-interpolation-filters="sRGB">
            <feFlood flood-opacity="0" result="BackgroundImageFix"/>
            <feColorMatrix in="SourceAlpha" values="0 0 0 0 0 0 0 0 0 0 0 0 0 0 0 0 0 0 127 0" result="hardAlpha"/>
            <feOffset dy="4"/>
            <feGaussianBlur stdDeviation="2"/>
            <feComposite in2="hardAlpha" operator="out"/>
            <feColorMatrix values="0 0 0 0 0 0 0 0 0 0 0 0 0 0 0 0 0 0 0.06 0"/>
            <feBlend in2="BackgroundImageFix" result="effect1_dropShadow_549_18123"/>
            <feBlend in="SourceGraphic" in2="effect1_dropShadow_549_18123" result="shape"/>
        </filter>
        <filter id="iv48hz7jnb" x="16" y="6" width="295" height="185" filterUnits="userSpaceOnUse" color-interpolation-filters="sRGB">
            <feFlood flood-opacity="0" result="BackgroundImageFix"/>
            <feColorMatrix in="SourceAlpha" values="0 0 0 0 0 0 0 0 0 0 0 0 0 0 0 0 0 0 127 0" result="hardAlpha"/>
            <feOffset dy="4"/>
            <feGaussianBlur stdDeviation="2"/>
            <feComposite in2="hardAlpha" operator="out"/>
            <feColorMatrix values="0 0 0 0 0 0 0 0 0 0 0 0 0 0 0 0 0 0 0.06 0"/>
            <feBlend in2="BackgroundImageFix" result="effect1_dropShadow_549_18123"/>
            <feBlend in="SourceGraphic" in2="effect1_dropShadow_549_18123" result="shape"/>
        </filter>
        <filter id="0y8n1fd5bc" x="60" y="129" width="37" height="42" filterUnits="userSpaceOnUse" color-interpolation-filters="sRGB">
            <feFlood flood-opacity="0" result="BackgroundImageFix"/>
            <feColorMatrix in="SourceAlpha" values="0 0 0 0 0 0 0 0 0 0 0 0 0 0 0 0 0 0 127 0" result="hardAlpha"/>
            <feOffset dy="4"/>
            <feGaussianBlur stdDeviation="2"/>
            <feComposite in2="hardAlpha" operator="out"/>
            <feColorMatrix values="0 0 0 0 0 0 0 0 0 0 0 0 0 0 0 0 0 0 0.06 0"/>
            <feBlend in2="BackgroundImageFix" result="effect1_dropShadow_549_18123"/>
            <feBlend in="SourceGraphic" in2="effect1_dropShadow_549_18123" result="shape"/>
        </filter>
        <filter id="a9ir3ftbld" x="91" y="129" width="37" height="42" filterUnits="userSpaceOnUse" color-interpolation-filters="sRGB">
            <feFlood flood-opacity="0" result="BackgroundImageFix"/>
            <feColorMatrix in="SourceAlpha" values="0 0 0 0 0 0 0 0 0 0 0 0 0 0 0 0 0 0 127 0" result="hardAlpha"/>
            <feOffset dy="4"/>
            <feGaussianBlur stdDeviation="2"/>
            <feComposite in2="hardAlpha" operator="out"/>
            <feColorMatrix values="0 0 0 0 0 0 0 0 0 0 0 0 0 0 0 0 0 0 0.06 0"/>
            <feBlend in2="BackgroundImageFix" result="effect1_dropShadow_549_18123"/>
            <feBlend in="SourceGraphic" in2="effect1_dropShadow_549_18123" result="shape"/>
        </filter>
        <filter id="fws53mddze" x="129" y="129" width="37" height="42" filterUnits="userSpaceOnUse" color-interpolation-filters="sRGB">
            <feFlood flood-opacity="0" result="BackgroundImageFix"/>
            <feColorMatrix in="SourceAlpha" values="0 0 0 0 0 0 0 0 0 0 0 0 0 0 0 0 0 0 127 0" result="hardAlpha"/>
            <feOffset dy="4"/>
            <feGaussianBlur stdDeviation="2"/>
            <feComposite in2="hardAlpha" operator="out"/>
            <feColorMatrix values="0 0 0 0 0 0 0 0 0 0 0 0 0 0 0 0 0 0 0.06 0"/>
            <feBlend in2="BackgroundImageFix" result="effect1_dropShadow_549_18123"/>
            <feBlend in="SourceGraphic" in2="effect1_dropShadow_549_18123" result="shape"/>
        </filter>
    </defs>
</svg>
