<svg width="300" height="200" viewBox="0 0 300 200" fill="none" xmlns="http://www.w3.org/2000/svg">
<g clip-path="url(#clip0_1324_12275)">
<path d="M174.46 16.1668C122.463 -2.89621 69.35 11.9016 55.8292 49.2185C42.3084 86.5355 73.4996 132.241 125.497 151.304C177.494 170.367 230.607 155.569 244.128 118.252C257.648 80.9349 226.457 35.2299 174.46 16.1668Z" fill="#FFFBE7"/>
<path opacity="0.6" d="M109.899 41.9494C146.358 34.2903 173.152 49.0601 197.502 88.7433C221.187 127.343 247.633 137.589 232.605 164.834C214.546 197.579 131.473 195.288 89.6953 168.538C29.9915 130.307 54.3267 53.6258 109.899 41.9494Z" fill="#FFDE8D" fill-opacity="0.8"/>
<g clip-path="url(#clip1_1324_12275)">
<path d="M141.74 113.572L162.978 110.113L164.756 109.09C179.75 100.444 203.984 100.444 218.882 109.09C233.78 117.736 233.701 131.75 218.706 140.396C218.706 140.396 217.512 141.426 215.087 142.82C209.957 145.779 199.325 150.387 182.881 150.387L154.908 166.513L129.152 151.566L150.03 139.528C150.03 139.528 146.777 137.639 138.37 132.762C131.691 128.888 134.798 126.303 136.353 125.405C136.754 125.174 137.052 125.055 137.052 125.055L149.33 117.976L141.737 113.569" fill="black" fill-opacity="0.1"/>
<path d="M153.01 167.447L180.871 151.278L180.971 116.246L153.109 132.415L153.01 167.447Z" fill="#289BEB"/>
<path d="M140.562 35.6082C145.95 32.4826 153.411 32.9211 161.647 37.6696C178.019 47.108 191.242 69.9789 191.189 88.7592C191.342 89.7563 194.264 108.677 180.97 116.247L153.109 132.413C166.406 124.843 163.483 105.923 163.328 104.926C163.381 86.1453 150.157 63.2714 133.786 53.833C125.552 49.0846 118.088 48.646 112.701 51.7717C121.989 46.3829 131.274 40.9941 140.562 35.6053V35.6082Z" fill="#3CAAF7"/>
<path d="M133.786 53.836C117.421 44.4005 104.11 51.9764 104.057 70.7568L104.051 72.9819L95.6592 85.2594L104.004 90.0692L103.96 105.446C103.899 105.788 102.745 112.276 111.978 117.598C121.21 122.922 124.61 124.881 124.788 124.984L124.715 151.129L153.013 167.442L153.112 132.411C166.409 124.84 163.486 105.92 163.331 104.923C163.384 86.1424 150.161 63.2686 133.789 53.8302L133.786 53.836Z" fill="#9BDBFF"/>
<path d="M123.005 80.8087C120.768 79.5192 118.947 80.5543 118.941 83.1186C118.935 85.6858 120.742 88.8114 122.979 90.1038C125.216 91.3962 127.037 90.3582 127.043 87.791C127.052 85.2267 125.242 82.0981 123.005 80.8087Z" fill="#2B2B2B"/>
<path d="M95.5802 65.2372L89.8293 61.9214V61.3717L95.5831 64.6875V65.2372H95.5802ZM95.589 62.8542L89.8381 59.5384V58.9887L95.5919 62.3045V62.8542H95.589ZM95.5978 60.4683L89.8469 57.1525V56.6057L95.6007 59.9215V60.4683H95.5978ZM95.6065 58.0853L89.8557 54.7695V54.2198L95.6095 57.5356V58.0853H95.6065ZM87.5454 50.3135L87.5015 65.898L97.8876 71.8862L97.9315 56.2987L87.5454 50.3105" fill="white"/>
<path d="M89.8496 54.2168L95.6005 57.5354L95.5975 58.0851L89.8467 54.7694L89.8496 54.2168Z" fill="#585858"/>
<path d="M89.8408 56.6035L95.5946 59.9192L95.5917 60.4689L89.8408 57.1532V56.6035Z" fill="#585858"/>
<path d="M89.835 58.9863L95.5858 62.3021V62.8547L89.835 59.5389V58.9863Z" fill="#585858"/>
<path d="M89.8291 61.3691L95.58 64.6849V65.2375L89.8262 61.9218L89.8291 61.3691Z" fill="#585858"/>
<path d="M141.511 176L148.146 172.146L148.184 159.082L141.546 162.933L141.511 176Z" fill="#647AC9"/>
<path d="M141.546 162.933L148.184 159.082L142.489 155.799L135.854 159.65L141.546 162.933Z" fill="#71B1DA"/>
<path d="M135.854 159.649L142.489 155.799L142.509 149.275L135.871 153.126L135.854 159.649Z" fill="#647AC9"/>
<path d="M135.871 153.127L142.509 149.276L136.823 145.998L130.185 149.849L135.871 153.127Z" fill="#71B1DA"/>
<path d="M130.185 149.85L130.129 169.44L141.511 176.001L141.546 162.934L135.853 159.651L135.871 153.127L130.185 149.85Z" fill="#86C1EA"/>
<path d="M74.5617 25.0912L98.4611 38.8687C98.8242 39.0763 99.117 39.5822 99.1141 40.0003C99.1141 40.4155 98.8183 40.5851 98.4553 40.3775L74.5588 26.597C74.1957 26.3894 73.9029 25.8807 73.9058 25.4655C73.9058 25.0503 74.2015 24.8836 74.5646 25.0912" fill="#1E2463"/>
<path d="M74.55 29.6078L98.4494 43.3853C98.8125 43.5929 99.1053 44.1017 99.1024 44.5169C99.1024 44.9321 98.8066 45.1017 98.4435 44.8911L74.547 31.1166C74.1869 30.909 73.8911 30.4002 73.8941 29.985C73.8941 29.5698 74.1898 29.4031 74.5529 29.6107" fill="#1E2463"/>
<path d="M86.8805 41.2468L98.4349 47.9075C98.798 48.118 99.0908 48.6238 99.0879 49.039C99.0879 49.4542 98.7922 49.6238 98.4291 49.4133L86.8747 42.7526C86.5116 42.5421 86.2188 42.0362 86.2188 41.621C86.2188 41.2059 86.5145 41.0363 86.8776 41.2468" fill="#1E2463"/>
<path d="M203.473 114.115C204.055 114.452 204.527 115.265 204.524 115.934C204.524 116.604 204.046 116.873 203.464 116.536C202.878 116.2 202.407 115.387 202.41 114.715C202.41 114.045 202.887 113.776 203.47 114.115" fill="white"/>
<path d="M197.769 110.828C198.352 111.165 198.823 111.977 198.82 112.647C198.82 113.317 198.343 113.586 197.763 113.249C197.178 112.913 196.706 112.1 196.709 111.428C196.709 110.758 197.186 110.489 197.769 110.828Z" fill="white"/>
<path d="M192.062 107.539C192.648 107.876 193.119 108.688 193.116 109.361C193.116 110.031 192.639 110.3 192.056 109.96C191.473 109.624 191.002 108.811 191.005 108.142C191.005 107.472 191.482 107.203 192.062 107.539Z" fill="white"/>
<path d="M186.361 104.25C186.946 104.587 187.418 105.399 187.415 106.072C187.415 106.742 186.938 107.011 186.355 106.671C185.772 106.335 185.301 105.522 185.304 104.853C185.304 104.183 185.781 103.914 186.364 104.25" fill="white"/>
<path d="M179.225 83.1422C178.721 82.8528 178.309 83.0838 178.309 83.6656C178.309 84.2446 178.716 84.9521 179.219 85.2416C179.691 85.5135 180.077 85.3293 180.13 84.8352L179.222 84.3118V84.075L180.13 84.5984C180.08 84.0457 179.694 83.4171 179.225 83.1452" fill="white"/>
<path d="M205.037 99.7786L180.133 84.5917L179.222 84.0684V84.3081L180.13 84.8315L205.037 100.018V99.7786Z" fill="white"/>
<g opacity="0.7">
<g opacity="0.7">
<g opacity="0.7">
<path d="M189.623 123.417C189.008 123.064 188.513 122.207 188.516 121.502C188.516 120.8 189.017 120.514 189.632 120.868C190.244 121.222 190.739 122.078 190.736 122.783C190.736 123.488 190.235 123.771 189.623 123.417ZM193.482 125.642C192.867 125.289 192.373 124.432 192.373 123.727C192.373 123.026 192.873 122.739 193.488 123.093C194.1 123.447 194.598 124.306 194.595 125.008C194.592 125.713 194.094 125.993 193.482 125.642ZM214.995 138.046C214.38 137.692 213.886 136.835 213.889 136.131C213.889 135.429 214.389 135.142 215.001 135.496C215.616 135.85 216.111 136.71 216.108 137.411C216.108 138.116 215.607 138.4 214.995 138.046ZM215.297 131.876L189.995 117.289C187.787 116.017 185.995 117.04 185.989 119.572L185.978 123.163L219.27 142.356L219.279 138.765C219.288 136.233 217.502 133.148 215.297 131.876Z" fill="#362B72"/>
<path d="M219.27 142.355L185.978 123.162L185.922 143.296C185.916 145.825 187.696 148.91 189.901 150.182L215.206 164.769C217.411 166.041 219.206 165.021 219.212 162.492L219.267 142.361" fill="white"/>
<path opacity="0.7" d="M189.632 120.87C189.017 120.517 188.519 120.803 188.516 121.505C188.516 122.21 189.008 123.066 189.623 123.42C190.235 123.774 190.733 123.49 190.736 122.786C190.736 122.084 190.244 121.224 189.632 120.87Z" fill="#362B72"/>
<path opacity="0.7" d="M193.488 123.093C192.873 122.739 192.375 123.026 192.373 123.728C192.373 124.432 192.867 125.289 193.482 125.643C194.094 125.997 194.592 125.713 194.595 125.008C194.595 124.307 194.1 123.447 193.488 123.093Z" fill="#362B72"/>
<path opacity="0.7" d="M215.001 135.495C214.389 135.142 213.889 135.428 213.889 136.13C213.889 136.835 214.384 137.691 214.996 138.045C215.608 138.399 216.108 138.115 216.108 137.411C216.111 136.709 215.616 135.849 215.001 135.495Z" fill="#362B72"/>
</g>
</g>
</g>
<path d="M195.533 151.073C195.571 149.193 195.714 146.909 195.987 146.664C196.85 145.886 197.571 148.356 198.142 149.28C199.518 151.503 202.104 153.204 204.139 152.649C204.139 152.649 208.112 150.959 208.663 143.985C208.914 140.786 206.903 136.623 204.121 137.322C203.187 137.555 201.805 138.965 201.105 136.699C200.765 135.605 200.628 135.363 200.601 134.234L199.246 134C199.222 136.196 199.219 137.398 200.124 139.491C201.099 141.743 201 149.134 197.761 145.216C197.196 144.532 196.35 143.871 195.632 143.915C194.239 144 194.042 146.184 194.013 147.567C194.007 147.845 193.987 149.409 194.013 150.704" fill="#FF8193"/>
<path d="M201.86 140.137L201.72 148.125" stroke="#1E2463" stroke-width="0.6" stroke-linecap="round" stroke-linejoin="round"/>
<path d="M205.187 144.955L198.402 142.689" stroke="#1E2463" stroke-width="0.6" stroke-linecap="round" stroke-linejoin="round"/>
<path d="M106.997 127.253L100.757 119.352L94.8243 121.259L88.5728 114.285" stroke="#1E2463" stroke-miterlimit="10"/>
<path d="M108.285 127.663C108.361 127.09 108.042 126.549 107.576 126.455C107.108 126.362 106.669 126.753 106.59 127.324C106.516 127.9 106.833 128.441 107.301 128.531C107.77 128.625 108.209 128.233 108.285 127.66V127.663Z" fill="#9AA8EF"/>
<path d="M101.603 119.518C101.679 118.945 101.36 118.404 100.894 118.311C100.426 118.217 99.9868 118.606 99.9106 119.179C99.8345 119.752 100.154 120.296 100.622 120.387C101.091 120.48 101.53 120.089 101.606 119.515L101.603 119.518Z" fill="#F998A6"/>
<path d="M95.671 121.425C95.7471 120.852 95.4309 120.311 94.9624 120.217C94.4939 120.123 94.0546 120.512 93.9785 121.088C93.9024 121.661 94.2216 122.202 94.6871 122.296C95.1556 122.39 95.5949 121.998 95.671 121.425Z" fill="#9AA8EF"/>
<path d="M89.6007 114.94C89.6769 114.367 89.3577 113.826 88.8921 113.733C88.4236 113.639 87.9844 114.031 87.9083 114.604C87.8321 115.177 88.1484 115.718 88.6169 115.811C89.0854 115.905 89.5246 115.516 89.6007 114.94Z" fill="#F998A6"/>
<path d="M108.405 133.876V137.145L98.561 131.005V127.979L108.405 133.876Z" fill="#9AA8EF"/>
<path d="M87.1704 121.697L98.5609 127.978V131.004L87.1704 124.645V121.697Z" fill="white"/>
<path d="M108.405 139.247V142.516L92.2974 132.732V129.75L108.405 139.247Z" fill="#F998A6"/>
<path d="M87.1704 127.072L92.2976 129.751V132.733L87.1704 130.017V127.072Z" fill="white"/>
<path d="M108.405 145.203V148.472L94.8979 140.314V137.314L108.405 145.203Z" fill="#9AA8EF"/>
<path d="M87.1704 133.027L94.8978 137.314V140.314L87.1704 135.972V133.027Z" fill="white"/>
<path d="M87.305 87.5833C86.2773 85.7822 84.9362 84.3963 83.4838 83.6243C83.3345 83.5454 83.1852 83.4723 83.0358 83.408C81.4283 82.7062 79.5513 83.0396 78.3947 84.3524C77.9233 83.1039 77.2323 81.9694 76.4241 81.101C75.8355 80.4694 75.1855 79.9782 74.5091 79.6829C74.471 79.6653 74.43 79.6478 74.389 79.6332C72.8108 78.9841 71.3233 79.1507 70.1901 80.1069C69.0276 81.0893 68.3776 82.7852 68.3542 84.8845C68.3307 86.9839 68.9427 89.2324 70.073 91.2148C70.073 91.2148 77.9848 104.492 78.5265 104.729C79.0682 104.966 87.1879 98.6942 87.1879 98.6942C88.3504 97.7118 89.0034 96.0159 89.0239 93.9195C89.0473 91.8201 88.4353 89.5745 87.305 87.5892V87.5833Z" fill="url(#paint0_linear_1324_12275)"/>
<path d="M91.5626 98.3689L83.396 94.8018L82.6933 91.372L81.9583 95.9421L81.1121 89.641L79.8998 98.5795L78.8311 86.7698L77.531 95.983L76.512 87.5271L75.332 93.4626L74.3364 88.2405L73.6541 90.5445L64.1465 86.3867" stroke="#1E2463" stroke-width="0.6" stroke-linecap="round" stroke-linejoin="round"/>
<path d="M213.417 100.999L213.405 101.426L211.649 104.874L211.122 104.575L212.87 101.251V101.236L211.028 100.198L211.042 99.6602L213.42 100.999H213.417Z" fill="#1E2463"/>
<path d="M213.804 104.853C213.818 104.248 214.114 103.979 214.586 103.99L214.58 103.964C214.17 103.479 214 102.964 214.012 102.549C214.032 101.789 214.55 101.555 215.212 101.929C215.941 102.341 216.293 103.131 216.275 103.727C216.263 104.134 216.096 104.482 215.625 104.499V104.523C216.088 105.023 216.366 105.607 216.351 106.192C216.328 107.028 215.751 107.271 215.034 106.865C214.246 106.42 213.786 105.555 213.804 104.853ZM215.833 105.967C215.848 105.382 215.537 104.923 215.031 104.45C214.586 104.365 214.34 104.599 214.325 105.058C214.296 105.534 214.574 106.128 215.054 106.4C215.534 106.672 215.818 106.461 215.83 105.967H215.833ZM214.495 102.774C214.483 103.254 214.758 103.672 215.192 104.066C215.52 104.11 215.777 103.955 215.789 103.52C215.798 103.137 215.631 102.637 215.171 102.376C214.747 102.137 214.506 102.362 214.495 102.774Z" fill="#1E2463"/>
<path d="M216.515 107.917L218.275 103.473L218.67 103.695L216.905 108.136L216.515 107.917Z" fill="#1E2463"/>
<path d="M219.997 105.32L219.985 105.314L219.317 105.396L219.232 104.846L220.07 104.75L220.503 104.996L220.377 109.797L219.885 109.519L219.997 105.323V105.32Z" fill="#1E2463"/>
<path d="M222.969 107L222.957 106.994L222.289 107.076L222.205 106.526L223.042 106.43L223.475 106.675L223.349 111.476L222.858 111.199L222.969 107.003V107Z" fill="#1E2463"/>
<path d="M224.711 111.001C224.726 110.396 225.021 110.127 225.493 110.139L225.487 110.113C225.077 109.627 224.907 109.113 224.919 108.697C224.939 107.937 225.458 107.703 226.119 108.078C226.848 108.49 227.2 109.279 227.182 109.876C227.171 110.282 227.004 110.63 226.532 110.648V110.671C226.995 111.171 227.273 111.756 227.258 112.341C227.235 113.177 226.658 113.42 225.941 113.013C225.153 112.569 224.693 111.703 224.711 111.001ZM226.74 112.115C226.755 111.531 226.444 111.072 225.938 110.598C225.493 110.513 225.247 110.747 225.232 111.206C225.203 111.683 225.481 112.276 225.961 112.548C226.441 112.82 226.725 112.61 226.737 112.115H226.74ZM225.402 108.923C225.39 109.402 225.666 109.82 226.099 110.215C226.427 110.259 226.684 110.104 226.696 109.668C226.705 109.285 226.538 108.785 226.078 108.525C225.654 108.285 225.414 108.51 225.402 108.923Z" fill="#1E2463"/>
<path d="M223.583 91.677C223.572 96.481 219.859 97.5716 217.868 97.1652C216.24 96.8318 212.169 94.1535 212.178 89.3495C212.187 85.3496 217.909 78.4023 217.909 78.4023C217.909 78.4023 223.592 87.6741 223.583 91.674V91.677Z" fill="#FF4469"/>
<path d="M232.839 84.9337C232.83 88.6763 229.937 89.5243 228.385 89.2085C227.115 88.9483 223.946 86.8635 223.955 83.1238C223.961 80.0069 228.418 74.5977 228.418 74.5977C228.418 74.5977 232.848 81.8168 232.839 84.9366V84.9337Z" fill="#FF405B"/>
<path d="M217.366 82C217.366 82 215.366 85.1754 215 87.3654" stroke="white" stroke-width="0.6" stroke-linecap="round" stroke-linejoin="round"/>
</g>
</g>
<defs>
<linearGradient id="paint0_linear_1324_12275" x1="38.3016" y1="75.249" x2="59.0149" y2="84.3287" gradientUnits="userSpaceOnUse">
<stop stop-color="#F7C7D6"/>
<stop offset="1" stop-color="#9AA8EF"/>
</linearGradient>
<clipPath id="clip0_1324_12275">
<rect width="300" height="200" fill="white"/>
</clipPath>
<clipPath id="clip1_1324_12275">
<rect width="173" height="151" fill="white" transform="translate(64 25)"/>
</clipPath>
</defs>
</svg>
