<svg width="327" height="134" viewBox="0 0 327 134" fill="none" xmlns="http://www.w3.org/2000/svg">
    <g filter="url(#9st007zg5a)">
        <rect y="-74" width="327" height="277" rx="16" fill="#fff"/>
    </g>
    <g filter="url(#bcrflanumb)">
        <path d="M20 37C20 19.327 34.327 5 52 5h255v86c0 17.673-14.327 32-32 32H20V37z" fill="#fff"/>
        <path d="M20.5 37C20.5 19.603 34.603 5.5 52 5.5h254.5V91c0 17.397-14.103 31.5-31.5 31.5H20.5V37z" stroke="#EFEFEF"/>
    </g>
    <path d="M194 5h113v86c0 17.673-14.327 32-32 32h-81V5z" fill="#12BD7E"/>
    <path d="M194 5h113v86c0 17.673-14.327 32-32 32h-81V5z" fill="url(#7aaxui952c)" fill-opacity=".5"/>
    <path d="M218.443 79.787c-1.927-.007-3.342 1.19-3.336 2.912-.006 1.723 1.409 2.92 3.336 2.926 1.935-.007 3.329-1.203 3.336-2.926-.007-1.722-1.401-2.919-3.336-2.912zm-3.923 7.684.164 1.08c2.187 0 5.161-.014 7.929-.547l-.095-.944c-2.68.39-5.77.41-7.998.41zm1.873-4.772c-.014-1.073.861-1.79 2.05-1.79 1.19 0 2.065.717 2.065 1.79 0 1.087-.875 1.791-2.065 1.791-1.189 0-2.064-.704-2.05-1.79zm6.89 8.49h1.299V78.912h-1.299V91.19zm10.582-11.033h-2.994v-1.299h-1.299v1.3h-3.008v1.038h7.301v-1.039zm-6.631 3.815c-.006 1.346 1.21 2.228 2.981 2.228 1.764 0 2.967-.882 2.967-2.228 0-1.34-1.203-2.215-2.967-2.229-1.771.014-2.987.889-2.981 2.229zm.848 4.279h6.795v2.912h1.299v-3.965h-8.094v1.053zm.41-4.28c-.013-.751.684-1.223 1.723-1.23 1.039.007 1.736.479 1.75 1.23-.014.76-.711 1.218-1.75 1.218-1.039 0-1.736-.459-1.723-1.217zm6.385 2.598h1.299v-3.254h1.777v-1.08h-1.777v-3.322h-1.299v7.656zm7.519-5.304v-1.586h-1.257v1.586c0 1.36-.889 2.919-2.543 3.636l.711 1.012c1.189-.513 2.023-1.497 2.474-2.632a4.199 4.199 0 0 0 2.379 2.277l.684-.998c-1.593-.602-2.448-1.956-2.448-3.295zm-1.544 7.656c-.014 1.394 1.579 2.222 4.142 2.215 2.557.007 4.163-.82 4.17-2.215-.007-1.395-1.613-2.222-4.17-2.229-2.563.007-4.156.834-4.142 2.229zm1.285 0c-.014-.786 1.073-1.237 2.857-1.23 1.777-.007 2.864.444 2.871 1.23-.007.78-1.094 1.23-2.871 1.217-1.784.013-2.871-.438-2.857-1.217zm3.09-2.844h1.203v-2.898h1.435v3.281h1.231v-7.533h-1.231v3.185h-1.435v-2.967h-1.203v6.932zm9.187-3.404v-.492h2.174v-1.067h-2.174V79.35h-1.217v1.763h-2.215v1.067h2.215v.492c-.013 1.975-.888 4.074-2.584 5.059l.766.984c1.183-.711 2.003-1.99 2.44-3.473.445 1.388 1.265 2.557 2.454 3.186l.725-.957c-1.688-.91-2.584-2.871-2.584-4.8zm1.367 2.092h1.764v5.783h1.23V79.172h-1.23v4.512h-1.764v1.08zm4.239 6.398h1.244v-12.25h-1.244v12.25zm14.273-7.437h-1.9v-4.813h-1.299v12.236h1.299v-6.357h1.9v-1.066zm-10.979 4.347h1.012c1.839.007 3.767-.116 5.865-.533l-.15-1.094c-1.948.397-3.732.54-5.441.547v-6.89h-1.286v7.97zm21.78-9.16h-1.299V91.19h1.299V78.912zm-9.721 5.21c0 2.645 1.319 4.313 3.172 4.306 1.818.007 3.158-1.661 3.158-4.307 0-2.618-1.34-4.286-3.158-4.293-1.853.007-3.172 1.675-3.172 4.293zm1.258 0c-.007-1.922.772-3.125 1.914-3.132 1.121.007 1.9 1.21 1.9 3.131 0 1.948-.779 3.145-1.9 3.145-1.142 0-1.921-1.197-1.914-3.145zM271.379 52.05v-2.864h-1.617v2.935c.009 2.68-1.169 5.467-3.393 6.803l1.037 1.248c1.53-.932 2.619-2.637 3.191-4.632.545 1.82 1.538 3.393 3.014 4.28l.932-1.283c-2.109-1.292-3.164-3.972-3.164-6.486zm1.459 2.62h2.443v8.05h1.582V48.044h-1.582v5.238h-2.443v1.389zm5.695 8.824h1.6v-15.75h-1.6v15.75zM229.986 64.371c6.049 0 10.168-3.878 10.168-9.314 0-5.159-3.674-8.85-8.609-8.832-2.357-.019-4.398.946-5.381 2.263h-.223l.743-6.79h11.949v-4.565h-16.551l-1.447 15.474h5.047c.797-1.502 2.208-2.263 4.23-2.263 2.82.018 4.843 2.004 4.824 4.861.019 2.802-1.966 4.769-4.75 4.75-2.338.019-4.249-1.429-4.379-3.525h-5.418c.093 4.638 4.194 7.941 9.797 7.941zm22.99-27.61c-6.067-.018-10.168 3.916-10.168 9.315.037 5.01 3.6 8.647 8.424 8.647 2.987 0 5.641-1.41 6.903-3.785h.222c-.018 5.362-1.948 8.646-5.603 8.646-2.153 0-3.693-1.169-4.157-3.154h-5.492c.538 4.546 4.249 7.941 9.649 7.941 6.754 0 11.077-5.38 11.058-14.51 0-9.76-5.269-13.08-10.836-13.1zm-4.713 9.167c-.037-2.672 2.004-4.769 4.75-4.787 2.747.018 4.75 2.19 4.788 4.75 0 2.579-2.097 4.75-4.825 4.75-2.764 0-4.713-2.06-4.713-4.713z" fill="#fff"/>
    <path d="M45.572 47.176c2.751 0 4.667-1.82 4.658-4.36.01-2.452-1.749-4.21-4.113-4.218-1.046.008-1.969.413-2.46.967h-.124l.387-3.375h5.642v-1.917H42.04l-.773 7.207h2.127c.395-.747 1.116-1.098 2.109-1.09 1.468.01 2.522 1.038 2.514 2.497.008 1.406-1.02 2.434-2.444 2.443-1.204-.009-2.18-.747-2.25-1.775H41.09c.07 2.1 1.942 3.62 4.482 3.62zm11.04-12.903h-2.197l-3.147 2.04v2.091l2.971-1.898h.07V47h2.303V34.273zm-6.098 20.68H49.46v6.303h1.053v-6.303zm-9.94 5.332.56.848a5.264 5.264 0 0 0 3.132-3.049c.547 1.313 1.674 2.331 3.103 2.816l.533-.834c-1.804-.594-3.117-2.112-3.103-3.828v-.93h-1.094v.93c0 1.785-1.299 3.411-3.13 4.047zm2.051 2.447h6.836v1.217h-6.809v3.022h8.313v-.875h-7.26v-1.313h6.822v-2.912h-7.902v.861zm20.357-7.779h-1.025v12.154h1.025V54.953zm-10.54 8.914.683.807c1.217-.759 2.099-2.188 2.536-3.863.424 1.545 1.272 2.858 2.468 3.576l.656-.793c-1.675-.971-2.625-3.07-2.625-5.168v-1.149h2.229v-.888h-5.606v.888h2.338v1.149c.007 2.208-.984 4.43-2.68 5.441zm5.017-3.65h2.05v6.261h1.013V55.254H59.51v4.088h-2.051v.875zm18.607-.41h-1.968v-4.854H73.03v12.154h1.067V60.71h1.968v-.902zm-10.869 4.21h.971c1.839 0 3.726-.122 5.824-.546l-.136-.916c-2.003.423-3.815.56-5.592.56v-6.959h-1.067v7.862zm21.615-9.064h-1.08v12.182h1.08V54.953zm-9.57 5.182c.007 2.59 1.292 4.231 3.104 4.224 1.804.007 3.11-1.633 3.103-4.224.007-2.584-1.299-4.232-3.103-4.238-1.812.006-3.097 1.654-3.104 4.238zm1.04 0c0-1.976.847-3.275 2.064-3.282 1.223.007 2.064 1.306 2.064 3.282 0 1.975-.84 3.274-2.064 3.267-1.217.007-2.065-1.292-2.065-3.267z" fill="#222"/>
    <path d="M62.835 39.262v-2.229h-1.258v2.283c.007 2.085-.91 4.252-2.639 5.291l.807.971c1.19-.725 2.037-2.05 2.481-3.602.424 1.415 1.197 2.638 2.345 3.329l.725-.998c-1.641-1.005-2.461-3.09-2.461-5.045zm1.134 2.037h1.9v6.261H67.1V36.144h-1.23v4.075h-1.9v1.08zm4.43 6.863h1.244v-12.25H68.4v12.25z" fill="#717171"/>
    <path d="M158.339 70.718c4.881-4.878 4.881-12.79 0-17.669-4.881-4.878-12.797-4.878-17.678 0-4.881 4.88-4.881 12.79 0 17.67l8.841 8.836 8.837-8.837z" fill="url(#pcpiasy80d)"/>
    <path d="M144.526 65.723h1.397v-2.399h2.412v-1.41h-2.412v-2.399h-1.397v2.4h-2.399v1.409h2.399v2.4zm8.338 1.613c2.032 0 3.485-1.092 3.492-2.59-.007-1.168-.883-2.12-1.981-2.298v-.05c.952-.204 1.625-1.036 1.625-2.045 0-1.422-1.333-2.463-3.136-2.463-1.815 0-3.142 1.041-3.148 2.463.006 1.003.66 1.841 1.625 2.044v.051c-1.104.178-1.974 1.13-1.968 2.298-.006 1.498 1.441 2.59 3.491 2.59zm-1.79-2.742c-.006-.87.756-1.505 1.79-1.498 1.035-.007 1.784.634 1.79 1.498-.006.85-.71 1.434-1.79 1.434-1.091 0-1.796-.584-1.79-1.434zm.254-4.088c.007-.781.616-1.32 1.536-1.32.902 0 1.524.539 1.524 1.32 0 .806-.641 1.358-1.524 1.358-.895 0-1.529-.552-1.536-1.358z" fill="#fff"/>
    <path d="M32 86h150v12H32V86z" fill="#F1F1F1"/>
    <mask id="3n71p2gv4e" style="mask-type:alpha" maskUnits="userSpaceOnUse" x="32" y="86" width="119" height="12">
        <path fill="#FAE100" d="M32 86h14v12H32zM77 86h14v12H77zM122 86h14v12h-14zM47 86h14v12H47zM92 86h14v12H92zM137 86h14v12h-14zM62 86h14v12H62zM107 86h14v12h-14z"/>
    </mask>
    <g mask="url(#3n71p2gv4e)">
        <path d="M32 86h119v12H32V86z" fill="url(#d9uio9k69f)" style="mix-blend-mode:multiply"/>
    </g>
    <defs>
        <linearGradient id="7aaxui952c" x1="315.5" y1="190.5" x2="204.5" y2="-16.5" gradientUnits="userSpaceOnUse">
            <stop stop-color="#0D4E36"/>
            <stop offset="1" stop-opacity="0"/>
        </linearGradient>
        <linearGradient id="pcpiasy80d" x1="137" y1="49.391" x2="165.635" y2="95.07" gradientUnits="userSpaceOnUse">
            <stop stop-color="#12BD7E"/>
            <stop offset="1" stop-color="#129B69"/>
        </linearGradient>
        <linearGradient id="d9uio9k69f" x1="219.5" y1="90" x2="35" y2="90" gradientUnits="userSpaceOnUse">
            <stop stop-color="#12BD7E"/>
            <stop offset="1" stop-color="#FAE100"/>
        </linearGradient>
        <filter id="9st007zg5a" x="-4" y="-74" width="335" height="285" filterUnits="userSpaceOnUse" color-interpolation-filters="sRGB">
            <feFlood flood-opacity="0" result="BackgroundImageFix"/>
            <feColorMatrix in="SourceAlpha" values="0 0 0 0 0 0 0 0 0 0 0 0 0 0 0 0 0 0 127 0" result="hardAlpha"/>
            <feOffset dy="4"/>
            <feGaussianBlur stdDeviation="2"/>
            <feComposite in2="hardAlpha" operator="out"/>
            <feColorMatrix values="0 0 0 0 0 0 0 0 0 0 0 0 0 0 0 0 0 0 0.06 0"/>
            <feBlend in2="BackgroundImageFix" result="effect1_dropShadow_549_18187"/>
            <feBlend in="SourceGraphic" in2="effect1_dropShadow_549_18187" result="shape"/>
        </filter>
        <filter id="bcrflanumb" x="16" y="5" width="295" height="126" filterUnits="userSpaceOnUse" color-interpolation-filters="sRGB">
            <feFlood flood-opacity="0" result="BackgroundImageFix"/>
            <feColorMatrix in="SourceAlpha" values="0 0 0 0 0 0 0 0 0 0 0 0 0 0 0 0 0 0 127 0" result="hardAlpha"/>
            <feOffset dy="4"/>
            <feGaussianBlur stdDeviation="2"/>
            <feComposite in2="hardAlpha" operator="out"/>
            <feColorMatrix values="0 0 0 0 0 0 0 0 0 0 0 0 0 0 0 0 0 0 0.06 0"/>
            <feBlend in2="BackgroundImageFix" result="effect1_dropShadow_549_18187"/>
            <feBlend in="SourceGraphic" in2="effect1_dropShadow_549_18187" result="shape"/>
        </filter>
    </defs>
</svg>
