<svg width="327" height="151" viewBox="0 0 327 151" fill="none" xmlns="http://www.w3.org/2000/svg">
    <g filter="url(#ijzs54ar8a)">
        <rect y="-74" width="327" height="294" rx="16" fill="#fff"/>
    </g>
    <g filter="url(#hy871nbnxb)">
        <path d="M20 37C20 19.327 34.327 5 52 5h255v103c0 17.673-14.327 32-32 32H20V37z" fill="#fff"/>
        <path d="M20.5 37C20.5 19.603 34.603 5.5 52 5.5h254.5V108c0 17.397-14.103 31.5-31.5 31.5H20.5V37z" stroke="#EFEFEF"/>
    </g>
    <path d="M20.5 37C20.5 19.603 34.603 5.5 52 5.5h108.5v134h-140V37z" fill="#F9F9F9" stroke="#EFEFEF"/>
    <path stroke="#EFEFEF" d="M20 72.5h287"/>
    <path d="M54.129 93.102h-1.012l-2.365 1.558v.998l2.338-1.545h.054V103h.985v-9.898zm5.725 10.035c2.106 0 3.336-1.873 3.336-5.086 0-3.193-1.244-5.086-3.336-5.086-2.099 0-3.35 1.893-3.35 5.086 0 3.213 1.238 5.086 3.35 5.086zm-2.392-5.086c-.007-2.68.888-4.232 2.392-4.225 1.49-.007 2.386 1.545 2.393 4.225-.007 2.679-.896 4.211-2.393 4.211-1.51 0-2.4-1.532-2.392-4.211zm16.799-6.043H73.4v1.668h-3.637v.71H73.4v1.6h-3.637v.725H73.4v4.252h.861v-8.955zm-9.215 7.068h.902c1.75 0 3.398-.082 5.428-.451l-.11-.738c-1.947.362-3.609.45-5.318.45h-.027v-5.413h-.875v6.152zm1.531 4.703h8.026v-.724h-7.164v-2.844h-.862v3.568zm22.84-11.771h-.862v12.072h.862V92.008zm-9.42 5.127c0 2.543 1.264 4.17 3.049 4.17 1.77 0 3.048-1.627 3.048-4.17 0-2.536-1.278-4.163-3.048-4.17-1.785.007-3.05 1.634-3.05 4.17zm.834 0c0-2.017.909-3.398 2.215-3.404 1.305.006 2.207 1.387 2.2 3.404.008 2.016-.895 3.404-2.2 3.404-1.306 0-2.215-1.388-2.215-3.404zm20.914-5.127h-.847v4.99h-1.955v-4.703h-.82v11.129h.82V97.75h1.955v6.316h.847V92.008zm-9.625 8.859h.739a22.308 22.308 0 0 0 4.43-.396l-.11-.78a20.46 20.46 0 0 1-4.197.411v-6.59h-.862v7.355zm-.68 9.51h-1.736v5.428h6.029v-5.428h-1.75v1.477H91.44v-1.477zm-.492 7.588h6.521v.779h-6.494v3.432h8.586v-1.381h-6.877v-.807h6.522v-3.377h-8.258v1.354zm.492-3.527v-1.272h2.543v1.272H91.44zm6.016 1.708h1.75v-2.501h1.681v-1.409h-1.681v-2.42h-1.75v6.33zm7.817-4.115v-1.463h-1.696v1.463c0 1.388-.704 2.919-2.461 3.692l.944 1.339c1.162-.485 1.941-1.38 2.392-2.454a4.015 4.015 0 0 0 2.243 2.058l.929-1.326c-1.654-.636-2.351-1.962-2.351-3.309zm-1.846 7.903c-.007 1.442 1.668 2.331 4.307 2.324 2.625.007 4.306-.882 4.32-2.324-.014-1.456-1.695-2.331-4.32-2.325-2.639-.006-4.314.869-4.307 2.325zm1.75 0c-.014-.677.923-1.026 2.557-1.026 1.62 0 2.556.349 2.556 1.026 0 .67-.936 1.011-2.556 1.011-1.634 0-2.571-.341-2.557-1.011zm2.488-2.885h1.627v-2.776h1.039v3.159h1.655v-7.602h-1.655v3.035h-1.039v-2.816h-1.627v7zm16.964-1.723H113.24v1.272h2.816v.724h-1.517v1.203h7v.629h-6.986v3.022h9.078v-1.19h-7.342v-.724h6.973v-2.94h-1.436v-.724h2.803v-1.272zm-9.994-4.115h6.863v.629h-6.836v2.912h8.805v-1.19h-7.069v-.615h6.85v-2.912h-8.613v1.176zm3.158 6.111v-.724h2.283v.724h-2.283z" fill="#222"/>
    <path d="M60.855 109.816h-1.722v12.442h1.722v-12.442zm-10.472 8.532.177 1.408c2.366.027 5.23.007 7.958-.451l-.096-1.285c-.964.123-1.976.198-2.994.246v-2.243h2.406v-1.394h-4.813v-3.719h-1.763v5.113h2.406v2.297c-1.155.028-2.27.028-3.281.028zm18.467-4.553h-1.722v1.162h-4.8v1.367h11.348v-1.367H68.85v-1.162zm-6.043-.629.575 1.313c2.385-.185 3.978-1.019 4.62-2.188.636 1.176 2.243 2.003 4.635 2.188l.547-1.313c-2.276-.185-3.555-.882-3.896-1.668h3.363v-1.367h-9.283v1.367h3.329c-.349.779-1.62 1.483-3.89 1.668zm.834 5.072h6.932v.684h-6.918v3.254h8.969v-1.313h-7.26v-.711h6.931v-3.199h-8.654v1.285zm21.995-2.775H74.288v1.408h4.8v.916c-2.209.157-3.5.937-3.5 2.229 0 1.442 1.633 2.249 4.36 2.242 2.687.007 4.32-.8 4.335-2.242-.014-1.286-1.3-2.065-3.46-2.222v-.923h4.813v-1.408zm-10.842-1.832.574 1.367c2.359-.219 3.924-1.114 4.58-2.317.664 1.21 2.243 2.091 4.594 2.317l.615-1.367c-2.365-.205-3.63-1.046-3.93-1.914h3.384v-1.367h-9.284v1.367h3.357c-.315.861-1.586 1.709-3.89 1.914zm2.57 6.385c-.006-.629.862-.93 2.584-.944 1.689.014 2.578.315 2.585.944-.007.601-.896.929-2.585.929-1.722 0-2.59-.328-2.583-.929z" fill="#E7322D"/>
    <path d="M201.043 117h13.316v-2.57h-9.133v-.164l4.02-4.075c3.719-3.65 4.758-5.414 4.785-7.629-.027-3.212-2.666-5.632-6.48-5.632-3.774 0-6.536 2.392-6.508 6.015h2.843c.014-2.105 1.409-3.5 3.61-3.5 2.078 0 3.664 1.244 3.664 3.2 0 1.736-1.08 2.994-3.254 5.25l-6.863 6.917V117zm23.052-19.797h-2.954l-4.921 3.227v2.871l4.73-3.09h.109V117h3.036V97.203zm4.731 19.988a1.976 1.976 0 0 0 1.942-1.941c-.014-1.066-.889-1.941-1.942-1.941-1.066 0-1.955.875-1.941 1.941-.014 1.066.875 1.928 1.941 1.941zM239.71 96.93c-4.307-.028-7.109 2.925-7.109 6.699 0 3.787 2.843 6.508 6.398 6.508 2.133 0 3.992-1.012 5.059-2.68h.246c-.028 4.525-1.819 7.178-4.867 7.191-1.996-.013-3.282-1.175-3.692-2.843h-2.98c.478 3.213 3.021 5.468 6.672 5.468 4.744 0 7.738-3.937 7.738-10.882-.014-7.247-3.828-9.434-7.465-9.461zm-4.184 6.644c-.013-2.269 1.792-4.129 4.184-4.129 2.42 0 4.184 1.955 4.184 4.102 0 2.187-1.846 4.142-4.239 4.129-2.406.013-4.115-1.805-4.129-4.102zm24.037 8.668v1.039c0 2.242 1.408 4.143 4.019 4.129 2.598.014 4.02-1.887 4.02-4.129v-1.039c0-2.242-1.381-4.129-4.02-4.129-2.57 0-4.019 1.901-4.019 4.129zm-9.981-10.281c0 2.228 1.408 4.115 4.047 4.129 2.584-.014 4.006-1.901 3.992-4.129v-1.039c.014-2.242-1.367-4.143-3.992-4.129-2.57-.014-4.047 1.887-4.047 4.129v1.039zm.957 15.039h2.297l13.617-19.797h-2.297L250.539 117zm1.313-15.039v-1.039c.013-1.108.492-2.188 1.777-2.188 1.326 0 1.736 1.08 1.723 2.188v1.039c.013 1.094-.424 2.174-1.723 2.16-1.312.014-1.764-1.066-1.777-2.16zm9.98 11.32v-1.039c-.013-1.107.465-2.174 1.75-2.187 1.34.013 1.75 1.08 1.75 2.187v1.039c0 1.108-.451 2.174-1.75 2.188-1.312-.014-1.763-1.08-1.75-2.188zM61.525 30.05H56.44v-1.53h3.787v-.725h-7.438v-2.516h7.355v-.697h-8.203v3.938h3.664v1.53h-5.072v.712h10.992v-.711zm-9.652 3.829c0 1.388 1.559 2.16 4.156 2.174 2.577-.014 4.13-.786 4.13-2.174 0-1.36-1.553-2.147-4.13-2.147-2.597 0-4.156.787-4.156 2.147zm.875 0c0-.902 1.258-1.456 3.281-1.463 2.003.007 3.261.56 3.268 1.463-.007.916-1.265 1.47-3.268 1.463-2.023.007-3.281-.547-3.281-1.463zm13.15-9.406c-1.799.007-3.098 1.087-3.09 2.652-.008 1.565 1.291 2.632 3.09 2.639 1.797-.007 3.096-1.074 3.103-2.639-.007-1.565-1.306-2.645-3.104-2.652zm-2.243 2.652c-.014-1.1.95-1.92 2.242-1.914 1.299-.007 2.263.813 2.27 1.914-.007 1.114-.971 1.914-2.27 1.914-1.292 0-2.256-.8-2.242-1.914zm.984 4.443h6.918v1.409H64.68v2.912h8.19v-.711h-7.356v-1.531h6.89v-2.79H64.64v.711zm6.905-1.326h.86v-6.234h-.86v6.234zm16.085-6.234h-.862v1.969h-3.26c-.547-.739-1.45-1.183-2.509-1.19-1.798.014-3.11 1.237-3.104 2.994-.006 1.757 1.306 2.98 3.104 2.98 1.073 0 1.982-.45 2.53-1.202h3.24v3.404h.86v-8.955zm-8.914 3.773c.007-1.264.957-2.208 2.283-2.215 1.285.007 2.256.95 2.256 2.215 0 1.272-.97 2.215-2.256 2.215-1.326 0-2.276-.943-2.283-2.215zm1.258 7.998h8.011v-.724h-7.15v-3.05h-.861v3.774zm3.93-9.078h2.864v2.133H83.91a3.222 3.222 0 0 0-.007-2.133zm11.447-1.996h-5.195v.725h4.334v1.818h-4.307v3.486h.834c2.475.007 3.692-.034 5.21-.3l-.083-.725c-1.483.273-2.68.308-5.113.314V27.96h4.32v-3.254zm-3.719 9.242c-.013 1.395 1.504 2.195 4.006 2.201 2.489-.006 4-.806 4.006-2.2-.007-1.409-1.517-2.222-4.006-2.216-2.502-.006-4.02.807-4.006 2.215zm.862 0c-.014-.95 1.203-1.517 3.144-1.517 1.921 0 3.159.567 3.159 1.517 0 .93-1.238 1.497-3.159 1.49-1.941.007-3.158-.56-3.144-1.49zm3.719-4.771h2.515v2.338h.861v-7.506h-.86v1.996h-2.516v.724h2.515v1.71h-2.516v.738zm18.901-5.168h-.834v4.908h-1.955v-4.621h-.807v11.129h.807V29.64h1.955v6.425h.834V24.008zm-9.789 8.996h.752c1.935-.014 3.145-.069 4.594-.383l-.096-.738c-1.367.3-2.536.369-4.389.369v-6.03h3.664v-.724h-4.525v7.506zm21.38-8.996h-.862V36.08h.862V24.008zm-9.174 9.119h5.633v-8.08h-.862v3.267h-3.91v-3.267h-.861v8.08zm.861-.725v-3.377h3.91v3.377h-3.91zM60.514 47.176h-7.082v-4.403H51.64v5.811h3.527v2.857h-4.799v1.395h11.389V51.44h-4.826v-2.857h3.582v-1.408zm11.768-5.36h-1.764v12.442h1.764v-5.934h1.627v-1.449h-1.627v-5.059zm-10.104 8.928.233 1.422c2.098.007 4.956-.014 7.601-.506l-.109-1.271c-.923.13-1.914.212-2.899.266V49.65c1.313-.252 2.188-1.1 2.202-2.255-.014-1.388-1.285-2.338-3.063-2.338-1.811 0-3.07.95-3.062 2.337-.007 1.156.854 1.997 2.173 2.256v1.067c-1.107.027-2.167.027-3.076.027zm.247-6.18h7.382v-1.367h-2.803v-1.312h-1.75v1.312h-2.83v1.367zm2.31 2.83c-.007-.642.554-1.004 1.408-1.011.827.007 1.381.369 1.381 1.011 0 .657-.554 1.012-1.38 1.012-.855 0-1.416-.355-1.409-1.011zm24.015.11H77.375v1.422H88.75v-1.422zM78.674 51.96c0 1.47 1.64 2.304 4.361 2.297 2.7.007 4.32-.827 4.334-2.297-.014-1.463-1.634-2.29-4.334-2.283-2.72-.007-4.361.82-4.361 2.283zm.082-5.332h8.695v-1.381h-6.959v-1.695h6.89v-1.408h-8.626v4.484zm1.695 5.332c-.007-.629.861-.957 2.584-.957 1.689 0 2.577.328 2.584.957-.007.656-.895.97-2.584.97-1.723 0-2.59-.314-2.584-.97zm15.487-9.174v-.602h-1.832v.602c-.007 1.47-1.504 3.09-4.334 3.445l.697 1.409c2.147-.315 3.733-1.326 4.553-2.666.813 1.346 2.406 2.351 4.58 2.666l.684-1.409c-2.85-.355-4.355-1.975-4.348-3.445zm-6.603 7.219h4.785v4.252h1.722v-4.252h4.84v-1.422H89.335v1.422z" fill="#222"/>
    <g filter="url(#gywja1xdlc)">
        <path d="M186 19h30v40h-30V19z" fill="#fff"/>
        <path d="M186.5 19.5h29v39h-29v-39z" stroke="#E4E4E4"/>
    </g>
    <g filter="url(#d7lc23m31d)">
        <path d="M219 19h30v40h-30V19z" fill="#fff"/>
        <path d="M219.5 19.5h29v39h-29v-39z" stroke="#E4E4E4"/>
    </g>
    <g filter="url(#i1yosrx0ie)">
        <path d="M252 19h30v40h-30V19z" fill="#fff"/>
        <path d="M252.5 19.5h29v39h-29v-39z" stroke="#E4E4E4"/>
    </g>
    <path d="M201.815 36.227c1.618-1.162 2.495-1.936 2.495-3.175 0-1.239-.987-2.09-2.714-2.09-1.838 0-2.825 1.213-2.825 2.528H194c0-3.717 3.126-6.505 7.569-6.505 4.744 0 7.431 2.556 7.431 6.067 0 1.91-.987 3.433-2.769 4.724-2.002 1.471-2.633 2.4-2.633 3.846h-4.525c0-2.556.741-3.975 2.743-5.395h-.001zm-3.236 10.016c0-1.575 1.234-2.737 2.907-2.737s2.907 1.162 2.907 2.736c0 1.575-1.234 2.71-2.907 2.71s-2.907-1.135-2.907-2.71zM234.815 36.227c1.618-1.162 2.495-1.936 2.495-3.175 0-1.239-.987-2.09-2.714-2.09-1.838 0-2.825 1.213-2.825 2.528H227c0-3.717 3.126-6.505 7.569-6.505 4.744 0 7.431 2.556 7.431 6.067 0 1.91-.987 3.433-2.769 4.724-2.002 1.471-2.633 2.4-2.633 3.846h-4.525c0-2.556.741-3.975 2.743-5.395h-.001zm-3.236 10.016c0-1.575 1.234-2.737 2.907-2.737s2.907 1.162 2.907 2.736c0 1.575-1.234 2.71-2.907 2.71s-2.907-1.135-2.907-2.71zM267.815 36.227c1.618-1.162 2.495-1.936 2.495-3.175 0-1.239-.987-2.09-2.714-2.09-1.838 0-2.825 1.213-2.825 2.528H260c0-3.717 3.126-6.505 7.569-6.505 4.744 0 7.431 2.556 7.431 6.067 0 1.91-.987 3.433-2.769 4.724-2.002 1.471-2.633 2.4-2.633 3.846h-4.525c0-2.556.741-3.975 2.743-5.395h-.001zm-3.236 10.016c0-1.575 1.234-2.737 2.907-2.737s2.907 1.162 2.907 2.736c0 1.575-1.234 2.71-2.907 2.71s-2.907-1.135-2.907-2.71z" fill="#12BD7E"/>
    <defs>
        <filter id="ijzs54ar8a" x="-4" y="-74" width="335" height="302" filterUnits="userSpaceOnUse" color-interpolation-filters="sRGB">
            <feFlood flood-opacity="0" result="BackgroundImageFix"/>
            <feColorMatrix in="SourceAlpha" values="0 0 0 0 0 0 0 0 0 0 0 0 0 0 0 0 0 0 127 0" result="hardAlpha"/>
            <feOffset dy="4"/>
            <feGaussianBlur stdDeviation="2"/>
            <feComposite in2="hardAlpha" operator="out"/>
            <feColorMatrix values="0 0 0 0 0 0 0 0 0 0 0 0 0 0 0 0 0 0 0.06 0"/>
            <feBlend in2="BackgroundImageFix" result="effect1_dropShadow_549_18157"/>
            <feBlend in="SourceGraphic" in2="effect1_dropShadow_549_18157" result="shape"/>
        </filter>
        <filter id="hy871nbnxb" x="16" y="5" width="295" height="143" filterUnits="userSpaceOnUse" color-interpolation-filters="sRGB">
            <feFlood flood-opacity="0" result="BackgroundImageFix"/>
            <feColorMatrix in="SourceAlpha" values="0 0 0 0 0 0 0 0 0 0 0 0 0 0 0 0 0 0 127 0" result="hardAlpha"/>
            <feOffset dy="4"/>
            <feGaussianBlur stdDeviation="2"/>
            <feComposite in2="hardAlpha" operator="out"/>
            <feColorMatrix values="0 0 0 0 0 0 0 0 0 0 0 0 0 0 0 0 0 0 0.06 0"/>
            <feBlend in2="BackgroundImageFix" result="effect1_dropShadow_549_18157"/>
            <feBlend in="SourceGraphic" in2="effect1_dropShadow_549_18157" result="shape"/>
        </filter>
        <filter id="gywja1xdlc" x="182" y="19" width="38" height="48" filterUnits="userSpaceOnUse" color-interpolation-filters="sRGB">
            <feFlood flood-opacity="0" result="BackgroundImageFix"/>
            <feColorMatrix in="SourceAlpha" values="0 0 0 0 0 0 0 0 0 0 0 0 0 0 0 0 0 0 127 0" result="hardAlpha"/>
            <feOffset dy="4"/>
            <feGaussianBlur stdDeviation="2"/>
            <feComposite in2="hardAlpha" operator="out"/>
            <feColorMatrix values="0 0 0 0 0 0 0 0 0 0 0 0 0 0 0 0 0 0 0.06 0"/>
            <feBlend in2="BackgroundImageFix" result="effect1_dropShadow_549_18157"/>
            <feBlend in="SourceGraphic" in2="effect1_dropShadow_549_18157" result="shape"/>
        </filter>
        <filter id="d7lc23m31d" x="215" y="19" width="38" height="48" filterUnits="userSpaceOnUse" color-interpolation-filters="sRGB">
            <feFlood flood-opacity="0" result="BackgroundImageFix"/>
            <feColorMatrix in="SourceAlpha" values="0 0 0 0 0 0 0 0 0 0 0 0 0 0 0 0 0 0 127 0" result="hardAlpha"/>
            <feOffset dy="4"/>
            <feGaussianBlur stdDeviation="2"/>
            <feComposite in2="hardAlpha" operator="out"/>
            <feColorMatrix values="0 0 0 0 0 0 0 0 0 0 0 0 0 0 0 0 0 0 0.06 0"/>
            <feBlend in2="BackgroundImageFix" result="effect1_dropShadow_549_18157"/>
            <feBlend in="SourceGraphic" in2="effect1_dropShadow_549_18157" result="shape"/>
        </filter>
        <filter id="i1yosrx0ie" x="248" y="19" width="38" height="48" filterUnits="userSpaceOnUse" color-interpolation-filters="sRGB">
            <feFlood flood-opacity="0" result="BackgroundImageFix"/>
            <feColorMatrix in="SourceAlpha" values="0 0 0 0 0 0 0 0 0 0 0 0 0 0 0 0 0 0 127 0" result="hardAlpha"/>
            <feOffset dy="4"/>
            <feGaussianBlur stdDeviation="2"/>
            <feComposite in2="hardAlpha" operator="out"/>
            <feColorMatrix values="0 0 0 0 0 0 0 0 0 0 0 0 0 0 0 0 0 0 0.06 0"/>
            <feBlend in2="BackgroundImageFix" result="effect1_dropShadow_549_18157"/>
            <feBlend in="SourceGraphic" in2="effect1_dropShadow_549_18157" result="shape"/>
        </filter>
    </defs>
</svg>
