<svg width="180" height="180" viewBox="0 0 180 180" fill="none" xmlns="http://www.w3.org/2000/svg">
<circle opacity="0.7" cx="90" cy="90" r="90" fill="white"/>
<circle cx="90" cy="90" r="76.2" fill="#EFEFEF"/>
<rect x="45.6" y="59.2718" width="88.8" height="18" fill="#BFC6CA"/>
<rect x="54.1802" y="53.1765" width="72.2381" height="72.6" transform="rotate(-1.72659 54.1802 53.1765)" fill="white"/>
<path opacity="0.1" fill-rule="evenodd" clip-rule="evenodd" d="M76.015 61.6718C77.0152 63.6773 78.1954 66.3278 78.9 67.9718H134.4V125.272H45.6V61.6718H76.015Z" fill="#454545"/>
<path fill-rule="evenodd" clip-rule="evenodd" d="M73.015 65.8718C74.0152 67.8773 75.1954 70.5278 75.9 72.1718H134.4V129.472H45.6V65.8718H73.015Z" fill="#D4D9DD"/>
<g opacity="0.7">
<circle cx="83.7" cy="90.9" r="2.7" fill="#4D4D4D"/>
<circle cx="96.3" cy="90.9" r="2.7" fill="#4D4D4D"/>
<path fill-rule="evenodd" clip-rule="evenodd" d="M94.6481 102.733C92.4798 99.5996 88.1817 98.8169 85.0479 100.985C84.5029 101.362 83.7554 101.226 83.3783 100.681C83.0012 100.136 83.1373 99.3887 83.6823 99.0116C87.9061 96.0891 93.6993 97.144 96.6217 101.368C96.9988 101.913 96.8627 102.66 96.3177 103.037C95.7727 103.414 95.0252 103.278 94.6481 102.733Z" fill="#4D4D4D"/>
</g>
<circle cx="137.4" cy="121.8" r="11.2" fill="white" stroke="#F3616A" stroke-width="4"/>
<path fill-rule="evenodd" clip-rule="evenodd" d="M139.755 126.984C140.536 127.765 141.803 127.765 142.584 126.984C143.365 126.203 143.365 124.936 142.584 124.155L140.227 121.799L142.584 119.443C143.365 118.662 143.365 117.395 142.584 116.614C141.803 115.833 140.536 115.833 139.755 116.614L137.399 118.971L135.043 116.614C134.262 115.833 132.995 115.833 132.214 116.614C131.433 117.395 131.433 118.662 132.214 119.443L134.571 121.799L132.214 124.155C131.433 124.936 131.433 126.203 132.214 126.984C132.995 127.765 134.262 127.765 135.043 126.984L137.399 124.627L139.755 126.984Z" fill="#F3616A"/>
</svg>
