<svg xmlns="http://www.w3.org/2000/svg" width="50.279" height="61.031" viewBox="0 0 50.279 61.031">
    <g data-name="그룹 2234">
        <g data-name="그룹 2233">
            <path data-name="패스 25801" d="m17.771 88.013-2.007.722.072-15.935 2.007-.722z" transform="translate(-9.106 -27.704)" style="fill:#565555"/>
            <path data-name="패스 25802" d="m20.259 57.534 2.007-1.166-4.5-2.6-2.007 1.166z" transform="translate(-13.528 -11.982)" style="fill:#b23d64"/>
            <path data-name="패스 25803" d="m34.491 63.657-.073 16.423-4.5-1.657L30 62z" transform="translate(-27.76 -19.049)" style="fill:#929292"/>
            <path data-name="패스 25804" d="m2.007 0 4.457 11.509-2.007 1.167L0 1.167z" transform="translate(4.509 36.03)" style="fill:#565555"/>
            <path data-name="패스 25805" d="m23.124 19.737-2.235-1.29-4.5-2.6-2.235-1.291 4.509-6.333z" transform="translate(-14.159 28.968)" style="fill:#929292"/>
        </g>
        <g data-name="그룹 2233">
            <path data-name="패스 25801" d="m17.771 91.883-2.007.9.073-19.8 2.007-.9z" transform="translate(3.996 -38.693)" style="fill:#565555"/>
            <path data-name="패스 25802" d="m20.259 57.534 2.007-1.166-4.5-2.6-2.007 1.166z" transform="translate(-.426 -23.704)" style="fill:#b23d64"/>
            <path data-name="패스 25803" d="m34.49 64.349-.073 23.287-4.5-2.349L30 62z" transform="translate(-14.658 -33.549)" style="fill:#929292"/>
            <path data-name="패스 25804" d="m2.007 0 4.457 11.509-2.007 1.167L0 1.167z" transform="translate(17.611 23.748)" style="fill:#565555"/>
            <path data-name="패스 25805" d="m23.124 19.737-2.235-1.29-4.5-2.6-2.235-1.291 4.509-6.333z" transform="translate(-1.057 16.686)" style="fill:#929292"/>
        </g>
        <g data-name="그룹 2233">
            <path data-name="패스 25801" d="m17.771 98.959-2.007 1.219.073-26.88 2.007-1.219z" transform="translate(17.098 -53.037)" style="fill:#565555"/>
            <path data-name="패스 25802" d="m20.259 57.534 2.007-1.166-4.5-2.6-2.007 1.166z" transform="translate(12.676 -35.006)" style="fill:#b23d64"/>
            <path data-name="패스 25803" d="m34.491 64.759-.073 27.347-4.5-2.759L30 62z" transform="translate(-1.556 -44.965)" style="fill:#929292"/>
            <path data-name="패스 25804" d="m2.007 0 4.457 11.509-2.007 1.167L0 1.167z" transform="translate(30.713 11.799)" style="fill:#565555"/>
            <path data-name="패스 25805" d="m23.124 19.737-2.235-1.29-4.5-2.6-2.235-1.291 4.509-6.333z" transform="translate(12.045 4.737)" style="fill:#929292"/>
        </g>
        <g data-name="그룹 2233">
            <path data-name="패스 25801" d="m17.771 101.831-2.007 1.357.073-30.751 2.007-1.357z" transform="translate(30.2 -63.575)" style="fill:#565555"/>
            <path data-name="패스 25802" d="m20.259 57.534 2.007-1.166-4.5-2.6-2.007 1.166z" transform="translate(25.778 -46.532)" style="fill:#b23d64"/>
            <path data-name="패스 25803" d="m34.491 65.105-.073 30.78-4.5-3.105L30 62z" transform="translate(11.546 -56.273)" style="fill:#929292"/>
            <path data-name="패스 25804" d="m2.007 0 4.457 11.509-2.007 1.167L0 1.167z" transform="translate(43.815)" style="fill:#565555"/>
            <path data-name="패스 25805" d="m23.124 19.737-2.235-1.29-4.5-2.6-2.235-1.291 4.509-6.333z" transform="translate(25.147 -7.062)" style="fill:#929292"/>
        </g>
    </g>
</svg>
