<svg xmlns="http://www.w3.org/2000/svg" width="3.924" height="20.858" viewBox="0 0 3.924 20.858">
    <defs>
        <clipPath id="8019087c9a">
            <path data-name="사각형 6825" style="fill:none" d="M0 0h20.858v3.924H0z"/>
        </clipPath>
    </defs>
    <g data-name="그룹 2367">
        <g data-name="그룹 2356" style="clip-path:url(#8019087c9a)" transform="rotate(-90 10.429 10.429)">
            <path data-name="패스 25816" d="M19.533.773a1.436 1.436 0 0 0-2.548 0 1.651 1.651 0 0 1-1.325.8 1.651 1.651 0 0 1-1.325-.8A1.578 1.578 0 0 0 13.062 0a1.578 1.578 0 0 0-1.274.773 1.651 1.651 0 0 1-1.325.8 1.651 1.651 0 0 1-1.325-.8A1.578 1.578 0 0 0 7.864 0 1.578 1.578 0 0 0 6.59.773a1.651 1.651 0 0 1-1.325.8 1.651 1.651 0 0 1-1.325-.8A1.578 1.578 0 0 0 2.666 0a1.578 1.578 0 0 0-1.274.773 1.651 1.651 0 0 1-1.325.8L0 1.569v2.354h.067a1.578 1.578 0 0 0 1.274-.773 1.651 1.651 0 0 1 1.325-.8 1.651 1.651 0 0 1 1.325.8 1.578 1.578 0 0 0 1.274.773 1.578 1.578 0 0 0 1.274-.773 1.651 1.651 0 0 1 1.325-.8 1.651 1.651 0 0 1 1.325.8 1.578 1.578 0 0 0 1.274.773 1.578 1.578 0 0 0 1.274-.773 1.651 1.651 0 0 1 1.325-.8 1.651 1.651 0 0 1 1.325.8 1.578 1.578 0 0 0 1.274.773 1.578 1.578 0 0 0 1.274-.773 1.5 1.5 0 0 1 2.65 0 1.578 1.578 0 0 0 1.274.773V1.571a1.651 1.651 0 0 1-1.325-.8" style="fill:#fff"/>
        </g>
    </g>
</svg>
