<svg xmlns="http://www.w3.org/2000/svg" width="43.221" height="46.175" viewBox="0 0 43.221 46.175">
    <g data-name="그룹 2231">
        <path data-name="패스 25767" d="m0 710.213 6.5 2.617 6.416-2.617-6.458-2.364z" transform="translate(0 -690.966)" style="fill:#cecece"/>
        <path data-name="패스 25768" d="m0 831.765 6.5 2.11v-24.311L0 806.947z" transform="translate(0 -787.7)" style="fill:#929292"/>
        <path data-name="패스 25769" d="M272.52 809.564v24.312l6.416-2.026v-24.9z" transform="translate(-266.02 -787.7)" style="fill:#565555"/>
        <path data-name="패스 25770" d="m633.521 493.025 6.568 2.279V462.72l-6.568-2.617z" transform="translate(-618.411 -449.129)" style="fill:#929292"/>
        <path data-name="패스 25771" d="M908.908 462.72v32.58l6.347-2.195V460.1z" transform="translate(-887.23 -449.129)" style="fill:#565555"/>
        <path data-name="패스 25772" d="m640.09 353.926 6.347 2.532-6.347 2.617-6.568-2.617z" transform="translate(-618.411 -345.485)" style="fill:#cecece"/>
        <path data-name="패스 25773" d="m1270.581 147.628 6.416 2.195v-41.11l-6.416-2.532z" transform="translate(-1240.276 -103.648)" style="fill:#929292"/>
        <path data-name="패스 25774" d="m1277 0-6.416 2.532L1277 5.069l6.5-2.532z" transform="translate(-1240.276 -.004)" style="fill:#cecece"/>
        <path data-name="패스 25775" d="M1539.563 108.713v41.11l6.5-2.11V106.18z" transform="translate(-1502.842 -103.648)" style="fill:#565555"/>
    </g>
</svg>
