<svg width="60" height="60" viewBox="0 0 60 60" fill="none" xmlns="http://www.w3.org/2000/svg">
<g clip-path="url(#clip0_297_3935)">
<path d="M54.1406 44.6484C53.3438 45.0703 52.5234 45.4453 51.6797 45.75C48.9844 46.7578 46.1484 47.2734 43.2656 47.2734C32.1797 47.2734 22.5234 39.6563 22.5234 29.8594C22.5469 27.1875 24.0234 24.7266 26.3672 23.4609C16.3359 23.8828 13.7578 34.3359 13.7578 40.4531C13.7578 57.7734 29.7188 59.5312 33.1641 59.5312C35.0156 59.5312 37.8047 58.9922 39.4922 58.4531L39.7969 58.3594C46.2656 56.1328 51.75 51.7734 55.4063 45.9844C55.6875 45.5391 55.5469 44.9766 55.125 44.6953C54.8203 44.5078 54.4453 44.4844 54.1406 44.6484Z" fill="url(#paint0_linear_297_3935)"/>
<path opacity="0.35" d="M54.1406 44.6484C53.3438 45.0703 52.5234 45.4453 51.6797 45.75C48.9844 46.7578 46.1484 47.2734 43.2656 47.2734C32.1797 47.2734 22.5234 39.6563 22.5234 29.8594C22.5469 27.1875 24.0234 24.7266 26.3672 23.4609C16.3359 23.8828 13.7578 34.3359 13.7578 40.4531C13.7578 57.7734 29.7188 59.5312 33.1641 59.5312C35.0156 59.5312 37.8047 58.9922 39.4922 58.4531L39.7969 58.3594C46.2656 56.1328 51.75 51.7734 55.4063 45.9844C55.6875 45.5391 55.5469 44.9766 55.125 44.6953C54.8203 44.5078 54.4453 44.4844 54.1406 44.6484Z" fill="url(#paint1_radial_297_3935)"/>
<path d="M24.7736 56.5781C22.6876 55.2891 20.8829 53.5781 19.4533 51.5859C13.2892 43.1484 15.1408 31.3125 23.5783 25.1484C24.4689 24.5156 25.3829 23.9297 26.3673 23.4609C27.0939 23.1094 28.3361 22.5 30.0001 22.5234C32.3673 22.5469 34.5939 23.6719 36.0236 25.5703C36.9611 26.8359 37.5001 28.3594 37.5236 29.9531C37.5236 29.9063 43.2658 11.2969 18.7736 11.2969C8.48451 11.2969 0.023572 21.0703 0.023572 29.625C-0.023303 34.1484 0.961072 38.6484 2.85951 42.75C9.32826 56.5312 25.0783 63.2812 39.5158 58.4766C34.5704 60.0234 29.1798 59.3438 24.7736 56.5781Z" fill="url(#paint2_linear_297_3935)"/>
<path opacity="0.41" d="M24.7736 56.5781C22.6876 55.2891 20.8829 53.5781 19.4533 51.5859C13.2892 43.1484 15.1408 31.3125 23.5783 25.1484C24.4689 24.5156 25.3829 23.9297 26.3673 23.4609C27.0939 23.1094 28.3361 22.5 30.0001 22.5234C32.3673 22.5469 34.5939 23.6719 36.0236 25.5703C36.9611 26.8359 37.5001 28.3594 37.5236 29.9531C37.5236 29.9063 43.2658 11.2969 18.7736 11.2969C8.48451 11.2969 0.023572 21.0703 0.023572 29.625C-0.023303 34.1484 0.961072 38.6484 2.85951 42.75C9.32826 56.5312 25.0783 63.2812 39.5158 58.4766C34.5704 60.0234 29.1798 59.3438 24.7736 56.5781Z" fill="url(#paint3_radial_297_3935)"/>
<path d="M35.6953 34.8984C35.5078 35.1328 34.9219 35.4844 34.9219 36.2344C34.9219 36.8438 35.3203 37.4297 36.0234 37.9219C39.3984 40.2656 45.75 39.9609 45.7734 39.9609C48.2812 39.9609 50.7188 39.2812 52.875 38.0156C57.2812 35.4375 60 30.7266 60 25.6172C60.0703 20.3672 58.125 16.875 57.3516 15.3281C52.3828 5.60156 41.6484 0 30 0C13.5938 0 0.234375 13.1719 0 29.5781C0.117188 21.0234 8.625 14.1094 18.75 14.1094C19.5703 14.1094 24.2578 14.1797 28.5938 16.4766C32.4141 18.4922 34.4297 20.9062 35.8125 23.3203C37.2656 25.8281 37.5234 28.9688 37.5234 30.2344C37.5234 31.4766 36.8906 33.3516 35.6953 34.8984Z" fill="url(#paint4_radial_297_3935)"/>
<path d="M35.6953 34.8984C35.5078 35.1328 34.9219 35.4844 34.9219 36.2344C34.9219 36.8438 35.3203 37.4297 36.0234 37.9219C39.3984 40.2656 45.75 39.9609 45.7734 39.9609C48.2812 39.9609 50.7188 39.2812 52.875 38.0156C57.2812 35.4375 60 30.7266 60 25.6172C60.0703 20.3672 58.125 16.875 57.3516 15.3281C52.3828 5.60156 41.6484 0 30 0C13.5938 0 0.234375 13.1719 0 29.5781C0.117188 21.0234 8.625 14.1094 18.75 14.1094C19.5703 14.1094 24.2578 14.1797 28.5938 16.4766C32.4141 18.4922 34.4297 20.9062 35.8125 23.3203C37.2656 25.8281 37.5234 28.9688 37.5234 30.2344C37.5234 31.4766 36.8906 33.3516 35.6953 34.8984Z" fill="url(#paint5_radial_297_3935)"/>
</g>
<defs>
<linearGradient id="paint0_linear_297_3935" x1="13.7588" y1="41.4891" x2="55.5437" y2="41.4891" gradientUnits="userSpaceOnUse">
<stop stop-color="#0C59A4"/>
<stop offset="1" stop-color="#114A8B"/>
</linearGradient>
<radialGradient id="paint1_radial_297_3935" cx="0" cy="0" r="1" gradientUnits="userSpaceOnUse" gradientTransform="translate(36.8419 41.821) scale(22.3525 21.2325)">
<stop offset="0.72" stop-opacity="0"/>
<stop offset="0.95" stop-opacity="0.53"/>
<stop offset="1"/>
</radialGradient>
<linearGradient id="paint2_linear_297_3935" x1="35.8059" y1="23.378" x2="9.7027" y2="51.8106" gradientUnits="userSpaceOnUse">
<stop stop-color="#1B9DE2"/>
<stop offset="0.16" stop-color="#1595DF"/>
<stop offset="0.67" stop-color="#0680D7"/>
<stop offset="1" stop-color="#0078D4"/>
</linearGradient>
<radialGradient id="paint3_radial_297_3935" cx="0" cy="0" r="1" gradientUnits="userSpaceOnUse" gradientTransform="translate(16.5489 46.6428) rotate(-81.3826) scale(33.6089 27.1579)">
<stop offset="0.76" stop-opacity="0"/>
<stop offset="0.95" stop-opacity="0.5"/>
<stop offset="1"/>
</radialGradient>
<radialGradient id="paint4_radial_297_3935" cx="0" cy="0" r="1" gradientUnits="userSpaceOnUse" gradientTransform="translate(6.05919 11.1076) rotate(92.2909) scale(47.473 101.123)">
<stop stop-color="#35C1F1"/>
<stop offset="0.11" stop-color="#34C1ED"/>
<stop offset="0.23" stop-color="#2FC2DF"/>
<stop offset="0.31" stop-color="#2BC3D2"/>
<stop offset="0.67" stop-color="#36C752"/>
</radialGradient>
<radialGradient id="paint5_radial_297_3935" cx="0" cy="0" r="1" gradientUnits="userSpaceOnUse" gradientTransform="translate(56.2641 18.1419) rotate(73.7366) scale(22.8097 18.5524)">
<stop stop-color="#66EB6E"/>
<stop offset="1" stop-color="#66EB6E" stop-opacity="0"/>
</radialGradient>
<clipPath id="clip0_297_3935">
<rect width="60" height="60" fill="white"/>
</clipPath>
</defs>
</svg>
