<svg width="64" height="45" viewBox="0 0 64 45" fill="none" xmlns="http://www.w3.org/2000/svg">
<path d="M0 0V16.2897C8.65003 12.7946 20.2078 9.2821 34.7526 5.73767C44.0724 3.46996 53.0797 1.56314 61.7798 0H0ZM64 3.47338C55.5658 4.68971 48.0019 6.12105 41.3451 7.73815C33.7244 9.59556 27.5894 11.4733 22.9494 13.3879C18.3034 15.2682 16.1452 16.7888 16.4474 17.9604C16.72 18.9949 18.6657 19.4645 22.2924 19.3674C24.1591 19.3331 27.1814 19.1339 31.377 18.7738C35.5726 18.4138 40.9894 17.8931 47.6205 17.213C54.1933 16.5545 59.6374 16.1091 64 15.85V3.47338ZM45.2644 24.1378C43.3978 24.1606 40.828 24.2991 37.5391 24.5335C34.2384 24.7735 30.155 25.1192 25.2602 25.6107C17.6631 26.3993 11.34 27.0132 6.32071 27.4133C3.91304 27.6104 1.82131 27.733 0 27.831V41.043C9.96877 39.629 18.9867 37.9431 27.0273 35.9868C34.9265 34.0665 40.9977 32.1927 45.2644 30.381C49.537 28.5694 51.5319 27.0324 51.2 25.7865C50.9215 24.7121 48.9207 24.1663 45.2644 24.1378ZM64 28.7763C55.2401 32.1062 44.3675 35.372 31.377 38.5369C19.2825 41.4795 8.83524 43.5849 0 44.8901V45H64V28.7763ZM2.67327 31.5462C2.70591 31.5415 2.73091 31.5459 2.76389 31.5462C2.92934 31.5516 3.10575 31.6019 3.21699 31.722C3.3869 31.8918 3.43101 32.1639 3.33027 32.3815C3.2207 32.632 2.92992 32.7831 2.65062 32.7333C2.34231 32.6898 2.10326 32.3958 2.12956 32.0957C2.13849 31.8133 2.38556 31.5811 2.67327 31.5462ZM4.93876 31.5462C5.08324 31.5518 5.21762 31.5802 5.32389 31.6781C5.52464 31.8381 5.60377 32.126 5.50513 32.3596C5.41278 32.5996 5.15973 32.7779 4.89345 32.7553C4.66474 32.7462 4.43975 32.6079 4.34973 32.4035C4.22526 32.1379 4.32666 31.7787 4.59894 31.6341C4.70045 31.5738 4.81944 31.545 4.93876 31.5462ZM2.76389 35.4372C3.03379 35.4288 3.27494 35.6132 3.35292 35.8549C3.43552 36.1237 3.30411 36.462 3.03575 36.5804C2.7662 36.7116 2.41216 36.6284 2.24283 36.3825C2.07048 36.1424 2.0943 35.7802 2.33345 35.5911C2.45065 35.4896 2.60646 35.434 2.76389 35.4372ZM4.93876 35.4372C5.15342 35.4258 5.3442 35.5577 5.45982 35.723C5.6264 35.9752 5.55671 36.3388 5.30124 36.5144C5.04498 36.7035 4.64441 36.6718 4.44035 36.4265C4.22941 36.1827 4.24333 35.7677 4.50832 35.5691C4.6233 35.4769 4.78865 35.4326 4.93876 35.4372Z" fill="#809CC8"/>
</svg>
