<svg width="290" height="102" viewBox="0 0 290 102" fill="none" xmlns="http://www.w3.org/2000/svg">
<g clip-path="url(#clip0_297_3919)">
<g clip-path="url(#clip1_297_3919)">
<path d="M201.665 90.0256C204.783 91.8836 207.773 93.7446 211.217 95.7881C209.375 97.3109 207.381 97.2929 205.825 96.5568C201.156 94.3487 196.486 92.0119 192.066 89.2832C189.532 87.7334 189.876 85.1515 192.491 83.7394C196.826 81.3222 201.295 79.1593 205.762 76.8677C206.017 76.7331 206.335 76.5326 206.529 76.5925C207.303 76.7032 208.016 77.0084 208.792 77.2477C208.545 77.897 208.56 78.7975 208.115 79.1296C206.59 80.3233 204.998 81.3255 203.471 82.3905C202.644 82.9888 201.815 83.4585 201.13 84.8258C202.61 84.8557 204.156 84.9485 205.636 84.9785C236.25 84.2675 262.105 63.9121 270.31 34.3144C271.341 30.4938 271.922 26.6195 272.759 22.7391C273.059 21.3808 273.424 20.0854 273.723 18.7271C274.044 18.6553 274.367 18.7122 274.687 18.6404C275.085 19.4033 275.807 20.2231 275.756 21.0608C275.737 23.8282 275.717 26.5957 275.312 29.3721C271.386 57.0044 250.016 80.1513 221.881 86.9178C216.498 88.2011 210.905 88.524 205.448 89.2299C204.292 89.3854 203.198 89.3465 202.04 89.3733C201.848 89.4422 201.724 89.7024 201.665 90.0256Z" fill="#BBEBFA"/>
</g>
<g clip-path="url(#clip2_297_3919)">
<path d="M88.9953 90.0256C85.8767 91.8836 82.8868 93.7446 79.4436 95.7881C81.2847 97.3109 83.2795 97.2929 84.8356 96.5568C89.504 94.3487 94.1745 92.0119 98.5939 89.2832C101.128 87.7334 100.784 85.1515 98.1694 83.7394C93.8337 81.3222 89.3651 79.1593 84.8986 76.8677C84.6434 76.7331 84.325 76.5326 84.131 76.5925C83.3571 76.7032 82.6444 77.0084 81.8685 77.2477C82.1153 77.897 82.1006 78.7975 82.5456 79.1296C84.0703 80.3233 85.6625 81.3255 87.1893 82.3905C88.016 82.9888 88.8448 83.4585 89.5302 84.8258C88.0499 84.8557 86.5043 84.9485 85.024 84.9785C54.4099 84.2675 28.5549 63.9121 20.3506 34.3144C19.3189 30.4938 18.7386 26.6195 17.901 22.7391C17.6014 21.3808 17.2364 20.0854 16.9368 18.7271C16.6163 18.6553 16.2936 18.7122 15.9731 18.6404C15.5747 19.4033 14.8536 20.2231 14.9043 21.0608C14.9236 23.8282 14.9429 26.5957 15.3481 29.3721C19.2737 57.0044 40.6439 80.1513 68.7789 86.9178C74.1625 88.2011 79.7548 88.524 85.2122 89.2299C86.3678 89.3854 87.4622 89.3465 88.6198 89.3733C88.8117 89.4422 88.9362 89.7024 88.9953 90.0256Z" fill="#BBEBFA"/>
</g>
<g clip-path="url(#clip3_297_3919)">
<path d="M99.8776 1.57286C96.9138 2.70022 95.799 5.16964 95.0673 7.57796C94.094 10.9415 93.4704 14.4456 93.2298 17.8887C92.5372 33.7788 97.9941 47.5752 108.559 59.3131C111.255 62.2878 114.422 64.9256 117.724 68.0003C113.873 69.7275 109.416 68.8667 105.343 70.4328C106.554 71.8767 108.053 71.8341 109.296 71.8322C114.398 71.8044 119.554 71.7026 124.689 71.473C127.156 71.3416 128.002 70.4863 127.639 68.1872C126.944 63.3873 124.852 59.2685 121.382 55.9587C121.234 55.8514 120.851 55.9125 120.267 55.9402C118.769 59.7147 123.374 61.9267 122.865 65.7401C116.902 63.2207 112.665 58.7892 108.899 54.0207C104.965 49.0171 101.575 43.7304 99.5092 37.7087C97.4634 31.8147 96.7686 25.7708 96.5644 19.5177C96.2325 13.2849 97.4602 7.39281 99.8776 1.57286Z" fill="#BBEBFA"/>
</g>
<g clip-path="url(#clip4_297_3919)">
<path d="M185.648 1.57286C188.612 2.70022 189.726 5.16964 190.458 7.57796C191.431 10.9415 192.055 14.4456 192.296 17.8887C192.988 33.7788 187.531 47.5752 176.967 59.3131C174.27 62.2878 171.103 64.9256 167.801 68.0003C171.652 69.7275 176.109 68.8667 180.182 70.4328C178.971 71.8767 177.472 71.8341 176.229 71.8322C171.127 71.8044 165.972 71.7026 160.836 71.473C158.37 71.3416 157.523 70.4863 157.887 68.1872C158.581 63.3873 160.673 59.2685 164.143 55.9587C164.291 55.8514 164.674 55.9125 165.259 55.9402C166.756 59.7147 162.151 61.9267 162.66 65.7401C168.623 63.2207 172.86 58.7892 176.626 54.0207C180.56 49.0171 183.95 43.7304 186.016 37.7087C188.062 31.8147 188.757 25.7708 188.961 19.5177C189.293 13.2849 188.065 7.39281 185.648 1.57286Z" fill="#BBEBFA"/>
</g>
</g>
<defs>
<clipPath id="clip0_297_3919">
<rect width="289" height="102" fill="white" transform="translate(0.5)"/>
</clipPath>
<clipPath id="clip1_297_3919">
<rect width="108.301" height="34.9496" fill="white" transform="translate(189.25 86.7363) rotate(-46.1312)"/>
</clipPath>
<clipPath id="clip2_297_3919">
<rect width="108.301" height="34.9496" fill="white" transform="matrix(-0.693009 -0.720929 -0.720929 0.693009 101.41 86.7363)"/>
</clipPath>
<clipPath id="clip3_297_3919">
<rect width="52.6402" height="63.8586" fill="white" transform="matrix(-0.587402 0.809295 0.809295 0.587402 98.9521 0.901123)"/>
</clipPath>
<clipPath id="clip4_297_3919">
<rect width="52.6402" height="63.8586" fill="white" transform="translate(186.573 0.901123) rotate(54.0271)"/>
</clipPath>
</defs>
</svg>
