<svg width="48" height="48" viewBox="0 0 48 48" fill="none" xmlns="http://www.w3.org/2000/svg">
<path d="M7 34.15V39H41V34.15H7ZM7 12H13.25C13.0833 11.7 12.95 11.325 12.85 10.875C12.75 10.425 12.7 10.0167 12.7 9.65C12.7 8.08333 13.25 6.75 14.35 5.65C15.45 4.55 16.7667 4 18.3 4C19.3333 4 20.2833 4.25833 21.15 4.775C22.0167 5.29167 22.7 5.95 23.2 6.75L24.05 8.05L24.85 6.75C25.3833 5.91667 26.0667 5.25 26.9 4.75C27.7333 4.25 28.6333 4 29.6 4C31.2 4 32.55 4.54167 33.65 5.625C34.75 6.70833 35.3 8.05 35.3 9.65C35.3 10.0167 35.2583 10.3833 35.175 10.75C35.0917 11.1167 34.9667 11.5333 34.8 12H41C41.8 12 42.5 12.3 43.1 12.9C43.7 13.5 44 14.2 44 15V39C44 39.8 43.7 40.5 43.1 41.1C42.5 41.7 41.8 42 41 42H7C6.2 42 5.5 41.7 4.9 41.1C4.3 40.5 4 39.8 4 39V15C4 14.2 4.3 13.5 4.9 12.9C5.5 12.3 6.2 12 7 12ZM7 28.8H41V15H28.55L33.55 21.95L31.15 23.75L24 13.85L16.85 23.75L14.45 21.95L19.45 15H7V28.8ZM18.35 12.3C19.0833 12.3 19.7083 12.0417 20.225 11.525C20.7417 11.0083 21 10.3833 21 9.65C21 8.91667 20.7417 8.29167 20.225 7.775C19.7083 7.25833 19.0833 7 18.35 7C17.6167 7 16.9917 7.25833 16.475 7.775C15.9583 8.29167 15.7 8.91667 15.7 9.65C15.7 10.3833 15.9583 11.0083 16.475 11.525C16.9917 12.0417 17.6167 12.3 18.35 12.3ZM29.6 12.3C30.3667 12.3 31.0083 12.0417 31.525 11.525C32.0417 11.0083 32.3 10.3833 32.3 9.65C32.3 8.91667 32.0417 8.29167 31.525 7.775C31.0083 7.25833 30.3667 7 29.6 7C28.9 7 28.2917 7.25833 27.775 7.775C27.2583 8.29167 27 8.91667 27 9.65C27 10.3833 27.2583 11.0083 27.775 11.525C28.2917 12.0417 28.9 12.3 29.6 12.3Z" fill="#2C3785"/>
</svg>
