<svg xmlns="http://www.w3.org/2000/svg" width="36.602" height="36.602">
    <defs>
        <style>
            .cls-2{fill:none;stroke:#222;stroke-linecap:round;stroke-linejoin:round;stroke-width:1.1px}
        </style>
    </defs>
    <g id="그룹_1342" data-name="그룹 1342" transform="translate(-40 -716)">
        <g id="icon_kidney" transform="translate(40 716)">
            <circle id="타원_195" data-name="타원 195" cx="18.301" cy="18.301" r="18.301" style="fill:#efefef"/>
            <g id="그룹_1205" data-name="그룹 1205" transform="translate(6.953 11)">
                <path id="패스_921" data-name="패스 921" class="cls-2" d="M28.525 326.728c.013-.025.171-.285.218-.352a3.361 3.361 0 0 1 5.626 3.674h0a4.251 4.251 0 0 0-.606 1.887 4.179 4.179 0 0 0 .452 2.248h0a3.044 3.044 0 0 1-5.18 3.157l-.125-.184a9.885 9.885 0 0 1-.381-10.429z" transform="translate(-27.22 -324.934)"/>
                <path id="패스_922" data-name="패스 922" class="cls-2" d="M73.61 326.728a8.336 8.336 0 0 0-.218-.352 3.361 3.361 0 0 0-5.626 3.674h0a4.251 4.251 0 0 1 .606 1.887 4.179 4.179 0 0 1-.452 2.248h0a3.044 3.044 0 0 0 5.18 3.157l.125-.184a9.885 9.885 0 0 0 .381-10.429z" transform="translate(-52.317 -324.934)"/>
                <path id="패스_923" data-name="패스 923" class="cls-2" d="M65.022 343.689h0a3.1 3.1 0 0 0-3.1 3.1h0" transform="translate(-48.966 -336.686)"/>
                <path id="선_70" data-name="선 70" class="cls-2" transform="translate(12.957 10.101)" d="M0 0v6.71"/>
                <path id="패스_924" data-name="패스 924" class="cls-2" d="M44.741 343.689h0a3.1 3.1 0 0 1 3.1 3.1h0" transform="translate(-38.199 -336.686)"/>
                <path id="선_71" data-name="선 71" class="cls-2" transform="translate(9.64 10.101)" d="M0 0v6.71"/>
            </g>
        </g>
    </g>
</svg>
