<svg xmlns="http://www.w3.org/2000/svg" width="36.602" height="36.602">
    <g data-name="그룹 1340">
        <circle data-name="타원 193" cx="18.301" cy="18.301" r="18.301" style="fill:#efefef"/>
        <g data-name="그룹 1203">
            <path data-name="패스 434" d="M128.516 236.259a3.723 3.723 0 0 0-2.673-.735 24.758 24.758 0 0 0-5.259.515 3.759 3.759 0 0 1-.361-.142 11.05 11.05 0 0 0-4.849-.9c-1.4 0-8.375.5-8.375 10.469a30.851 30.851 0 0 0 .533 5.337.507.507 0 0 0 .017.063c.066.2.683 1.928 2.067 1.928.74 0 .854-.114 1.94-1.2 2.061-2.061 3.536-2.464 5.388-2.464 2.537 0 4.531-2.905 5.04-3.721a6.189 6.189 0 0 0 4.453-3.713c.128-.236.25-.462.376-.67a9.192 9.192 0 0 1 1.145-1.471 2.867 2.867 0 0 0 1.024-1.969 1.74 1.74 0 0 0-.466-1.327zm-11.571 11.827c-2.073 0-3.821.463-6.128 2.771-.894.894-.894.894-1.2.894-.524 0-.942-.846-1.064-1.184a30.269 30.269 0 0 1-.507-5.1c0-8.742 5.609-9.422 7.328-9.422a10.087 10.087 0 0 1 4.436.811l.19.081a13.245 13.245 0 0 0 1.054 7.984c-.496.779-2.188 3.165-4.109 3.165zm10.239-9.232a10.176 10.176 0 0 0-1.266 1.633c-.134.221-.264.462-.4.713a5.2 5.2 0 0 1-3.573 3.154 12.356 12.356 0 0 1-.885-7.345 25.026 25.026 0 0 1 4.784-.438c1.309 0 1.772.268 1.932.428s.162.331.162.619c-.001.39-.245.676-.753 1.236z" transform="translate(-99.194 -225)" style="fill:#222"/>
        </g>
    </g>
</svg>
