<svg xmlns="http://www.w3.org/2000/svg" width="36.602" height="36.602">
    <defs>
        <style>
            .cls-2{fill:#222}
        </style>
    </defs>
    <g id="그룹_1341" data-name="그룹 1341" transform="translate(-40 -658)">
        <g id="icon_pancreas" transform="translate(40 658)">
            <circle id="타원_194" data-name="타원 194" cx="18.301" cy="18.301" r="18.301" style="fill:#efefef"/>
            <g id="그룹_1204" data-name="그룹 1204" transform="translate(6.938 10)">
                <g id="그룹_529" data-name="그룹 529">
                    <path id="패스_435" data-name="패스 435" class="cls-2" d="M44.852 321.693a2.855 2.855 0 0 0-2.242-1.271 3.4 3.4 0 0 0-1.844.6.524.524 0 0 0 .548.893 2.374 2.374 0 0 1 1.3-.447 1.871 1.871 0 0 1 1.406.854 6.569 6.569 0 0 1 .933 4.715 2.56 2.56 0 0 0-1.293-.335 2.716 2.716 0 0 0-.91.156 3.37 3.37 0 0 0-.814-2.1.527.527 0 0 0-.657-.067c-.015.01-1.524.961-4.947.961-2.346 0-6.281-.816-6.281-6.281a8.066 8.066 0 0 1 4.64-7.245 2.867 2.867 0 0 1 1.118 2.011.523.523 0 0 0 1.047 0 4.113 4.113 0 0 0-1.8-3.053.524.524 0 0 0-.485-.051c-.055.023-5.563 2.3-5.563 8.338 0 6.8 5.609 7.328 7.328 7.328a12.278 12.278 0 0 0 5.072-.895 3.017 3.017 0 0 1 .26 1.941.538.538 0 0 0 0 .078 1.237 1.237 0 0 0-.093.445c0 .881.92 1.57 2.094 1.57a1.914 1.914 0 0 0 2.077-1.441 8.042 8.042 0 0 0-.894-6.704zm-1.2 7.1c-.615 0-1.011-.286-1.041-.5l.028-.133a1.169 1.169 0 0 1 1.013-.416c.639 0 1.047.31 1.047.523s-.399.533-1.043.533z" transform="translate(-29 -311)"/>
                    <path id="패스_436" data-name="패스 436" class="cls-2" d="M40.187 323.988c-2.084 0-4.187-1.133-4.187-3.664 0-4.114 2.788-5.45 3.39-5.69h.006c.166-.091.327-.185.485-.278a4.556 4.556 0 0 1 2.4-.833 1.939 1.939 0 0 0 .761-.218 2.758 2.758 0 0 1 1.371-.3 3.494 3.494 0 0 1 1.307.388c.142.063.274.122.386.16a1.347 1.347 0 0 0 .837.042 2.71 2.71 0 0 1 .568-.069 2.869 2.869 0 0 1 1.861.611 1.349 1.349 0 0 0 1.368.184 1.631 1.631 0 0 1 1.852.405 1.8 1.8 0 0 0 1.4.37c.64 0 1.436 0 1.842.813a1.381 1.381 0 0 0 .165.236 1.542 1.542 0 0 1 .414 1.045c0 1.278-1.55 2.094-2.617 2.094a3.251 3.251 0 0 0-1.419.487 3.784 3.784 0 0 1-1.722.56 4.636 4.636 0 0 1-1.12-.155c-.47-.111-.506-.095-.6 0a.525.525 0 0 1-.136.1 5.348 5.348 0 0 1-1.8.578c-.723 0-1.469.956-1.963 1.588-.09.116-.174.222-.249.315a.508.508 0 0 1-.04.043c-.777.742-2.478 1.188-4.56 1.188zM40 315.495a.506.506 0 0 1-.166.091c-.111.039-2.783 1-2.783 4.738 0 2.491 2.616 2.617 3.141 2.617 2.107 0 3.359-.47 3.8-.88l.213-.269c.619-.793 1.555-1.991 2.788-1.991a4.448 4.448 0 0 0 1.269-.435 1.531 1.531 0 0 1 1.515-.216 3.624 3.624 0 0 0 .879.128 3 3 0 0 0 1.242-.443 4.136 4.136 0 0 1 1.9-.6c.591 0 1.57-.489 1.57-1.047 0-.154-.041-.213-.184-.391a2.311 2.311 0 0 1-.284-.422c-.1-.2-.285-.234-.906-.234a2.77 2.77 0 0 1-2.137-.677c-.292-.292-.416-.255-.823-.139A2.378 2.378 0 0 1 48.8 315a1.894 1.894 0 0 0-1.28-.436 1.813 1.813 0 0 0-.363.048 2.356 2.356 0 0 1-1.373-.075 5.43 5.43 0 0 1-.481-.2 2.815 2.815 0 0 0-.924-.3 1.838 1.838 0 0 0-.919.22 2.863 2.863 0 0 1-1.175.3 3.635 3.635 0 0 0-1.87.688c-.14.09-.278.171-.415.25z" transform="translate(-32.336 -311.949)"/>
                </g>
                <path id="패스_437" data-name="패스 437" class="cls-2" d="M51.763 319.626a.524.524 0 0 1-.472-.75.6.6 0 0 0-.309-.865.523.523 0 0 1 .456-.942 1.981 1.981 0 0 1 .652.536 1.577 1.577 0 0 1 .146 1.724.524.524 0 0 1-.473.297z" transform="translate(-39.338 -313.868)"/>
                <path id="패스_438" data-name="패스 438" class="cls-2" d="M62.074 323.607a.523.523 0 0 1-.472-.749.6.6 0 0 0-.3-.863.524.524 0 1 1 .452-.944 1.646 1.646 0 0 1 .8 2.259.523.523 0 0 1-.48.297z" transform="translate(-44.25 -315.765)"/>
                <path id="패스_439" data-name="패스 439" class="cls-2" d="M46.572 327.617a.523.523 0 0 1-.523-.523 1.427 1.427 0 0 0-.761-1.1.524.524 0 0 1 .471-.935 2.457 2.457 0 0 1 1.336 2.039.523.523 0 0 1-.523.519z" transform="translate(-36.627 -317.672)"/>
            </g>
        </g>
    </g>
</svg>
