<svg xmlns="http://www.w3.org/2000/svg" width="16" height="16">
    <g data-name="타원 60" style="fill:#fff;stroke:#222">
        <circle cx="8" cy="8" r="8" style="stroke:none"/>
        <circle cx="8" cy="8" r="7.5" style="fill:none"/>
    </g>
    <path data-name="패스 1006" d="M2.8-1.918a.664.664 0 0 1-.469-.175.626.626 0 0 1-.189-.483 2.6 2.6 0 0 1 .112-.8 2.139 2.139 0 0 1 .3-.6A2.688 2.688 0 0 1 3-4.459q.259-.217.539-.441a2.805 2.805 0 0 0 .616-.644 1.572 1.572 0 0 0 .21-.868 1.073 1.073 0 0 0-.343-.8 1.37 1.37 0 0 0-.987-.329 1.179 1.179 0 0 0-.945.42 1.685 1.685 0 0 0-.371 1.092.577.577 0 0 1-.245.49.754.754 0 0 1-.469.14.573.573 0 0 1-.49-.245A1.015 1.015 0 0 1 .378-6.1a2.746 2.746 0 0 1 .154-1.089 2.363 2.363 0 0 1 .532-.854 2.471 2.471 0 0 1 .854-.56 3.052 3.052 0 0 1 1.148-.2 3.387 3.387 0 0 1 1.19.189 2.231 2.231 0 0 1 .826.518 2.122 2.122 0 0 1 .483.777 2.836 2.836 0 0 1 .161.966 2.774 2.774 0 0 1-.1.763 2.72 2.72 0 0 1-.266.63 2.7 2.7 0 0 1-.392.518 4.574 4.574 0 0 1-.476.427Q4.2-3.78 4-3.591a1.94 1.94 0 0 0-.3.357 1.171 1.171 0 0 0-.147.336 1.5 1.5 0 0 0-.042.364.575.575 0 0 1-.189.441.743.743 0 0 1-.522.175zM2.828.49A.784.784 0 0 1 2.2.245a.864.864 0 0 1-.21-.581.805.805 0 0 1 .231-.595.823.823 0 0 1 .609-.231.756.756 0 0 1 .6.259.849.849 0 0 1 .224.567.793.793 0 0 1-.238.595.811.811 0 0 1-.588.231z" transform="translate(5 12)" style="fill:#222"/>
</svg>
