<svg xmlns="http://www.w3.org/2000/svg" width="36.602" height="36.602">
    <defs>
        <style>
            .cls-2{fill:none;stroke:#222;stroke-linecap:round;stroke-linejoin:round;stroke-width:1.1px}
        </style>
    </defs>
    <g id="그룹_1339" data-name="그룹 1339" transform="translate(-40 -542)">
        <g id="icon_lung" transform="translate(40 542)">
            <circle id="타원_192" data-name="타원 192" cx="18.301" cy="18.301" r="18.301" style="fill:#efefef"/>
            <g id="그룹_1201" data-name="그룹 1201" transform="translate(7.411 9)">
                <path id="패스_915" data-name="패스 915" class="cls-2" d="M162.568 32.391a9.181 9.181 0 0 1 4.725 5.488 13.04 13.04 0 0 1 .625 3.827 11.028 11.028 0 0 1-.594 3.819 1.659 1.659 0 0 1-2.465.815l-4.248-2.768a2.969 2.969 0 0 1-1.348-2.487v-6.64a2.291 2.291 0 0 1 3.3-2.054z" transform="translate(-146.137 -29.081)"/>
                <path id="패스_916" data-name="패스 916" class="cls-2" d="m157.489 43.189-3.479-2.267a2.43 2.43 0 0 1-1.1-2.037" transform="translate(-142.016 -33.447)"/>
                <path id="패스_917" data-name="패스 917" class="cls-2" d="M127.289 32.391a9.181 9.181 0 0 0-4.725 5.488 13.04 13.04 0 0 0-.625 3.827 11.038 11.038 0 0 0 .594 3.819 1.659 1.659 0 0 0 2.465.815l4.248-2.768a2.968 2.968 0 0 0 1.348-2.487v-6.64a2.291 2.291 0 0 0-3.3-2.054z" transform="translate(-121.939 -29.081)"/>
                <path id="패스_918" data-name="패스 918" class="cls-2" d="m139.874 33.163 3.479-2.267a2.43 2.43 0 0 0 1.1-2.037v-5.438" transform="translate(-133.567 -23.421)"/>
            </g>
        </g>
    </g>
</svg>
