<svg xmlns="http://www.w3.org/2000/svg" width="21" height="15">
    <g data-name="그룹 278">
        <path data-name="패스 82" d="M18.7 66.8h-.87a1.212 1.212 0 0 0-.435.086V65.4a1.356 1.356 0 0 0-1.3-1.4h-.87a1.356 1.356 0 0 0-1.3 1.4v3.267H6.087V65.4a1.356 1.356 0 0 0-1.3-1.4h-.87a1.356 1.356 0 0 0-1.3 1.4v1.486a1.212 1.212 0 0 0-.435-.086H1.3A1.356 1.356 0 0 0 0 68.2v5.6a1.356 1.356 0 0 0 1.3 1.4h.87a1.212 1.212 0 0 0 .435-.086V76.6a1.356 1.356 0 0 0 1.3 1.4h.87a1.356 1.356 0 0 0 1.3-1.4v-3.267h7.826V76.6a1.356 1.356 0 0 0 1.3 1.4h.87a1.356 1.356 0 0 0 1.3-1.4v-1.486a1.212 1.212 0 0 0 .435.086h.87A1.356 1.356 0 0 0 20 73.8v-5.6a1.356 1.356 0 0 0-1.3-1.4zm-16.087 7a.452.452 0 0 1-.435.467H1.3a.452.452 0 0 1-.43-.467v-5.6a.452.452 0 0 1 .435-.467h.87a.452.452 0 0 1 .435.467zm2.609 2.8a.452.452 0 0 1-.435.467h-.87a.452.452 0 0 1-.435-.467V65.4a.452.452 0 0 1 .435-.467h.87a.452.452 0 0 1 .435.467zm8.7-4.2H6.087v-2.8h7.826zm2.609-4.2v8.4a.452.452 0 0 1-.435.467h-.87a.452.452 0 0 1-.435-.467V65.4a.452.452 0 0 1 .435-.467h.87a.452.452 0 0 1 .435.467zm2.609 5.6a.452.452 0 0 1-.435.467h-.87a.452.452 0 0 1-.435-.467v-5.6a.452.452 0 0 1 .435-.467h.87a.452.452 0 0 1 .435.467z" transform="translate(.5 -63.5)" style="stroke:#000"/>
    </g>
</svg>
