<svg xmlns="http://www.w3.org/2000/svg" width="18.838" height="17.479">
    <g data-name="그룹 1346">
        <path data-name="패스 1007" d="M9.343 17.092a.567.567 0 0 1-.4-.163 68.421 68.421 0 0 0-2.158-2C3.642 12.08.389 9.138.389 5.437A4.87 4.87 0 0 1 5.323.416 4.48 4.48 0 0 1 9.38 3.174 4.382 4.382 0 0 1 13.429.416c2.5 0 5.022 1.68 5.022 5.432 0 2.834-2.87 5.519-5.909 8.362-.949.888-1.931 1.807-2.786 2.705a.571.571 0 0 1-.4.177zm-4.02-15.54a3.758 3.758 0 0 0-3.8 3.885c0 3.2 3.064 5.966 6.026 8.646.594.537 1.2 1.088 1.779 1.637.775-.787 1.617-1.575 2.435-2.341 2.728-2.552 5.549-5.191 5.549-7.531 0-3.166-2.007-4.295-3.885-4.295-2.11 0-2.918 1.693-3.511 3.28a.567.567 0 0 1-.527.37h-.014a.566.566 0 0 1-.529-.392l-.037-.113c-.652-1.636-1.526-3.146-3.486-3.146zm4.02 15.512a.567.567 0 0 1-.4-.163c-.675-.661-1.4-1.313-2.159-2C3.641 12.053.389 9.111.389 5.41A4.87 4.87 0 0 1 5.323.388 4.479 4.479 0 0 1 9.38 3.151 4.382 4.382 0 0 1 13.429.388c2.5 0 5.022 1.68 5.022 5.433 0 2.833-2.87 5.519-5.909 8.362-.95.888-1.931 1.807-2.786 2.705a.566.566 0 0 1-.4.176zM5.323 1.525a3.758 3.758 0 0 0-3.8 3.885c0 3.2 3.063 5.966 6.026 8.646.594.537 1.2 1.089 1.779 1.637.775-.786 1.617-1.574 2.435-2.34 2.727-2.552 5.549-5.192 5.549-7.531 0-3.167-2.007-4.3-3.885-4.3-2.11 0-2.918 1.694-3.511 3.281a.568.568 0 0 1-1.07-.019l-.037-.11c-.652-1.64-1.526-3.149-3.486-3.149z"/>
        <path data-name="패스 1007 - 윤곽선" d="M9.355 17.242h-.012a.713.713 0 0 1-.5-.206c-.668-.656-1.383-1.3-2.14-1.987l-.014-.012c-3.172-2.869-6.45-5.834-6.45-9.6V5.41A5.017 5.017 0 0 1 5.323.238 4.487 4.487 0 0 1 9.377 2.83 4.426 4.426 0 0 1 13.429.238c2.574 0 5.172 1.726 5.172 5.583v.027c0 2.9-2.893 5.606-5.956 8.472-.947.886-1.925 1.8-2.78 2.7a.717.717 0 0 1-.508.223zM.538 5.424c.009 3.627 3.232 6.543 6.35 9.363a74.746 74.746 0 0 1 2.163 2.007.415.415 0 0 0 .292.12h.01a.413.413 0 0 0 .294-.13c.876-.92 1.894-1.872 2.792-2.711 3.01-2.816 5.854-5.477 5.861-8.242-.011-3.637-2.451-5.265-4.871-5.265a4.174 4.174 0 0 0-3.915 2.679l-.132.267-.136-.265A4.293 4.293 0 0 0 5.323.566 4.725 4.725 0 0 0 .538 5.424zm8.8 10.506-.107-.1a87.22 87.22 0 0 0-1.756-1.615l-.025-.023C4.461 11.49 1.375 8.698 1.375 5.437V5.41a3.9 3.9 0 0 1 3.948-4.036c2.051 0 2.955 1.558 3.625 3.241v.009l.037.113a.421.421 0 0 0 .39.288h.014a.425.425 0 0 0 .392-.272c.608-1.634 1.442-3.379 3.648-3.379 1.951 0 4.035 1.168 4.035 4.446v.027c0 2.406-2.845 5.067-5.6 7.641l-.015.014a83.276 83.276 0 0 0-2.416 2.323zM1.675 5.424c.009 3.123 3.043 5.867 5.976 8.52.526.475 1.117 1.01 1.676 1.538.743-.749 1.545-1.5 2.321-2.226l.015-.014c2.7-2.528 5.493-5.141 5.5-7.412-.007-3.044-1.934-4.128-3.735-4.128-2.014 0-2.8 1.643-3.37 3.183a.72.72 0 0 1-.669.468h-.014a.717.717 0 0 1-.671-.5l-.035-.108c-.632-1.579-1.48-3.043-3.346-3.043a3.612 3.612 0 0 0-3.648 3.722z"/>
        <path data-name="패스 1007 - 윤곽선" d="M9.356 17.329h-.013a.8.8 0 0 1-.564-.231 72.26 72.26 0 0 0-2.138-1.984l-.013-.012C3.442 12.22.15 9.242.15 5.437V5.41A5.1 5.1 0 0 1 5.323.15a4.526 4.526 0 0 1 4.053 2.5 4.469 4.469 0 0 1 4.053-2.5 5.221 5.221 0 0 1 3.612 1.374 5.718 5.718 0 0 1 1.648 4.3v.027c0 2.937-2.907 5.657-5.984 8.536-.946.885-1.924 1.8-2.776 2.7a.8.8 0 0 1-.57.251zM.625 5.424c.008 3.588 3.218 6.491 6.321 9.3a76.165 76.165 0 0 1 2.166 2.009.328.328 0 0 0 .231.095h.01a.325.325 0 0 0 .23-.1c.878-.922 1.9-1.874 2.8-2.715 3-2.8 5.825-5.449 5.833-8.176-.01-3.583-2.415-5.184-4.787-5.184a4.094 4.094 0 0 0-3.837 2.633l-.209.422-.215-.422A4.162 4.162 0 0 0 5.323.653 4.639 4.639 0 0 0 .625 5.424zm8.71 10.629-.169-.161a87.015 87.015 0 0 0-1.754-1.613l-.026-.024c-3-2.713-6.1-5.518-6.1-8.817V5.41a3.991 3.991 0 0 1 4.037-4.124A3.136 3.136 0 0 1 7.73 2.321a7.265 7.265 0 0 1 1.3 2.265l.005.014.037.113a.333.333 0 0 0 .308.228h.005a.335.335 0 0 0 .31-.215 7.466 7.466 0 0 1 1.229-2.309 3.14 3.14 0 0 1 2.5-1.127 4.111 4.111 0 0 1 2.808 1.023 4.554 4.554 0 0 1 1.315 3.51v.027c0 2.444-2.859 5.118-5.624 7.705l-.015.014a83.168 83.168 0 0 0-2.413 2.32zM1.762 5.424c.009 3.085 3.028 5.815 5.947 8.455.507.458 1.075.971 1.615 1.481.727-.73 1.507-1.46 2.263-2.167l.015-.014c2.688-2.516 5.465-5.114 5.473-7.348-.007-2.979-1.889-4.04-3.647-4.04-1.958 0-2.7 1.544-3.288 3.126a.808.808 0 0 1-.755.524h-.011a.806.806 0 0 1-.754-.555l-.034-.1c-.621-1.561-1.446-3-3.263-3a3.527 3.527 0 0 0-3.561 3.638z"/>
        <path data-name="패스 1007 - 윤곽선 - 윤곽선" d="M9.356 17.479h-.013a.949.949 0 0 1-.669-.274 68.19 68.19 0 0 0-2.133-1.98l-.013-.012C3.319 12.31.001 9.309.001 5.437V5.41A5.249 5.249 0 0 1 5.323 0a4.608 4.608 0 0 1 4.051 2.36A4.557 4.557 0 0 1 13.428 0a5.37 5.37 0 0 1 3.714 1.415 5.863 5.863 0 0 1 1.7 4.406v.026c0 3-2.93 5.744-6.032 8.646-.944.884-1.92 1.8-2.77 2.69a.954.954 0 0 1-.676.3zM5.323.3A4.956 4.956 0 0 0 .301 5.41v.028c0 3.738 3.268 6.694 6.429 9.554l.013.012a71.102 71.102 0 0 1 2.142 1.989.651.651 0 0 0 .459.188h.012a.655.655 0 0 0 .464-.2c.856-.9 1.835-1.815 2.782-2.7 3.053-2.856 5.937-5.554 5.937-8.426V5.82a5.572 5.572 0 0 0-1.6-4.187A5.072 5.072 0 0 0 13.429.3a4.331 4.331 0 0 0-3.923 2.425l-.128.225-.131-.224A4.388 4.388 0 0 0 5.323.3zm4.02 16.676a.477.477 0 0 1-.336-.138 75.935 75.935 0 0 0-2.161-2.005C3.718 12.004.484 9.079.475 5.424A4.786 4.786 0 0 1 5.323.503a4.3 4.3 0 0 1 3.978 2.715l.079.155.077-.156A4.232 4.232 0 0 1 13.429.503c2.451 0 4.927 1.648 4.934 5.329-.009 2.793-2.861 5.462-5.881 8.287-.9.839-1.915 1.79-2.789 2.709a.472.472 0 0 1-.337.149zM5.323.803A4.492 4.492 0 0 0 .775 5.424c.008 3.521 3.192 6.4 6.271 9.187a74.939 74.939 0 0 1 2.17 2.014.179.179 0 0 0 .126.052h.01a.174.174 0 0 0 .122-.056c.88-.924 1.9-1.878 2.8-2.72 2.971-2.78 5.778-5.405 5.786-8.067-.004-3.476-2.329-5.031-4.631-5.031a3.956 3.956 0 0 0-3.7 2.547l-.341.689-.351-.684A4.025 4.025 0 0 0 5.323.803zm4.015 15.46L9.062 16c-.561-.538-1.167-1.083-1.75-1.614l-.026-.024c-3.023-2.731-6.149-5.559-6.149-8.925V5.41a4.137 4.137 0 0 1 4.186-4.273 3.279 3.279 0 0 1 2.516 1.082 7.4 7.4 0 0 1 1.33 2.309l.007.018.039.117a.183.183 0 0 0 .169.125.185.185 0 0 0 .168-.117 7.6 7.6 0 0 1 1.259-2.355 3.283 3.283 0 0 1 2.618-1.179A4.26 4.26 0 0 1 16.338 2.2a4.7 4.7 0 0 1 1.363 3.62v.026c0 2.509-2.883 5.206-5.671 7.815l-.015.014a82.94 82.94 0 0 0-2.409 2.316zM5.323 1.437A3.844 3.844 0 0 0 1.437 5.41v.028c0 3.233 3.076 6.015 6.05 8.706l.026.024a72.948 72.948 0 0 1 1.756 1.618l.062.06.061-.061a83.416 83.416 0 0 1 2.418-2.325l.015-.014c2.742-2.568 5.576-5.221 5.576-7.599V5.82a4.411 4.411 0 0 0-1.266-3.4 3.961 3.961 0 0 0-2.706-.983 3 3 0 0 0-2.391 1.076 7.337 7.337 0 0 0-1.2 2.263.488.488 0 0 1-.45.312h-.009a.484.484 0 0 1-.449-.331l-.041-.123a7.121 7.121 0 0 0-1.269-2.21 2.994 2.994 0 0 0-2.297-.987zm4 14.132-.106-.1a108.368 108.368 0 0 0-1.612-1.479c-2.944-2.663-5.988-5.415-6-8.566A3.674 3.674 0 0 1 5.323 1.64c1.908 0 2.762 1.482 3.4 3.083v.009l.034.1a.658.658 0 0 0 .615.453h.008a.657.657 0 0 0 .621-.421c.609-1.631 1.375-3.224 3.429-3.224 1.831 0 3.79 1.1 3.8 4.19-.008 2.3-2.811 4.921-5.52 7.458l-.016.015c-.754.706-1.534 1.436-2.259 2.164zm-4-13.629a3.38 3.38 0 0 0-3.411 3.484c.009 3.017 3 5.725 5.9 8.343.472.427 1 .906 1.512 1.384.7-.7 1.443-1.393 2.164-2.068l.015-.014c2.664-2.493 5.418-5.07 5.426-7.239-.007-2.868-1.811-3.89-3.5-3.89-1.862 0-2.576 1.5-3.147 3.028a.958.958 0 0 1-.9.622h-.008a.958.958 0 0 1-.9-.66l-.033-.1c-.596-1.502-1.39-2.89-3.118-2.89z"/>
    </g>
</svg>
