<?xml version="1.0" encoding="utf-8"?>
<!-- Generator: Adobe Illustrator 25.2.3, SVG Export Plug-In . SVG Version: 6.00 Build 0)  -->
<svg version="1.1" id="Layer_1" xmlns="http://www.w3.org/2000/svg" xmlns:xlink="http://www.w3.org/1999/xlink" x="0px" y="0px"
	 viewBox="0 0 30 30" style="enable-background:new 0 0 30 30;" xml:space="preserve">
<style type="text/css">
	.st0{fill:#333333;stroke:#333333;}
</style>
<path id="star" class="st0" d="M28.2,14.3c0.7-0.6,1-1.7,0.7-2.6c-0.3-0.9-1.1-1.6-2.1-1.7l-6.1-0.9c-0.3,0-0.6-0.2-0.7-0.5
	l-2.7-5.3c-0.7-1.3-2.3-1.8-3.5-1.1c-0.5,0.2-0.8,0.6-1.1,1.1L10,8.7C9.8,9,9.6,9.2,9.3,9.2L3.2,10c-1,0.1-1.8,0.8-2.1,1.7
	c-0.3,0.9-0.1,1.9,0.7,2.6l4.4,4.1c0.2,0.2,0.3,0.5,0.3,0.8l-1,5.8c-0.2,0.9,0.2,1.9,1,2.4c0.8,0.6,1.8,0.6,2.7,0.2l5.4-2.8
	c0.3-0.1,0.6-0.1,0.9,0l5.4,2.8c0.9,0.4,1.9,0.4,2.7-0.2c0.8-0.5,1.2-1.5,1-2.4l-1-5.8c-0.1-0.3,0.1-0.6,0.3-0.8L28.2,14.3z
	 M22,19.5l1,5.8c0.1,0.3-0.1,0.7-0.4,0.9c-0.3,0.2-0.7,0.2-1,0.1l-5.4-2.7c-0.8-0.4-1.6-0.4-2.4,0l-5.4,2.8c-0.3,0.2-0.7,0.1-1-0.1
	C7.1,26,7,25.7,7,25.3l1-5.8c0.1-0.8-0.1-1.6-0.7-2.2l-4.4-4.1c-0.3-0.2-0.4-0.6-0.2-0.9c0.1-0.3,0.4-0.6,0.8-0.6l6.1-0.8
	c0.8-0.1,1.6-0.6,1.9-1.4l2.7-5.3c0.2-0.5,0.8-0.6,1.3-0.4c0.2,0.1,0.3,0.2,0.4,0.4l2.7,5.3c0.4,0.7,1.1,1.3,2,1.4l6.1,0.9
	c0.4,0,0.6,0.3,0.8,0.6c0.1,0.3,0,0.7-0.2,0.9l-4.4,4.1C22.1,17.9,21.8,18.7,22,19.5L22,19.5z"/>
</svg>
