<svg xmlns="http://www.w3.org/2000/svg" width="36.602" height="36.602">
    <defs>
        <style>
            .cls-2{fill:#222;stroke:#222;stroke-width:.1px}
        </style>
    </defs>
    <g id="그룹_1337" data-name="그룹 1337" transform="translate(-40 -426)">
        <g id="icon_obesity" transform="translate(40 426)">
            <circle id="타원_190" data-name="타원 190" cx="18.301" cy="18.301" r="18.301" style="fill:#efefef"/>
            <g id="그룹_1202" data-name="그룹 1202" transform="translate(8.8 9)">
                <path id="패스_880" data-name="패스 880" class="cls-2" d="M64.475 310.965a.566.566 0 1 1 .565-.566.567.567 0 0 1-.565.566z" transform="translate(-55.232 -296.383)"/>
                <path id="패스_883" data-name="패스 883" class="cls-2" d="M71.4 292.588h-4.5a9.215 9.215 0 0 1 1.378-2.675.427.427 0 0 0-.629-.576 17.052 17.052 0 0 0-1.6 3.155l-8.523.1a.429.429 0 0 0-.426.43v5.47a.427.427 0 0 0 .426.424l8.067-.037a6.048 6.048 0 0 0 1.046 3.357c.15.228.234.361.417.666a17.92 17.92 0 0 1-6.692 1.435 12.963 12.963 0 0 1-6.683-1.892c.272.152 0 0 .133-.208 4.4-6.839-.95-12.833-1-12.9a.433.433 0 0 0-.6-.025.427.427 0 0 0-.025.6c.2.224 4.958 5.578.917 11.857-.83 1.284-2.368 3.673-2.11 6.4a.429.429 0 0 0 .425.388.148.148 0 0 0 .042 0 .423.423 0 0 0 .384-.463 9.137 9.137 0 0 1 1.288-4.72 18.351 18.351 0 0 0 7.239 1.822 19.447 19.447 0 0 0 7.249-1.465 8.018 8.018 0 0 1 1 4.363.424.424 0 0 0 .384.463.139.139 0 0 0 .042 0 .422.422 0 0 0 .421-.388c.263-2.722-1.28-5.112-2.105-6.4a4.785 4.785 0 0 1-.787-2.889l4.826.037a.432.432 0 0 0 .43-.428v-5.471a.429.429 0 0 0-.43-.426zm-.425 5.47h-.892v-1.745a.428.428 0 0 0-.855 0v1.745h-1.192v-1.745a.425.425 0 1 0-.85 0v1.745h-1.193v-1.745a.427.427 0 0 0-.854 0v1.745h-1.193v-1.745a.427.427 0 0 0-.855 0v1.745H61.9v-1.745a.427.427 0 0 0-.855 0v1.745h-1.189v-1.745a.427.427 0 0 0-.854 0v1.745h-1.049v-4.615h13.022z" transform="translate(-50.959 -289.2)"/>
            </g>
        </g>
    </g>
</svg>
