<svg xmlns="http://www.w3.org/2000/svg" width="53.51" height="83.895" viewBox="0 0 53.51 83.895">
    <defs>
        <style>
            .cls-1{fill:rgba(120,149,205,.8)}
        </style>
    </defs>
    <g transform="translate(-329 -638)">
        <path d="M383.625 657.148L414 626.774a6.025 6.025 0 0 1 8.494 0l5.564 5.564a6.024 6.024 0 0 1 0 8.494l-26.139 26.138-9.812-9.812a6.022 6.022 0 0 0-8.482-.01" class="cls-1" transform="translate(-47.297 12.977)"/>
        <path d="M392.107 725.985l9.812-9.811 26.138 26.138a6.024 6.024 0 0 1 0 8.494l-5.564 5.564a6.023 6.023 0 0 1-8.494 0L383.625 726a6.022 6.022 0 0 0 8.482-.01" class="cls-1" transform="translate(-47.297 -36.227)"/>
        <path fill="#7895cd" d="M367.7 702.611a5.988 5.988 0 0 1 1.752-4.246l5.575-5.575a6.024 6.024 0 0 1 8.483.01l9.811 9.812-9.811 9.812a6.024 6.024 0 0 1-8.483.01l-5.575-5.576a5.986 5.986 0 0 1-1.752-4.245" transform="translate(-38.703 -22.663)"/>
    </g>
</svg>
