<svg xmlns="http://www.w3.org/2000/svg" width="57.122" height="46.241">
    <g style="opacity:.05">
        <path data-name="패스 434" d="M162.906 238.271c-1.283-1.285-3.554-1.911-6.944-1.911a64.331 64.331 0 0 0-13.662 1.34 9.761 9.761 0 0 1-.937-.37c-1.89-.813-5.41-2.328-12.6-2.328C125.127 235 107 236.311 107 262.2a80.16 80.16 0 0 0 1.386 13.867 1.315 1.315 0 0 0 .044.163c.171.513 1.773 5.01 5.371 5.01 1.923 0 2.218-.3 5.042-3.119 5.354-5.354 9.187-6.4 14-6.4 6.591 0 11.772-7.548 13.1-9.669 7.093-1.428 9.678-6.158 11.571-9.647.332-.612.65-1.2.977-1.741a23.884 23.884 0 0 1 2.976-3.823c1.428-1.574 2.662-2.932 2.662-5.115a4.521 4.521 0 0 0-1.223-3.455zM132.841 269c-5.386 0-9.928 1.2-15.922 7.2-2.322 2.322-2.322 2.322-3.119 2.322-1.363 0-2.447-2.2-2.764-3.077a78.648 78.648 0 0 1-1.316-13.245c0-22.715 14.574-24.481 19.04-24.481 6.629 0 9.813 1.371 11.525 2.108.174.075.337.146.494.211a34.415 34.415 0 0 0 2.739 20.745c-1.292 2.009-5.687 8.217-10.677 8.217zm26.605-23.987a26.438 26.438 0 0 0-3.289 4.242c-.348.575-.687 1.2-1.042 1.852-1.767 3.257-3.762 6.923-9.285 8.194a32.1 32.1 0 0 1-2.3-19.086 65.02 65.02 0 0 1 12.429-1.137c3.4 0 4.605.7 5.02 1.113.393.393.422.861.42 1.608.001 1.016-.633 1.76-1.953 3.215z" transform="translate(-107 -235)" style="fill:#222"/>
    </g>
</svg>
