<svg xmlns="http://www.w3.org/2000/svg" width="59.092" height="48.072">
    <defs>
        <style>
            .cls-2{fill:none;stroke:#222;stroke-linecap:round;stroke-linejoin:round;stroke-width:2.5px}
        </style>
    </defs>
    <g id="lung" transform="translate(1.25 1.25)" style="opacity:.05">
        <path id="패스_915" data-name="패스 915" class="cls-2" d="M167.849 32.774a23.856 23.856 0 0 1 12.277 14.26 33.883 33.883 0 0 1 1.624 9.943 28.654 28.654 0 0 1-1.544 9.924 4.311 4.311 0 0 1-6.4 2.118l-11.038-7.193a7.714 7.714 0 0 1-3.5-6.462V38.111a5.952 5.952 0 0 1 8.586-5.337z" transform="translate(-125.159 -24.174)"/>
        <path id="패스_916" data-name="패스 916" class="cls-2" d="m164.813 50.067-9.04-5.891a6.314 6.314 0 0 1-2.867-5.291" transform="translate(-124.61 -24.755)"/>
        <path id="패스_917" data-name="패스 917" class="cls-2" d="M135.839 32.774a23.855 23.855 0 0 0-12.277 14.26 33.883 33.883 0 0 0-1.623 9.943 28.679 28.679 0 0 0 1.543 9.924 4.311 4.311 0 0 0 6.4 2.118l11.038-7.193a7.712 7.712 0 0 0 3.5-6.462V38.111a5.952 5.952 0 0 0-8.586-5.337z" transform="translate(-121.939 -24.174)"/>
        <path id="패스_918" data-name="패스 918" class="cls-2" d="m139.874 48.733 9.04-5.891a6.315 6.315 0 0 0 2.868-5.291v-14.13" transform="translate(-123.486 -23.421)"/>
    </g>
</svg>
