<svg xmlns="http://www.w3.org/2000/svg" width="51.747" height="48.061">
    <defs>
        <style>
            .cls-2{stroke:#000;stroke-width:.1px}
        </style>
    </defs>
    <g id="obesity" transform="translate(.042 .116)" style="opacity:.05">
        <g id="그룹_1202" data-name="그룹 1202">
            <path id="패스_880" data-name="패스 880" class="cls-2" d="M65.307 312.633a1.4 1.4 0 1 1 1.4-1.4 1.4 1.4 0 0 1-1.4 1.4z" transform="translate(-42.432 -276.544)"/>
            <path id="패스_883" data-name="패스 883" class="cls-2" d="M101.549 297.585H90.41a22.805 22.805 0 0 1 3.411-6.621 1.056 1.056 0 0 0-1.557-1.426 42.205 42.205 0 0 0-3.95 7.807l-21.094.24a1.063 1.063 0 0 0-1.054 1.065v13.538a1.057 1.057 0 0 0 1.054 1.05l19.966-.09a14.968 14.968 0 0 0 2.59 8.307c.371.565.579.894 1.033 1.647a44.35 44.35 0 0 1-16.562 3.551h-.01A32.083 32.083 0 0 1 57.7 321.97c.674.376 0 0 .329-.515 10.9-16.925-2.351-31.762-2.485-31.918a1.072 1.072 0 0 0-1.5-.061 1.057 1.057 0 0 0-.063 1.487c.507.555 12.27 13.8 2.27 29.345-2.054 3.177-5.86 9.09-5.221 15.828a1.061 1.061 0 0 0 1.052.96.367.367 0 0 0 .1-.01 1.046 1.046 0 0 0 .95-1.146c-.384-4.053 1.586-8.709 3.187-11.681 5.581 2.386 11.446 4.51 17.915 4.51h.01a48.132 48.132 0 0 0 17.941-3.625 19.843 19.843 0 0 1 2.478 10.8 1.049 1.049 0 0 0 .95 1.146.345.345 0 0 0 .1.01 1.045 1.045 0 0 0 1.042-.96c.65-6.738-3.167-12.651-5.21-15.839-1.476-2.278-2.351-5.868-1.947-7.149l11.944.09a1.069 1.069 0 0 0 1.065-1.06v-13.54a1.062 1.062 0 0 0-1.065-1.054zm-1.049 13.538h-2.21V306.8a1.058 1.058 0 0 0-2.117 0v4.319h-2.951V306.8a1.052 1.052 0 1 0-2.1 0v4.319h-2.956V306.8a1.057 1.057 0 0 0-2.114 0v4.319H83.1V306.8a1.058 1.058 0 0 0-2.115 0v4.319h-2.942V306.8a1.058 1.058 0 0 0-2.115 0v4.319h-2.949V306.8a1.057 1.057 0 0 0-2.114 0v4.319h-2.6V299.7H100.5z" transform="translate(-50.959 -289.2)"/>
        </g>
    </g>
</svg>
