<svg xmlns="http://www.w3.org/2000/svg" width="62.562" height="48.962">
    <defs>
        <style>
            .cls-2{fill:#222}
        </style>
    </defs>
    <g id="pancreas" style="opacity:.05">
        <g id="그룹_529" data-name="그룹 529">
            <path id="패스_435" data-name="패스 435" class="cls-2" d="M70.187 338.783a7.418 7.418 0 0 0-5.826-3.3 8.842 8.842 0 0 0-4.791 1.56 1.361 1.361 0 0 0 1.423 2.32 6.17 6.17 0 0 1 3.369-1.16 4.862 4.862 0 0 1 3.654 2.219c1.882 2.5 3.174 7.059 2.425 12.251a6.651 6.651 0 0 0-3.359-.87 7.055 7.055 0 0 0-2.364.407 8.755 8.755 0 0 0-2.118-5.45 1.37 1.37 0 0 0-1.708-.175c-.039.026-3.96 2.5-12.854 2.5-6.094 0-16.32-2.12-16.32-16.32 0-12.106 9.372-17.523 12.055-18.826.986.835 2.905 2.773 2.905 5.225a1.36 1.36 0 0 0 2.72 0c0-4.753-4.495-7.8-4.685-7.932a1.361 1.361 0 0 0-1.261-.132c-.14.055-14.452 5.96-14.452 21.661 0 17.667 14.574 19.04 19.041 19.04 7.05 0 11.283-1.458 13.177-2.324a7.839 7.839 0 0 1 .675 5.045 1.4 1.4 0 0 0-.011.2 3.213 3.213 0 0 0-.241 1.157c0 2.289 2.39 4.08 5.44 4.08 2.9 0 5.172-1.623 5.4-3.744 1.773-6.256.855-13.257-2.294-17.432zm-3.106 18.458c-1.6 0-2.628-.743-2.705-1.293.027-.118.049-.231.073-.347a3.037 3.037 0 0 1 2.632-1.08c1.661 0 2.72.805 2.72 1.36s-1.059 1.36-2.72 1.36z" transform="translate(-29 -311)"/>
            <path id="패스_436" data-name="패스 436" class="cls-2" d="M46.88 341.564c-5.416 0-10.88-2.943-10.88-9.52 0-10.689 7.245-14.161 8.808-14.785l.016-.009c.432-.235.849-.48 1.261-.722 1.809-1.064 3.68-2.164 6.236-2.164a5.038 5.038 0 0 0 1.979-.564 7.166 7.166 0 0 1 3.563-.79h.011a9.078 9.078 0 0 1 3.4 1.009c.37.163.711.318 1 .416a3.5 3.5 0 0 0 2.175.109 7.043 7.043 0 0 1 1.476-.178 7.455 7.455 0 0 1 4.835 1.589 3.505 3.505 0 0 0 3.554.477 4.239 4.239 0 0 1 4.813 1.053c.962.962 2.2.962 3.629.962 1.662 0 3.731 0 4.787 2.112a3.584 3.584 0 0 0 .428.613 4.006 4.006 0 0 1 1.074 2.715c0 3.32-4.027 5.44-6.8 5.44a8.447 8.447 0 0 0-3.687 1.266 9.833 9.833 0 0 1-4.473 1.454 12.044 12.044 0 0 1-2.911-.4c-1.22-.288-1.315-.246-1.568.005a1.368 1.368 0 0 1-.354.256 13.9 13.9 0 0 1-4.688 1.5c-1.878 0-3.818 2.483-5.1 4.126-.234.3-.452.578-.647.817a1.321 1.321 0 0 1-.1.112c-2.008 1.937-6.429 3.101-11.837 3.101zm-.5-22.068a1.313 1.313 0 0 1-.431.237c-.288.1-7.23 2.6-7.23 12.311 0 6.472 6.8 6.8 8.16 6.8 5.476 0 8.727-1.22 9.882-2.288.17-.209.355-.446.554-.7 1.609-2.06 4.041-5.174 7.245-5.174a11.557 11.557 0 0 0 3.3-1.131c1.327-1.176 2.769-.835 3.937-.56a9.415 9.415 0 0 0 2.285.332 7.786 7.786 0 0 0 3.226-1.152 10.746 10.746 0 0 1 4.934-1.568c1.537 0 4.08-1.272 4.08-2.72 0-.4-.107-.552-.479-1.016a6 6 0 0 1-.739-1.1c-.265-.532-.74-.608-2.353-.608s-3.793 0-5.552-1.759c-.758-.759-1.08-.662-2.139-.362a6.179 6.179 0 0 1-5.814-.828 4.92 4.92 0 0 0-3.325-1.132 4.711 4.711 0 0 0-.943.125 6.121 6.121 0 0 1-3.567-.2 14.677 14.677 0 0 1-1.25-.511 7.317 7.317 0 0 0-2.4-.778 4.776 4.776 0 0 0-2.387.573 7.439 7.439 0 0 1-3.053.787c-1.814 0-3.226.828-4.858 1.788-.356.218-.715.429-1.082.638z" transform="translate(-26.48 -310.283)"/>
        </g>
        <path id="패스_437" data-name="패스 437" class="cls-2" d="M53.475 323.793a1.361 1.361 0 0 1-1.227-1.947 1.555 1.555 0 0 0-.8-2.247 1.36 1.36 0 0 1 1.185-2.448 5.147 5.147 0 0 1 1.695 1.391 4.1 4.1 0 0 1 .378 4.479 1.362 1.362 0 0 1-1.231.772z" transform="translate(-21.19 -308.833)"/>
        <path id="패스_438" data-name="패스 438" class="cls-2" d="M63.791 327.774a1.358 1.358 0 0 1-1.227-1.946 1.56 1.56 0 0 0-.792-2.241 1.36 1.36 0 1 1 1.175-2.454A4.278 4.278 0 0 1 65.019 327a1.36 1.36 0 0 1-1.228.774z" transform="translate(-17.479 -307.399)"/>
        <path id="패스_439" data-name="패스 439" class="cls-2" d="M49.079 331.8a1.36 1.36 0 0 1-1.36-1.36c0-1.825-1.957-2.857-1.976-2.867a1.361 1.361 0 0 1 1.224-2.43c.141.071 3.472 1.777 3.472 5.3a1.36 1.36 0 0 1-1.36 1.357z" transform="translate(-23.238 -305.959)"/>
    </g>
</svg>
