<svg width="32" height="66" viewBox="0 0 32 66" fill="none" xmlns="http://www.w3.org/2000/svg">
<path d="M12.2274 49.4616C12.2274 48.0539 12.2274 46.5055 12.2274 45.0978C12.3684 32.7101 12.6503 20.1816 12.7913 7.79395C12.7913 6.38626 12.7913 5.11934 12.9322 3.71164C13.0732 1.88165 13.4961 -0.370658 15.8926 0.0516492C16.8794 0.192418 18.0072 2.30396 18.1482 3.57088C18.712 13.9878 19.135 24.2639 19.5579 34.6809C19.6988 37.0739 19.5579 39.467 20.8266 42.0008C22.5183 39.1855 23.928 36.2293 25.7606 33.5547C26.6064 32.2878 28.721 30.8801 29.9897 31.1616C32.5272 31.7247 32.2453 34.5401 31.3994 36.2293C27.7342 44.6755 24.069 53.2624 19.6989 61.427C16.8794 66.6354 12.6503 66.6354 9.83088 61.427C6.02466 54.5293 3.20523 47.0685 0.103869 39.8893C-0.319044 39.0447 0.667751 37.637 0.949693 36.5109C2.07746 36.9332 3.76912 36.9332 4.333 37.7778C5.74271 39.467 6.58854 41.7193 7.71631 43.6901C8.84408 45.8016 9.97184 47.9132 11.0996 49.8839C11.3815 49.6024 11.8045 49.4616 12.2274 49.4616Z" fill="#BBEBFA"/>
</svg>
