<svg width="32" height="66" viewBox="0 0 32 66" fill="none" xmlns="http://www.w3.org/2000/svg">
<path d="M19.7726 49.4616C19.7726 48.0539 19.7726 46.5055 19.7726 45.0978C19.6316 32.7101 19.3497 20.1816 19.2087 7.79395C19.2087 6.38626 19.2087 5.11934 19.0678 3.71164C18.9268 1.88164 18.5039 -0.370659 16.1074 0.0516478C15.1206 0.192417 13.9928 2.30395 13.8518 3.57088C13.288 13.9878 12.865 24.2639 12.4421 34.6809C12.3012 37.0739 12.4421 39.467 11.1734 42.0008C9.48173 39.1855 8.07202 36.2293 6.2394 33.5547C5.39357 32.2878 3.279 30.8801 2.01026 31.1616C-0.527213 31.7247 -0.245273 34.5401 0.600554 36.2293C4.2658 44.6755 7.93104 53.2624 12.3011 61.427C15.1206 66.6354 19.3497 66.6354 22.1691 61.427C25.9753 54.5293 28.7948 47.0685 31.8961 39.8893C32.319 39.0447 31.3322 37.637 31.0503 36.5109C29.9225 36.9332 28.2309 36.9332 27.667 37.7778C26.2573 39.467 25.4115 41.7193 24.2837 43.6901C23.1559 45.8016 22.0282 47.9132 20.9004 49.8839C20.6184 49.6024 20.1955 49.4616 19.7726 49.4616Z" fill="#2D3031"/>
</svg>
