<svg width="60" height="60" viewBox="0 0 60 60" fill="none" xmlns="http://www.w3.org/2000/svg">
<path fill-rule="evenodd" clip-rule="evenodd" d="M29.9549 0.701643C29.9549 0.701643 47.1274 -0.0586582 56.2315 16.9689H28.4937C28.4937 16.9689 23.2593 16.8026 18.7875 23.0672C17.503 25.6966 16.1221 28.4051 17.6716 33.7431C15.4397 30.0129 5.82178 13.4921 5.82178 13.4921C5.82178 13.4921 12.6057 1.37483 29.9549 0.701643Z" fill="#EF3F36"/>
<path fill-rule="evenodd" clip-rule="evenodd" d="M55.3405 43.9278C55.3405 43.9278 47.4165 58.9834 27.9238 58.2389C30.3323 54.1285 41.7967 34.5429 41.7967 34.5429C41.7967 34.5429 44.5665 30.1553 41.299 23.2017C39.6371 20.7861 37.9432 18.2597 32.4839 16.9134C36.8754 16.8738 56.1835 16.9134 56.1835 16.9134C56.1835 16.9134 63.417 28.7693 55.3405 43.9278Z" fill="#FCD900"/>
<path fill-rule="evenodd" clip-rule="evenodd" d="M4.68988 44.0467C4.68988 44.0467 -4.56675 29.7514 5.83793 13.4683C8.23839 17.5786 19.7028 37.1643 19.7028 37.1643C19.7028 37.1643 22.1755 41.7262 29.9068 42.4073C32.8532 42.1934 35.92 42.0113 39.8378 38.0276C37.6782 41.7974 27.988 58.2706 27.988 58.2706C27.988 58.2706 13.9545 58.5241 4.68988 44.0467Z" fill="#61BC5B"/>
<path fill-rule="evenodd" clip-rule="evenodd" d="M27.916 58.3815L31.8178 42.3201C31.8178 42.3201 36.1049 41.9875 39.7016 38.0989C37.4697 41.9717 27.916 58.3815 27.916 58.3815Z" fill="#5AB055"/>
<path fill-rule="evenodd" clip-rule="evenodd" d="M16.8848 29.7196C16.8848 22.6393 22.7053 16.8975 29.8826 16.8975C37.0599 16.8975 42.8804 22.6393 42.8804 29.7196C42.8804 36.7999 37.0599 42.5418 29.8826 42.5418C22.7053 42.5339 16.8848 36.7999 16.8848 29.7196Z" fill="white"/>
<path fill-rule="evenodd" clip-rule="evenodd" d="M19.0605 29.7199C19.0605 23.8275 23.9016 19.0439 29.8827 19.0439C35.8558 19.0439 40.7049 23.8196 40.7049 29.7199C40.7049 35.6122 35.8638 40.3958 29.8827 40.3958C23.9096 40.3958 19.0605 35.6122 19.0605 29.7199Z" fill="url(#paint0_linear_297_3951)"/>
<path fill-rule="evenodd" clip-rule="evenodd" d="M56.1756 16.9212L40.111 21.5701C40.111 21.5701 37.6864 18.0617 32.4761 16.9212C36.996 16.8974 56.1756 16.9212 56.1756 16.9212Z" fill="#EACA05"/>
<path fill-rule="evenodd" clip-rule="evenodd" d="M17.3584 33.1568C15.1025 29.2999 5.82178 13.4919 5.82178 13.4919L17.7197 25.1024C17.7197 25.1024 16.4994 27.5813 16.957 31.1294L17.3584 33.1568Z" fill="#DF3A32"/>
<defs>
<linearGradient id="paint0_linear_297_3951" x1="19.4622" y1="19.1946" x2="19.4622" y2="39.753" gradientUnits="userSpaceOnUse">
<stop stop-color="#86BBE5"/>
<stop offset="1" stop-color="#1072BA"/>
</linearGradient>
</defs>
</svg>
