<svg width="60" height="60" viewBox="0 0 60 60" fill="none" xmlns="http://www.w3.org/2000/svg">
<path d="M48.4702 5.58496C46.9694 7.28757 46.2659 11.1014 47.7902 14.9834C49.3144 18.8653 51.6594 18.0254 53.1133 21.9754C55.0362 27.1968 54.1451 34.2115 54.1451 34.2115C54.1451 34.2115 56.4666 40.7042 58.0847 33.8029C61.6725 20.8404 48.4702 8.78587 48.4702 5.58496Z" fill="url(#paint0_radial_297_3936)"/>
<path d="M30.086 59.4101C45.5395 59.4101 58.0382 47.2421 58.0382 32.2137C58.0382 17.1853 45.516 5.04004 30.086 5.04004C14.656 5.04004 2.15726 17.208 2.15726 32.2137C2.13381 47.2421 14.656 59.4101 30.086 59.4101Z" fill="url(#paint1_radial_297_3936)"/>
<path d="M51.0273 48.9905C50.4176 49.3991 49.7845 49.7623 49.1279 50.1028C49.9955 48.8542 50.8162 47.583 51.5432 46.2663C52.1294 45.6306 52.6922 45.0177 53.1378 44.3366C53.3488 43.9961 53.6068 43.6102 53.8647 43.1335C55.4359 40.3866 57.1712 35.9598 57.2181 31.4195V31.079C57.2181 29.9439 57.1008 28.7861 56.8663 27.6738C56.8898 27.7646 56.8898 27.8554 56.9132 27.9462C56.8898 27.8781 56.8898 27.81 56.8663 27.7419C56.8898 27.8554 56.9132 27.9916 56.9366 28.1051C57.2649 30.7385 57.0304 33.3037 55.8814 35.2106C55.858 35.2333 55.8345 35.2561 55.8345 35.3015C56.4208 32.4184 56.6318 29.2402 55.9752 26.062C55.9752 26.062 55.7173 24.5182 53.7475 19.819C52.6219 17.1176 50.6052 14.8928 48.8465 13.281C47.2988 11.4195 45.8683 10.1709 45.0945 9.37636C43.4764 7.71915 42.7964 6.47057 42.515 5.67601C42.2805 5.56251 39.1617 2.63402 38.9272 2.52051C37.5671 4.56364 33.3227 10.9201 35.3393 16.8451C36.2539 19.5466 38.5754 22.3389 41.0142 23.9053C41.1315 24.0188 42.4681 25.4263 43.1012 28.6045C43.7578 31.8962 43.4061 34.4388 42.0695 38.2299C40.4749 41.5444 36.3946 44.8361 32.5723 45.1766C24.4117 45.903 21.4101 41.2038 21.4101 41.2038C24.3179 42.3389 27.554 42.0892 29.5238 40.9314C31.4936 39.7509 32.6895 38.8656 33.6744 39.2061C34.6359 39.5466 35.3862 38.5478 34.7062 37.5035C33.6275 35.8917 31.6577 35.0744 29.7114 35.3923C27.7416 35.7101 25.9125 37.2311 23.333 35.7555C23.1689 35.6647 23.0047 35.5512 22.8406 35.4377C22.6764 35.3242 23.4034 35.5966 23.2158 35.4831C22.7233 35.2106 21.8088 34.6431 21.5977 34.4388C21.5508 34.3934 21.9964 34.575 21.9495 34.5296C19.5342 32.6 19.839 31.2833 19.9093 30.466C19.9797 29.8077 20.4018 28.9677 21.1522 28.6272C21.5039 28.8088 21.7384 28.9677 21.7384 28.9677C21.7384 28.9677 21.5743 28.6726 21.5039 28.5137C21.5274 28.491 21.5508 28.5137 21.5977 28.491C21.9026 28.6272 22.5357 28.9904 22.8875 29.1948C23.333 29.4899 23.4737 29.7623 23.4737 29.7623C23.4737 29.7623 23.591 29.6942 23.4972 29.4445C23.4737 29.331 23.333 28.9904 22.8875 28.6499H22.9109C23.1689 28.7861 23.4268 28.9677 23.6613 29.1494C23.7786 28.718 24.0131 28.264 23.9662 27.4467C23.9427 26.8792 23.9427 26.7203 23.8489 26.4933C23.7551 26.3117 23.8958 26.2209 24.06 26.4252C24.0365 26.2663 23.9896 26.1074 23.9193 25.9711V25.9484C24.1303 25.2674 28.2106 23.474 28.5154 23.2697C29.0079 22.9291 29.4065 22.4978 29.7114 21.9984C29.9459 21.6579 30.11 21.1584 30.1569 20.4093C30.1804 19.8644 29.9224 19.5012 25.7718 19.0926C24.6462 18.9791 23.9662 18.1845 23.591 17.4581C23.5206 17.2992 23.4503 17.163 23.3799 17.0041C23.3096 16.8451 23.2627 16.6635 23.2158 16.4819C23.8958 14.5977 25.0214 13.0086 26.7098 11.8054C26.8036 11.7146 26.3346 11.8281 26.4284 11.7373C26.5457 11.6465 27.2257 11.3741 27.3664 11.306C27.5305 11.2379 26.6864 10.8747 25.936 10.9655C25.1856 11.0563 25.0214 11.1471 24.5993 11.306C24.7635 11.1471 25.3028 10.9201 25.1856 10.9428C24.3648 11.0563 23.3565 11.533 22.4888 12.0551C22.4888 11.9643 22.5123 11.8735 22.5357 11.7827C22.1371 11.9416 21.1287 12.6227 20.8473 13.1902C20.8708 13.0767 20.8708 12.9632 20.8708 12.8497C20.5659 13.0994 20.2845 13.3718 20.05 13.6896L19.9093 13.735C17.5644 12.827 15.4773 12.7589 13.742 13.1675C13.3668 12.8043 13.1792 13.0767 12.2882 11.2152C12.2178 11.1017 12.3351 11.3287 12.2882 11.2152C12.1475 10.852 12.382 11.6919 12.2882 11.2152C10.8343 12.3503 8.91137 13.6215 7.97338 14.5069C7.97338 14.5523 9.05207 14.2118 7.97338 14.5069C7.59818 14.6204 7.62163 14.8247 7.57473 16.7997C7.55128 16.9587 7.57473 17.1176 7.55128 17.2538C6.80089 18.1618 6.30844 18.9337 6.12084 19.3423C5.1594 20.9314 4.10416 23.4286 3.09581 27.3559C3.54136 26.289 4.08071 25.2674 4.71385 24.2912C3.86966 26.3798 3.04891 29.6715 2.88477 34.7112C3.09581 33.6669 3.35376 32.6454 3.68206 31.6238C3.47101 35.8236 4.22141 40.0007 5.8629 43.8826C6.44914 45.2674 7.41058 47.3786 9.07552 49.6942C14.2814 54.9836 21.5977 58.2754 29.7114 58.2754C38.1768 58.2754 45.798 54.6885 51.0273 48.9905Z" fill="url(#paint2_linear_297_3936)"/>
<path d="M44.7422 52.8264C54.9898 51.6686 59.5391 41.4529 53.7 41.2486C48.4473 41.0897 39.8881 53.3712 44.7422 52.8264Z" fill="url(#paint3_radial_297_3936)"/>
<path d="M54.4503 39.1604C61.5087 35.1876 59.6562 26.6064 59.6562 26.6064C59.6562 26.6064 56.936 29.6711 55.0835 34.552C53.2778 39.3874 50.2059 41.5667 54.4503 39.1604Z" fill="url(#paint4_radial_297_3936)"/>
<path d="M32.0562 57.9109C41.9052 60.9529 50.3471 53.4387 45.1412 50.9416C40.4044 48.6941 27.3897 56.4807 32.0562 57.9109Z" fill="url(#paint5_radial_297_3936)"/>
<path d="M55.2009 42.8151C55.4354 42.4973 55.7637 41.4531 56.0451 40.9763C57.7804 38.2521 57.8039 36.0955 57.8039 36.0501C58.8591 30.9877 58.7653 28.8991 58.1087 25.0853C57.5928 21.9979 55.3182 17.5711 53.3484 15.4599C51.3317 13.2578 52.7387 13.9843 50.7924 12.3724C49.0805 10.5336 47.3921 8.69481 46.501 7.96836C39.9351 2.65621 40.0758 1.52114 40.2165 1.33953C40.193 1.36223 40.1696 1.38493 40.1227 1.43033C40.0523 1.13521 39.982 0.885498 39.982 0.885498C39.982 0.885498 36.3707 4.33612 35.6203 10.125C35.1279 13.8934 36.5817 17.8435 38.7157 20.3634C39.8178 21.6801 41.0607 22.8605 42.4208 23.9048C44.0154 26.1295 44.9064 28.8764 44.9064 31.8276C44.9064 39.2283 38.7157 45.1988 31.071 45.1988C30.0392 45.1988 28.984 45.0853 27.9757 44.8583C24.3644 44.1999 22.3008 42.4292 21.2456 41.226C20.6593 40.545 20.4014 40.0456 20.4014 40.0456C23.6374 41.1579 27.2018 40.9309 29.3827 39.7731C31.5635 38.5927 32.9001 37.73 33.9788 38.0705C35.0341 38.4111 35.8783 37.4122 35.1279 36.3906C34.3775 35.3691 32.4546 33.8935 29.5937 34.3021C27.4129 34.6199 25.3962 36.1182 22.5353 34.6653C22.3477 34.5745 22.1601 34.461 21.996 34.3702C21.8084 34.2567 22.6056 34.5291 22.418 34.4156C21.8553 34.1432 20.8704 33.5756 20.6124 33.3713C20.5655 33.3259 21.0345 33.5075 21.0111 33.4621C18.3378 31.5552 18.6661 30.2612 18.7364 29.444C18.8068 28.7856 19.2992 27.9684 20.12 27.6278C20.5186 27.8095 20.7531 27.9684 20.7531 27.9684C20.7531 27.9684 20.589 27.6732 20.4952 27.5143C20.5186 27.4916 20.5655 27.5143 20.589 27.4916C20.9173 27.6278 21.6442 27.9684 22.0194 28.1954C22.5118 28.4905 22.676 28.7629 22.676 28.7629C22.676 28.7629 22.8167 28.6948 22.6994 28.4451C22.6525 28.3316 22.5118 27.9911 22.0194 27.6505H22.0429C22.3242 27.7868 22.6056 27.9684 22.8636 28.15C23.0043 27.7187 23.2388 27.2646 23.1919 26.4474C23.1684 25.8798 23.1684 25.7209 23.0512 25.5166C22.9574 25.335 23.0981 25.2442 23.2857 25.4485C23.2622 25.2896 23.1919 25.1534 23.1215 24.9945V24.9718C23.356 24.2907 27.8819 22.52 28.2102 22.3157C28.7495 21.9979 29.1951 21.5666 29.5468 21.0671C29.8047 20.7266 29.9923 20.2272 30.0392 19.478C30.0627 19.1375 29.9454 18.8878 28.7495 18.6154C28.0226 18.4564 26.9204 18.3202 25.1851 18.1613C23.9423 18.0478 23.1919 17.276 22.7698 16.5495C22.6994 16.3906 22.6056 16.2544 22.5353 16.1182C22.4649 15.9593 22.3946 15.7777 22.3477 15.6188C23.0981 13.7118 24.4582 12.1 26.2169 10.9877C26.3107 10.8969 25.8183 11.0104 25.9121 10.9196C26.0293 10.8287 26.8032 10.5563 26.9439 10.4882C27.1315 10.4201 26.1935 10.0796 25.3493 10.1477C24.5051 10.2385 24.3409 10.3066 23.8719 10.4882C24.0595 10.3293 24.6458 10.125 24.5051 10.125C23.6609 10.2158 22.5353 10.6698 21.5739 11.192C21.5739 11.1012 21.5973 11.0104 21.6208 10.9196C21.1752 11.0785 20.0731 11.7595 19.7448 12.327C19.7682 12.2135 19.7682 12.1 19.7682 12.0092C19.4399 12.2589 19.1116 12.5314 18.8537 12.8492L18.8302 12.8719C16.2273 11.9638 13.9292 11.8957 12.0063 12.3043C11.5842 11.9411 10.9042 11.3736 9.94273 9.53476C9.87238 9.42126 9.84893 9.76178 9.80203 9.64827C9.42684 8.80832 9.19234 7.42353 9.23924 6.47006C9.23924 6.47006 8.46539 6.81059 7.83225 8.24078C7.715 8.49049 7.64465 8.64941 7.55085 8.78561C7.50395 8.83102 7.6212 8.30888 7.6212 8.35429C7.50395 8.5359 7.22255 8.78561 7.1053 9.12614C7.0115 9.37585 6.89425 9.51206 6.8239 9.80718L6.80045 9.82988C6.80045 9.73908 6.8239 9.46666 6.80045 9.51206C6.49561 10.1023 6.23766 10.7152 6.02661 11.3282C5.67486 12.4179 5.27621 13.9162 5.20586 15.8685C5.18241 16.0047 5.20586 16.1863 5.18242 16.3225C4.36167 17.2306 3.79887 18.0024 3.58783 18.3883C2.53258 19.9774 1.36009 22.4292 0.234498 26.3339C0.726945 25.2669 1.33664 24.2453 2.04014 23.2919C1.10214 25.3577 0.187599 28.6267 0 33.621C0.234498 32.5768 0.515896 31.5552 0.867644 30.5563C0.703495 33.8935 1.10214 38.0478 3.28298 42.7243C4.57272 45.4712 7.55085 51.0558 14.8438 55.4145C14.8438 55.4145 17.3294 57.2079 21.5739 58.5473C21.8787 58.6608 22.207 58.7743 22.5353 58.8651C22.4415 58.8197 22.3242 58.7743 22.2304 58.7516C25.0679 59.5688 27.9991 60.0002 30.9772 60.0002C41.9987 60.0002 45.2582 55.7096 45.2582 55.7096L45.2347 55.7323C45.3989 55.5961 45.5396 55.4372 45.6803 55.301C43.945 56.8901 39.9585 57.0036 38.4812 56.8901C41.0138 56.1636 42.6787 55.5507 45.9148 54.3702C46.29 54.234 46.6886 54.0751 47.0873 53.8935L47.2045 53.8254C47.2749 53.78 47.3687 53.7573 47.439 53.7119C49.0102 52.9854 50.511 52.1 51.871 51.0331C55.1306 48.5132 55.8341 46.0615 56.2093 44.4496C56.1624 44.6086 55.9982 44.9718 55.881 45.1988C55.0368 46.9241 53.1842 48.0138 51.1676 48.9218C52.129 47.696 53.0201 46.4247 53.8408 45.108C54.4974 44.4723 54.685 43.4735 55.2009 42.8151Z" fill="url(#paint6_radial_297_3936)"/>
<path d="M51.2384 48.8309C52.5751 47.4234 53.7476 45.7889 54.6621 43.9501C56.9836 39.2282 60.5715 31.3508 57.7575 23.1555C55.5297 16.6629 52.4578 13.1215 48.5651 9.64813C42.2337 4.01816 40.4749 1.4983 40.4749 0C40.4749 0 33.1586 7.87742 36.3243 16.1181C39.49 24.3587 45.9857 24.0409 50.277 32.622C55.3421 42.7242 46.1967 53.7571 38.6224 56.8445C39.0914 56.7537 55.4359 53.1669 56.3036 44.109C56.2567 44.2679 55.8815 46.7878 51.2384 48.8309Z" fill="url(#paint7_radial_297_3936)"/>
<path d="M30.0389 19.4777C30.0623 18.9328 29.7809 18.5923 25.2082 18.161C23.3322 18.0021 22.6053 16.3222 22.3942 15.5957C21.7376 17.2756 21.4562 19.0463 21.5969 21.1803C21.6907 22.5878 22.6756 24.0861 23.1212 24.9487C23.1212 24.9487 23.215 24.8125 23.2619 24.7671C24.1295 23.8817 27.7877 22.5424 28.1394 22.3607C28.5381 22.1337 29.992 21.1122 30.0389 19.4777Z" fill="url(#paint8_linear_297_3936)"/>
<path d="M9.94184 9.53443C9.87149 9.42092 9.84804 9.76144 9.80114 9.64793C9.42594 8.80798 9.19144 7.44589 9.26179 6.46973C9.26179 6.46973 8.48795 6.81025 7.8548 8.24044C7.73755 8.49016 7.6672 8.64907 7.5734 8.78528C7.5265 8.83068 7.64375 8.30855 7.64375 8.35395C7.5265 8.53556 7.24511 8.78528 7.12786 9.1031C7.03406 9.35281 6.91681 9.51173 6.84646 9.82955C6.82301 9.92035 6.86991 9.44362 6.84646 9.51173C5.34567 12.304 5.06427 16.5265 5.22842 16.3449C8.4176 13.0532 12.0523 12.2813 12.0523 12.2813C11.6068 12.0089 10.7626 11.1916 9.94184 9.53443Z" fill="url(#paint9_linear_297_3936)"/>
<path d="M21.9953 43.9042C17.6102 42.0881 12.6154 39.5228 12.803 33.7112C13.0609 26.0608 20.1897 27.5591 20.1897 27.5591C19.9317 27.6272 19.2048 28.1267 18.9468 28.6488C18.6889 29.3071 18.1964 30.8054 19.6738 32.3718C22.0188 34.8236 14.8666 38.1834 25.888 44.5398C26.1694 44.676 23.3085 44.449 21.9953 43.9042Z" fill="url(#paint10_linear_297_3936)"/>
<path d="M20.4481 40.0907C23.567 41.1349 27.1782 40.9533 29.3591 39.7955C30.813 39.001 32.689 37.7524 33.8145 38.0702C32.8297 37.6843 32.0793 37.5027 31.1647 37.48C31.0006 37.48 30.8364 37.48 30.6723 37.4573C30.344 37.4573 30.0157 37.48 29.6874 37.5027C29.1246 37.5481 28.5149 37.8886 27.9521 37.8432C27.9286 37.8432 28.4914 37.6162 28.4445 37.6162C28.1397 37.6843 27.8114 37.6843 27.4831 37.7297C27.272 37.7524 27.0844 37.7751 26.8499 37.7978C20.3543 38.3199 14.8905 34.3926 14.8905 34.3926C14.4215 35.8909 16.9776 38.9102 20.4481 40.0907Z" fill="url(#paint11_linear_297_3936)"/>
<path d="M51.2147 48.876C57.7807 42.6331 61.0871 35.0735 59.6801 26.5605C59.6801 26.5605 60.2429 30.9192 58.109 35.3686C59.1408 31.01 59.258 25.607 56.5378 19.9997C52.9265 12.531 46.9703 8.5809 44.6957 6.94639C41.2485 4.44923 39.8181 1.92936 39.7946 1.40723C38.7628 3.45036 35.644 10.4424 39.4663 16.4583C43.0307 22.111 48.6587 23.7682 52.5748 28.9441C59.8442 38.5015 51.2147 48.876 51.2147 48.876Z" fill="url(#paint12_linear_297_3936)"/>
<path d="M50.276 32.6453C47.9779 28.0596 45.1171 26.0619 42.4203 23.9053C42.7252 24.3366 42.819 24.4728 42.9831 24.7679C45.375 27.2197 48.869 33.2129 46.3364 40.7498C41.5292 54.9155 22.3473 48.2413 20.3306 46.3797C21.1513 54.575 35.315 58.5023 44.5543 53.1902C49.7836 48.3321 54.028 40.1595 50.276 32.6453Z" fill="url(#paint13_linear_297_3936)"/>
<defs>
<radialGradient id="paint0_radial_297_3936" cx="0" cy="0" r="1" gradientUnits="userSpaceOnUse" gradientTransform="translate(58.8904 18.5272) rotate(2.18835) scale(21.5938 30.8153)">
<stop offset="0.1" stop-color="#FFEA00"/>
<stop offset="0.17" stop-color="#FFDE00"/>
<stop offset="0.28" stop-color="#FFBF00"/>
<stop offset="0.43" stop-color="#FF8E00"/>
<stop offset="0.77" stop-color="#FF272D"/>
<stop offset="0.87" stop-color="#E0255A"/>
<stop offset="0.95" stop-color="#CC2477"/>
<stop offset="1" stop-color="#C42482"/>
</radialGradient>
<radialGradient id="paint1_radial_297_3936" cx="0" cy="0" r="1" gradientUnits="userSpaceOnUse" gradientTransform="translate(39.2804 9.27976) scale(61.2833 59.3276)">
<stop stop-color="#00CCDA"/>
<stop offset="0.22" stop-color="#0083FF"/>
<stop offset="0.26" stop-color="#007AF9"/>
<stop offset="0.33" stop-color="#005FE7"/>
<stop offset="0.44" stop-color="#2639AD"/>
<stop offset="0.52" stop-color="#401E84"/>
<stop offset="0.57" stop-color="#4A1475"/>
</radialGradient>
<linearGradient id="paint2_linear_297_3936" x1="34.0361" y1="44.4469" x2="22.6776" y2="6.06677" gradientUnits="userSpaceOnUse">
<stop stop-color="#000F43" stop-opacity="0.4"/>
<stop offset="0.48" stop-color="#001962" stop-opacity="0.17"/>
<stop offset="1" stop-color="#002079" stop-opacity="0"/>
</linearGradient>
<radialGradient id="paint3_radial_297_3936" cx="0" cy="0" r="1" gradientUnits="userSpaceOnUse" gradientTransform="translate(60.7832 39.913) rotate(5.43925) scale(20.595 19.9498)">
<stop stop-color="#FFEA00"/>
<stop offset="0.5" stop-color="#FF272D"/>
<stop offset="1" stop-color="#C42482"/>
</radialGradient>
<radialGradient id="paint4_radial_297_3936" cx="0" cy="0" r="1" gradientUnits="userSpaceOnUse" gradientTransform="translate(60.8615 20.7052) rotate(5.43925) scale(34.3917 33.3142)">
<stop stop-color="#FFE900"/>
<stop offset="0.16" stop-color="#FFAF0E"/>
<stop offset="0.32" stop-color="#FF7A1B"/>
<stop offset="0.47" stop-color="#FF4E26"/>
<stop offset="0.62" stop-color="#FF2C2E"/>
<stop offset="0.76" stop-color="#FF1434"/>
<stop offset="0.89" stop-color="#FF0538"/>
<stop offset="1" stop-color="#FF0039"/>
</radialGradient>
<radialGradient id="paint5_radial_297_3936" cx="0" cy="0" r="1" gradientUnits="userSpaceOnUse" gradientTransform="translate(62.5832 51.8897) rotate(5.43925) scale(31.5581 30.5694)">
<stop stop-color="#FF272D"/>
<stop offset="0.5" stop-color="#C42482"/>
<stop offset="0.99" stop-color="#620700"/>
</radialGradient>
<radialGradient id="paint6_radial_297_3936" cx="0" cy="0" r="1" gradientUnits="userSpaceOnUse" gradientTransform="translate(45.0114 24.0199) scale(49.2532 47.6814)">
<stop offset="0.16" stop-color="#FFEA00"/>
<stop offset="0.23" stop-color="#FFDE00"/>
<stop offset="0.37" stop-color="#FFBF00"/>
<stop offset="0.54" stop-color="#FF8E00"/>
<stop offset="0.76" stop-color="#FF272D"/>
<stop offset="0.8" stop-color="#F92433"/>
<stop offset="0.84" stop-color="#E91C45"/>
<stop offset="0.89" stop-color="#CF0E62"/>
<stop offset="0.94" stop-color="#B5007F"/>
</radialGradient>
<radialGradient id="paint7_radial_297_3936" cx="0" cy="0" r="1" gradientUnits="userSpaceOnUse" gradientTransform="translate(42.1878 1.90663) scale(56.1338 54.3424)">
<stop offset="0.28" stop-color="#FFEA00"/>
<stop offset="0.4" stop-color="#FFDD00"/>
<stop offset="0.63" stop-color="#FFBA00"/>
<stop offset="0.86" stop-color="#FF9100"/>
<stop offset="0.93" stop-color="#FF6711"/>
<stop offset="0.99" stop-color="#FF4A1D"/>
</radialGradient>
<linearGradient id="paint8_linear_297_3936" x1="9.33156" y1="22.2571" x2="33.4727" y2="18.4492" gradientUnits="userSpaceOnUse">
<stop stop-color="#C42482" stop-opacity="0.5"/>
<stop offset="0.47" stop-color="#FF272D" stop-opacity="0.5"/>
<stop offset="0.49" stop-color="#FF2C2C" stop-opacity="0.51"/>
<stop offset="0.68" stop-color="#FF7A1A" stop-opacity="0.72"/>
<stop offset="0.83" stop-color="#FFB20D" stop-opacity="0.87"/>
<stop offset="0.94" stop-color="#FFD605" stop-opacity="0.96"/>
<stop offset="1" stop-color="#FFE302"/>
</linearGradient>
<linearGradient id="paint9_linear_297_3936" x1="9.14908" y1="16.1192" x2="6.77554" y2="7.30702" gradientUnits="userSpaceOnUse">
<stop stop-color="#891551" stop-opacity="0.6"/>
<stop offset="1" stop-color="#C42482" stop-opacity="0"/>
</linearGradient>
<linearGradient id="paint10_linear_297_3936" x1="13.7517" y1="28.4461" x2="18.725" y2="35.6226" gradientUnits="userSpaceOnUse">
<stop offset="0.01" stop-color="#891551" stop-opacity="0.5"/>
<stop offset="0.48" stop-color="#FF272D" stop-opacity="0.5"/>
<stop offset="1" stop-color="#FF272D" stop-opacity="0"/>
</linearGradient>
<linearGradient id="paint11_linear_297_3936" x1="23.8731" y1="40.6744" x2="24.3187" y2="36.159" gradientUnits="userSpaceOnUse">
<stop stop-color="#C42482"/>
<stop offset="0.08" stop-color="#C42482" stop-opacity="0.81"/>
<stop offset="0.21" stop-color="#C42482" stop-opacity="0.57"/>
<stop offset="0.33" stop-color="#C42482" stop-opacity="0.36"/>
<stop offset="0.45" stop-color="#C42482" stop-opacity="0.2"/>
<stop offset="0.56" stop-color="#C42482" stop-opacity="0.09"/>
<stop offset="0.67" stop-color="#C42482" stop-opacity="0.02"/>
<stop offset="0.77" stop-color="#C42482" stop-opacity="0"/>
</linearGradient>
<linearGradient id="paint12_linear_297_3936" x1="39.0421" y1="2.20489" x2="57.2709" y2="44.3102" gradientUnits="userSpaceOnUse">
<stop stop-color="#FFF14F"/>
<stop offset="0.27" stop-color="#FFEE4C"/>
<stop offset="0.45" stop-color="#FFE643"/>
<stop offset="0.61" stop-color="#FFD834"/>
<stop offset="0.76" stop-color="#FFC41E"/>
<stop offset="0.89" stop-color="#FFAB02"/>
<stop offset="0.9" stop-color="#FFA900"/>
<stop offset="0.95" stop-color="#FFA000"/>
<stop offset="1" stop-color="#FF9100"/>
</linearGradient>
<linearGradient id="paint13_linear_297_3936" x1="42.863" y1="26.1694" x2="34.2532" y2="50.0498" gradientUnits="userSpaceOnUse">
<stop stop-color="#FF8E00"/>
<stop offset="0.04" stop-color="#FF8E00" stop-opacity="0.86"/>
<stop offset="0.08" stop-color="#FF8E00" stop-opacity="0.73"/>
<stop offset="0.13" stop-color="#FF8E00" stop-opacity="0.63"/>
<stop offset="0.18" stop-color="#FF8E00" stop-opacity="0.56"/>
<stop offset="0.23" stop-color="#FF8E00" stop-opacity="0.51"/>
<stop offset="0.28" stop-color="#FF8E00" stop-opacity="0.5"/>
<stop offset="0.39" stop-color="#FF8E00" stop-opacity="0.48"/>
<stop offset="0.52" stop-color="#FF8E00" stop-opacity="0.42"/>
<stop offset="0.68" stop-color="#FF8E00" stop-opacity="0.31"/>
<stop offset="0.84" stop-color="#FF8E00" stop-opacity="0.17"/>
<stop offset="1" stop-color="#FF8E00" stop-opacity="0"/>
</linearGradient>
</defs>
</svg>
