<svg width="142" height="22" viewBox="0 0 142 22" fill="none" xmlns="http://www.w3.org/2000/svg">
<path fill-rule="evenodd" clip-rule="evenodd" d="M17.5179 21.9927C11.7723 21.9927 6.02665 21.9908 0.281006 22C0.0224805 22 0 21.9247 0 21.7082C0.00936688 19.86 0.00562013 18.0118 0.00562013 16.1618C2.48035 16.1618 4.95508 16.1582 7.42981 16.1563C8.67748 16.1563 9.92327 16.1563 11.1709 16.1563C11.5344 16.1563 11.5512 16.1361 11.5531 15.7764C11.5531 15.2956 11.5531 14.8147 11.5531 14.3339C11.5531 14.0463 11.4064 13.9026 11.1129 13.9026C7.56094 13.9026 4.0109 13.9026 0.458977 13.9026C0.307234 13.9026 0.157364 13.8934 0.00562013 13.8879C0.00562013 9.33812 0.0074935 4.78835 0 0.238592C0 0.0348711 0.0487078 0 0.247286 0C6.00417 0.00550596 11.7611 0.00550596 17.5179 0.00550596C17.5179 1.71786 17.5236 3.42838 17.5217 5.14074C17.5217 5.86752 17.6097 5.83082 16.8192 5.83082C13.3441 5.83082 9.86707 5.83082 6.39196 5.83082C5.97794 5.83082 5.95359 5.85468 5.95171 6.25111C5.94984 6.71361 5.95171 7.17611 5.95171 7.63861C5.95171 8.02953 5.97982 8.05523 6.36386 8.0589C6.72355 8.06073 7.08136 8.0589 7.44105 8.0589C10.652 8.0589 13.8649 8.0589 17.0758 8.0589C17.4842 8.0589 17.5217 8.08643 17.5217 8.41678C17.5217 12.9409 17.5217 17.4668 17.5179 21.9908V21.9927Z" fill="#192B7E"/>
<path fill-rule="evenodd" clip-rule="evenodd" d="M35.7028 21.9945C29.9459 21.9945 24.189 21.9945 18.4321 22C18.2317 22 18.183 21.9651 18.1849 21.7614C18.1924 17.2116 18.1905 12.6637 18.1905 8.11394C18.331 8.10843 18.4734 8.09926 18.6139 8.09926C20.4086 8.09926 22.2014 8.09926 23.9961 8.09926C25.7908 8.09926 27.5648 8.09926 29.3502 8.09926C29.7192 8.09926 29.7398 8.07907 29.7417 7.72669C29.7417 7.23666 29.7417 6.74662 29.7417 6.25659C29.7417 5.95315 29.5825 5.80143 29.264 5.80143C25.7327 5.80143 22.2014 5.80143 18.6701 5.80143C18.509 5.80143 18.3497 5.79226 18.1886 5.78675C18.1886 3.93675 18.1924 2.08491 18.183 0.234904C18.183 0.0440307 18.2205 0.00732422 18.4153 0.00732422C24.1778 0.0146655 29.9403 0.0128302 35.7009 0.0128302C35.7009 4.44513 35.7009 8.87743 35.7009 13.3097C35.7009 13.7049 35.5017 13.9025 35.1033 13.9025C31.5701 13.9025 28.0388 13.9025 24.5056 13.9025C24.1178 13.9025 24.101 13.9191 24.0991 14.288C24.0991 14.7505 24.0991 15.213 24.0991 15.6755C24.0991 16.0034 24.2658 16.1679 24.5993 16.1692C28.1418 16.1692 31.6825 16.1692 35.2251 16.1692C35.6822 16.1692 35.699 16.1857 35.7009 16.6408C35.7009 18.4266 35.7009 20.2124 35.7009 21.9981L35.7028 21.9945Z" fill="#25B1E3"/>
<path d="M49.8093 5.71161L51.8962 13.2841L53.3762 5.71161H56.5741L53.5392 17.3898H50.7404L48.4755 9.12164L46.2106 17.3898H43.4117L40.3769 5.71161H43.5897L45.0697 13.2841L47.1435 5.71161H49.8093Z" fill="#31383F"/>
<path d="M61.4636 8.84436C64.2774 8.84436 65.6243 10.498 65.6243 13.2106C65.6243 15.9232 64.2774 17.5915 61.4636 17.5915C58.6498 17.5915 57.3028 15.9526 57.3028 13.2106C57.3028 10.4686 58.6648 8.84436 61.4636 8.84436ZM61.4636 15.4589C62.2485 15.4589 62.6775 15.0239 62.6775 13.2106C62.6775 11.3973 62.2785 10.977 61.4636 10.977C60.6487 10.977 60.2496 11.5129 60.2496 13.2106C60.2496 14.9945 60.6786 15.4589 61.4636 15.4589Z" fill="#31383F"/>
<path d="M70.3921 13.5593V17.3896H67.4153V9.04808H70.3921V10.7457C70.6 9.48305 71.31 8.84619 72.509 8.84619C72.76 8.84619 72.968 8.86087 73.086 8.9196L73.056 11.2835C72.893 11.2688 72.7301 11.2688 72.479 11.2688C71.1752 11.2688 70.3921 12.0525 70.3921 13.5611V13.5593Z" fill="#31383F"/>
<path d="M74.6259 5.71149H77.6027V12.0947H78.0917L79.4386 9.0481H82.5035L80.5196 13.0509L82.8294 17.3878H79.7496L78.0767 13.9796H77.6027V17.3878H74.6259V5.71149Z" fill="#31383F"/>
<path d="M83.2153 5.71149H92.3967V8.20753H89.42V17.3896H86.2071V8.20569H83.2153V5.70966V5.71149Z" fill="#31383F"/>
<path d="M96.0086 13.5593V17.3896H93.0318V9.04808H96.0086V10.7457C96.2166 9.48305 96.9266 8.84619 98.1255 8.84619C98.3766 8.84619 98.5845 8.86087 98.7025 8.9196L98.6726 11.2835C98.5096 11.2688 98.3466 11.2688 98.0956 11.2688C96.7917 11.2688 96.0086 12.0525 96.0086 13.5611V13.5593Z" fill="#31383F"/>
<path d="M104.049 8.84436C106.863 8.84436 108.21 10.498 108.21 13.2106C108.21 15.9232 106.863 17.5915 104.049 17.5915C101.235 17.5915 99.8884 15.9526 99.8884 13.2106C99.8884 10.4686 101.25 8.84436 104.049 8.84436ZM104.049 15.4589C104.834 15.4589 105.263 15.0239 105.263 13.2106C105.263 11.3973 104.864 10.977 104.049 10.977C103.234 10.977 102.835 11.5129 102.835 13.2106C102.835 14.9945 103.264 15.4589 104.049 15.4589Z" fill="#31383F"/>
<path d="M117.968 17.3896H114.977V12.0653C114.977 11.267 114.696 10.933 114.104 10.933C113.394 10.933 112.978 11.5276 112.978 12.5572V17.3878H110.001V9.04808H112.978V10.3255C113.274 9.44084 114.104 8.84619 115.273 8.84619C116.975 8.84619 117.968 9.87581 117.968 12.0378V17.3914V17.3896Z" fill="#31383F"/>
<path d="M119.967 5.71149H122.944V7.98912H119.967V5.71149ZM119.967 9.0481H122.944V17.3896H119.967V9.0481Z" fill="#31383F"/>
<path d="M128.941 8.84436C131.369 8.84436 132.924 10.0483 133.013 12.1663H130.097C130.037 11.3973 129.711 10.977 128.941 10.977C128.068 10.977 127.727 11.601 127.727 13.2106C127.727 14.9945 128.156 15.4589 128.941 15.4589C129.726 15.4589 130.037 15.0533 130.097 14.2696H133.013C132.925 16.3875 131.37 17.5915 128.941 17.5915C126.142 17.5915 124.78 15.9526 124.78 13.2106C124.78 10.4686 126.142 8.84436 128.941 8.84436Z" fill="#31383F"/>
<path d="M137.558 14.8642V15.0386C137.558 15.4295 137.796 15.7213 138.298 15.7213C138.8 15.7213 139.038 15.4313 139.038 15.0386C139.038 14.5889 138.757 14.3283 138.208 14.2255C135.78 13.7906 134.551 13.1812 134.551 11.4836C134.551 9.97492 135.78 8.84253 138.09 8.84253C140.4 8.84253 141.614 9.98777 141.614 11.3367V11.4377H138.712V11.322C138.712 10.9733 138.504 10.7274 138.075 10.7274C137.646 10.7274 137.453 10.9733 137.453 11.322C137.453 11.7001 137.764 11.9314 138.356 12.047C140.741 12.4967 141.998 13.0197 141.998 14.833C141.998 16.4866 140.651 17.5897 138.296 17.5897C135.808 17.5897 134.595 16.4151 134.595 14.8624H137.556L137.558 14.8642Z" fill="#31383F"/>
</svg>
