<svg data-name="그룹 2193" xmlns="http://www.w3.org/2000/svg" width="27.639" height="27.639" viewBox="0 0 27.639 27.639">
    <defs>
        <clipPath id="49f94qn7ba">
            <path data-name="사각형 6624" style="fill:none" d="M0 0h27.639v27.639H0z"/>
        </clipPath>
    </defs>
    <g data-name="그룹 2192" style="clip-path:url(#49f94qn7ba)">
        <path data-name="패스 25750" d="M11.805 0A11.806 11.806 0 1 1 0 11.806 11.806 11.806 0 0 1 11.805 0z" transform="translate(2.014 2.014)" style="stroke:#6567ac;stroke-width:2px;fill:none"/>
        <path data-name="패스 25748" d="M30.24 25.383c0-.053.056-5.371 0-6.984l-.01-.285-.283.036a8.42 8.42 0 0 1-2.839-.212 5.9 5.9 0 0 1-2.321-.991l-.168-.142-.168.142a5.9 5.9 0 0 1-2.321.991 8.42 8.42 0 0 1-2.839.212l-.283-.036L19 18.4c-.056 1.613 0 6.93 0 6.984v.012a.585.585 0 0 0 0 .072v.019a.064.064 0 0 1 .006.027c0 .038.007.076.009.114a.08.08 0 0 1 0 .015 4.072 4.072 0 0 0 .542 1.47 7.179 7.179 0 0 0 1.252 1.557 9.149 9.149 0 0 0 1.73 1.3 8.108 8.108 0 0 0 2.011.843l.066.017.066-.017a7.781 7.781 0 0 0 2-.852 9.11 9.11 0 0 0 1.7-1.31 6.091 6.091 0 0 0 1.824-3.006v-.006a.086.086 0 0 1 0-.012.32.32 0 0 1 .012-.054.051.051 0 0 1 .005-.019.147.147 0 0 1 0-.024v-.06a.45.45 0 0 0 0-.079z" transform="translate(-10.8 -9.566)" style="fill:#6567ac"/>
        <path data-name="패스 25749" d="m31.025 27.8-3.083 3.083-1.342-1.337a.6.6 0 1 0-.842.843l1.342 1.339.421.421a.6.6 0 0 0 .843 0l3.505-3.506a.6.6 0 0 0-.842-.842" transform="translate(-14.564 -15.726)" style="fill:#fff"/>
    </g>
</svg>
