<svg xmlns="http://www.w3.org/2000/svg" width="41" height="41" viewBox="0 0 41 41">
    <g data-name="그룹 2269">
        <g data-name="그룹 2261">
            <path data-name="패스 180" d="M78 263.8a20 20 0 1 0 20 20 20 20 0 0 0-20-20zm0 38.4a18.4 18.4 0 1 1 18.4-18.4A18.4 18.4 0 0 1 78 302.2z" transform="translate(-57.499 -263.304)" style="fill:#b7cf46;stroke:#b7cf46"/>
        </g>
        <g data-name="그룹 2266" transform="translate(9.542 14.386)">
            <circle data-name="타원 81" cx="1.658" cy="1.658" r="1.658" transform="translate(2)" style="fill:#b7cf46;stroke:#b7cf46"/>
            <circle data-name="타원 82" cx="1.658" cy="1.658" r="1.658" transform="translate(16.601)" style="fill:#b7cf46;stroke:#b7cf46"/>
        </g>
        <path data-name="패스 25784" d="M427.059 341.914a.841.841 0 0 1 .835.959c-.521 3.533-3.881 6.258-7.949 6.258s-7.428-2.726-7.949-6.258a.841.841 0 0 1 .835-.959.839.839 0 0 1 .83.724 6.456 6.456 0 0 0 12.568 0 .839.839 0 0 1 .83-.724z" transform="translate(-399.444 -317.485)" style="fill:#b7cf46;stroke:#b7cf46"/>
    </g>
</svg>
