<svg xmlns="http://www.w3.org/2000/svg" width="41" height="41" viewBox="0 0 41 41">
    <g data-name="그룹 2272" transform="translate(2120.77 -13569)">
        <path data-name="패스 25785" d="M389.251 257.082a20 20 0 1 0 20 20 20 20 0 0 0-20-20zm0 38.4a18.4 18.4 0 1 1 18.4-18.4 18.4 18.4 0 0 1-18.4 18.4z" transform="translate(-2489.521 13312.418)" style="fill:#ec6626;stroke:#ec6626"/>
        <path data-name="패스 25786" d="M427.059 349.131a.841.841 0 0 0 .835-.959c-.521-3.533-3.881-6.259-7.949-6.259s-7.428 2.726-7.949 6.259a.841.841 0 0 0 .835.959.839.839 0 0 0 .83-.724 6.456 6.456 0 0 1 12.568 0 .839.839 0 0 0 .83.724z" transform="translate(-2520.215 13251.515)" style="fill:#ec6626;stroke:#ec6626"/>
        <rect data-name="사각형 234" width="5.364" height="1.764" rx=".882" transform="rotate(-45 15346.25 9341.991)" style="fill:#ec6626;stroke:#ec6626"/>
        <rect data-name="사각형 235" width="5.364" height="1.764" rx=".882" transform="rotate(45 -17443.839 4265.016)" style="fill:#ec6626;stroke:#ec6626"/>
    </g>
</svg>
