<svg xmlns="http://www.w3.org/2000/svg" width="41" height="41" viewBox="0 0 41 41">
    <g data-name="그룹 2273">
        <g data-name="그룹 2265">
            <path data-name="패스 180" d="M78 263.8a20 20 0 1 0 20 20 20 20 0 0 0-20-20zm0 38.4a18.4 18.4 0 1 1 18.4-18.4A18.4 18.4 0 0 1 78 302.2z" transform="translate(-57.499 -263.304)" style="fill:#00a43a;stroke:#00a43a"/>
            <g data-name="그룹 435">
                <path data-name="패스 181" d="M97.5 307.33a1.728 1.728 0 0 0-1.285-.559 1.616 1.616 0 0 0-1.009.348 2.068 2.068 0 0 0-.408.426 2.06 2.06 0 0 0-.408-.426 1.616 1.616 0 0 0-1.009-.348 1.728 1.728 0 0 0-1.285.559 2.007 2.007 0 0 0-.509 1.371 2.389 2.389 0 0 0 .637 1.565 13.547 13.547 0 0 0 1.595 1.5c.221.188.471.4.731.629a.377.377 0 0 0 .5 0c.26-.227.511-.441.732-.63a13.567 13.567 0 0 0 1.595-1.5 2.391 2.391 0 0 0 .637-1.565 2.007 2.007 0 0 0-.514-1.37z" transform="translate(-81.642 -294.152)" style="fill:#00a43a;stroke:#00a43a"/>
                <path data-name="패스 182" d="M149.385 307.33a1.727 1.727 0 0 0-1.285-.559 1.617 1.617 0 0 0-1.01.348 2.067 2.067 0 0 0-.408.426 2.06 2.06 0 0 0-.408-.426 1.616 1.616 0 0 0-1.009-.348 1.728 1.728 0 0 0-1.285.559 2.007 2.007 0 0 0-.51 1.371 2.391 2.391 0 0 0 .637 1.565 13.575 13.575 0 0 0 1.595 1.5c.221.188.471.4.731.629a.377.377 0 0 0 .5 0c.26-.227.511-.441.732-.63a13.539 13.539 0 0 0 1.594-1.5 2.39 2.39 0 0 0 .637-1.565 2.006 2.006 0 0 0-.511-1.37z" transform="translate(-118.834 -294.152)" style="fill:#00a43a;stroke:#00a43a"/>
            </g>
            <path data-name="패스 183" d="M112.8 337.259a.8.8 0 0 0-.843-.875H93a.8.8 0 0 0-.84.86v.02a.886.886 0 0 0 .025.2 10.355 10.355 0 0 0 20.6-.009.874.874 0 0 0 .023-.193zm-10.322 8.015a8.787 8.787 0 0 1-8.6-7.129h17.21a8.787 8.787 0 0 1-8.607 7.129z" transform="translate(-81.982 -315.422)" style="fill:#00a43a;stroke:#00a43a"/>
        </g>
    </g>
</svg>
