<svg xmlns="http://www.w3.org/2000/svg" width="41" height="40.999" viewBox="0 0 41 40.999">
    <g data-name="그룹 2274" transform="translate(2066.194 -13569)">
        <path data-name="패스 25787" d="M427.059 349.131a.841.841 0 0 0 .835-.959c-.521-3.533-3.881-6.259-7.949-6.259s-7.428 2.726-7.949 6.259a.841.841 0 0 0 .835.959.839.839 0 0 0 .83-.724 6.456 6.456 0 0 1 12.568 0 .839.839 0 0 0 .83.724z" transform="translate(-2465.639 13251.515)" style="fill:#cc3b0c;stroke:#cc3b0c"/>
        <rect data-name="사각형 6656" width="5.364" height="1.764" rx=".882" transform="rotate(45 -17424.734 4311.14)" style="fill:#cc3b0c;stroke:#cc3b0c"/>
        <rect data-name="사각형 6655" width="5.364" height="1.764" rx=".882" transform="rotate(-45 15381.72 9256.358)" style="fill:#cc3b0c;stroke:#cc3b0c"/>
        <g data-name="그룹 2268">
            <path data-name="패스 170" d="M548.227 257.082a20 20 0 1 0 20 20 20 20 0 0 0-20-20zm0 38.4a18.4 18.4 0 1 1 18.4-18.4 18.4 18.4 0 0 1-18.4 18.4z" transform="translate(-2593.921 13312.418)" style="fill:#cc3b0c;stroke:#cc3b0c"/>
        </g>
    </g>
</svg>
