<svg xmlns="http://www.w3.org/2000/svg" width="41" height="41" viewBox="0 0 41 41">
    <g data-name="그룹 2276">
        <g data-name="그룹 2259">
            <path data-name="패스 191" d="M789.745 326.45a2.136 2.136 0 1 1-4.271 0c0-1.18 2.136-3.527 2.136-3.527s2.135 2.347 2.135 3.527z" transform="translate(-755.253 -303.843)" style="fill:#3c2774;stroke:#3c2774"/>
            <path data-name="패스 192" d="M700.158 257.082a20 20 0 1 0 20 20 20 20 0 0 0-20-20zm0 38.4a18.4 18.4 0 1 1 18.4-18.4 18.4 18.4 0 0 1-18.4 18.4z" transform="translate(-679.658 -256.582)" style="fill:#3c2774;stroke:#3c2774"/>
            <g data-name="그룹 441">
                <path data-name="패스 193" d="M769.087 311.19a.8.8 0 0 0-.766 1.04 3.2 3.2 0 0 0 6.059 0 .8.8 0 0 0-.766-1.04.793.793 0 0 0-.751.527 1.6 1.6 0 0 1-3.025 0 .793.793 0 0 0-.751-.527z" transform="translate(-742.906 -295.42)" style="fill:#3c2774;stroke:#3c2774"/>
                <path data-name="패스 194" d="M712.826 311.19a.8.8 0 0 0-.766 1.04 3.2 3.2 0 0 0 6.06 0 .8.8 0 0 0-.766-1.04.793.793 0 0 0-.752.527 1.6 1.6 0 0 1-3.025 0 .793.793 0 0 0-.751-.527z" transform="translate(-702.535 -295.42)" style="fill:#3c2774;stroke:#3c2774"/>
            </g>
            <path data-name="패스 195" d="M736.955 350.418a3.3 3.3 0 0 1-.46-.471 2.545 2.545 0 0 0-4.179 0l-.093.1a1.183 1.183 0 0 1-.735.447h-.032c-.337 0-.487-.135-.86-.55a2.529 2.529 0 0 0-1.884-1.082h-.042c-.057 0-.113-.006-.17-.006s-.114 0-.17.006h-.042a2.528 2.528 0 0 0-1.883 1.082c-.374.414-.523.547-.86.55h-.032a1.184 1.184 0 0 1-.735-.447l-.092-.1a2.545 2.545 0 0 0-4.179 0 3.32 3.32 0 0 1-.46.471.95.95 0 0 0-.41.677.82.82 0 0 0 1.225.71 2.645 2.645 0 0 0 .852-.758c.378-.419.525-.55.87-.55a.754.754 0 0 1 .31.057c.021.022.04.045.062.065.127.118.247.252.475.455.043.041.094.086.144.13a2.531 2.531 0 0 0 1.96.933h.038a2.54 2.54 0 0 0 2.061-1.09c.377-.418.525-.549.869-.55s.491.132.868.55a2.539 2.539 0 0 0 2.06 1.09h.038a2.533 2.533 0 0 0 1.961-.933c.051-.044.1-.089.144-.13.227-.2.347-.337.474-.455.022-.021.041-.043.062-.065a.754.754 0 0 1 .31-.057c.345 0 .493.132.87.55a2.642 2.642 0 0 0 .852.758.82.82 0 0 0 1.225-.71.95.95 0 0 0-.412-.677z" transform="translate(-708 -322.457)" style="fill:#3c2774;stroke:#3c2774"/>
        </g>
    </g>
</svg>
